<svg xmlns="http://www.w3.org/2000/svg" width="141" height="164" viewBox="0 0 141 164" fill="none">
  <path fill-rule="evenodd" clip-rule="evenodd" d="M35.3303 53.4693C35.3303 73.1022 51.2401 89.016 70.8659 89.016C90.4917 89.016 106.4 73.1022 106.4 53.4693C106.4 33.8364 90.4884 17.9209 70.8659 17.9209C51.2401 17.9209 35.3303 33.8364 35.3303 53.4693ZM70.2741 80.4897C66.8994 80.3333 63.5113 79.6554 60.2089 78.4679C56.8376 77.2602 53.6614 74.8751 50.7592 71.368C49.0559 69.2368 47.6536 66.6969 46.5909 63.8122C45.5249 60.9225 44.9868 57.3952 44.9868 53.3196C44.9868 44.911 47.6822 38.2501 52.9955 33.5286C58.277 28.8323 64.1973 26.4472 70.5918 26.4472C75.2864 26.4472 79.0966 26.8812 81.9214 27.7323C84.6655 28.5666 87.0885 29.3723 89.123 30.1309C89.5568 30.294 89.9133 30.5447 90.1823 30.8844C90.4615 31.2326 90.6094 31.675 90.6262 32.1998C90.8011 33.1502 92.6742 43.2391 92.6709 43.2256C92.7953 43.848 92.7852 44.3661 92.6423 44.8084C92.4741 45.3114 92.1294 45.7167 91.6469 45.9808L91.588 46.0145L91.5241 46.0363C91.1357 46.1793 90.5237 46.255 89.8023 45.8025C89.3517 45.5166 88.9667 45.0978 88.6455 44.5326C87.946 43.2021 87.2264 41.9204 86.505 40.7244C85.7753 39.51 85.0539 38.4856 84.3511 37.6581C83.275 36.336 81.7364 35.0442 79.7742 33.8196C77.8725 32.6338 75.2679 32.0333 72.0328 32.0333C67.0843 32.0333 63.4743 34.1375 60.9992 38.4738C58.4619 42.9195 57.1756 47.9085 57.1756 53.3146C57.1756 55.8662 57.4463 58.4599 57.9777 61.02C58.5056 63.5582 59.301 65.7668 60.3367 67.5649C61.7575 69.9332 63.5735 71.7515 65.7308 72.976C67.8847 74.2006 70.0958 74.8179 72.3069 74.8179C74.9905 74.8179 77.3143 74.3553 79.2126 73.4386C81.3413 72.4125 81.6894 71.8692 81.7331 71.7784V62.9106C81.7331 61.8274 81.5111 61.0671 81.0706 60.6517C80.4854 60.1016 79.9003 59.6626 79.3387 59.3531C78.8898 59.1075 78.4391 58.8704 78.002 58.6551C77.2201 58.2699 76.7896 57.6055 76.7896 56.788C76.7896 55.7956 77.3126 55.3347 77.6236 55.1463C78.0373 54.9007 78.5938 54.7864 79.3824 54.7864H94.0833C94.892 54.7864 95.452 54.8772 95.8438 55.0757C96.1784 55.2422 96.7433 55.6795 96.7433 56.7123C96.7433 57.1749 96.5735 58.0159 95.4419 58.4902C95.0266 58.6618 94.5928 58.9091 94.1791 59.1984C93.7991 59.491 93.4157 59.9149 93.0391 60.4582C92.8188 60.7795 92.5565 61.4506 92.5565 62.835V72.8112C92.5565 73.4857 92.4153 74.0576 92.1446 74.5117C91.8873 74.9356 91.5813 75.2603 91.171 75.5277C89.197 76.6126 86.3974 77.7665 82.8428 78.9574C79.7338 80.0019 76.181 80.5251 72.2582 80.5251C71.6058 80.5251 70.9449 80.5116 70.2724 80.483L70.2741 80.4897ZM90.6296 32.3024L90.6161 32.1308C90.6161 32.1308 90.6212 32.1561 90.6296 32.2032C90.6296 32.2368 90.6296 32.2688 90.6296 32.3041V32.3024Z" fill="url(#paint0_linear_828_3204)"/>
  <path fill-rule="evenodd" clip-rule="evenodd" d="M59.2523 4.87794H59.2237C59.0404 4.87962 58.8639 4.89308 58.6991 4.92167C56.9638 5.21771 55.5195 6.83248 55.0991 7.34719C54.1743 7.63145 53.0024 8.0301 51.6387 8.58517C52.5568 7.9359 53.9793 6.81061 54.556 5.71896C55.7986 3.36746 54.8452 0 54.8452 0C54.8452 0 51.9498 1.22285 51.1276 3.66182C50.27 6.20676 50.6231 8.33118 50.761 8.95354C48.8475 9.77943 46.623 10.8946 44.2185 12.3984C45.0206 11.5708 46.1286 10.284 46.4885 9.15707C47.3208 6.57681 45.7654 3.35569 45.7654 3.35569C45.7654 3.35569 43.0701 5.10502 42.68 7.69537C42.2815 10.3379 42.9658 12.3748 43.2298 13.0325C41.3853 14.2469 39.4499 15.6885 37.4826 17.4008C38.1132 16.4353 38.8598 15.1014 39.0094 14.0115C39.3911 11.2731 37.2557 8.31268 37.2557 8.31268C37.2557 8.31268 34.8579 10.5481 34.9235 13.2209C34.984 15.8213 35.9391 17.6884 36.3611 18.3898C34.7503 19.8028 33.195 21.4478 31.7288 23.288C32.1188 22.2888 32.4753 21.0963 32.44 20.1526C32.3391 17.3301 29.6673 14.7381 29.6673 14.7381C29.6673 14.7381 27.6529 17.4025 28.1944 20.0803C28.6971 22.5647 29.8977 24.2366 30.4794 24.933C29.1427 26.7799 27.8984 28.7933 26.7752 30.9379C27.014 29.8194 27.2006 28.4418 26.982 27.4292C26.3767 24.6134 23.2392 22.4806 23.2392 22.4806C23.2392 22.4806 21.6889 25.515 22.7044 28.1104C23.678 30.5981 25.2502 32.0817 25.9278 32.6368C24.929 34.7259 24.0462 36.926 23.3081 39.2102C23.3552 38.0328 23.303 36.5778 22.8978 35.5804C21.7948 32.8571 18.2587 31.2693 18.2587 31.2693C18.2587 31.2693 17.2381 34.5964 18.7211 37.0202C20.1419 39.3532 21.9865 40.566 22.7616 41.0016C22.1513 43.1412 21.667 45.3463 21.329 47.5969C21.1575 46.475 20.8532 45.2 20.3235 44.3556C18.7295 41.814 14.8975 40.8435 14.8975 40.8435C14.8975 40.8435 14.4587 44.3657 16.3755 46.544C18.1511 48.5591 20.1386 49.4623 21.0465 49.7937C20.8263 51.8861 20.7321 54.0106 20.7859 56.1501C20.4227 55.1359 19.9267 54.056 19.3079 53.3714C17.2532 51.1023 13.2312 50.8046 13.2312 50.8046C13.2312 50.8046 13.4162 54.4227 15.7315 56.2712C17.8131 57.9348 19.9099 58.5016 20.9171 58.69C21.0785 60.7304 21.3778 62.7808 21.8267 64.8245C21.2752 63.8539 20.5774 62.8329 19.8191 62.2408C18.1276 60.9272 15.6743 60.7085 14.2955 60.7018H14.1762C13.6129 60.7051 13.2564 60.7404 13.2564 60.7404C13.2564 60.7404 14.0837 64.3434 16.7353 65.79C19.1532 67.1104 21.3912 67.2971 22.4203 67.3021C22.8928 69.2533 23.4964 71.1456 24.2127 72.9757C23.5115 72.1447 22.6776 71.3155 21.8604 70.8815C20.7691 70.3029 19.4929 70.1212 18.3411 70.1162H18.2856C16.4882 70.1162 15.0051 70.5367 15.0051 70.5367C15.0051 70.5367 16.473 74.0118 19.3903 74.9941C21.9966 75.8721 24.2329 75.6938 25.2989 75.5189C26.1615 77.3826 27.1418 79.174 28.2179 80.8863C27.3402 80.1429 26.3061 79.4061 25.3662 79.1034C24.7222 78.8965 24.0462 78.8124 23.3787 78.8107H23.3484C20.8145 78.8107 18.4151 79.9696 18.4151 79.9696C18.4151 79.9696 20.5068 83.2008 23.6141 83.6718C26.4524 84.1007 28.7055 83.4885 29.7144 83.1285C30.925 84.8408 32.2315 86.464 33.6136 87.9913C32.5762 87.3757 31.3555 86.7819 30.3214 86.6389C30.0557 86.6019 29.785 86.5851 29.5177 86.5851C26.4843 86.5851 23.4914 88.7432 23.4914 88.7432C23.4914 88.7432 26.1699 91.6195 29.3747 91.5421C32.3273 91.4715 34.4947 90.4404 35.4313 89.9021C36.9042 91.3773 38.4444 92.7498 40.03 94.0114C38.9421 93.6026 37.6979 93.246 36.6688 93.246C36.615 93.246 36.5629 93.246 36.5108 93.2494C33.1328 93.3739 30.0204 96.5765 30.0204 96.5765C30.0204 96.5765 33.2152 98.9919 36.4267 98.3443C39.3474 97.7556 41.3298 96.3578 42.1907 95.6429C43.7864 96.7851 45.4157 97.8195 47.0568 98.7362C46.3775 98.6235 45.6662 98.5462 45.0004 98.5462H44.96C44.5363 98.5462 44.1327 98.5815 43.7696 98.6589C40.3949 99.3855 37.8374 103.153 37.8374 103.153C37.8374 103.153 41.4778 105.015 44.5884 103.794C47.314 102.726 49.0341 101.061 49.8177 100.161C51.5832 101 53.3454 101.702 55.0806 102.253C53.9406 102.27 52.7384 102.395 51.8455 102.76C48.5768 104.089 46.6734 108.326 46.6734 108.326C46.6734 108.326 50.6618 109.552 53.5724 107.772C56.2173 106.159 57.6616 104.089 58.2501 103.081C62.3865 103.823 65.8301 104.982 68.6347 106.248C63.5517 108.923 61.4768 111.394 61.4768 111.394L63.2827 113C63.2827 113 65.6485 110.122 70.8626 107.342C76.0785 110.122 78.4426 113 78.4426 113L80.2485 111.394C80.2485 111.394 78.1736 108.921 73.0905 106.248C75.8935 104.982 79.3371 103.823 83.4718 103.081C84.062 104.089 85.5063 106.159 88.1496 107.772C91.0601 109.552 95.0485 108.326 95.0485 108.326C95.0485 108.326 93.1451 104.089 89.8781 102.76C88.9852 102.396 87.7847 102.27 86.6447 102.253C88.3799 101.702 90.1421 101.002 91.9076 100.163C92.6911 101.063 94.4112 102.728 97.1352 103.794C100.244 105.015 103.888 103.153 103.888 103.153C103.888 103.153 101.329 99.3855 97.9524 98.6589C97.5892 98.5815 97.1856 98.5478 96.7636 98.5462H96.7232C96.0591 98.5462 95.3478 98.6235 94.6702 98.7362C96.3113 97.8212 97.9389 96.7867 99.5346 95.6446C100.397 96.3595 102.38 97.7556 105.299 98.346C108.505 98.9936 111.705 96.5782 111.705 96.5782C111.705 96.5782 108.594 93.3755 105.213 93.2511C105.162 93.2477 105.109 93.2477 105.055 93.2477C104.029 93.2477 102.788 93.6043 101.7 94.0114C103.286 92.7498 104.824 91.379 106.297 89.9055C107.236 90.4437 109.401 91.4732 112.352 91.5455C115.559 91.6245 118.234 88.7465 118.234 88.7465C118.234 88.7465 115.238 86.5868 112.204 86.5885C111.935 86.5885 111.666 86.6036 111.399 86.6423C110.368 86.7853 109.154 87.3757 108.118 87.9896C109.499 86.464 110.804 84.8425 112.011 83.1319C113.02 83.4935 115.273 84.1024 118.106 83.6752C121.212 83.2042 123.309 79.973 123.309 79.973C123.309 79.973 120.907 78.8141 118.373 78.8141H118.342C117.674 78.8157 116.998 78.8998 116.356 79.1067C115.419 79.4078 114.388 80.1412 113.512 80.883C114.587 79.1723 115.565 77.3826 116.428 75.5223C117.494 75.6955 119.727 75.8738 122.33 74.9975C125.251 74.0152 126.72 70.5401 126.72 70.5401C126.72 70.5401 125.235 70.1195 123.44 70.1195H123.384C122.231 70.1246 120.954 70.3063 119.863 70.8849C119.048 71.3172 118.215 72.143 117.518 72.9706C118.232 71.1439 118.834 69.2533 119.307 67.3055C120.336 67.3004 122.57 67.112 124.987 65.7933C127.64 64.3468 128.469 60.7438 128.469 60.7438C128.469 60.7438 128.114 60.7085 127.549 60.7051H127.43C126.053 60.7118 123.596 60.9288 121.908 62.2442C121.151 62.8346 120.453 63.8539 119.902 64.8211C120.351 62.7791 120.648 60.732 120.812 58.6917C121.82 58.5033 123.914 57.9348 125.995 56.2746C128.309 54.426 128.491 50.8079 128.491 50.8079C128.491 50.8079 124.469 51.1057 122.417 53.3748C121.8 54.056 121.308 55.1274 120.944 56.1367C120.998 54.0022 120.904 51.8845 120.684 49.797C121.593 49.464 123.578 48.5607 125.35 46.549C127.267 44.3724 126.831 40.8485 126.831 40.8485C126.831 40.8485 122.997 41.8191 121.407 44.3607C120.879 45.2 120.574 46.4716 120.403 47.5885C120.065 45.343 119.581 43.1412 118.97 41.005C119.747 40.5676 121.59 39.3549 123.009 37.0252C124.491 34.6014 123.47 31.2743 123.47 31.2743C123.47 31.2743 119.937 32.8622 118.831 35.5854C118.427 36.5795 118.377 38.0261 118.422 39.2018C117.684 36.921 116.801 34.7242 115.806 32.6385C116.485 32.0817 118.054 30.5998 119.026 28.1154C120.043 25.5217 118.489 22.4856 118.489 22.4856C118.489 22.4856 115.35 24.6185 114.745 27.4342C114.53 28.4418 114.713 29.8126 114.95 30.9278C113.829 28.7866 112.586 26.7782 111.253 24.9364C111.836 24.24 113.035 22.568 113.534 20.087C114.076 17.4092 112.061 14.7448 112.061 14.7448C112.061 14.7448 109.39 17.3386 109.287 20.1593C109.253 21.1013 109.61 22.2888 109.998 23.2863C108.534 21.4478 106.977 19.8044 105.368 18.3932C105.791 17.6884 106.743 15.823 106.803 13.2276C106.871 10.5549 104.473 8.31941 104.473 8.31941C104.473 8.31941 102.339 11.2815 102.719 14.0182C102.869 15.1048 103.61 16.4319 104.238 17.3974C102.274 15.6885 100.342 14.2503 98.4988 13.0376C98.7645 12.3765 99.4488 10.3429 99.0487 7.7021C98.6552 5.11174 95.9649 3.36241 95.9649 3.36241C95.9649 3.36241 94.4079 6.58354 95.2419 9.1638C95.6017 10.2891 96.7064 11.5742 97.5068 12.4017C95.104 10.8997 92.8795 9.78447 90.9677 8.95859C91.1055 8.33287 91.4553 6.2118 90.5994 3.66855C89.7805 1.22958 86.8801 0.00672835 86.8801 0.00672835C86.8801 0.00672835 85.93 3.37419 87.1693 5.72569C87.7477 6.81734 89.1685 7.94095 90.0866 8.59022C88.7246 8.03514 87.551 7.6365 86.6278 7.35223C86.2058 6.83584 84.7631 5.22444 83.0279 4.9284C82.8648 4.89981 82.6882 4.88803 82.5049 4.88467H82.478C81.0085 4.88467 79.0698 5.62477 79.0698 5.62477C79.0698 5.62477 80.2619 7.24963 82.663 8.07383C84.3966 8.66928 86.3286 7.73406 86.6934 7.5423C87.9024 7.96618 89.5216 8.58517 91.4216 9.48843C90.8533 9.38246 89.6645 9.18903 88.5027 9.18903H88.4724C87.8318 9.18903 87.2012 9.25295 86.6884 9.41947C84.1679 10.2487 82.51 13.3336 82.51 13.3336C82.51 13.3336 85.4475 14.4606 87.7275 13.2747C90.2665 11.9577 91.4872 10.0334 91.7209 9.62973C93.7219 10.5969 96.017 11.8736 98.4602 13.559C97.5539 13.2411 95.9565 12.7516 94.6702 12.7516C94.4718 12.7516 94.2801 12.7634 94.1002 12.7886C91.4166 13.1721 89.2072 15.9795 89.2072 15.9795C89.2072 15.9795 91.958 17.6346 94.4583 16.8474C97.083 16.0249 98.6233 14.4555 99.0503 13.9711C100.878 15.268 102.781 16.7936 104.7 18.5883L105.144 18.987C104.15 18.4302 102.301 17.5034 100.93 17.458C100.88 17.458 100.829 17.458 100.779 17.458C98.0667 17.458 95.4487 19.8044 95.4487 19.8044C95.4487 19.8044 97.9187 21.9541 100.57 21.6076C103.375 21.2426 105.208 19.9188 105.707 19.5185C107.518 21.2577 109.24 23.293 110.822 25.5671C109.918 24.8287 108.239 23.5874 106.879 23.3014C106.534 23.2291 106.183 23.1954 105.833 23.1938H105.8C103.355 23.1938 100.955 24.6824 100.955 24.6824C100.955 24.6824 103.059 27.2828 105.785 27.4039C108.609 27.5318 110.657 26.5696 111.278 26.2366C112.609 28.2265 113.834 30.3862 114.916 32.6805C114.096 31.784 112.879 30.6133 111.765 30.1659C111.031 29.8715 110.232 29.7655 109.46 29.7655C107.424 29.7655 105.571 30.509 105.571 30.509C105.571 30.509 107.222 33.4913 109.939 34.0951C112.551 34.6788 114.658 34.2028 115.495 33.9505C116.428 36.0799 117.242 38.312 117.903 40.6231C117.24 39.6173 116.305 38.3944 115.352 37.799C114.121 37.0337 112.573 36.8402 111.322 36.8402C110.037 36.8402 109.065 37.0437 109.065 37.0437C109.065 37.0437 110.197 40.3322 112.821 41.4255C115.266 42.4431 117.413 42.3742 118.347 42.2732C118.922 44.5625 119.35 46.9191 119.606 49.316C119.118 48.1789 118.385 46.7475 117.516 45.9704C115.574 44.2244 112.32 44.0983 111.517 44.0949H111.439C111.37 44.0949 111.333 44.0983 111.333 44.0983C111.333 44.0983 111.89 47.6036 114.333 49.1646C116.626 50.6297 118.812 50.9341 119.756 50.9963C119.924 53.3293 119.927 55.6943 119.742 58.0694C119.455 56.833 118.969 55.2486 118.229 54.3032C116.337 51.8962 112.347 51.3243 112.347 51.3243C112.347 51.3243 112.285 54.9458 114.466 56.9491C116.5 58.8229 118.636 59.521 119.579 59.7531C119.334 61.8775 118.935 64.0053 118.365 66.118C118.278 64.8884 118.059 63.4166 117.536 62.4393C116.063 59.6841 112.15 58.4024 112.15 58.4024C112.15 58.4024 111.443 62.0306 113.277 64.4309C114.947 66.6091 116.902 67.689 117.844 68.1162C117.245 70.2339 116.492 72.2743 115.607 74.2305C115.744 72.9656 115.794 71.4046 115.436 70.3046C114.442 67.2786 110.74 65.2954 110.74 65.2954C110.74 65.2954 109.386 68.816 110.805 71.5493C112.09 74.032 113.857 75.4601 114.731 76.0589C113.793 77.9091 112.737 79.682 111.586 81.3657C111.903 80.1866 112.159 78.8023 112.008 77.7392C111.549 74.5198 108.179 71.8722 108.179 71.8722C108.179 71.8722 106.195 75.1707 107.138 78.1732C107.959 80.7837 109.395 82.5011 110.19 83.3034C108.976 84.9048 107.676 86.4186 106.312 87.8399C106.802 86.76 107.241 85.5187 107.274 84.4977C107.379 81.1824 104.466 77.9243 104.466 77.9243C104.466 77.9243 101.885 80.888 102.304 84.0671C102.655 86.7836 103.758 88.7398 104.423 89.7087C102.982 91.0644 101.48 92.3209 99.9449 93.4714C100.607 92.4925 101.24 91.3588 101.448 90.3664C102.143 87.0544 99.7868 83.2614 99.7868 83.2614C99.7868 83.2614 96.6728 85.7845 96.5265 89.0527C96.4004 91.8398 97.1587 93.9996 97.6547 95.0912C95.9397 96.235 94.196 97.2493 92.4473 98.1256C93.3435 97.2224 94.2683 96.1206 94.6786 95.0946C95.9632 91.8869 94.27 87.6583 94.27 87.6583C94.27 87.6583 90.6902 89.6414 89.9672 92.9012C89.3333 95.7338 89.7419 98.0735 90.0479 99.2375C88.2134 100.025 86.3924 100.655 84.6152 101.118C85.6223 100.393 86.6598 99.4999 87.2248 98.5933C89.0828 95.5992 88.1294 91.0476 88.1294 91.0476C88.1294 91.0476 84.183 92.4067 82.8782 95.5572C81.8156 98.1088 81.7416 100.391 81.8189 101.678C79.2379 102.171 76.8957 102.83 74.7989 103.582C73.3579 104.094 72.0514 104.625 70.8677 105.163C69.684 104.625 68.3758 104.094 66.9348 103.582C64.838 102.83 62.4958 102.169 59.9131 101.678C59.9904 100.391 59.9164 98.1071 58.8555 95.5572C57.549 92.4067 53.6043 91.0476 53.6043 91.0476C53.6043 91.0476 52.6493 95.5992 54.5089 98.5933C55.0722 99.4999 56.1097 100.391 57.1152 101.116C55.3379 100.652 53.5169 100.023 51.6841 99.2358C51.9918 98.0701 52.3987 95.7321 51.7682 92.8995C51.0435 89.6397 47.4654 87.6566 47.4654 87.6566C47.4654 87.6566 45.7722 91.8852 47.0551 95.0929C47.4654 96.1173 48.3902 97.219 49.283 98.1206C47.536 97.2459 45.7923 96.2317 44.0806 95.0879C44.5766 93.9945 45.3367 91.8365 45.2139 89.0493C45.0643 85.7811 41.9486 83.258 41.9486 83.258C41.9486 83.258 39.5929 87.051 40.2907 90.363C40.4975 91.3537 41.1263 92.4857 41.7871 93.463C40.2537 92.3142 38.7555 91.0577 37.3162 89.7053C37.9804 88.7365 39.08 86.7819 39.4348 84.0654C39.8501 80.8863 37.2691 77.9226 37.2691 77.9226C37.2691 77.9226 34.3552 81.1807 34.4611 84.496C34.4947 85.517 34.9353 86.755 35.4246 87.8332C34.0592 86.4136 32.7612 84.8997 31.5488 83.3001C32.3458 82.4977 33.7818 80.7804 34.6006 78.1715C35.5423 75.1707 33.5598 71.8706 33.5598 71.8706C33.5598 71.8706 30.1852 74.5181 29.7278 77.7375C29.5765 78.7972 29.8321 80.1782 30.1499 81.3573C28.9998 79.6736 27.9438 77.9057 27.0073 76.0555C27.8816 75.4567 29.6454 74.0286 30.9301 71.5476C32.3509 68.8143 30.9973 65.2937 30.9973 65.2937C30.9973 65.2937 27.2965 67.2769 26.3011 70.3029C25.9429 71.3996 25.9917 72.9538 26.1262 74.217C25.2434 72.2625 24.4901 70.2255 23.8932 68.1129C24.8348 67.6856 26.792 66.6074 28.46 64.4292C30.2911 62.0289 29.5849 58.4007 29.5849 58.4007C29.5849 58.4007 25.6739 59.6824 24.206 62.4376C23.6814 63.4149 23.4628 64.8867 23.3737 66.1163C22.8037 64.0036 22.4051 61.8741 22.1597 59.7497C23.1029 59.5176 25.2384 58.8212 27.2746 56.9474C29.4521 54.9441 29.3882 51.3227 29.3882 51.3227C29.3882 51.3227 25.3964 51.8946 23.5082 54.3016C22.7683 55.2452 22.2824 56.8314 21.9949 58.0677C21.8099 55.6943 21.8133 53.3277 21.9814 50.9947C22.9298 50.9324 25.1106 50.6263 27.4007 49.1629C29.8455 47.6003 30.4004 44.0966 30.4004 44.0966L30.2945 44.0932H30.2171C29.4151 44.0966 26.1598 44.2227 24.2161 45.9687C23.3501 46.7441 22.6187 48.1655 22.1311 49.3025C22.3867 46.9106 22.8154 44.5591 23.3888 42.2732C24.3254 42.3742 26.4675 42.4414 28.9123 41.4255C31.5371 40.3338 32.6653 37.0437 32.6653 37.0437C32.6653 37.0437 31.6951 36.8402 30.4105 36.8402C29.1595 36.8402 27.6109 37.0337 26.3818 37.799C25.4317 38.3911 24.4985 39.6072 23.8377 40.6114C24.4985 38.3053 25.309 36.0749 26.2422 33.9505C27.0829 34.2028 29.1881 34.6754 31.7926 34.0934C34.5132 33.4896 36.1593 30.5073 36.1593 30.5073C36.1593 30.5073 34.3081 29.7638 32.2719 29.7638C31.5001 29.7638 30.7014 29.8698 29.9666 30.1642C28.8585 30.6099 27.6445 31.7739 26.8257 32.6687C27.9051 30.3795 29.1259 28.2214 30.4559 26.2366C31.0797 26.5713 33.1277 27.5301 35.9458 27.4022C38.6731 27.2828 40.7749 24.6807 40.7749 24.6807C40.7749 24.6807 38.3789 23.1921 35.934 23.1921H35.9004C35.5507 23.1921 35.1992 23.2274 34.8545 23.2997C33.4976 23.5857 31.8246 24.822 30.9183 25.5604C32.4972 23.288 34.2206 21.2527 36.0282 19.5151C36.5276 19.9155 38.362 21.2392 41.16 21.6042C43.815 21.9507 46.285 19.8011 46.285 19.8011C46.285 19.8011 43.667 17.4546 40.9565 17.4546C40.9061 17.4546 40.8556 17.4546 40.8052 17.4546C39.4331 17.5 37.5869 18.4268 36.5932 18.9836L37.0354 18.585C38.9539 16.7919 40.8556 15.268 42.6834 13.9711C43.1138 14.4572 44.6557 16.0232 47.277 16.844C49.7757 17.6295 52.5282 15.9761 52.5282 15.9761C52.5282 15.9761 50.3171 13.1688 47.6335 12.7852C47.4536 12.76 47.2619 12.7482 47.0635 12.7482C45.7806 12.7482 44.1882 13.2327 43.2803 13.5523C45.7217 11.8685 48.0135 10.5952 50.0144 9.62804C50.2498 10.0334 51.4672 11.956 54.0079 13.2714C56.2845 14.4572 59.2254 13.3302 59.2254 13.3302C59.2254 13.3302 57.5675 10.2454 55.047 9.41611C54.5358 9.2479 53.9053 9.18735 53.263 9.18567H53.2327C52.0742 9.18567 50.8888 9.37742 50.3188 9.48339C52.2171 8.58349 53.8347 7.96282 55.0436 7.54062C55.4136 7.73406 57.3405 8.66423 59.0707 8.07047C61.4735 7.24626 62.6622 5.62141 62.6622 5.62141C62.6622 5.62141 60.7269 4.8813 59.2556 4.8813L59.2523 4.87794Z" fill="url(#paint1_linear_828_3204)"/>
  <path d="M13.8524 146.404L11.4683 145.874C10.1184 145.571 9.09637 145.183 8.402 144.71C7.70764 144.237 7.37374 143.595 7.39832 142.788C7.39832 142.27 7.54994 141.806 7.85308 141.397C8.15623 140.987 8.60476 140.667 9.19671 140.44C9.79071 140.212 10.5097 140.1 11.3556 140.1C12.2015 140.1 12.9737 140.223 13.5984 140.468C14.2232 140.714 14.7066 141.077 15.0466 141.557C15.3866 142.036 15.5894 142.61 15.6529 143.28H21.8427C21.8304 141.602 21.3921 140.114 20.5277 138.819C19.6634 137.524 18.4446 136.524 16.8736 135.817C15.3026 135.11 13.4755 134.756 11.3924 134.756C9.30936 134.756 7.48025 135.106 5.86417 135.807C4.24809 136.508 2.98636 137.502 2.07897 138.79C1.16954 140.077 0.723057 141.554 0.735347 143.222C0.723057 145.23 1.37231 146.853 2.68525 148.089C3.99819 149.326 5.87851 150.228 8.32619 150.798L11.204 151.48C12.2507 151.72 13.0967 151.976 13.7419 152.246C14.385 152.517 14.8623 152.847 15.1715 153.232C15.4808 153.617 15.6406 154.068 15.6549 154.586C15.6426 155.166 15.4665 155.678 15.1244 156.121C14.7844 156.563 14.2846 156.91 13.6292 157.162C12.9737 157.414 12.1913 157.541 11.2819 157.541C10.2844 157.541 9.41792 157.393 8.67849 157.096C7.94111 156.799 7.35535 156.348 6.92726 155.742C6.49712 155.135 6.25747 154.398 6.20832 153.527H0C0.0368688 155.596 0.524331 157.328 1.45834 158.715C2.39235 160.104 3.69917 161.151 5.37671 161.858C7.05424 162.565 9.05541 162.911 11.3781 162.899C13.6251 162.899 15.5648 162.571 17.1993 161.915C18.8338 161.26 20.0792 160.309 20.9374 159.065C21.7956 157.822 22.2237 156.336 22.2237 154.605C22.2114 152.433 21.4986 150.675 20.0853 149.33C18.672 147.986 16.5951 147.011 13.8565 146.404H13.8524Z" fill="url(#paint2_linear_828_3204)"/>
  <path d="M48.0749 134.878H24.7246V140.205H33.1225V162.54H39.4721V140.205H48.0749V134.878Z" fill="url(#paint3_linear_828_3204)"/>
  <path d="M55.9281 134.878L46.5715 162.54H53.7692L55.5799 156.802H64.9097L66.7204 162.54H73.918L64.541 134.878H55.9281ZM57.028 151.68L60.1311 141.845H60.3584L63.4616 151.68H57.028Z" fill="url(#paint4_linear_828_3204)"/>
  <path d="M92.082 134.878L86.1195 146.557H85.8901L79.9091 134.878H72.4412L82.6907 153.178V162.54H89.2452V153.249L99.4046 134.878H92.082Z" fill="url(#paint5_linear_828_3204)"/>
  <path d="M111.162 146.353H98.4624V151.27H111.162V146.353Z" fill="url(#paint6_linear_828_3204)"/>
  <path d="M128.982 147.582V152.294H134.438C134.405 153.241 134.184 154.073 133.77 154.784C133.334 155.532 132.683 156.112 131.816 156.523C130.95 156.935 129.918 157.14 128.721 157.14C127.361 157.128 126.196 156.794 125.223 156.138C124.25 155.483 123.505 154.536 122.988 153.294C122.47 152.053 122.212 150.547 122.212 148.776C122.212 147.006 122.476 145.551 123.007 144.303C123.537 143.055 124.289 142.109 125.26 141.459C126.233 140.812 127.386 140.486 128.719 140.486C129.604 140.486 130.393 140.629 131.085 140.916C131.778 141.203 132.357 141.617 132.824 142.16C133.291 142.703 133.631 143.348 133.844 144.096H140.649C140.649 144.096 139.76 140.527 138.67 139.093C137.58 137.658 136.163 136.546 134.416 135.755C132.669 134.964 130.745 134.568 128.642 134.568C126.169 134.568 123.935 135.132 121.94 136.261C119.945 137.39 118.37 139.033 117.216 141.195C116.063 143.357 115.486 145.903 115.486 148.836C115.486 151.768 116.041 154.229 117.149 156.372C118.257 158.515 119.814 160.158 121.815 161.306C123.816 162.453 126.128 163.027 128.754 163.027C131.124 163.027 133.232 162.552 135.073 161.603C136.915 160.652 138.348 159.286 139.375 157.501C140.401 155.716 140.913 153.612 140.857 151.19V147.58H128.978L128.982 147.582Z" fill="url(#paint7_linear_828_3204)"/>
  <defs>
    <linearGradient id="paint0_linear_828_3204" x1="70.8642" y1="89.0144" x2="70.8642" y2="17.9209" gradientUnits="userSpaceOnUse">
      <stop stop-color="#99989C"/>
      <stop offset="0.35" stop-color="#D1D1D3"/>
      <stop offset="0.65" stop-color="#D9D9DC"/>
      <stop offset="1" stop-color="#979B9F"/>
    </linearGradient>
    <linearGradient id="paint1_linear_828_3204" x1="70.8643" y1="-0.00168205" x2="70.8643" y2="112.998" gradientUnits="userSpaceOnUse">
      <stop stop-color="#99989C"/>
      <stop offset="0.35" stop-color="#D1D1D3"/>
      <stop offset="0.65" stop-color="#D9D9DC"/>
      <stop offset="1" stop-color="#979B9F"/>
    </linearGradient>
    <linearGradient id="paint2_linear_828_3204" x1="-1.63657" y1="148.828" x2="141.259" y2="148.828" gradientUnits="userSpaceOnUse">
      <stop stop-color="#99989C"/>
      <stop offset="0.35" stop-color="#D1D1D3"/>
      <stop offset="0.65" stop-color="#D9D9DC"/>
      <stop offset="1" stop-color="#979B9F"/>
    </linearGradient>
    <linearGradient id="paint3_linear_828_3204" x1="-1.63662" y1="148.709" x2="141.259" y2="148.709" gradientUnits="userSpaceOnUse">
      <stop stop-color="#99989C"/>
      <stop offset="0.35" stop-color="#D1D1D3"/>
      <stop offset="0.65" stop-color="#D9D9DC"/>
      <stop offset="1" stop-color="#979B9F"/>
    </linearGradient>
    <linearGradient id="paint4_linear_828_3204" x1="-1.63653" y1="148.709" x2="141.259" y2="148.709" gradientUnits="userSpaceOnUse">
      <stop stop-color="#99989C"/>
      <stop offset="0.35" stop-color="#D1D1D3"/>
      <stop offset="0.65" stop-color="#D9D9DC"/>
      <stop offset="1" stop-color="#979B9F"/>
    </linearGradient>
    <linearGradient id="paint5_linear_828_3204" x1="-1.63661" y1="148.709" x2="141.259" y2="148.709" gradientUnits="userSpaceOnUse">
      <stop stop-color="#99989C"/>
      <stop offset="0.35" stop-color="#D1D1D3"/>
      <stop offset="0.65" stop-color="#D9D9DC"/>
      <stop offset="1" stop-color="#979B9F"/>
    </linearGradient>
    <linearGradient id="paint6_linear_828_3204" x1="-1.6365" y1="148.811" x2="141.259" y2="148.811" gradientUnits="userSpaceOnUse">
      <stop stop-color="#99989C"/>
      <stop offset="0.35" stop-color="#D1D1D3"/>
      <stop offset="0.65" stop-color="#D9D9DC"/>
      <stop offset="1" stop-color="#979B9F"/>
    </linearGradient>
    <linearGradient id="paint7_linear_828_3204" x1="-1.63636" y1="148.801" x2="141.259" y2="148.801" gradientUnits="userSpaceOnUse">
      <stop stop-color="#99989C"/>
      <stop offset="0.35" stop-color="#D1D1D3"/>
      <stop offset="0.65" stop-color="#D9D9DC"/>
      <stop offset="1" stop-color="#979B9F"/>
    </linearGradient>
  </defs>
</svg>