<svg xmlns="http://www.w3.org/2000/svg" width="48" height="48" viewBox="0 0 48 48" fill="none">
  <path d="M40.1841 39.6001L28.3241 27.7401C27.9641 28.0468 27.5341 28.3414 27.0341 28.6241C26.5341 28.9068 26.0667 29.1248 25.6321 29.2781C25.4881 28.9981 25.3321 28.7228 25.1641 28.4521C24.9961 28.1814 24.8234 27.9361 24.6461 27.7161C26.3234 27.0188 27.7121 25.9074 28.8121 24.3821C29.9121 22.8568 30.4614 21.0628 30.4601 19.0001C30.4601 16.3721 29.5401 14.1381 27.7001 12.2981C25.8601 10.4581 23.6267 9.53809 21.0001 9.53809C18.3734 9.53809 16.1394 10.4588 14.2981 12.3001C12.4567 14.1414 11.5367 16.3748 11.5381 19.0001C11.5381 19.4054 11.5721 19.8154 11.6401 20.2301C11.7081 20.6434 11.7847 21.0394 11.8701 21.4181C11.5767 21.4341 11.2514 21.4974 10.8941 21.6081C10.5367 21.7188 10.2161 21.8301 9.93207 21.9421C9.8134 21.5248 9.71807 21.0621 9.64607 20.5541C9.57407 20.0461 9.53807 19.5281 9.53807 19.0001C9.53807 15.8028 10.6494 13.0934 12.8721 10.8721C15.0934 8.64942 17.8027 7.53809 21.0001 7.53809C24.1974 7.53809 26.9074 8.64942 29.1301 10.8721C31.3527 13.0948 32.4627 15.8041 32.4601 19.0001C32.4601 20.4334 32.2094 21.7854 31.7081 23.0561C31.2067 24.3268 30.5687 25.4314 29.7941 26.3701L41.5981 38.1841C41.7847 38.3708 41.8867 38.5988 41.9041 38.8681C41.9214 39.1348 41.8194 39.3787 41.5981 39.6001C41.3847 39.8134 41.1487 39.9201 40.8901 39.9201C40.6314 39.9201 40.3974 39.8134 40.1841 39.6001ZM14.0001 38.1541C15.2027 38.1541 16.2214 37.7368 17.0561 36.9021C17.8907 36.0674 18.3081 35.0488 18.3081 33.8461C18.3081 32.6434 17.8907 31.6248 17.0561 30.7901C16.2214 29.9554 15.2027 29.5388 14.0001 29.5401C12.7974 29.5414 11.7787 29.9588 10.9441 30.7921C10.1094 31.6254 9.69207 32.6441 9.69207 33.8481C9.69207 35.0521 10.1094 36.0708 10.9441 36.9041C11.7787 37.7374 12.7974 38.1541 14.0001 38.1541ZM9.58007 38.0321L8.63007 38.4041C8.4034 38.4868 8.1834 38.4961 7.97007 38.4321C7.7594 38.3668 7.58873 38.2408 7.45807 38.0541L7.32807 37.7781C7.1974 37.5568 7.1394 37.3348 7.15407 37.1121C7.16873 36.8894 7.28273 36.6914 7.49607 36.5181L8.21207 35.9161C7.99207 35.2268 7.88207 34.5368 7.88207 33.8461C7.88207 33.1554 7.99207 32.4661 8.21207 31.7781L7.49607 31.1741C7.3094 31.0274 7.1954 30.8381 7.15407 30.6061C7.11407 30.3741 7.15873 30.1474 7.28807 29.9261L7.50807 29.6381C7.63873 29.4514 7.8014 29.3261 7.99607 29.2621C8.19073 29.1981 8.40273 29.2068 8.63207 29.2881L9.58207 29.6621C9.9994 29.1648 10.4921 28.7728 11.0601 28.4861C11.6281 28.1994 12.2274 27.9861 12.8581 27.8461L12.9661 26.9341C13.0141 26.6994 13.1301 26.4981 13.3141 26.3301C13.4981 26.1621 13.7074 26.0781 13.9421 26.0781H14.2041C14.4401 26.0781 14.6494 26.1634 14.8321 26.3341C15.0161 26.5074 15.1327 26.7114 15.1821 26.9461L15.2881 27.8461C15.9187 27.9874 16.5187 28.2008 17.0881 28.4861C17.6574 28.7714 18.1501 29.1634 18.5661 29.6621L19.5161 29.2881C19.7427 29.2068 19.9607 29.1981 20.1701 29.2621C20.3794 29.3261 20.5481 29.4514 20.6761 29.6381L20.8161 29.9161C20.9494 30.1361 21.0081 30.3581 20.9921 30.5821C20.9761 30.8048 20.8621 31.0021 20.6501 31.1741L19.9341 31.7781C20.1554 32.4674 20.2661 33.1568 20.2661 33.8461C20.2661 34.5368 20.1554 35.2268 19.9341 35.9161L20.6501 36.5201C20.8367 36.6668 20.9507 36.8554 20.9921 37.0861C21.0334 37.3168 20.9887 37.5434 20.8581 37.7661L20.6381 38.0541C20.5074 38.2408 20.3447 38.3668 20.1501 38.4321C19.9554 38.4974 19.7441 38.4881 19.5161 38.4041L18.5661 38.0321C18.1221 38.5294 17.6221 38.9208 17.0661 39.2061C16.5114 39.4914 15.9187 39.7048 15.2881 39.8461L15.1821 40.7581C15.1327 40.9941 15.0161 41.1961 14.8321 41.3641C14.6481 41.5321 14.4387 41.6161 14.2041 41.6161H13.9441C13.7067 41.6161 13.4967 41.5294 13.3141 41.3561C13.1301 41.1854 13.0141 40.9821 12.9661 40.7461L12.8581 39.8461C12.2274 39.7048 11.6341 39.4914 11.0781 39.2061C10.5234 38.9194 10.0227 38.5281 9.58007 38.0321Z" fill="white"/>
</svg>