<svg xmlns="http://www.w3.org/2000/svg" width="48" height="48" viewBox="0 0 48 48" fill="none">
  <path d="M23.4041 39.8839C23.6654 39.8839 23.9335 39.8252 24.2081 39.7079C24.4828 39.5906 24.7048 39.4473 24.8741 39.2779L40.4661 23.6839C40.9688 23.1812 41.3568 22.6679 41.6301 22.1439C41.9021 21.6172 42.0381 21.0399 42.0381 20.4119C42.0381 19.7759 41.9021 19.1586 41.6301 18.5599C41.3568 17.9599 40.9688 17.4132 40.4661 16.9199L32.9661 9.41991C32.4714 8.91725 31.9628 8.54858 31.4401 8.31391C30.9188 8.07925 30.3401 7.96191 29.7041 7.96191C29.0761 7.96191 28.4928 8.07925 27.9541 8.31391C27.4155 8.54858 26.9081 8.91658 26.4321 9.41791L24.6881 11.1619L28.3881 14.8719C28.7854 15.2626 29.0821 15.7066 29.2781 16.2039C29.4728 16.7012 29.5701 17.2059 29.5701 17.7179C29.5701 18.7592 29.2295 19.6206 28.5481 20.3019C27.8668 20.9832 27.0061 21.3232 25.9661 21.3219C25.4528 21.3219 24.9521 21.2439 24.4641 21.0879C23.9761 20.9319 23.5368 20.6586 23.1461 20.2679L19.3201 16.4559L10.6841 25.0899C10.4828 25.2926 10.3314 25.5226 10.2301 25.7799C10.1288 26.0372 10.0781 26.2972 10.0781 26.5599C10.0781 27.0319 10.2294 27.4206 10.5321 27.7259C10.8334 28.0326 11.2201 28.1859 11.6921 28.1859C11.9535 28.1859 12.2215 28.1272 12.4961 28.0099C12.7708 27.8912 12.9928 27.7472 13.1621 27.5779L19.5001 21.2399L20.9161 22.6559L14.5881 28.9959C14.3855 29.1972 14.2335 29.4266 14.1321 29.6839C14.0321 29.9426 13.9821 30.2026 13.9821 30.4639C13.9821 30.9106 14.1395 31.2912 14.4541 31.6059C14.7688 31.9206 15.1495 32.0786 15.5961 32.0799C15.8575 32.0799 16.1255 32.0206 16.4001 31.9019C16.6748 31.7832 16.8968 31.6399 17.0661 31.4719L23.8661 24.6839L25.2821 26.0979L18.4921 32.8979C18.3148 33.0672 18.1695 33.2892 18.0561 33.5639C17.9415 33.8386 17.8841 34.1066 17.8841 34.3679C17.8841 34.8132 18.0421 35.1932 18.3581 35.5079C18.6728 35.8252 19.0535 35.9839 19.5001 35.9839C19.7615 35.9839 20.0215 35.9332 20.2801 35.8319C20.5388 35.7306 20.7681 35.5786 20.9681 35.3759L27.7681 28.5859L29.1841 30.0019L22.3841 36.8019C22.1828 37.0046 22.0315 37.2479 21.9301 37.5319C21.8288 37.8159 21.7781 38.0752 21.7781 38.3099C21.7781 38.7819 21.9441 39.1626 22.2761 39.4519C22.6081 39.7412 22.9841 39.8859 23.4041 39.8859M23.3921 41.8859C22.3641 41.8859 21.4841 41.5099 20.7521 40.7579C20.0201 40.0046 19.6988 39.0752 19.7881 37.9699C18.6548 37.9832 17.7115 37.6452 16.9581 36.9559C16.2048 36.2652 15.8468 35.3026 15.8841 34.0679C14.6495 34.0812 13.6761 33.7279 12.9641 33.0079C12.2521 32.2879 11.9281 31.3399 11.9921 30.1639C10.8801 30.1772 9.94945 29.8639 9.20012 29.2239C8.45212 28.5866 8.07812 27.6986 8.07812 26.5599C8.07812 26.0466 8.17745 25.5332 8.37612 25.0199C8.57478 24.5052 8.86812 24.0532 9.25612 23.6639L19.3201 13.6119L24.4841 18.7759C24.6534 18.9532 24.8628 19.0992 25.1121 19.2139C25.3614 19.3286 25.6421 19.3852 25.9541 19.3839C26.3821 19.3839 26.7601 19.2346 27.0881 18.9359C27.4161 18.6372 27.5808 18.2479 27.5821 17.7679C27.5821 17.4559 27.5248 17.1759 27.4101 16.9279C27.2955 16.6786 27.1501 16.4692 26.9741 16.2999L20.0941 9.41991C19.5981 8.91725 19.0828 8.54858 18.5481 8.31391C18.0135 8.07925 17.4281 7.96191 16.7921 7.96191C16.1641 7.96191 15.5935 8.07925 15.0801 8.31391C14.5681 8.54858 14.0608 8.91725 13.5581 9.41991L7.47012 15.5199C7.04078 15.9466 6.69412 16.4566 6.43012 17.0499C6.16612 17.6419 6.02612 18.2532 6.01012 18.8839C5.99678 19.3359 6.03545 19.7699 6.12612 20.1859C6.21678 20.6019 6.36345 20.9939 6.56612 21.3619L5.05012 22.8779C4.71412 22.3419 4.45145 21.7246 4.26212 21.0259C4.07278 20.3272 3.98545 19.6139 4.00012 18.8859C4.01612 17.9766 4.19812 17.1066 4.54612 16.2759C4.89412 15.4452 5.39278 14.7046 6.04212 14.0539L12.0921 8.00391C12.7895 7.31325 13.5275 6.79991 14.3061 6.46391C15.0848 6.12925 15.9268 5.96191 16.8321 5.96191C17.7375 5.96191 18.5721 6.12991 19.3361 6.46591C20.1015 6.80058 20.8295 7.31325 21.5201 8.00391L23.2601 9.74591L25.0041 8.00391C25.7015 7.31325 26.4328 6.79991 27.1981 6.46391C27.9634 6.12925 28.7988 5.96191 29.7041 5.96191C30.6094 5.96191 31.4514 6.12991 32.2301 6.46591C33.0075 6.80058 33.7408 7.31325 34.4301 8.00391L41.8821 15.4539C42.5715 16.1432 43.1035 16.9172 43.4781 17.7759C43.8528 18.6346 44.0395 19.5166 44.0381 20.4219C44.0381 21.3286 43.8515 22.1639 43.4781 22.9279C43.1048 23.6919 42.5728 24.4199 41.8821 25.1119L26.2881 40.6919C25.8734 41.1079 25.4214 41.4106 24.9321 41.5999C24.4441 41.7892 23.9308 41.8839 23.3921 41.8839" fill="white"/>
</svg>