<svg xmlns="http://www.w3.org/2000/svg" width="48" height="48" viewBox="0 0 48 48" fill="none">
  <path d="M14.8 30.578L20.9 24.516L24.9 28.516L33 20.426V25H35V17H27V19H31.572L24.9 25.674L20.9 21.674L13.424 29.2L14.8 30.578ZM11.232 40C10.3107 40 9.542 39.692 8.926 39.076C8.31 38.46 8.00133 37.6907 8 36.768V11.232C8 10.3107 8.30867 9.542 8.926 8.926C9.54333 8.31 10.312 8.00133 11.232 8H36.77C37.69 8 38.4587 8.30867 39.076 8.926C39.6933 9.54333 40.0013 10.312 40 11.232V36.77C40 37.69 39.692 38.4587 39.076 39.076C38.46 39.6933 37.6907 40.0013 36.768 40H11.232ZM11.232 38H36.77C37.0767 38 37.3587 37.872 37.616 37.616C37.8733 37.36 38.0013 37.0773 38 36.768V11.232C38 10.924 37.872 10.6413 37.616 10.384C37.36 10.1267 37.0773 9.99867 36.768 10H11.232C10.924 10 10.6413 10.128 10.384 10.384C10.1267 10.64 9.99867 10.9227 10 11.232V36.77C10 37.0767 10.128 37.3587 10.384 37.616C10.64 37.8733 10.922 38.0013 11.23 38" fill="white"/>
</svg>