<svg xmlns="http://www.w3.org/2000/svg" width="48" height="42" viewBox="0 0 46 42" fill="none">
  <path d="M38 4.40005V2.80005C38 1.60005 38.8 0.800049 40 0.800049H41.6C43.6 0.800049 45.2 2.40005 45.2 4.40005V30.4M38 4.40005V24.8C38 26 38.8 26.8 40 26.8H41.6C43.6 26.8 45.2 28.4 45.2 30.4M38 4.40005H17.2C16 4.40005 15.2 5.20005 15.2 6.40005V14.576M45.2 30.4C45.2 32.4 43.6 34 41.6 34H36.76M20.8 20.1C26.6 21.5 30.8 26.7 30.8 32.7V34.7M14.8 34.7V18.7C14.8 17.5 15.6 16.7 16.8 16.7H18.8C20 16.7 20.8 17.5 20.8 18.7V34.7M14.8 20.1C9.00005 21.5 4.80005 26.7 4.80005 32.7V34.7M34.8 38.7C34.8 39.9 34 40.7 32.8 40.7H2.80005C1.60005 40.7 0.800049 39.9 0.800049 38.7V36.7C0.800049 35.5 1.60005 34.7 2.80005 34.7H32.8C34 34.7 34.8 35.5 34.8 36.7V38.7Z" stroke="white" stroke-width="1.6" stroke-miterlimit="10"/>
</svg>