<svg xmlns="http://www.w3.org/2000/svg" width="48" height="28" viewBox="0 0 36 28" fill="none">
  <path d="M15.516 20.384C16.136 21.0053 16.932 21.288 17.904 21.232C18.876 21.1773 19.5853 20.828 20.032 20.184L30.538 5.53801L15.816 15.97C15.1467 16.4153 14.774 17.1073 14.698 18.046C14.622 18.9847 14.8947 19.7627 15.516 20.384ZM18 1.12045e-05C19.8387 1.12045e-05 21.512 0.224011 23.02 0.672011C24.5293 1.11868 26.0333 1.80201 27.532 2.72201L25.692 3.96801C24.5147 3.32535 23.296 2.83668 22.036 2.50201C20.776 2.16734 19.4307 2.00001 18 2.00001C13.5667 2.00001 9.79133 3.55868 6.674 6.67601C3.55667 9.79334 1.99867 13.568 2 18C2 19.4 2.192 20.7833 2.576 22.15C2.96 23.5167 3.50133 24.8 4.2 26H31.8C32.5667 24.7333 33.1253 23.4167 33.476 22.05C33.8267 20.6833 34.0013 19.2667 34 17.8C34 16.6 33.8453 15.3373 33.536 14.012C33.2267 12.6867 32.7373 11.452 32.068 10.308L33.316 8.46801C34.2893 10.1373 34.978 11.708 35.382 13.18C35.786 14.652 35.992 16.184 36 17.776C36.008 19.496 35.8167 21.1013 35.426 22.592C35.0367 24.0827 34.43 25.5853 33.606 27.1C33.446 27.3667 33.2027 27.5833 32.876 27.75C32.5493 27.9167 32.1907 28 31.8 28H4.2C3.83333 28 3.49333 27.9107 3.18 27.732C2.868 27.552 2.60533 27.29 2.392 26.946C1.73067 25.7793 1.16667 24.4633 0.7 22.998C0.233333 21.5327 0 19.8667 0 18C0 15.5413 0.466667 13.2207 1.4 11.038C2.332 8.85534 3.60467 6.94401 5.218 5.30401C6.83133 3.66401 8.73933 2.36934 10.942 1.42001C13.1447 0.470678 15.4973 -0.00265546 18 1.12045e-05Z" fill="white"/>
</svg>