<svg xmlns="http://www.w3.org/2000/svg" width="48" height="48" viewBox="0 0 48 48" fill="none">
  <path d="M20.7701 24.5064C20.841 24.6265 22.8833 25.3976 23.3267 25.6558C26.7702 27.6618 29.0268 31.7199 28.8208 35.7138C29.9087 35.5938 31.473 35.8404 31.8439 37.0555C32.2543 38.3973 32.078 40.2783 30.6439 40.9015C21.8827 40.9903 13.0507 41.0906 4.30278 40.8505C1.92087 39.152 2.94451 35.1087 6.23962 35.7138C6.09786 31.5801 8.43855 27.4744 12.0633 25.4914C12.5447 25.2283 13.9392 24.7991 14.1535 24.6166C14.3925 24.4111 14.2936 23.2765 14.8343 22.6649C15.8068 21.5615 19.275 21.5615 20.2525 22.6418C20.9069 23.3653 20.5937 24.2105 20.7717 24.5081L20.7701 24.5064ZM19.2602 31.2743V23.7928C19.2602 23.7747 19.031 23.5462 19.0129 23.5462H15.9634C16.0162 23.7073 15.7986 23.903 15.7986 23.9573V31.1921C15.7986 31.4502 14.315 31.5637 14.315 31.1921V26.177C10.293 27.43 7.57151 31.5275 7.72151 35.7138H27.3372C27.4823 31.5291 24.7773 27.3856 20.7437 26.177V31.1921C20.7437 31.6377 19.5272 31.3121 19.2602 31.2743ZM4.61102 39.3082C4.6852 39.4266 5.2951 39.4891 5.48796 39.5039C13.3194 40.0711 21.83 39.0583 29.734 39.5039C30.8169 39.5335 30.8005 37.1427 29.734 37.1871C21.4805 37.2841 13.1826 37.0309 4.95718 37.3153C4.44453 37.3597 4.50882 39.1454 4.61102 39.3082Z" fill="white"/>
  <path d="M30.3044 34.8916V33.4118H42.2552C42.481 33.4118 43.4931 32.5946 43.658 32.3446C45.1811 30.0279 42.8239 26.8643 40.3019 28.3392C38.9288 29.1416 39.4546 30.8122 38.8051 31.2857C38.4013 31.58 37.7221 31.3104 37.7221 31.0276V11.5429H33.5188C33.1578 11.5429 33.2831 10.2061 33.2715 9.89865H37.7221C37.7765 4.96418 44.9618 4.57284 45.5882 9.53362L45.6162 31.3383C45.4415 32.4318 44.886 33.4874 43.9761 34.1418C43.8228 34.252 42.664 34.8916 42.5849 34.8916H30.3044ZM44.1508 27.328V9.652C44.1508 9.47113 43.681 8.5339 43.5014 8.32672C42.6722 7.37962 40.8359 7.2826 39.9227 8.14749C39.7645 8.29877 39.2057 9.16365 39.2057 9.32315V27.328C40.3233 26.4729 41.6552 26.2806 42.992 26.7574C43.4371 26.9169 43.7091 27.2638 44.1508 27.328Z" fill="white"/>
  <path d="M30.4279 7.96509C30.9043 8.45837 30.4279 10.3542 30.6537 10.6979C30.6834 10.7423 31.3411 10.9133 31.6279 11.1237C32.5131 11.7732 32.9615 12.9752 32.7373 14.0538C32.6351 14.5488 32.101 14.9911 32.1208 15.5534C32.1653 16.7192 33.5829 18.7844 33.606 20.0834C34.2653 20.2495 35.7819 19.7381 35.9945 20.409C36.3983 21.6849 35.2066 21.6093 34.2587 21.5715C34.1054 21.7063 35.5231 24.6643 35.3862 25.2382C35.2873 25.6509 34.7368 25.7627 34.3741 25.6542C33.6554 25.4372 33.0126 21.7638 32.5049 21.5928C32.3417 21.5386 30.6966 21.5024 30.6307 21.5698C30.5433 21.6586 30.9455 23.1072 29.9153 23.0135C29.0021 22.9296 29.2081 21.6339 29.1471 21.5698C29.0828 21.5024 27.5729 21.6224 27.2696 21.56C26.8789 22.2374 26.152 25.4783 25.5701 25.6542C23.4322 26.302 25.4168 22.3311 25.6855 21.5715C25.0773 21.652 23.6086 21.5863 23.7305 20.7049C23.8921 19.5424 25.9146 20.4024 26.1982 19.993C26.3844 18.6956 27.6817 16.6945 27.802 15.5255C27.8614 14.95 26.8064 14.1985 27.2465 12.523C27.5218 11.474 29.0647 10.7916 29.1257 10.6157C29.3466 9.9859 28.8933 8.87437 29.3284 8.18871C29.5543 7.8319 30.118 7.6461 30.4263 7.96509H30.4279ZM30.9158 12.4112C29.5526 11.0514 27.5597 13.5819 29.2229 14.5109C30.7856 15.3824 31.9016 13.3945 30.9158 12.4112ZM30.7906 16.1536C30.6702 16.0483 30.1114 16.2736 29.8905 16.2802C29.6697 16.2868 29.2938 16.0648 29.1636 16.1552C28.9477 16.3065 28.0493 19.549 27.8317 20.0916C28.0707 20.0538 29.0977 20.1492 29.1504 20.0933C29.2559 19.9831 28.8768 18.5953 29.8905 18.5953C30.9983 18.5953 30.5136 19.9716 30.6323 20.0933C30.69 20.1525 31.8587 20.0505 32.1159 20.09C31.806 19.6082 30.9455 16.2901 30.7889 16.1519L30.7906 16.1536Z" fill="white"/>
  <path d="M26.6777 9.89893C26.6167 10.3231 26.8837 11.364 26.4074 11.5202L16.4577 11.6254C16.3836 11.6698 16.1281 12.0727 16.1281 12.1187V20.4223H14.6445V11.6254C14.6445 10.9299 16.1924 9.89893 16.8698 9.89893H26.6777Z" fill="white"/>
</svg>