<svg xmlns="http://www.w3.org/2000/svg" width="48" height="48" viewBox="0 0 48 48" fill="none">
  <path d="M24.4691 11.594C27.8122 11.9123 28.5469 16.3758 25.5274 17.7715C25.5383 19.38 27.2488 23.2411 25.0465 23.932C23.0294 24.5638 23.101 22.9632 22.2278 22.4477C21.6629 22.114 20.038 21.6249 19.3469 21.4402C18.8784 21.316 17.8061 20.9775 17.3921 21.0769C17.2489 21.111 17.0528 22.0705 16.824 22.4074C16.4458 22.9647 15.4777 23.3513 15.4232 23.4212C15.031 23.9351 18.3897 27.1488 14.8613 27.9018C13.5291 28.1859 12.6388 28.2278 11.9695 26.9361C11.5851 26.194 10.0489 21.5737 9.79367 21.4231C9.64114 21.333 9.18512 21.4324 8.88006 21.3253C5.46218 20.1205 4.95946 15.4241 8.05672 13.662C9.40613 12.8935 11.8933 12.8438 13.5493 12.3097C15.2053 11.7757 18.9563 9.70306 19.8699 8.36788C20.4022 7.58851 20.0909 6.27197 21.5819 6.03599C24.5422 5.56712 23.8901 9.80242 24.4722 11.5987L24.4691 11.594ZM24.7586 22.6372L22.3944 7.68477C21.3002 6.7486 21.5679 8.30268 21.6675 9.03081C22.2667 13.3732 23.3796 17.683 23.8621 22.0565C23.8185 22.4648 24.5469 22.839 24.7586 22.6372ZM22.2683 20.9278L20.3243 9.90799C18.3181 11.6499 15.9897 13.0441 13.4201 13.8064L14.3337 19.5306C15.7547 19.3163 17.6053 19.5663 19.0356 19.883C20.1391 20.1267 21.1866 20.6158 22.2683 20.9263V20.9278ZM25.2286 16.2718C26.5687 15.4443 26.1764 13.5316 24.7617 13.0115L25.2286 16.2718ZM12.9314 19.6858L11.996 14.0983C9.57889 14.5392 7.06062 14.682 7.49797 17.888C7.87151 20.6251 10.989 19.9948 12.9314 19.6858ZM13.2411 20.9278C12.8676 21.0986 11.3439 21.1048 11.3952 21.5985L13.3221 26.5185C13.5711 26.8367 14.6419 26.3477 15.1104 26.5185L13.2427 20.9294L13.2411 20.9278Z" fill="white"/>
  <path d="M41.2566 22.3265L39.8559 22.1712C39.7485 22.0688 40.2559 20.0567 39.9352 19.6872L29.3283 31.1526C28.5843 31.2954 25.5649 27.5973 24.6824 27.1455L18.0661 34.2126C17.6895 34.4051 17.277 33.632 16.9797 33.4271L24.5626 25.4548L25.1556 25.5775L29.1945 29.465L39.0777 18.6765L36.4395 19.0615L36.2777 17.6689C37.7267 17.6689 39.5493 16.8057 40.9173 16.7684C41.4169 16.7545 41.6193 17.1286 41.7049 17.582L41.2582 22.3249L41.2566 22.3265Z" fill="white"/>
  <path d="M36.2339 25.9313C36.7553 25.818 39.5569 25.8025 40.086 25.9018C40.3413 25.95 40.5187 26.0633 40.6043 26.3164L40.5592 40.6477C40.4285 40.7952 40.2448 40.8806 40.0565 40.9225C39.5335 41.0359 36.4005 41.0281 36.0036 40.8434C35.8619 40.7782 35.7343 40.7036 35.6814 40.5437L35.7312 26.2061C35.8619 26.0586 36.0456 25.9733 36.2339 25.9313ZM39.2347 27.2945H37.0557V39.5594H39.2347V27.2945Z" fill="white"/>
  <path d="M27.0574 40.7644C26.7275 41.0905 22.6139 41.1013 22.3462 40.648L22.2637 32.3327C22.438 30.9866 25.0917 31.9958 26.0847 31.5176C26.4644 31.5843 26.9578 31.5874 27.1384 31.9864C27.2193 33.1058 27.4792 40.3483 27.059 40.7644H27.0574ZM25.8496 33.0391H23.6707V39.5597H25.8496V33.0391Z" fill="white"/>
  <path d="M33.75 40.7647C33.4216 41.0907 29.3064 41.1016 29.0387 40.6483C28.8629 40.3502 28.8722 34.4382 28.9531 33.7287C28.9827 33.4678 28.9687 33.3731 29.2068 33.2055C29.5477 32.9664 33.0667 32.9415 33.4714 33.1201C33.6193 33.1853 33.7562 33.3793 33.8605 33.5082C33.8854 34.5065 34.1749 40.3424 33.75 40.7647ZM32.5422 34.4366H30.3632V39.5599H32.5422V34.4366Z" fill="white"/>
  <path d="M15.599 36.4776C15.7375 36.2509 19.9351 36.1904 20.248 36.3751C20.7009 36.6422 20.6744 40.14 20.4114 40.5778C20.3585 40.6648 20.1779 40.8356 20.0877 40.8759C19.6503 41.0684 16.0441 41.0436 15.7297 40.7284C15.3733 40.3698 15.4153 37.1623 15.6005 36.4776H15.599ZM19.1569 37.6963H16.978V39.5594H19.1569V37.6963Z" fill="white"/>
  <path d="M28.2308 18.0899C27.7592 17.5403 28.2915 16.7935 28.9623 16.955C29.2876 17.0342 31.8292 18.6519 31.8946 18.863C32.1 19.5353 31.6222 19.9809 30.9483 19.8085C30.7926 19.7682 28.3366 18.211 28.2324 18.0883L28.2308 18.0899Z" fill="white"/>
  <path d="M31.1026 12.8948C31.6661 12.8311 32.9019 12.6386 32.8194 13.5298C32.8038 13.7037 32.5454 14.1011 32.3882 14.1756C32.2482 14.2408 29.4949 14.7128 29.3408 14.705C28.6466 14.6647 28.3618 13.5748 29.1213 13.2457C29.2505 13.1898 30.8194 12.9274 31.1026 12.8948Z" fill="white"/>
  <path d="M29.2284 7.75939C29.7265 7.61346 30.2417 7.85565 30.209 8.41766C30.1887 8.76854 28.251 11.1874 27.9164 11.2805C27.4028 11.4249 26.8611 10.8551 27.051 10.4189C27.1755 10.1301 29.0199 7.82149 29.23 7.75939H29.2284Z" fill="white"/>
</svg>