<svg xmlns="http://www.w3.org/2000/svg" width="48" height="48" viewBox="0 0 48 48" fill="none">
  <path d="M7.77607 18.2655L15.1175 14.4856C15.4304 13.9755 15.061 9.08542 15.1917 7.96225C15.2385 7.56963 15.3482 7.24459 15.6788 7L31.4844 7.00483C31.7151 7.16896 31.9119 7.3524 31.9683 7.64848C32.1393 8.55924 31.7086 11.8418 32.1313 12.3133L39.0549 15.7053C39.6146 16.0577 39.5985 16.4407 39.5533 17.0586C41.4891 16.9637 43.2087 15.1438 42.92 18.2461C42.6974 20.6405 41.936 23.1894 41.7714 25.6272C41.1923 27.534 39.5856 25.2313 38.8274 24.6247L31.9716 31.943V40.5518H38.1015V26.8743C38.3709 26.8743 39.5533 26.7809 39.5533 27.1156V40.5518H42.9409V42H6V40.5502H7.77446V18.2655H7.77607ZM30.5214 8.36936H16.8097V32.3453L21.0022 28.0795C21.1829 27.6627 19.9133 27.7544 19.6391 27.3522C19.231 26.7536 19.5568 26.1775 19.5601 25.661C19.5617 25.2555 19.21 24.5716 19.6617 24.2884C20.2166 23.9392 21.2926 24.3077 21.1651 23.2682C21.0909 22.6664 20.4763 22.5731 20.7522 21.7186C20.8941 21.2761 22.5331 19.7475 23.0122 19.7941C23.4913 19.8408 23.6542 20.412 24.2366 20.3718C25.119 20.309 24.6689 19.1247 25.1448 18.8158C25.4513 18.6179 27.6113 18.5857 27.992 18.6999C28.6179 18.8882 28.4275 19.9229 28.7501 20.1964C29.5567 20.8787 29.8987 19.6219 30.723 19.8263C31.2457 19.955 32.6717 21.4837 32.7572 22.0051C32.8636 22.6616 31.6473 23.2216 32.5394 23.9778C32.9927 23.2071 34.8091 21.8635 35.1285 21.2456C35.2092 21.0911 35.2221 21.0814 35.1317 20.9205C34.993 20.6727 33.8202 19.8617 33.6025 19.5351C32.6265 18.0659 37.1175 17.9308 37.8321 17.5156C38.0676 17.3788 38.187 17.2952 38.0934 16.9959C37.9805 16.6306 32.6636 14.3778 31.9748 13.8452V18.6726H30.523V8.36936H30.5214ZM9.2279 18.9896V40.23L15.1965 34.1958V16.3345C15.1965 16.2701 15.6111 16.0513 15.1191 16.0948L9.2279 18.9896ZM11.1637 40.5518H14.148L21.9766 32.2632C22.3137 32.0814 22.646 32.2262 22.9396 32.4306L25.9271 35.5587L26.3917 35.7148L38.3322 23.0027C39.2872 22.3703 39.8018 23.759 40.5196 24.1404C40.4519 23.6335 41.5875 18.1995 41.2455 18.1834L35.6834 19.4755C36.0222 20.1674 37.3272 20.4716 36.8949 21.4L26.4804 32.2616C26.2627 32.408 26.0691 32.3726 25.8465 32.2664C25.0931 31.9124 23.4284 29.5647 22.5412 28.9565C22.3992 28.8583 22.3234 28.7264 22.1346 28.876L11.1637 40.5518ZM27.1128 20.1369C27.0321 20.0854 26.1998 20.0838 26.1659 20.1176C26.1256 20.1594 26.2498 20.9044 25.9207 21.2423C25.8562 21.3083 24.3801 21.9423 24.2285 21.9809C23.459 22.1756 23.3397 21.2938 22.6896 21.7154C21.883 22.2384 22.896 22.6101 22.8718 23.2553C22.867 23.4034 22.0685 25.1364 21.9701 25.1847C21.5765 25.3826 21.1313 25.0656 21.0022 25.6674C20.7828 26.6892 21.2458 26.2483 21.7668 26.5122C22.1395 26.7005 22.4669 27.1542 22.9331 27.2798L26.1062 30.5624C26.332 30.601 27.7919 29.1319 27.6145 28.9661C24.485 29.8061 22.1734 26.0214 24.464 23.6496C26.7547 21.2777 30.7053 23.8137 29.7132 26.8727C30.0294 26.6908 31.2521 25.3681 31.2941 25.1622C31.3828 24.7148 30.5891 23.5981 30.5552 23.2264C30.5165 22.7967 31.1811 22.2448 31.094 22.0453C30.6488 21.0251 29.9213 22.0211 29.4744 22.0292C29.3599 22.0308 27.7355 21.3952 27.6193 21.3147C27.1676 21.0026 27.2548 20.2254 27.1096 20.1336L27.1128 20.1369ZM27.8855 24.6746C26.3385 23.1314 24.0801 25.4357 25.4529 27.0207C26.8773 28.6652 29.5761 26.3609 27.8855 24.6746ZM30.5214 40.5518V33.4717L26.7402 37.3416C26.403 37.6023 26.0997 37.5443 25.7545 37.3416C25.2028 37.0198 22.6154 33.9576 22.3766 33.9576L16.166 40.5518H30.523H30.5214Z" fill="white"/>
  <path d="M20.1972 10.4609H18.7454V21.2421H20.1972V10.4609Z" fill="white"/>
  <path d="M24.23 17.3804V10.4611C24.6123 10.5126 25.5657 10.3163 25.7721 10.6124C26.098 11.079 25.6883 16.1413 25.8205 17.1165C25.6673 17.5815 24.6462 17.3208 24.23 17.3804Z" fill="white"/>
  <path d="M22.9394 10.3003V17.3804H21.4875V10.4612L22.9394 10.3003Z" fill="white"/>
  <path d="M28.4242 10.4609H26.9724V17.3802H28.4242V10.4609Z" fill="white"/>
</svg>