<svg xmlns="http://www.w3.org/2000/svg" width="223" height="45" viewBox="0 0 223 45" fill="none">
  <path d="M21.904 18.7142L18.1341 17.875C15.9997 17.3955 14.3835 16.7831 13.2856 16.0347C12.1876 15.2863 11.6597 14.2722 11.6985 12.9956C11.6985 12.1759 11.9383 11.4437 12.4176 10.7957C12.897 10.1477 13.6062 9.64224 14.5422 9.28261C15.4815 8.92297 16.6183 8.74477 17.9559 8.74477C19.2936 8.74477 20.5146 8.93917 21.5024 9.32797C22.4902 9.71677 23.2546 10.2902 23.7923 11.0484C24.3299 11.8066 24.6505 12.7137 24.7509 13.7732H34.5386C34.5192 11.1197 33.8261 8.76745 32.4593 6.71979C31.0925 4.67212 29.1654 3.09102 26.6813 1.97323C24.1971 0.855435 21.3081 0.294922 18.0142 0.294922C14.7203 0.294922 11.8281 0.848959 9.27267 1.95703C6.71725 3.0651 4.72215 4.63649 3.28736 6.67443C1.84933 8.70914 1.14333 11.0452 1.16276 13.6825C1.14333 16.8577 2.16996 19.4237 4.24603 21.3774C6.32211 23.3344 9.29535 24.76 13.1657 25.6607L17.7163 26.7396C19.3713 27.1187 20.709 27.5237 21.7292 27.9513C22.7462 28.379 23.5008 28.9007 23.9899 29.5098C24.4789 30.1189 24.7315 30.8317 24.7542 31.6514C24.7347 32.5683 24.4563 33.3783 23.9154 34.0781C23.3777 34.778 22.5875 35.3255 21.551 35.724C20.5146 36.1226 19.2774 36.3234 17.8394 36.3234C16.2621 36.3234 14.892 36.0902 13.7228 35.6204C12.5568 35.1506 11.6306 34.4378 10.9537 33.4787C10.2735 32.5197 9.89458 31.3533 9.81684 29.9763H0C0.0582985 33.2487 0.829094 35.9865 2.30599 38.1799C3.78289 40.3766 5.84929 42.0323 8.50187 43.1501C11.1545 44.2678 14.3188 44.8154 17.9916 44.796C21.5446 44.796 24.6117 44.2776 27.1963 43.2408C29.7808 42.204 31.75 40.7006 33.1071 38.734C34.4641 36.7673 35.1411 34.4183 35.1411 31.6806C35.1216 28.2462 33.9945 25.4663 31.7598 23.3409C29.525 21.2154 26.2408 19.6732 21.9105 18.7142H21.904Z" fill="url(#paint0_linear_916_5535)"/>
  <path d="M76.0181 0.489258H39.0957V8.91319H52.3748V44.2289H62.4151V8.91319H76.0181V0.489258Z" fill="url(#paint1_linear_916_5535)"/>
  <path d="M88.4356 0.489258L73.6406 44.2289H85.0218L87.885 35.157H102.638L105.501 44.2289H116.882L102.055 0.489258H88.4356ZM90.1748 27.057L95.0816 11.5052H95.4411L100.348 27.057H90.1748Z" fill="url(#paint2_linear_916_5535)"/>
  <path d="M145.604 0.489258L136.176 18.9571H135.813L126.356 0.489258H114.547L130.754 29.4255V44.2289H141.118V29.5389L157.183 0.489258H145.604Z" fill="url(#paint3_linear_916_5535)"/>
  <path d="M175.773 18.6328H155.692V26.4088H175.773V18.6328Z" fill="url(#paint4_linear_916_5535)"/>
  <path d="M203.951 20.5771V28.029H212.579C212.527 29.5259 212.177 30.8413 211.523 31.9656C210.833 33.1482 209.803 34.0651 208.433 34.7163C207.063 35.3676 205.431 35.6916 203.539 35.6916C201.389 35.6721 199.546 35.144 198.008 34.1072C196.469 33.0704 195.29 31.5735 194.474 29.6101C193.655 27.6467 193.247 25.2653 193.247 22.466C193.247 19.6666 193.664 17.3663 194.503 15.3931C195.342 13.42 196.531 11.9231 198.066 10.896C199.604 9.8722 201.428 9.35705 203.536 9.35705C204.935 9.35705 206.182 9.58385 207.277 10.0374C208.372 10.491 209.288 11.1455 210.027 12.0041C210.765 12.8627 211.303 13.8833 211.64 15.0659H222.399C222.399 15.0659 220.993 9.42184 219.27 7.15386C217.547 4.88588 215.306 3.12658 212.543 1.87595C209.781 0.625318 206.739 0 203.413 0C199.504 0 195.97 0.890996 192.816 2.67622C189.661 4.46145 187.171 7.0599 185.347 10.4781C183.524 13.8962 182.61 17.9235 182.61 22.5599C182.61 27.1963 183.488 31.0876 185.24 34.4766C186.992 37.8656 189.454 40.464 192.618 42.2784C195.783 44.0928 199.439 45 203.591 45C207.339 45 210.671 44.2483 213.583 42.7482C216.495 41.2449 218.762 39.0838 220.385 36.2618C222.007 33.4398 222.817 30.1123 222.729 26.2827V20.5738H203.944L203.951 20.5771Z" fill="url(#paint5_linear_916_5535)"/>
  <defs>
    <linearGradient id="paint0_linear_916_5535" x1="-2.58781" y1="22.5471" x2="223.364" y2="22.5471" gradientUnits="userSpaceOnUse">
      <stop stop-color="#99989C"/>
      <stop offset="0.35" stop-color="#D1D1D3"/>
      <stop offset="0.65" stop-color="#D9D9DC"/>
      <stop offset="1" stop-color="#979B9F"/>
    </linearGradient>
    <linearGradient id="paint1_linear_916_5535" x1="-2.58775" y1="22.3591" x2="223.364" y2="22.3591" gradientUnits="userSpaceOnUse">
      <stop stop-color="#99989C"/>
      <stop offset="0.35" stop-color="#D1D1D3"/>
      <stop offset="0.65" stop-color="#D9D9DC"/>
      <stop offset="1" stop-color="#979B9F"/>
    </linearGradient>
    <linearGradient id="paint2_linear_916_5535" x1="-2.58795" y1="22.3591" x2="223.364" y2="22.3591" gradientUnits="userSpaceOnUse">
      <stop stop-color="#99989C"/>
      <stop offset="0.35" stop-color="#D1D1D3"/>
      <stop offset="0.65" stop-color="#D9D9DC"/>
      <stop offset="1" stop-color="#979B9F"/>
    </linearGradient>
    <linearGradient id="paint3_linear_916_5535" x1="-2.58795" y1="22.3591" x2="223.364" y2="22.3591" gradientUnits="userSpaceOnUse">
      <stop stop-color="#99989C"/>
      <stop offset="0.35" stop-color="#D1D1D3"/>
      <stop offset="0.65" stop-color="#D9D9DC"/>
      <stop offset="1" stop-color="#979B9F"/>
    </linearGradient>
    <linearGradient id="paint4_linear_916_5535" x1="-2.58811" y1="22.5208" x2="223.364" y2="22.5208" gradientUnits="userSpaceOnUse">
      <stop stop-color="#99989C"/>
      <stop offset="0.35" stop-color="#D1D1D3"/>
      <stop offset="0.65" stop-color="#D9D9DC"/>
      <stop offset="1" stop-color="#979B9F"/>
    </linearGradient>
    <linearGradient id="paint5_linear_916_5535" x1="-2.58769" y1="22.5049" x2="223.364" y2="22.5049" gradientUnits="userSpaceOnUse">
      <stop stop-color="#99989C"/>
      <stop offset="0.35" stop-color="#D1D1D3"/>
      <stop offset="0.65" stop-color="#D9D9DC"/>
      <stop offset="1" stop-color="#979B9F"/>
    </linearGradient>
  </defs>
</svg>