<svg xmlns="http://www.w3.org/2000/svg" width="153" height="150" viewBox="0 0 153 150" fill="none">
  <path fill-rule="evenodd" clip-rule="evenodd" d="M29.2515 70.7739C29.2515 96.7608 50.3103 117.825 76.2877 117.825C102.265 117.825 123.322 96.7608 123.322 70.7739C123.322 44.7871 102.261 23.7207 76.2877 23.7207C50.3103 23.7207 29.2515 44.7871 29.2515 70.7739ZM75.5043 106.539C71.0375 106.332 66.5529 105.435 62.1818 103.863C57.7194 102.264 53.5152 99.1074 49.6738 94.4653C47.4192 91.6444 45.563 88.2825 44.1564 84.4642C42.7454 80.6392 42.0332 75.9704 42.0332 70.5758C42.0332 59.4459 45.6009 50.6293 52.6338 44.3797C59.6245 38.1635 67.4609 35.0064 75.925 35.0064C82.1389 35.0064 87.1822 35.5809 90.9212 36.7074C94.5534 37.8117 97.7605 38.8782 100.454 39.8823C101.028 40.0983 101.5 40.43 101.856 40.8797C102.225 41.3406 102.421 41.9262 102.443 42.6208C102.675 43.8787 105.154 57.2328 105.15 57.215C105.314 58.0388 105.301 58.7245 105.112 59.3101C104.889 59.9758 104.433 60.5124 103.794 60.8619L103.716 60.9064L103.632 60.9354C103.118 61.1246 102.307 61.2248 101.353 60.6259C100.756 60.2474 100.247 59.693 99.8215 58.945C98.8956 57.1839 97.943 55.4873 96.9883 53.9043C96.0223 52.2968 95.0675 50.941 94.1372 49.8456C92.7128 48.0956 90.6764 46.3857 88.0791 44.7649C85.5619 43.1952 82.1144 42.4004 77.8323 42.4004C71.2823 42.4004 66.5039 45.1856 63.2278 50.9254C59.8693 56.8098 58.1667 63.4134 58.1667 70.5691C58.1667 73.9466 58.5251 77.3797 59.2283 80.7684C59.9272 84.128 60.9799 87.0513 62.3509 89.4314C64.2316 92.5662 66.6352 94.9729 69.4907 96.5938C72.3417 98.2146 75.2684 99.0317 78.1951 99.0317C81.7472 99.0317 84.823 98.4194 87.3357 97.206C90.1534 95.8479 90.6141 95.1288 90.6719 95.0086V83.2708C90.6719 81.837 90.3781 80.8307 89.795 80.2808C89.0205 79.5527 88.246 78.9716 87.5027 78.562C86.9084 78.2369 86.3119 77.923 85.7333 77.638C84.6984 77.1282 84.1286 76.2487 84.1286 75.1667C84.1286 73.8531 84.8208 73.243 85.2325 72.9937C85.78 72.6686 86.5167 72.5172 87.5605 72.5172H107.019C108.09 72.5172 108.831 72.6375 109.349 72.9002C109.792 73.1206 110.54 73.6995 110.54 75.0665C110.54 75.6788 110.315 76.792 108.817 77.4198C108.268 77.6469 107.693 77.9742 107.146 78.3571C106.643 78.7445 106.136 79.3056 105.637 80.0247C105.345 80.45 104.998 81.3383 104.998 83.1707V96.3756C104.998 97.2684 104.811 98.0254 104.453 98.6265C104.112 99.1876 103.707 99.6173 103.164 99.9713C100.551 101.407 96.8458 102.935 92.1408 104.511C88.0257 105.894 83.3229 106.586 78.1306 106.586C77.267 106.586 76.3923 106.568 75.5021 106.53L75.5043 106.539ZM102.448 42.7566L102.43 42.5295C102.43 42.5295 102.437 42.5629 102.448 42.6253C102.448 42.6698 102.448 42.7121 102.448 42.7589V42.7566Z" fill="url(#paint0_linear_916_5521)"/>
  <path fill-rule="evenodd" clip-rule="evenodd" d="M60.9153 6.45663H60.8774C60.6348 6.45886 60.4012 6.47667 60.183 6.51451C57.8862 6.90636 55.9744 9.04373 55.418 9.72502C54.1939 10.1013 52.6426 10.6289 50.8377 11.3637C52.0528 10.5043 53.9357 9.01479 54.6991 7.56984C56.3438 4.4573 55.0819 0 55.0819 0C55.0819 0 51.2494 1.61861 50.1611 4.84692C49.026 8.2155 49.4934 11.0275 49.6759 11.8513C47.1431 12.9444 44.1986 14.4205 41.016 16.411C42.0776 15.3156 43.5443 13.6124 44.0206 12.1206C45.1223 8.70532 43.0636 4.44171 43.0636 4.44171C43.0636 4.44171 39.4959 6.7572 38.9795 10.1859C38.4521 13.6836 39.3579 16.3798 39.7073 17.2503C37.2658 18.8578 34.7041 20.7659 32.1001 23.0324C32.9347 21.7544 33.9229 19.9888 34.121 18.5461C34.6262 14.9215 31.7997 11.003 31.7997 11.003C31.7997 11.003 28.6259 13.9619 28.7127 17.4997C28.7929 20.9417 30.057 23.4131 30.6157 24.3415C28.4835 26.2117 26.4248 28.3891 24.4841 30.8248C25.0004 29.5023 25.4722 27.9238 25.4255 26.6748C25.292 22.9388 21.7555 19.5079 21.7555 19.5079C21.7555 19.5079 19.0892 23.0346 19.8058 26.579C20.4713 29.8675 22.0604 32.0805 22.8304 33.0023C21.061 35.4469 19.4141 38.1119 17.9274 40.9506C18.2434 39.47 18.4905 37.6466 18.2011 36.3063C17.3999 32.5793 13.2469 29.7562 13.2469 29.7562C13.2469 29.7562 11.1949 33.7726 12.5391 37.208C13.8278 40.5009 15.9087 42.4646 16.8057 43.1993C15.4837 45.9645 14.3152 48.8767 13.3382 51.9002C13.4005 50.3417 13.3315 48.4158 12.7951 47.0955C11.3351 43.491 6.65461 41.3892 6.65461 41.3892C6.65461 41.3892 5.30366 45.7931 7.26666 49.0014C9.14731 52.0894 11.5888 53.6947 12.6148 54.2713C11.8069 57.1033 11.166 60.0222 10.7186 63.0011C10.4916 61.5161 10.0888 59.8285 9.38768 58.7108C7.27779 55.3467 2.2056 54.062 2.2056 54.062C2.2056 54.062 1.62472 58.7241 4.16193 61.6074C6.51219 64.2746 9.14285 65.4702 10.3447 65.9088C10.0531 68.6785 9.92851 71.4905 9.99973 74.3225C9.519 72.9799 8.86243 71.5506 8.0434 70.6444C5.32369 67.641 0 67.2469 0 67.2469C0 67.2469 0.244817 72.0359 3.3095 74.4828C6.06482 76.6847 8.84016 77.435 10.1733 77.6844C10.387 80.385 10.7831 83.099 11.3774 85.8041C10.6474 84.5195 9.72375 83.1681 8.72 82.3844C6.48102 80.6455 3.23382 80.3561 1.40881 80.3472H1.2508C0.505215 80.3516 0.0333898 80.3984 0.0333898 80.3984C0.0333898 80.3984 1.12838 85.1674 4.63819 87.0821C7.83863 88.8298 10.8009 89.077 12.163 89.0837C12.7884 91.6663 13.5874 94.171 14.5355 96.5934C13.6075 95.4935 12.5036 94.3959 11.4219 93.8215C9.97748 93.0556 8.28822 92.8151 6.76367 92.8085H6.69023C4.31104 92.8085 2.34804 93.3651 2.34804 93.3651C2.34804 93.3651 4.291 97.9649 8.15245 99.2651C11.6022 100.427 14.5622 100.191 15.9733 99.9597C17.115 102.427 18.4126 104.798 19.837 107.064C18.6752 106.08 17.3064 105.105 16.0623 104.704C15.2099 104.43 14.3152 104.319 13.4316 104.317H13.3916C10.0376 104.317 6.86158 105.851 6.86158 105.851C6.86158 105.851 9.63027 110.128 13.7432 110.751C17.5001 111.319 20.4824 110.509 21.8178 110.032C23.4202 112.299 25.1495 114.447 26.979 116.469C25.6058 115.654 23.99 114.868 22.6212 114.679C22.2696 114.63 21.9112 114.607 21.5574 114.607C17.5423 114.607 13.5807 117.464 13.5807 117.464C13.5807 117.464 17.1262 121.271 21.3682 121.169C25.2764 121.075 28.1452 119.71 29.3849 118.998C31.3345 120.95 33.3732 122.767 35.472 124.437C34.032 123.896 32.385 123.424 31.0229 123.424C30.9517 123.424 30.8827 123.424 30.8137 123.428C26.3425 123.593 22.2228 127.832 22.2228 127.832C22.2228 127.832 26.4515 131.029 30.7025 130.172C34.5684 129.393 37.1924 127.543 38.3319 126.597C40.444 128.108 42.6006 129.478 44.7728 130.691C43.8737 130.542 42.9323 130.439 42.0509 130.439H41.9975C41.4366 130.439 40.9025 130.486 40.4217 130.589C35.9549 131.55 32.5697 136.538 32.5697 136.538C32.5697 136.538 37.3882 139.002 41.5056 137.386C45.1133 135.972 47.3902 133.768 48.4273 132.577C50.7642 133.688 53.0967 134.616 55.3935 135.347C53.8845 135.369 52.2932 135.534 51.1114 136.017C46.7848 137.776 44.2654 143.384 44.2654 143.384C44.2654 143.384 49.5446 145.007 53.3971 142.651C56.898 140.516 58.8098 137.776 59.5888 136.442C65.0638 137.424 69.6219 138.958 73.3342 140.634C66.6062 144.174 63.8598 147.445 63.8598 147.445L66.2501 149.571C66.2501 149.571 69.3815 145.762 76.2832 142.081C83.1871 145.762 86.3163 149.571 86.3163 149.571L88.7066 147.445C88.7066 147.445 85.9602 144.172 79.2321 140.634C82.9422 138.958 87.5003 137.424 92.9731 136.442C93.7543 137.776 95.6661 140.516 99.1648 142.651C103.017 145.007 108.297 143.384 108.297 143.384C108.297 143.384 105.777 137.776 101.453 136.017C100.271 135.536 98.6818 135.369 97.1729 135.347C99.4697 134.616 101.802 133.69 104.139 132.579C105.176 133.77 107.453 135.974 111.059 137.386C115.174 139.002 119.997 136.538 119.997 136.538C119.997 136.538 116.609 131.55 112.14 130.589C111.659 130.486 111.125 130.442 110.567 130.439H110.513C109.634 130.439 108.693 130.542 107.796 130.691C109.968 129.48 112.122 128.111 114.234 126.599C115.376 127.545 118 129.393 121.864 130.175C126.108 131.032 130.344 127.835 130.344 127.835C130.344 127.835 126.226 123.595 121.75 123.431C121.684 123.426 121.612 123.426 121.541 123.426C120.184 123.426 118.541 123.898 117.101 124.437C119.2 122.767 121.236 120.953 123.186 119.002C124.428 119.715 127.294 121.077 131.2 121.173C135.445 121.278 138.986 117.468 138.986 117.468C138.986 117.468 135.02 114.61 131.005 114.612C130.648 114.612 130.292 114.632 129.938 114.683C128.574 114.872 126.967 115.654 125.596 116.466C127.424 114.447 129.151 112.301 130.749 110.037C132.084 110.515 135.066 111.321 138.816 110.756C142.927 110.132 145.703 105.855 145.703 105.855C145.703 105.855 142.524 104.321 139.17 104.321H139.128C138.244 104.324 137.35 104.435 136.5 104.709C135.26 105.107 133.896 106.078 132.736 107.06C134.158 104.796 135.454 102.427 136.595 99.9642C138.006 100.194 140.962 100.43 144.407 99.2695C148.273 97.9693 150.218 93.3695 150.218 93.3695C150.218 93.3695 148.253 92.8129 145.876 92.8129H145.803C144.276 92.8196 142.587 93.0601 141.142 93.8259C140.063 94.3981 138.961 95.4913 138.038 96.5867C138.983 94.1688 139.78 91.6663 140.406 89.0881C141.768 89.0814 144.725 88.8321 147.924 87.0866C151.436 85.1718 152.533 80.4028 152.533 80.4028C152.533 80.4028 152.063 80.3561 151.316 80.3516H151.158C149.335 80.3605 146.083 80.6477 143.849 82.3888C142.847 83.1703 141.923 84.5195 141.193 85.7997C141.788 83.0968 142.182 80.3873 142.398 77.6866C143.733 77.4372 146.504 76.6847 149.259 74.4872C152.322 72.0404 152.562 67.2514 152.562 67.2514C152.562 67.2514 147.238 67.6454 144.523 70.6489C143.706 71.5506 143.054 72.9688 142.573 74.3047C142.645 71.4793 142.52 68.6763 142.228 65.9133C143.432 65.4724 146.059 64.2768 148.404 61.614C150.942 58.7331 150.365 54.0687 150.365 54.0687C150.365 54.0687 145.291 55.3533 143.185 58.7175C142.487 59.8284 142.084 61.5116 141.857 62.99C141.409 60.0177 140.768 57.1033 139.96 54.2758C140.989 53.6969 143.428 52.0916 145.306 49.008C147.267 45.7998 145.916 41.3959 145.916 41.3959C145.916 41.3959 141.24 43.4976 139.776 47.1022C139.242 48.418 139.175 50.3328 139.235 51.889C138.258 48.87 137.089 45.9623 135.772 43.2015C136.671 42.4646 138.747 40.5031 140.034 37.2147C141.38 33.7815 139.324 29.7628 139.324 29.7628C139.324 29.7628 135.169 32.5859 134.367 36.313C134.083 37.6466 134.325 39.4611 134.639 40.9372C133.155 38.103 131.51 35.4447 129.745 33.0067C130.517 32.085 132.104 29.8719 132.765 26.5879C133.482 23.0435 130.815 19.5168 130.815 19.5168C130.815 19.5168 127.279 22.95 127.143 26.6837C127.099 27.9305 127.57 29.5023 128.085 30.8226C126.146 28.3891 124.085 26.2139 121.955 24.3459C122.516 23.4131 123.776 20.944 123.856 17.5086C123.945 13.9708 120.771 11.0119 120.771 11.0119C120.771 11.0119 117.947 14.9326 118.45 18.555C118.648 19.9933 119.629 21.7499 120.46 23.0279C117.86 20.7659 115.303 18.8623 112.863 17.257C113.215 16.382 114.121 13.6903 113.591 10.1948C113.07 6.7661 109.509 4.45062 109.509 4.45062C109.509 4.45062 107.449 8.71422 108.552 12.1296C109.029 13.619 110.491 15.32 111.55 16.4154C108.37 14.4272 105.425 12.9511 102.895 11.8579C103.077 11.0297 103.54 8.22218 102.408 4.85583C101.324 1.62752 97.4845 0.0089059 97.4845 0.0089059C97.4845 0.0089059 96.227 4.46621 97.8673 7.57875C98.6329 9.02369 100.514 10.5109 101.729 11.3703C99.9259 10.6356 98.3725 10.108 97.1506 9.7317C96.592 9.04819 94.6824 6.91527 92.3856 6.52342C92.1697 6.48557 91.936 6.46999 91.6934 6.46553H91.6578C89.7126 6.46553 87.1465 7.44516 87.1465 7.44516C87.1465 7.44516 88.7244 9.59589 91.9026 10.6868C94.1972 11.475 96.7545 10.2371 97.2374 9.98328C98.8376 10.5443 100.981 11.3637 103.496 12.5593C102.744 12.419 101.17 12.163 99.6322 12.163H99.5921C98.7441 12.163 97.9095 12.2476 97.2307 12.468C93.8945 13.5656 91.7001 17.6489 91.7001 17.6489C91.7001 17.6489 95.5882 19.1406 98.6062 17.5709C101.967 15.8276 103.583 13.2806 103.892 12.7463C106.541 14.0265 109.578 15.7163 112.812 17.9472C111.613 17.5264 109.498 16.8785 107.796 16.8785C107.533 16.8785 107.279 16.8941 107.041 16.9275C103.489 17.4351 100.565 21.151 100.565 21.151C100.565 21.151 104.206 23.3418 107.515 22.2999C110.99 21.2111 113.028 19.1339 113.594 18.4927C116.013 20.2092 118.532 22.2286 121.072 24.6042L121.659 25.1319C120.344 24.3949 117.896 23.1682 116.082 23.1081C116.015 23.1081 115.948 23.1081 115.881 23.1081C112.292 23.1081 108.826 26.2139 108.826 26.2139C108.826 26.2139 112.096 29.0593 115.605 28.6006C119.318 28.1175 121.744 26.3653 122.405 25.8354C124.802 28.1375 127.081 30.8315 129.175 33.8416C127.978 32.8642 125.757 31.2211 123.956 30.8426C123.5 30.7469 123.035 30.7024 122.572 30.7002H122.527C119.291 30.7002 116.115 32.6705 116.115 32.6705C116.115 32.6705 118.899 36.1126 122.507 36.2729C126.246 36.4421 128.957 35.1686 129.778 34.7278C131.541 37.3616 133.161 40.2203 134.594 43.2572C133.508 42.0705 131.897 40.5209 130.424 39.9287C129.451 39.5391 128.394 39.3988 127.372 39.3988C124.677 39.3988 122.224 40.3829 122.224 40.3829C122.224 40.3829 124.41 44.3303 128.007 45.1296C131.463 45.9022 134.252 45.2721 135.36 44.9381C136.595 47.7568 137.673 50.7112 138.547 53.7704C137.67 52.4389 136.433 50.8203 135.171 50.0322C133.542 49.0192 131.492 48.7631 129.836 48.7631C128.136 48.7631 126.849 49.0325 126.849 49.0325C126.849 49.0325 128.347 53.3852 131.821 54.8324C135.057 56.1793 137.9 56.0881 139.135 55.9545C139.896 58.9846 140.463 62.1039 140.802 65.2765C140.156 63.7715 139.186 61.8768 138.035 60.8482C135.465 58.5371 131.158 58.3701 130.094 58.3657H129.992C129.901 58.3657 129.852 58.3701 129.852 58.3701C129.852 58.3701 130.588 63.01 133.822 65.0761C136.858 67.0153 139.751 67.4183 141 67.5007C141.222 70.5888 141.227 73.7191 140.982 76.8628C140.601 75.2264 139.958 73.1291 138.979 71.8779C136.475 68.6918 131.194 67.9349 131.194 67.9349C131.194 67.9349 131.111 72.7283 133.998 75.38C136.691 77.8603 139.518 78.7842 140.766 79.0915C140.441 81.9034 139.914 84.7199 139.159 87.5163C139.043 85.8887 138.754 83.9406 138.062 82.6471C136.112 79.0002 130.933 77.3036 130.933 77.3036C130.933 77.3036 129.996 82.106 132.424 85.2832C134.635 88.1664 137.223 89.5957 138.469 90.1612C137.677 92.9643 136.68 95.665 135.509 98.2543C135.689 96.58 135.756 94.5139 135.282 93.0578C133.967 89.0525 129.066 86.4275 129.066 86.4275C129.066 86.4275 127.274 91.0874 129.153 94.7054C130.853 97.9916 133.192 99.8818 134.35 100.674C133.108 103.123 131.71 105.47 130.186 107.699C130.606 106.138 130.944 104.306 130.744 102.899C130.137 98.6372 125.676 95.1329 125.676 95.1329C125.676 95.1329 123.05 99.4989 124.299 103.473C125.385 106.928 127.286 109.202 128.338 110.264C126.731 112.383 125.011 114.387 123.206 116.268C123.854 114.839 124.435 113.196 124.479 111.844C124.617 107.456 120.762 103.144 120.762 103.144C120.762 103.144 117.346 107.066 117.9 111.274C118.365 114.87 119.825 117.459 120.704 118.742C118.797 120.536 116.81 122.199 114.778 123.722C115.654 122.427 116.491 120.926 116.767 119.612C117.686 115.229 114.568 110.208 114.568 110.208C114.568 110.208 110.446 113.548 110.253 117.874C110.086 121.563 111.09 124.421 111.746 125.866C109.476 127.38 107.168 128.723 104.853 129.883C106.04 128.687 107.264 127.229 107.807 125.871C109.507 121.625 107.266 116.028 107.266 116.028C107.266 116.028 102.528 118.653 101.571 122.968C100.732 126.717 101.272 129.814 101.678 131.355C99.2494 132.396 96.839 133.231 94.4865 133.844C95.8197 132.884 97.1929 131.702 97.9407 130.502C100.4 126.539 99.1381 120.514 99.1381 120.514C99.1381 120.514 93.9146 122.313 92.1875 126.483C90.7809 129.861 90.683 132.882 90.7853 134.585C87.369 135.237 84.2687 136.11 81.4934 137.105C79.586 137.782 77.8567 138.486 76.2899 139.198C74.723 138.486 72.9915 137.782 71.0841 137.105C68.3088 136.11 65.2085 135.235 61.7899 134.585C61.8923 132.882 61.7944 129.858 60.39 126.483C58.6607 122.313 53.4394 120.514 53.4394 120.514C53.4394 120.514 52.1752 126.539 54.6368 130.502C55.3824 131.702 56.7556 132.882 58.0865 133.841C55.734 133.227 53.3237 132.394 50.8978 131.352C51.305 129.809 51.8436 126.715 51.009 122.965C50.0498 118.651 45.3137 116.026 45.3137 116.026C45.3137 116.026 43.0725 121.623 44.7706 125.869C45.3137 127.225 46.5378 128.683 47.7196 129.876C45.4071 128.718 43.0992 127.376 40.8335 125.862C41.49 124.415 42.496 121.558 42.3335 117.869C42.1355 113.543 38.0114 110.204 38.0114 110.204C38.0114 110.204 34.8933 115.224 35.8169 119.608C36.0907 120.919 36.9231 122.418 37.7977 123.711C35.768 122.191 33.7849 120.527 31.8798 118.737C32.7589 117.455 34.2145 114.868 34.6841 111.272C35.2338 107.064 31.8175 103.141 31.8175 103.141C31.8175 103.141 27.9605 107.454 28.1007 111.842C28.1452 113.194 28.7283 114.832 29.376 116.259C27.5688 114.38 25.8506 112.377 24.2459 110.259C25.3009 109.197 27.2015 106.924 28.2854 103.471C29.5318 99.4989 26.9078 95.1306 26.9078 95.1306C26.9078 95.1306 22.4409 98.635 21.8356 102.896C21.6353 104.299 21.9736 106.127 22.3942 107.688C20.8719 105.459 19.4742 103.119 18.2345 100.67C19.3919 99.8774 21.7265 97.9871 23.4269 94.7032C25.3075 91.0852 23.5159 86.4253 23.5159 86.4253C23.5159 86.4253 18.6173 89.0503 17.2998 93.0556C16.8257 94.5072 16.8903 96.5644 17.0683 98.2365C15.8999 95.6494 14.9028 92.9532 14.1127 90.1568C15.359 89.5913 17.9497 88.1641 20.1575 85.2809C22.5812 82.1038 21.6464 77.3014 21.6464 77.3014C21.6464 77.3014 16.4696 78.998 14.5266 82.6448C13.8322 83.9384 13.5429 85.8865 13.425 87.514C12.6705 84.7176 12.143 81.899 11.818 79.087C13.0666 78.7798 15.8932 77.858 18.5884 75.3778C21.4706 72.7261 21.386 67.9326 21.386 67.9326C21.386 67.9326 16.1024 68.6896 13.603 71.8756C12.6237 73.1247 11.9805 75.2242 11.5999 76.8606C11.3551 73.7191 11.3596 70.5865 11.5821 67.4985C12.8374 67.4161 15.724 67.0109 18.7553 65.0739C21.9914 63.0056 22.7258 58.3679 22.7258 58.3679L22.5856 58.3635H22.4832C21.4216 58.3679 17.1128 58.5349 14.54 60.8459C13.3938 61.8723 12.4257 63.7536 11.7802 65.2587C12.1185 62.0927 12.6861 58.9802 13.445 55.9545C14.6847 56.0881 17.5201 56.1771 20.7561 54.8324C24.2303 53.3874 25.7237 49.0325 25.7237 49.0325C25.7237 49.0325 24.4396 48.7631 22.7392 48.7631C21.0833 48.7631 19.0335 49.0192 17.4066 50.0322C16.1491 50.8159 14.9139 52.4256 14.0392 53.7548C14.9139 50.7023 15.9866 47.7501 17.2219 44.9381C18.3347 45.2721 21.1212 45.8977 24.5686 45.1274C28.1697 44.3281 30.3486 40.3806 30.3486 40.3806C30.3486 40.3806 27.8982 39.3966 25.2029 39.3966C24.1814 39.3966 23.1242 39.5368 22.1516 39.9265C20.6849 40.5165 19.078 42.0571 17.9941 43.2416C19.423 40.2114 21.0388 37.3549 22.7993 34.7278C23.625 35.1708 26.3358 36.4399 30.0659 36.2707C33.6759 36.1126 36.4579 32.6683 36.4579 32.6683C36.4579 32.6683 33.2864 30.6979 30.0503 30.6979H30.0058C29.5429 30.6979 29.0777 30.7447 28.6215 30.8404C26.8254 31.2189 24.6109 32.8553 23.4113 33.8327C25.5012 30.8248 27.7824 28.1309 30.175 25.831C30.836 26.3609 33.2641 28.1131 36.9676 28.5962C40.4818 29.0548 43.7513 26.2095 43.7513 26.2095C43.7513 26.2095 40.286 23.1036 36.6983 23.1036C36.6315 23.1036 36.5647 23.1036 36.498 23.1036C34.6819 23.1637 32.2381 24.3905 30.9228 25.1274L31.5081 24.5998C34.0476 22.2264 36.5647 20.2092 38.984 18.4927C39.5538 19.1361 41.5946 21.2089 45.0644 22.2954C48.3717 23.3351 52.015 21.1466 52.015 21.1466C52.015 21.1466 49.0883 17.4307 45.5362 16.923C45.2981 16.8897 45.0443 16.8741 44.7817 16.8741C43.0836 16.8741 40.9759 17.5153 39.7741 17.9383C43.0057 15.7096 46.0392 14.0242 48.6877 12.744C48.9993 13.2806 50.6106 15.8254 53.9736 17.5665C56.987 19.1361 60.8797 17.6444 60.8797 17.6444C60.8797 17.6444 58.6852 13.5611 55.349 12.4635C54.6724 12.2409 53.8378 12.1607 52.9876 12.1585H52.9475C51.4141 12.1585 49.845 12.4123 49.0906 12.5526C51.6033 11.3614 53.7443 10.5399 55.3445 9.98106C55.8342 10.2371 58.3847 11.4683 60.6749 10.6824C63.8553 9.59143 65.4288 7.44071 65.4288 7.44071C65.4288 7.44071 62.8671 6.46108 60.9197 6.46108L60.9153 6.45663Z" fill="url(#paint1_linear_916_5521)"/>
  <defs>
    <linearGradient id="paint0_linear_916_5521" x1="76.2855" y1="117.823" x2="76.2855" y2="23.7207" gradientUnits="userSpaceOnUse">
      <stop stop-color="#99989C"/>
      <stop offset="0.35" stop-color="#D1D1D3"/>
      <stop offset="0.65" stop-color="#D9D9DC"/>
      <stop offset="1" stop-color="#979B9F"/>
    </linearGradient>
    <linearGradient id="paint1_linear_916_5521" x1="76.2854" y1="-0.00222642" x2="76.2854" y2="149.569" gradientUnits="userSpaceOnUse">
      <stop stop-color="#99989C"/>
      <stop offset="0.35" stop-color="#D1D1D3"/>
      <stop offset="0.65" stop-color="#D9D9DC"/>
      <stop offset="1" stop-color="#979B9F"/>
    </linearGradient>
  </defs>
</svg>