<svg xmlns="http://www.w3.org/2000/svg" width="173" height="200" viewBox="0 0 173 200" fill="none">
  <path fill-rule="evenodd" clip-rule="evenodd" d="M43.3433 65.597C43.3433 89.6825 62.8612 109.206 86.938 109.206C111.015 109.206 130.531 89.6825 130.531 65.597C130.531 41.5114 111.011 21.9863 86.938 21.9863C62.8612 21.9863 43.3433 41.5114 43.3433 65.597ZM86.2119 98.7455C82.0719 98.5536 77.9154 97.722 73.8641 96.2651C69.7282 94.7835 65.8317 91.8574 62.2713 87.555C60.1817 84.9405 58.4613 81.8246 57.1577 78.2856C55.8499 74.7405 55.1898 70.4132 55.1898 65.4133C55.1898 55.0977 58.4964 46.9261 65.0148 41.1338C71.494 35.3724 78.757 32.4464 86.6017 32.4464C92.361 32.4464 97.0353 32.9787 100.501 34.0229C103.867 35.0464 106.84 36.0348 109.336 36.9655C109.868 37.1656 110.305 37.4731 110.635 37.8899C110.978 38.3171 111.159 38.8598 111.18 39.5036C111.394 40.6695 113.692 53.0466 113.688 53.0301C113.841 53.7936 113.828 54.4291 113.653 54.9718C113.447 55.5888 113.024 56.0861 112.432 56.4101L112.36 56.4514L112.281 56.4782C111.805 56.6536 111.054 56.7465 110.169 56.1914C109.616 55.8406 109.144 55.3268 108.75 54.6334C107.892 53.0012 107.009 51.4288 106.124 49.9616C105.229 48.4717 104.344 47.215 103.481 46.1998C102.161 44.5779 100.274 42.9931 97.8666 41.4908C95.5336 40.036 92.3383 39.2993 88.3695 39.2993C82.2988 39.2993 77.87 41.8808 74.8336 47.2006C71.7209 52.6545 70.1428 58.7749 70.1428 65.4071C70.1428 68.5375 70.475 71.7194 71.1268 74.8601C71.7745 77.974 72.7502 80.6834 74.0209 82.8893C75.7639 85.7948 77.9917 88.0255 80.6383 89.5277C83.2807 91.03 85.9932 91.7873 88.7058 91.7873C91.998 91.7873 94.8487 91.2198 97.1776 90.0952C99.7891 88.8364 100.216 88.1699 100.27 88.0585V77.1795C100.27 75.8506 99.9974 74.9179 99.457 74.4082C98.7391 73.7335 98.0213 73.1949 97.3323 72.8152C96.7816 72.5139 96.2287 72.2229 95.6924 71.9588C94.7332 71.4863 94.2051 70.6712 94.2051 69.6683C94.2051 68.4508 94.8467 67.8854 95.2283 67.6543C95.7357 67.353 96.4185 67.2127 97.3859 67.2127H115.421C116.413 67.2127 117.1 67.3241 117.581 67.5676C117.991 67.7719 118.684 68.3084 118.684 69.5754C118.684 70.1429 118.476 71.1747 117.088 71.7566C116.578 71.9671 116.046 72.2704 115.538 72.6253C115.072 72.9844 114.602 73.5044 114.14 74.1709C113.87 74.5651 113.548 75.3884 113.548 77.0867V89.3255C113.548 90.153 113.375 90.8546 113.042 91.4117C112.727 91.9317 112.351 92.33 111.848 92.6581C109.426 93.9891 105.992 95.4046 101.631 96.8656C97.8171 98.1471 93.4584 98.7888 88.646 98.7888C87.8456 98.7888 87.0349 98.7723 86.2098 98.7372L86.2119 98.7455ZM111.184 39.6295L111.167 39.419C111.167 39.419 111.174 39.45 111.184 39.5078C111.184 39.549 111.184 39.5882 111.184 39.6316V39.6295Z" fill="url(#paint0_linear_916_5510)"/>
  <path fill-rule="evenodd" clip-rule="evenodd" d="M72.6901 5.98424H72.6551C72.4302 5.9863 72.2136 6.00281 72.0115 6.03789C69.8827 6.40107 68.1108 8.38206 67.5951 9.0135C66.4605 9.36223 65.0228 9.85129 63.3499 10.5323C64.4762 9.73573 66.2213 8.35523 66.9288 7.016C68.4532 4.13119 67.2836 0 67.2836 0C67.2836 0 63.7315 1.50019 62.7228 4.4923C61.6708 7.61442 62.104 10.2207 62.2731 10.9842C59.9257 11.9974 57.1966 13.3655 54.2468 15.2103C55.2308 14.195 56.5902 12.6164 57.0316 11.2339C58.0527 8.0684 56.1446 4.11674 56.1446 4.11674C56.1446 4.11674 52.838 6.26281 52.3594 9.44065C51.8705 12.6825 52.7101 15.1814 53.0339 15.9882C50.7711 17.4781 48.3968 19.2465 45.9834 21.3472C46.7569 20.1627 47.6728 18.5264 47.8564 17.1892C48.3246 13.8298 45.7049 10.198 45.7049 10.198C45.7049 10.198 42.7634 12.9404 42.8438 16.2193C42.9181 19.4096 44.0897 21.7001 44.6075 22.5606C42.6314 24.2939 40.7233 26.3121 38.9245 28.5696C39.4031 27.3438 39.8404 25.8808 39.7971 24.7231C39.6733 21.2605 36.3956 18.0806 36.3956 18.0806C36.3956 18.0806 33.9244 21.3493 34.5886 24.6344C35.2053 27.6822 36.6782 29.7334 37.3919 30.5877C35.752 32.8535 34.2255 35.3235 32.8476 37.9545C33.1405 36.5822 33.3695 34.8922 33.1013 33.65C32.3587 30.1956 28.5096 27.5791 28.5096 27.5791C28.5096 27.5791 26.6077 31.3017 27.8536 34.4857C29.048 37.5377 30.9767 39.3577 31.808 40.0387C30.5827 42.6016 29.4997 45.3007 28.5942 48.1029C28.6519 46.6585 28.588 44.8735 28.0908 43.6498C26.7377 40.309 22.3996 38.361 22.3996 38.361C22.3996 38.361 21.1475 42.4427 22.9669 45.4162C24.7099 48.2783 26.9728 49.7661 27.9238 50.3006C27.175 52.9254 26.5809 55.6307 26.1663 58.3917C25.9559 57.0153 25.5825 55.4512 24.9327 54.4153C22.9772 51.2973 18.2762 50.1066 18.2762 50.1066C18.2762 50.1066 17.7378 54.4276 20.0893 57.0999C22.2676 59.572 24.7058 60.6801 25.8197 61.0867C25.5495 63.6537 25.434 66.2599 25.5 68.8847C25.0544 67.6404 24.4459 66.3156 23.6868 65.4758C21.1661 62.6921 16.2319 62.3268 16.2319 62.3268C16.2319 62.3268 16.4588 66.7655 19.2993 69.0333C21.853 71.0741 24.4253 71.7695 25.6609 72.0007C25.8589 74.5037 26.2261 77.0192 26.7768 79.5264C26.1003 78.3357 25.2442 77.0831 24.3139 76.3568C22.2387 74.7452 19.2291 74.4769 17.5377 74.4687H17.3912C16.7002 74.4728 16.2629 74.5161 16.2629 74.5161C16.2629 74.5161 17.2778 78.9362 20.5308 80.7108C23.497 82.3307 26.2426 82.5597 27.505 82.5659C28.0847 84.9596 28.8252 87.2811 29.7039 89.5262C28.8438 88.5068 27.8206 87.4895 26.8181 86.9571C25.4794 86.2473 23.9137 86.0244 22.5007 86.0182H22.4327C20.2275 86.0182 18.4082 86.5341 18.4082 86.5341C18.4082 86.5341 20.209 90.7973 23.7879 92.0024C26.9852 93.0796 29.7287 92.8609 31.0365 92.6463C32.0947 94.9327 33.2973 97.1303 34.6175 99.231C33.5407 98.3189 32.2721 97.4151 31.119 97.0436C30.329 96.7898 29.4997 96.6867 28.6808 96.6846H28.6437C25.5351 96.6846 22.5915 98.1064 22.5915 98.1064C22.5915 98.1064 25.1576 102.07 28.9696 102.648C32.4515 103.174 35.2157 102.423 36.4533 101.982C37.9385 104.082 39.5413 106.074 41.2369 107.947C39.9642 107.192 38.4666 106.464 37.198 106.288C36.8721 106.243 36.54 106.222 36.212 106.222C32.4907 106.222 28.819 108.87 28.819 108.87C28.819 108.87 32.105 112.398 36.0366 112.303C39.6589 112.217 42.3178 110.952 43.4668 110.292C45.2738 112.101 47.1633 113.785 49.1085 115.333C47.7738 114.831 46.2474 114.394 44.985 114.394C44.919 114.394 44.855 114.394 44.7911 114.398C40.647 114.551 36.8287 118.48 36.8287 118.48C36.8287 118.48 40.748 121.443 44.6879 120.648C48.271 119.926 50.703 118.211 51.7591 117.334C53.7167 118.735 55.7155 120.005 57.7288 121.129C56.8955 120.991 56.0229 120.896 55.206 120.896H55.1565C54.6367 120.896 54.1416 120.939 53.6961 121.034C49.5561 121.926 46.4186 126.548 46.4186 126.548C46.4186 126.548 50.8845 128.832 54.7006 127.334C58.0444 126.024 60.1546 123.981 61.1159 122.877C63.2818 123.907 65.4436 124.767 67.5724 125.444C66.1738 125.465 64.6989 125.617 63.6036 126.065C59.5936 127.695 57.2585 132.893 57.2585 132.893C57.2585 132.893 62.1514 134.398 65.7221 132.214C68.9668 130.236 70.7387 127.695 71.4607 126.459C76.5351 127.369 80.7597 128.791 84.2004 130.345C77.9646 133.626 75.4192 136.657 75.4192 136.657L77.6346 138.628C77.6346 138.628 80.5369 135.097 86.9336 131.686C93.3323 135.097 96.2326 138.628 96.2326 138.628L98.448 136.657C98.448 136.657 95.9025 133.624 89.6668 130.345C93.1054 128.791 97.33 127.369 102.402 126.459C103.126 127.695 104.898 130.236 108.141 132.214C111.712 134.398 116.605 132.893 116.605 132.893C116.605 132.893 114.269 127.695 110.262 126.065C109.166 125.619 107.693 125.465 106.295 125.444C108.424 124.767 110.585 123.909 112.751 122.879C113.713 123.983 115.823 126.026 119.164 127.334C122.979 128.832 127.449 126.548 127.449 126.548C127.449 126.548 124.309 121.926 120.167 121.034C119.721 120.939 119.226 120.898 118.709 120.896H118.659C117.844 120.896 116.972 120.991 116.14 121.129C118.154 120.007 120.15 118.738 122.108 117.336C123.166 118.213 125.598 119.926 129.179 120.65C133.113 121.445 137.038 118.482 137.038 118.482C137.038 118.482 133.222 114.553 129.074 114.4C129.012 114.396 128.946 114.396 128.88 114.396C127.622 114.396 126.1 114.833 124.765 115.333C126.71 113.785 128.598 112.103 130.405 110.296C131.556 110.956 134.212 112.219 137.833 112.308C141.766 112.405 145.048 108.874 145.048 108.874C145.048 108.874 141.372 106.224 137.651 106.226C137.321 106.226 136.991 106.245 136.663 106.292C135.399 106.468 133.909 107.192 132.639 107.945C134.332 106.074 135.933 104.084 137.414 101.986C138.652 102.429 141.416 103.176 144.891 102.652C148.701 102.075 151.274 98.1105 151.274 98.1105C151.274 98.1105 148.328 96.6887 145.219 96.6887H145.18C144.361 96.6908 143.532 96.794 142.744 97.0478C141.595 97.4172 140.331 98.3168 139.256 99.2269C140.574 97.1283 141.775 94.9327 142.833 92.6504C144.141 92.8629 146.88 93.0817 150.073 92.0066C153.656 90.8015 155.459 86.5382 155.459 86.5382C155.459 86.5382 153.638 86.0223 151.435 86.0223H151.366C149.951 86.0285 148.386 86.2514 147.047 86.9613C146.047 87.4916 145.025 88.5048 144.169 89.52C145.046 87.279 145.785 84.9596 146.364 82.5701C147.627 82.5639 150.368 82.3328 153.332 80.715C156.587 78.9403 157.604 74.5202 157.604 74.5202C157.604 74.5202 157.169 74.4769 156.476 74.4728H156.33C154.64 74.481 151.626 74.7472 149.555 76.3609C148.627 77.0852 147.771 78.3357 147.094 79.5222C147.645 77.0171 148.01 74.5058 148.21 72.0027C149.448 71.7716 152.016 71.0741 154.57 69.0374C157.408 66.7696 157.631 62.331 157.631 62.331C157.631 62.331 152.697 62.6962 150.18 65.4799C149.423 66.3156 148.819 67.6301 148.373 68.8682C148.439 66.2496 148.324 63.6516 148.054 61.0908C149.17 60.6822 151.604 59.5741 153.778 57.1061C156.129 54.4359 155.595 50.1128 155.595 50.1128C155.595 50.1128 150.892 51.3035 148.941 54.4215C148.293 55.4512 147.92 57.0112 147.709 58.3814C147.295 55.6266 146.7 52.9254 145.952 50.3047C146.905 49.7682 149.165 48.2804 150.906 45.4224C152.724 42.4489 151.472 38.3672 151.472 38.3672C151.472 38.3672 147.138 40.3152 145.78 43.656C145.285 44.8756 145.224 46.6502 145.279 48.0926C144.374 45.2945 143.291 42.5995 142.07 40.0407C142.903 39.3577 144.827 37.5397 146.02 34.4919C147.268 31.3099 145.362 27.5853 145.362 27.5853C145.362 27.5853 141.511 30.2018 140.768 33.6562C140.504 34.8922 140.729 36.574 141.02 37.9421C139.644 35.3152 138.119 32.8514 136.484 30.5918C137.199 29.7375 138.67 27.6864 139.283 24.6427C139.947 21.3575 137.476 18.0889 137.476 18.0889C137.476 18.0889 134.198 21.2709 134.072 24.7314C134.031 25.887 134.468 27.3438 134.945 28.5675C133.148 26.3121 131.238 24.296 129.264 22.5647C129.784 21.7001 130.951 19.4116 131.025 16.2276C131.108 12.9486 128.166 10.2062 128.166 10.2062C128.166 10.2062 125.549 13.8401 126.015 17.1975C126.199 18.5305 127.108 20.1586 127.878 21.3431C125.468 19.2465 123.098 17.4822 120.837 15.9944C121.163 15.1834 122.003 12.6886 121.512 9.4489C121.029 6.27107 117.729 4.12499 117.729 4.12499C117.729 4.12499 115.819 8.07665 116.842 11.2421C117.283 12.6226 118.638 14.1991 119.62 15.2144C116.673 13.3717 113.944 12.0035 111.598 10.9904C111.767 10.2227 112.196 7.62061 111.146 4.50056C110.142 1.50844 106.584 0.00825431 106.584 0.00825431C106.584 0.00825431 105.418 4.13944 106.938 7.02425C107.648 8.36348 109.391 9.74192 110.517 10.5384C108.846 9.85748 107.407 9.36842 106.274 9.01969C105.756 8.38618 103.987 6.40932 101.858 6.04614C101.658 6.01106 101.441 5.99662 101.216 5.99249H101.183C99.3804 5.99249 97.002 6.90044 97.002 6.90044C97.002 6.90044 98.4645 8.89381 101.41 9.90494C103.537 10.6354 105.907 9.48811 106.355 9.25286C107.838 9.77287 109.824 10.5323 112.155 11.6404C111.458 11.5104 110 11.2731 108.574 11.2731H108.537C107.751 11.2731 106.978 11.3515 106.348 11.5558C103.256 12.5731 101.222 16.3576 101.222 16.3576C101.222 16.3576 104.826 17.7402 107.623 16.2854C110.738 14.6696 112.236 12.309 112.522 11.8137C114.977 13.0002 117.793 14.5665 120.79 16.6341C119.678 16.2441 117.718 15.6436 116.14 15.6436C115.897 15.6436 115.662 15.6581 115.441 15.689C112.149 16.1595 109.438 19.6035 109.438 19.6035C109.438 19.6035 112.813 21.634 115.881 20.6683C119.101 19.6592 120.99 17.734 121.514 17.1397C123.756 18.7307 126.091 20.6023 128.445 22.8041L128.989 23.2931C127.77 22.6101 125.501 21.4731 123.82 21.4174C123.758 21.4174 123.696 21.4174 123.635 21.4174C120.307 21.4174 117.095 24.296 117.095 24.296C117.095 24.296 120.126 26.9332 123.379 26.5081C126.819 26.0603 129.068 24.4363 129.68 23.9452C131.902 26.0789 134.014 28.5758 135.955 31.3656C134.846 30.4598 132.787 28.9369 131.118 28.5861C130.695 28.4973 130.264 28.4561 129.835 28.454H129.794C126.795 28.454 123.851 30.2802 123.851 30.2802C123.851 30.2802 126.432 33.4704 129.775 33.619C133.241 33.7758 135.753 32.5955 136.514 32.1869C138.148 34.6281 139.65 37.2777 140.978 40.0923C139.972 38.9924 138.478 37.5562 137.113 37.0073C136.211 36.6462 135.231 36.5162 134.285 36.5162C131.787 36.5162 129.513 37.4283 129.513 37.4283C129.513 37.4283 131.539 41.0869 134.873 41.8277C138.076 42.5438 140.661 41.9598 141.688 41.6503C142.833 44.2627 143.831 47.001 144.642 49.8363C143.829 48.6023 142.682 47.1021 141.513 46.3716C140.003 45.4327 138.103 45.1954 136.568 45.1954C134.992 45.1954 133.8 45.4451 133.8 45.4451C133.8 45.4451 135.188 49.4793 138.408 50.8206C141.407 52.069 144.042 51.9844 145.186 51.8606C145.892 54.6691 146.418 57.5601 146.731 60.5006C146.133 59.1057 145.234 57.3496 144.167 56.3963C141.785 54.2543 137.793 54.0995 136.807 54.0954H136.713C136.628 54.0954 136.583 54.0995 136.583 54.0995C136.583 54.0995 137.265 58.3999 140.263 60.3149C143.076 62.1122 145.758 62.4857 146.915 62.5621C147.121 65.4242 147.125 68.3255 146.899 71.2392C146.546 69.7225 145.95 67.7787 145.042 66.619C142.721 63.6661 137.826 62.9645 137.826 62.9645C137.826 62.9645 137.75 67.4072 140.426 69.8649C142.921 72.1637 145.541 73.0201 146.698 73.3048C146.397 75.911 145.908 78.5214 145.209 81.1132C145.102 79.6048 144.834 77.7992 144.192 76.6003C142.385 73.2202 137.585 71.6478 137.585 71.6478C137.585 71.6478 136.717 76.0988 138.967 79.0435C141.015 81.7158 143.414 83.0405 144.57 83.5647C143.835 86.1627 142.911 88.6657 141.826 91.0656C141.993 89.5138 142.055 87.5989 141.616 86.2493C140.397 82.537 135.854 80.1041 135.854 80.1041C135.854 80.1041 134.194 84.4231 135.935 87.7763C137.511 90.8221 139.679 92.5741 140.751 93.3087C139.6 95.5786 138.305 97.7535 136.892 99.8191C137.282 98.3726 137.595 96.6743 137.41 95.3701C136.847 91.4205 132.713 88.1725 132.713 88.1725C132.713 88.1725 130.279 92.2191 131.436 95.9025C132.443 99.1051 134.204 101.212 135.18 102.196C133.691 104.161 132.096 106.018 130.423 107.762C131.023 106.437 131.562 104.914 131.603 103.661C131.731 99.5942 128.158 95.5971 128.158 95.5971C128.158 95.5971 124.992 99.2331 125.505 103.133C125.937 106.466 127.29 108.866 128.105 110.054C126.337 111.717 124.495 113.259 122.611 114.67C123.424 113.469 124.2 112.079 124.455 110.861C125.307 106.798 122.417 102.145 122.417 102.145C122.417 102.145 118.597 105.24 118.418 109.249C118.263 112.669 119.193 115.318 119.802 116.658C117.698 118.061 115.559 119.305 113.413 120.38C114.513 119.272 115.647 117.92 116.151 116.662C117.727 112.726 115.649 107.539 115.649 107.539C115.649 107.539 111.258 109.972 110.371 113.971C109.593 117.446 110.094 120.316 110.47 121.744C108.219 122.71 105.985 123.484 103.805 124.051C105.041 123.162 106.313 122.066 107.006 120.954C109.286 117.281 108.116 111.697 108.116 111.697C108.116 111.697 103.275 113.364 101.674 117.229C100.371 120.359 100.28 123.16 100.375 124.738C97.2083 125.343 94.3348 126.152 91.7626 127.074C89.9948 127.702 88.392 128.354 86.9398 129.014C85.4876 128.354 83.8827 127.702 82.1149 127.074C79.5427 126.152 76.6692 125.341 73.5008 124.738C73.5957 123.16 73.5049 120.357 72.2033 117.229C70.6005 113.364 65.7612 111.697 65.7612 111.697C65.7612 111.697 64.5896 117.281 66.871 120.954C67.5621 122.066 68.8348 123.16 70.0683 124.049C67.888 123.48 65.654 122.708 63.4056 121.742C63.7831 120.312 64.2823 117.444 63.5087 113.969C62.6197 109.97 58.2301 107.537 58.2301 107.537C58.2301 107.537 56.1528 112.724 57.7267 116.66C58.2301 117.916 59.3646 119.268 60.4599 120.374C58.3167 119.301 56.1776 118.057 54.0777 116.653C54.6862 115.312 55.6186 112.665 55.468 109.245C55.2844 105.236 51.4621 102.141 51.4621 102.141C51.4621 102.141 48.5722 106.794 49.4282 110.857C49.6819 112.072 50.4534 113.461 51.2641 114.66C49.3828 113.251 47.5449 111.709 45.7791 110.05C46.5939 108.861 47.943 106.464 48.3782 103.131C48.8877 99.231 45.7214 95.5951 45.7214 95.5951C45.7214 95.5951 42.1466 99.5921 42.2765 103.659C42.3178 104.912 42.8582 106.431 43.4585 107.753C41.7835 106.012 40.1911 104.155 38.7038 102.192C39.6816 101.208 41.4432 99.101 42.4478 95.9005C43.6029 92.2191 41.1709 88.1705 41.1709 88.1705C41.1709 88.1705 37.0309 91.4185 36.4698 95.3681C36.2842 96.6681 36.5977 98.3623 36.9876 99.8088C35.5766 97.7432 34.2812 95.5744 33.1323 93.3045C34.2049 92.5699 36.3688 90.818 37.9447 87.7743C39.6878 84.421 38.0272 80.1021 38.0272 80.1021C38.0272 80.1021 33.4871 82.535 32.2659 86.2473C31.8265 87.5927 31.8864 89.4994 32.0514 91.0491C30.9684 88.6513 30.0443 86.1524 29.312 83.5606C30.4672 83.0364 32.8682 81.7137 34.9145 79.0414C37.1609 76.0968 36.2945 71.6457 36.2945 71.6457C36.2945 71.6457 31.4965 73.2181 29.6957 76.5982C29.0521 77.7971 28.7839 79.6027 28.6746 81.1111C27.9753 78.5193 27.4864 75.9069 27.1853 73.3007C28.3425 73.0159 30.9622 72.1616 33.4602 69.8628C36.1315 67.4052 36.0531 62.9624 36.0531 62.9624C36.0531 62.9624 31.1561 63.664 28.8396 66.6169C27.932 67.7746 27.3359 69.7205 26.9831 71.2372C26.7562 68.3255 26.7604 65.4221 26.9666 62.56C28.13 62.4837 30.8055 62.1081 33.615 60.3128C36.6142 58.3958 37.2949 54.0975 37.2949 54.0975L37.165 54.0934H37.0701C36.0862 54.0975 32.0926 54.2522 29.708 56.3942C28.6457 57.3455 27.7484 59.0892 27.1502 60.4841C27.4638 57.5498 27.9898 54.665 28.6932 51.8606C29.8421 51.9844 32.4701 52.067 35.4694 50.8206C38.6894 49.4814 40.0735 45.4451 40.0735 45.4451C40.0735 45.4451 38.8833 45.1954 37.3073 45.1954C35.7726 45.1954 33.8728 45.4327 32.3649 46.3716C31.1994 47.098 30.0546 48.5899 29.2439 49.8219C30.0546 46.9928 31.0489 44.2565 32.1937 41.6503C33.2251 41.9598 35.8077 42.5397 39.0029 41.8257C42.3405 41.0849 44.3599 37.4262 44.3599 37.4262C44.3599 37.4262 42.0888 36.5142 39.5908 36.5142C38.644 36.5142 37.6642 36.6441 36.7628 37.0053C35.4034 37.5521 33.914 38.9801 32.9095 40.0779C34.2338 37.2694 35.7314 34.6219 37.363 32.1869C38.1283 32.5976 40.6408 33.7738 44.098 33.617C47.4438 33.4704 50.0223 30.2782 50.0223 30.2782C50.0223 30.2782 47.0828 28.4519 44.0835 28.4519H44.0423C43.6132 28.4519 43.1821 28.4953 42.7592 28.584C41.0946 28.9348 39.0421 30.4515 37.9303 31.3574C39.8672 28.5696 41.9816 26.0727 44.199 23.9411C44.8117 24.4322 47.0622 26.0562 50.4946 26.504C53.7518 26.9291 56.782 24.2919 56.782 24.2919C56.782 24.2919 53.5702 21.4132 50.2451 21.4132C50.1832 21.4132 50.1213 21.4132 50.0594 21.4132C48.3762 21.469 46.1113 22.606 44.8922 23.289L45.4347 22.7999C47.7883 20.6002 50.1213 18.7307 52.3635 17.1397C52.8916 17.736 54.7832 19.6572 57.999 20.6642C61.0643 21.6278 64.4411 19.5994 64.4411 19.5994C64.4411 19.5994 61.7285 16.1554 58.4363 15.6849C58.2156 15.6539 57.9805 15.6395 57.737 15.6395C56.1631 15.6395 54.2097 16.2338 53.0958 16.6259C56.091 14.5603 58.9025 12.9982 61.3572 11.8116C61.646 12.309 63.1395 14.6676 66.2563 16.2812C69.0493 17.736 72.6571 16.3535 72.6571 16.3535C72.6571 16.3535 70.6232 12.569 67.5311 11.5516C66.904 11.3453 66.1305 11.271 65.3425 11.2689H65.3054C63.8841 11.2689 62.4299 11.5042 61.7306 11.6342C64.0595 10.5302 66.0439 9.76875 67.527 9.2508C67.9808 9.48811 70.3447 10.6292 72.4673 9.90081C75.415 8.88968 76.8734 6.89631 76.8734 6.89631C76.8734 6.89631 74.4992 5.98836 72.6942 5.98836L72.6901 5.98424Z" fill="url(#paint1_linear_916_5510)"/>
  <path d="M16.994 179.609L14.0691 178.958C12.4132 178.586 11.1593 178.111 10.3075 177.53C9.45565 176.949 9.04603 176.163 9.07619 175.172C9.07619 174.536 9.26219 173.968 9.63408 173.465C10.006 172.963 10.5562 172.57 11.2824 172.291C12.0111 172.012 12.8931 171.874 13.9309 171.874C14.9687 171.874 15.916 172.025 16.6824 172.327C17.4488 172.628 18.0419 173.073 18.459 173.661C18.8761 174.25 19.1249 174.953 19.2028 175.775H26.7964C26.7813 173.717 26.2436 171.892 25.1832 170.303C24.1228 168.714 22.6277 167.488 20.7004 166.62C18.7731 165.753 16.5316 165.318 13.9761 165.318C11.4206 165.318 9.1767 165.748 7.1941 166.608C5.21151 167.468 3.66363 168.687 2.55046 170.268C1.43478 171.846 0.887039 173.659 0.902116 175.705C0.887039 178.168 1.68354 180.159 3.29424 181.675C4.90494 183.193 7.2117 184.299 10.2145 184.998L13.745 185.835C15.029 186.129 16.0668 186.444 16.8584 186.775C17.6474 187.107 18.2329 187.512 18.6123 187.985C18.9917 188.457 19.1877 189.01 19.2053 189.646C19.1902 190.357 18.9741 190.986 18.5545 191.529C18.1374 192.072 17.5242 192.497 16.7201 192.806C15.9161 193.115 14.9562 193.271 13.8405 193.271C12.6168 193.271 11.5538 193.09 10.6467 192.725C9.74208 192.361 9.02347 191.808 8.49829 191.064C7.9706 190.32 7.6766 189.415 7.6163 188.346H0C0.0452303 190.885 0.643244 193.009 1.78908 194.711C2.93491 196.415 4.53811 197.7 6.59609 198.567C8.65407 199.434 11.1091 199.859 13.9586 199.844C16.7151 199.844 19.0947 199.442 21.0999 198.638C23.1051 197.833 24.6329 196.667 25.6858 195.141C26.7386 193.615 27.2638 191.793 27.2638 189.669C27.2488 187.004 26.3743 184.847 24.6405 183.198C22.9067 181.549 20.3586 180.353 16.999 179.609H16.994Z" fill="url(#paint2_linear_916_5510)"/>
  <path d="M58.9779 165.469H30.332V172.004H40.6345V199.404H48.4242V172.004H58.9779V165.469Z" fill="url(#paint3_linear_916_5510)"/>
  <path d="M68.6118 165.469L57.1333 199.404H65.9633L68.1846 192.365H79.6304L81.8517 199.404H90.6816L79.1781 165.469H68.6118ZM69.9611 186.081L73.7681 174.015H74.0469L77.8539 186.081H69.9611Z" fill="url(#paint4_linear_916_5510)"/>
  <path d="M112.965 165.469L105.651 179.797H105.369L98.0318 165.469H88.8701L101.444 187.919V199.404H109.485V188.007L121.949 165.469H112.965Z" fill="url(#paint5_linear_916_5510)"/>
  <path d="M136.372 179.543H120.792V185.576H136.372V179.543Z" fill="url(#paint6_linear_916_5510)"/>
  <path d="M158.233 181.051V186.832H164.927C164.887 187.993 164.616 189.014 164.108 189.886C163.573 190.804 162.774 191.515 161.711 192.02C160.648 192.526 159.381 192.777 157.914 192.777C156.245 192.762 154.816 192.352 153.622 191.548C152.428 190.743 151.514 189.582 150.881 188.059C150.245 186.535 149.928 184.688 149.928 182.516C149.928 180.344 150.252 178.559 150.903 177.029C151.554 175.498 152.476 174.336 153.667 173.54C154.861 172.745 156.276 172.346 157.911 172.346C158.997 172.346 159.964 172.522 160.814 172.873C161.663 173.225 162.374 173.733 162.947 174.399C163.52 175.065 163.937 175.857 164.198 176.775H172.546C172.546 176.775 171.455 172.396 170.119 170.636C168.782 168.877 167.043 167.512 164.9 166.541C162.756 165.571 160.397 165.086 157.816 165.086C154.783 165.086 152.042 165.777 149.594 167.162C147.147 168.547 145.214 170.563 143.8 173.215C142.385 175.867 141.676 178.992 141.676 182.589C141.676 186.186 142.357 189.205 143.717 191.834C145.076 194.464 146.986 196.48 149.441 197.887C151.896 199.295 154.733 199.999 157.954 199.999C160.861 199.999 163.447 199.416 165.706 198.252C167.965 197.086 169.724 195.409 170.983 193.219C172.242 191.03 172.87 188.448 172.802 185.477V181.048H158.228L158.233 181.051Z" fill="url(#paint7_linear_916_5510)"/>
  <defs>
    <linearGradient id="paint0_linear_916_5510" x1="86.9359" y1="109.203" x2="86.9359" y2="21.9863" gradientUnits="userSpaceOnUse">
      <stop stop-color="#99989C"/>
      <stop offset="0.35" stop-color="#D1D1D3"/>
      <stop offset="0.65" stop-color="#D9D9DC"/>
      <stop offset="1" stop-color="#979B9F"/>
    </linearGradient>
    <linearGradient id="paint1_linear_916_5510" x1="86.9356" y1="-0.00206353" x2="86.9356" y2="138.626" gradientUnits="userSpaceOnUse">
      <stop stop-color="#99989C"/>
      <stop offset="0.35" stop-color="#D1D1D3"/>
      <stop offset="0.65" stop-color="#D9D9DC"/>
      <stop offset="1" stop-color="#979B9F"/>
    </linearGradient>
    <linearGradient id="paint2_linear_916_5510" x1="-2.00772" y1="182.583" x2="173.295" y2="182.583" gradientUnits="userSpaceOnUse">
      <stop stop-color="#99989C"/>
      <stop offset="0.35" stop-color="#D1D1D3"/>
      <stop offset="0.65" stop-color="#D9D9DC"/>
      <stop offset="1" stop-color="#979B9F"/>
    </linearGradient>
    <linearGradient id="paint3_linear_916_5510" x1="-2.00765" y1="182.436" x2="173.295" y2="182.436" gradientUnits="userSpaceOnUse">
      <stop stop-color="#99989C"/>
      <stop offset="0.35" stop-color="#D1D1D3"/>
      <stop offset="0.65" stop-color="#D9D9DC"/>
      <stop offset="1" stop-color="#979B9F"/>
    </linearGradient>
    <linearGradient id="paint4_linear_916_5510" x1="-2.00785" y1="182.436" x2="173.295" y2="182.436" gradientUnits="userSpaceOnUse">
      <stop stop-color="#99989C"/>
      <stop offset="0.35" stop-color="#D1D1D3"/>
      <stop offset="0.65" stop-color="#D9D9DC"/>
      <stop offset="1" stop-color="#979B9F"/>
    </linearGradient>
    <linearGradient id="paint5_linear_916_5510" x1="-2.00774" y1="182.436" x2="173.295" y2="182.436" gradientUnits="userSpaceOnUse">
      <stop stop-color="#99989C"/>
      <stop offset="0.35" stop-color="#D1D1D3"/>
      <stop offset="0.65" stop-color="#D9D9DC"/>
      <stop offset="1" stop-color="#979B9F"/>
    </linearGradient>
    <linearGradient id="paint6_linear_916_5510" x1="-2.00783" y1="182.559" x2="173.295" y2="182.559" gradientUnits="userSpaceOnUse">
      <stop stop-color="#99989C"/>
      <stop offset="0.35" stop-color="#D1D1D3"/>
      <stop offset="0.65" stop-color="#D9D9DC"/>
      <stop offset="1" stop-color="#979B9F"/>
    </linearGradient>
    <linearGradient id="paint7_linear_916_5510" x1="-2.00775" y1="182.546" x2="173.295" y2="182.546" gradientUnits="userSpaceOnUse">
      <stop stop-color="#99989C"/>
      <stop offset="0.35" stop-color="#D1D1D3"/>
      <stop offset="0.65" stop-color="#D9D9DC"/>
      <stop offset="1" stop-color="#979B9F"/>
    </linearGradient>
  </defs>
</svg>