<svg width="271" height="70" viewBox="0 0 271 70" fill="none" xmlns="http://www.w3.org/2000/svg">
<path fill-rule="evenodd" clip-rule="evenodd" d="M13.6865 33.1208C13.6865 45.2814 23.54 55.1384 35.6998 55.1384C47.8595 55.1384 57.713 45.2814 57.713 33.1208C57.713 20.9601 47.856 11.0996 35.6998 11.0996C23.5435 11.0996 13.6865 20.9601 13.6865 33.1208ZM35.3312 49.8605C33.239 49.7622 31.1434 49.3443 29.0969 48.6069C27.0082 47.8589 25.0425 46.3805 23.2452 44.2069C22.1886 42.8865 21.3215 41.3133 20.6615 39.5259C20.0016 37.735 19.6681 35.5508 19.6681 33.026C19.6681 27.8183 21.339 23.6922 24.6282 20.767C27.8998 17.8559 31.5681 16.381 35.5278 16.381C38.4343 16.381 40.7968 16.6479 42.5449 17.1782C44.2439 17.6944 45.7463 18.193 47.0065 18.6636C47.2768 18.7654 47.4944 18.9199 47.6629 19.1306C47.8349 19.3448 47.9262 19.6222 47.9367 19.9453C48.0455 20.5352 49.204 26.7824 49.204 26.7753C49.2812 27.1616 49.2742 27.4812 49.1864 27.7551C49.0811 28.0676 48.867 28.3169 48.5686 28.482L48.5335 28.503L48.4949 28.5171C48.2562 28.6049 47.8736 28.654 47.4277 28.3731C47.1469 28.1975 46.9117 27.9377 46.7116 27.5865C46.2799 26.7613 45.834 25.9677 45.3847 25.2267C44.9319 24.4753 44.4861 23.8397 44.0508 23.327C43.3838 22.5088 42.4326 21.7081 41.2145 20.9496C40.035 20.2157 38.4237 19.8435 36.4193 19.8435C33.3548 19.8435 31.1188 21.1463 29.5847 23.8326C28.0121 26.5857 27.2153 29.6759 27.2153 33.026C27.2153 34.6062 27.3838 36.2145 27.7138 37.7982C28.0403 39.3714 28.5352 40.7374 29.1741 41.8541C30.0552 43.3219 31.1785 44.4492 32.5159 45.2077C33.8498 45.9662 35.2189 46.3489 36.5879 46.3489C38.2518 46.3489 39.691 46.061 40.867 45.4956C42.1869 44.86 42.401 44.5229 42.4291 44.4667V38.9746C42.4291 38.3039 42.2922 37.8333 42.0184 37.577C41.6568 37.2364 41.2917 36.9625 40.9442 36.7728C40.6669 36.6218 40.386 36.4743 40.1157 36.3409C39.6313 36.1021 39.3645 35.6913 39.3645 35.1856C39.3645 34.5711 39.6875 34.2866 39.8806 34.1672C40.1368 34.0162 40.4809 33.9425 40.9688 33.9425H50.0745C50.5765 33.9425 50.9205 33.9987 51.1662 34.1216C51.3733 34.2234 51.7244 34.4973 51.7244 35.1364C51.7244 35.4209 51.6191 35.9441 50.917 36.2391C50.6607 36.3444 50.3904 36.4989 50.1342 36.678C49.899 36.8606 49.6603 37.124 49.4286 37.4576C49.2917 37.6578 49.1303 38.0721 49.1303 38.9289V45.1093C49.1303 45.5272 49.0425 45.8819 48.874 46.1628C48.7161 46.4262 48.5264 46.6264 48.2702 46.7914C47.0486 47.4621 45.3145 48.1785 43.11 48.9159C41.1864 49.562 38.9819 49.8886 36.5528 49.8886C36.1491 49.8886 35.7384 49.8816 35.3242 49.8605H35.3312ZM47.9402 20.012L47.9332 19.9067C47.9332 19.9067 47.9332 19.9207 47.9402 19.9523C47.9402 19.9734 47.9402 19.9945 47.9402 20.0155V20.012Z" fill="url(#paint0_linear_916_5524)"/>
<path fill-rule="evenodd" clip-rule="evenodd" d="M28.5038 3.02347H28.4863C28.374 3.02347 28.2616 3.03401 28.1634 3.05157C27.0892 3.23417 26.194 4.23498 25.9343 4.55453C25.3621 4.73011 24.6354 4.97592 23.7894 5.32005C24.3581 4.91973 25.2392 4.22093 25.5973 3.54319C26.3661 2.08588 25.7763 0 25.7763 0C25.7763 0 23.9825 0.7585 23.4735 2.26848C22.9435 3.84519 23.1611 5.16203 23.2454 5.54831C22.0589 6.061 20.6828 6.74926 19.1945 7.68335C19.6929 7.17065 20.3774 6.37353 20.6021 5.67473C21.1181 4.07696 20.1528 2.08237 20.1528 2.08237C20.1528 2.08237 18.4819 3.16394 18.2397 4.76873C17.9939 6.40513 18.4152 7.6658 18.5802 8.07665C17.4358 8.82813 16.2388 9.72007 15.0207 10.7841C15.4103 10.1871 15.8737 9.35838 15.9649 8.68415C16.2001 6.98805 14.8803 5.15501 14.8803 5.15501C14.8803 5.15501 13.3954 6.53858 13.434 8.19605C13.4726 9.80787 14.0623 10.9632 14.3256 11.3986C13.3287 12.273 12.3634 13.2914 11.4577 14.4326C11.6999 13.8146 11.9211 13.0736 11.8965 12.4907C11.8333 10.7419 10.1799 9.13715 10.1799 9.13715C10.1799 9.13715 8.93378 10.7876 9.26726 12.4451C9.57968 13.9831 10.3203 15.0191 10.6819 15.451C9.85345 16.5958 9.08121 17.8424 8.38617 19.1698C8.5336 18.478 8.64944 17.6247 8.51253 16.9961C8.13693 15.2508 6.19222 13.9305 6.19222 13.9305C6.19222 13.9305 5.23387 15.8092 5.86222 17.4175C6.466 18.9591 7.43838 19.8756 7.85962 20.2197C7.2418 21.5155 6.69419 22.878 6.23785 24.2932C6.26593 23.5628 6.23782 22.6638 5.98508 22.0458C5.30056 20.3602 3.11014 19.3734 3.11014 19.3734C3.11014 19.3734 2.47826 21.4347 3.39797 22.9342C4.27906 24.381 5.41992 25.1324 5.90083 25.3993C5.52172 26.7267 5.22337 28.0892 5.01275 29.4833C4.90744 28.788 4.71788 27.9979 4.39142 27.4747C3.40502 25.9015 1.03201 25.301 1.03201 25.301C1.03201 25.301 0.758204 27.4817 1.9482 28.8301C3.04693 30.0767 4.2791 30.6386 4.84075 30.8423C4.70385 32.1381 4.64765 33.4549 4.67925 34.7788C4.45458 34.1502 4.14919 33.483 3.76306 33.0581C2.48881 31.6535 0 31.4673 0 31.4673C0 31.4673 0.115853 33.7077 1.54806 34.8525C2.83635 35.8814 4.13514 36.2361 4.75998 36.352C4.86178 37.6161 5.04435 38.8873 5.32518 40.1515C4.98467 39.551 4.54938 38.9189 4.08251 38.5502C3.03643 37.7355 1.51646 37.6021 0.659942 37.5986H0.586239C0.238717 37.5986 0.0175259 37.6231 0.0175259 37.6231C0.0175259 37.6231 0.530038 39.853 2.17287 40.752C3.67178 41.5702 5.05837 41.6861 5.69373 41.6896C5.98509 42.8976 6.36071 44.0704 6.80301 45.2047C6.36773 44.692 5.8517 44.1758 5.34622 43.9089C4.66872 43.5507 3.87891 43.4383 3.16632 43.4348H3.13122C2.01845 43.4348 1.09873 43.6947 1.09873 43.6947C1.09873 43.6947 2.0079 45.8473 3.81572 46.4548C5.43047 46.9991 6.81702 46.8867 7.47696 46.7814C8.01053 47.9367 8.61783 49.0464 9.28479 50.1069C8.74069 49.6468 8.10184 49.1903 7.51913 49.0042C7.11895 48.8743 6.70122 48.8251 6.287 48.8216H6.26943C4.70032 48.8216 3.21547 49.5415 3.21547 49.5415C3.21547 49.5415 4.51075 51.5431 6.43441 51.8345C8.19308 52.1014 9.58668 51.7222 10.2115 51.4974C10.9627 52.5579 11.7701 53.5622 12.6266 54.5104C11.9842 54.1276 11.2295 53.7624 10.5871 53.6711C10.4222 53.6465 10.2537 53.6395 10.0887 53.6395C8.21064 53.6395 6.35368 54.9774 6.35368 54.9774C6.35368 54.9774 8.01406 56.7613 9.99739 56.7122C11.8263 56.6665 13.1672 56.0309 13.75 55.6973C14.6626 56.6103 15.6174 57.4601 16.6003 58.2432C15.9263 57.9904 15.1541 57.7691 14.5187 57.7691C14.4871 57.7691 14.452 57.7691 14.4204 57.7691C12.3282 57.8464 10.4011 59.8304 10.4011 59.8304C10.4011 59.8304 12.3809 61.3264 14.3677 60.9261C16.1755 60.5609 17.4042 59.697 17.9377 59.251C18.9277 59.9604 19.9351 60.5995 20.9531 61.1684C20.5319 61.0981 20.0931 61.049 19.6789 61.049H19.6543C19.391 61.049 19.1418 61.07 18.9171 61.1192C16.8285 61.5687 15.2418 63.9039 15.2418 63.9039C15.2418 63.9039 17.4954 65.0557 19.4226 64.3007C21.1111 63.6405 22.1747 62.6081 22.6626 62.0498C23.7543 62.5695 24.8496 63.0049 25.9237 63.3455C25.2182 63.3561 24.474 63.4333 23.9193 63.6581C21.8939 64.4798 20.7144 67.1064 20.7144 67.1064C20.7144 67.1064 23.1857 67.865 24.99 66.7623C26.6293 65.765 27.521 64.4798 27.886 63.8547C30.4486 64.3147 32.5793 65.0311 34.3169 65.8177C31.1681 67.4752 29.8834 69.0062 29.8834 69.0062L31.0032 70C31.0032 70 32.4705 68.2161 35.7 66.4954C38.9295 68.2161 40.3933 70 40.3933 70L41.513 69.0062C41.513 69.0062 40.2283 67.4752 37.0795 65.8177C38.8172 65.0346 40.9479 64.3147 43.5105 63.8547C43.8756 64.4798 44.7707 65.7615 46.41 66.7623C48.2143 67.865 50.6856 67.1064 50.6856 67.1064C50.6856 67.1064 49.506 64.4798 47.4806 63.6581C46.926 63.4333 46.1818 63.3561 45.4762 63.3455C46.5504 63.0049 47.6421 62.5695 48.7373 62.0498C49.2217 62.6081 50.2889 63.637 51.9738 64.3007C53.901 65.0557 56.1582 63.9039 56.1582 63.9039C56.1582 63.9039 54.5714 61.5687 52.4828 61.1192C52.2581 61.07 52.009 61.049 51.7457 61.049H51.7211C51.3104 61.049 50.8681 61.0981 50.4504 61.1684C51.4684 60.603 52.4758 59.9604 53.4622 59.2545C53.9958 59.697 55.2244 60.5609 57.0323 60.9261C59.0191 61.3264 61.0024 59.8304 61.0024 59.8304C61.0024 59.8304 59.0752 57.8464 56.9795 57.7691C56.948 57.7691 56.9128 57.7691 56.8812 57.7691C56.2459 57.7691 55.4771 57.9904 54.8032 58.2432C55.7861 57.4601 56.7374 56.6138 57.6501 55.7008C58.2293 56.0344 59.5737 56.6735 61.4026 56.7157C63.3894 56.7648 65.0463 54.9809 65.0463 54.9809C65.0463 54.9809 63.1893 53.643 61.3113 53.643C61.1463 53.643 60.9778 53.6535 60.8128 53.6746C60.1739 53.7624 59.4228 54.1276 58.7804 54.5104C59.6369 53.5658 60.4442 52.5615 61.1919 51.501C61.8168 51.7257 63.2139 52.1014 64.969 51.8381C66.8927 51.5466 68.1915 49.545 68.1915 49.545C68.1915 49.545 66.7031 48.8251 65.134 48.8251H65.1129C64.6987 48.8251 64.2811 48.8778 63.8809 49.0077C63.3017 49.1938 62.6628 49.6468 62.1187 50.1069C62.7857 49.0464 63.3894 47.9402 63.923 46.7849C64.5829 46.8937 65.966 47.0026 67.5772 46.4583C69.385 45.8508 70.2977 43.6982 70.2977 43.6982C70.2977 43.6982 69.3781 43.4383 68.2653 43.4383H68.2301C67.514 43.4383 66.7242 43.5542 66.0503 43.9124C65.5448 44.1793 65.0287 44.692 64.5969 45.2047C65.0392 44.0739 65.4114 42.9011 65.7062 41.6966C66.3451 41.6966 67.7282 41.5772 69.2236 40.759C70.8664 39.8635 71.3824 37.6302 71.3824 37.6302C71.3824 37.6302 71.1613 37.6091 70.8138 37.6056H70.74C69.887 37.6091 68.3635 37.7461 67.3209 38.5572C66.8506 38.9224 66.4188 39.5545 66.0783 40.155C66.3556 38.8908 66.5417 37.6231 66.64 36.359C67.2648 36.2431 68.5636 35.8884 69.8519 34.863C71.2841 33.7183 71.3965 31.4779 71.3965 31.4779C71.3965 31.4779 68.9042 31.664 67.6334 33.0686C67.2508 33.49 66.9454 34.1537 66.7207 34.7788C66.7523 33.4584 66.6961 32.1451 66.5592 30.8528C67.1244 30.6456 68.353 30.0873 69.4482 28.8407C70.6347 27.4922 70.3645 25.3115 70.3645 25.3115C70.3645 25.3115 67.9879 25.912 67.0051 27.4852C66.6786 28.0049 66.489 28.7915 66.3837 29.4833C66.1731 28.0927 65.8747 26.7267 65.4956 25.4063C65.9765 25.1359 67.1174 24.3845 67.9985 22.9412C68.9147 21.4382 68.2828 19.3805 68.2828 19.3805C68.2828 19.3805 66.0959 20.3637 65.4078 22.0528C65.1586 22.6673 65.127 23.5663 65.1551 24.2932C64.6988 22.8815 64.1511 21.519 63.5333 20.2267C63.9545 19.8826 64.927 18.9626 65.5272 17.4245C66.1591 15.8162 65.1938 13.9375 65.1938 13.9375C65.1938 13.9375 63.249 15.2578 62.8734 17.0031C62.74 17.6282 62.8524 18.4745 62.9998 19.1662C62.3048 17.8389 61.536 16.5958 60.7111 15.4545C61.0726 15.0226 61.8133 13.9867 62.1257 12.4521C62.4592 10.7946 61.213 9.14417 61.213 9.14417C61.213 9.14417 59.5596 10.749 59.4964 12.4977C59.4754 13.0807 59.6965 13.8181 59.9352 14.4361C59.026 13.2984 58.0642 12.28 57.0673 11.4056C57.3306 10.9702 57.9203 9.81489 57.9554 8.20658C57.9976 6.54911 56.5126 5.16554 56.5126 5.16554C56.5126 5.16554 55.1893 6.99859 55.428 8.69468C55.5193 9.36891 55.9791 10.1906 56.3688 10.7876C55.1507 9.73061 53.9572 8.83867 52.8128 8.08719C52.9778 7.67984 53.4026 6.41918 53.1533 4.78278C52.9111 3.17799 51.2437 2.09642 51.2437 2.09642C51.2437 2.09642 50.2784 4.09099 50.7944 5.68877C51.0191 6.38406 51.7001 7.1812 52.1985 7.69389C50.7102 6.76332 49.3341 6.07153 48.1476 5.56235C48.2319 5.17608 48.4494 3.85923 47.9194 2.28604C47.4139 0.776054 45.6167 0.0175537 45.6167 0.0175537C45.6167 0.0175537 45.0269 2.10344 45.7957 3.56075C46.1538 4.23848 47.0348 4.93378 47.6035 5.3341C46.761 4.98997 46.0343 4.74415 45.4622 4.56857C45.1989 4.24901 44.3073 3.25173 43.2332 3.06912C43.1314 3.05157 43.0225 3.04455 42.9101 3.04104H42.8927C41.9835 3.04104 40.783 3.50105 40.783 3.50105C40.783 3.50105 41.5201 4.50887 43.0084 5.01805C44.0826 5.38677 45.2797 4.80736 45.5043 4.68796C46.252 4.95133 47.256 5.3341 48.432 5.89244C48.0809 5.82572 47.3437 5.70633 46.6241 5.70633H46.6065C46.2099 5.70633 45.8202 5.74496 45.5008 5.85031C43.9387 6.363 42.9137 8.27681 42.9137 8.27681C42.9137 8.27681 44.7321 8.97562 46.1467 8.2417C47.7194 7.42701 48.474 6.23306 48.6214 5.98374C49.8606 6.58071 51.2823 7.37434 52.7953 8.41728C52.2336 8.22063 51.2437 7.91863 50.4469 7.91863C50.324 7.91863 50.2047 7.92565 50.0923 7.94321C48.432 8.182 47.0629 9.92024 47.0629 9.92024C47.0629 9.92024 48.7654 10.9456 50.317 10.4575C51.9422 9.94833 52.8971 8.97562 53.1604 8.67713C54.2942 9.48129 55.4701 10.4259 56.6601 11.5356L56.934 11.7814C56.3196 11.4372 55.1717 10.8613 54.3222 10.8332C54.2906 10.8332 54.2591 10.8332 54.2275 10.8332C52.5496 10.8332 50.9242 12.287 50.9242 12.287C50.9242 12.287 52.4548 13.6179 54.0976 13.4037C55.8352 13.1755 56.9691 12.3573 57.2815 12.1079C58.4013 13.186 59.4684 14.4467 60.4478 15.8548C59.8861 15.3983 58.847 14.6293 58.0045 14.4502C57.7904 14.4045 57.5728 14.3835 57.3552 14.3835H57.3341C55.8211 14.3835 54.3327 15.307 54.3327 15.307C54.3327 15.307 55.6351 16.9188 57.3236 16.9926C59.0717 17.0733 60.3424 16.4764 60.725 16.2692C61.55 17.5018 62.3082 18.8397 62.9787 20.2619C62.4697 19.707 61.715 18.9801 61.027 18.7027C60.5706 18.5201 60.0756 18.4534 59.5982 18.4534C58.338 18.4534 57.1902 18.9134 57.1902 18.9134C57.1902 18.9134 58.2117 20.7605 59.8966 21.1363C61.5149 21.4979 62.8208 21.203 63.3368 21.0485C63.916 22.3688 64.418 23.7489 64.8287 25.1816C64.418 24.5565 63.8388 23.8015 63.249 23.4328C62.4873 22.9588 61.5254 22.8394 60.7531 22.8394C59.9563 22.8394 59.356 22.9658 59.356 22.9658C59.356 22.9658 60.0582 25.0025 61.6834 25.6802C63.1964 26.3123 64.5268 26.2667 65.106 26.2035C65.4641 27.6222 65.7273 29.0795 65.8853 30.5649C65.5834 29.859 65.1305 28.9741 64.5899 28.493C63.3859 27.4115 61.371 27.3342 60.8725 27.3307H60.8233C60.7812 27.3307 60.7567 27.3307 60.7567 27.3307C60.7567 27.3307 61.1007 29.5008 62.6136 30.47C64.0353 31.3795 65.3868 31.5657 65.973 31.6043C66.0783 33.0476 66.0783 34.5154 65.9625 35.9868C65.7835 35.2212 65.485 34.238 65.0252 33.6551C63.8527 32.1626 61.3815 31.8115 61.3815 31.8115C61.3815 31.8115 61.3429 34.0554 62.6944 35.295C63.9546 36.4573 65.278 36.8892 65.8607 37.0297C65.7097 38.3465 65.4605 39.6634 65.1095 40.9732C65.0569 40.2112 64.9199 39.3017 64.5969 38.6942C63.6842 36.9876 61.2621 36.1939 61.2621 36.1939C61.2621 36.1939 60.8233 38.4413 61.9607 39.9268C62.9962 41.2752 64.2073 41.9459 64.79 42.2093C64.4179 43.5226 63.9511 44.7833 63.4035 45.9983C63.4877 45.2152 63.5193 44.2495 63.2981 43.5683C62.6838 41.6931 60.3881 40.464 60.3881 40.464C60.3881 40.464 59.5491 42.6447 60.4302 44.3373C61.2271 45.8754 62.3223 46.7603 62.8629 47.129C62.2801 48.2738 61.6272 49.3729 60.9146 50.4159C61.1112 49.6855 61.2691 48.8286 61.1744 48.1684C60.89 46.1739 58.8014 44.534 58.8014 44.534C58.8014 44.534 57.5728 46.5777 58.1555 48.4353C58.6645 50.0542 59.5526 51.1147 60.0476 51.6133C59.2964 52.6036 58.4925 53.5447 57.6466 54.4226C57.9484 53.7554 58.2222 52.9864 58.2433 52.3508C58.31 50.2965 56.5022 48.2773 56.5022 48.2773C56.5022 48.2773 54.905 50.1139 55.1612 52.0839C55.3789 53.7659 56.0634 54.9774 56.4741 55.5779C55.5825 56.4172 54.6523 57.1968 53.701 57.9096C54.1117 57.3021 54.5013 56.5998 54.6312 55.9852C55.0594 53.9345 53.6027 51.5852 53.6027 51.5852C53.6027 51.5852 51.672 53.1479 51.5842 55.1741C51.507 56.9018 51.9774 58.2397 52.2828 58.9139C51.2191 59.6233 50.1414 60.2518 49.0567 60.7926C49.6114 60.2343 50.1836 59.5495 50.4399 58.9139C51.2367 56.9264 50.1871 54.3067 50.1871 54.3067C50.1871 54.3067 47.9686 55.5358 47.5228 57.5549C47.1296 59.3107 47.3823 60.7575 47.5719 61.4809C46.4345 61.969 45.3078 62.3588 44.2055 62.6467C44.8304 62.1973 45.4727 61.6459 45.8202 61.0841C46.9716 59.23 46.3784 56.4101 46.3784 56.4101C46.3784 56.4101 43.9317 57.2529 43.1243 59.2054C42.4679 60.7856 42.4188 62.2008 42.4679 62.9979C40.8707 63.3034 39.4174 63.7107 38.1186 64.1778C37.227 64.4938 36.4161 64.8239 35.6824 65.1575C34.9488 64.8239 34.1379 64.4938 33.2463 64.1778C31.9475 63.7107 30.4977 63.3034 28.897 62.9979C28.9461 62.2008 28.897 60.7856 28.2406 59.2054C27.4297 57.2529 24.9865 56.4101 24.9865 56.4101C24.9865 56.4101 24.3932 59.23 25.5446 61.0841C25.8921 61.6459 26.5345 62.1973 27.1594 62.6467C26.0571 62.3588 24.9303 61.969 23.7965 61.4809C23.986 60.7575 24.2388 59.3107 23.8492 57.5549C23.3998 55.5358 21.1848 54.3067 21.1848 54.3067C21.1848 54.3067 20.1352 56.9264 20.9285 58.9139C21.1813 59.5495 21.757 60.2308 22.3081 60.7891C21.2269 60.2483 20.1457 59.6197 19.0856 58.9104C19.3945 58.2327 19.8649 56.8947 19.7877 55.1706C19.6929 53.1479 17.7657 51.5817 17.7657 51.5817C17.7657 51.5817 16.3054 53.931 16.7407 55.9817C16.8671 56.5963 17.2567 57.2951 17.6674 57.9026C16.7161 57.1897 15.7894 56.4137 14.8978 55.5744C15.3085 54.9739 15.9895 53.7624 16.2106 52.0804C16.4669 50.1104 14.8697 48.2738 14.8697 48.2738C14.8697 48.2738 13.0654 50.293 13.1286 52.3472C13.1497 52.9793 13.4235 53.7449 13.7254 54.4156C12.8794 53.5342 12.0755 52.6001 11.3243 51.6063C11.8193 51.1077 12.7074 50.0472 13.2129 48.4283C13.7956 46.5707 12.5669 44.5269 12.5669 44.5269C12.5669 44.5269 10.4783 46.1668 10.194 48.1614C10.0992 48.8181 10.2572 49.6714 10.4573 50.4018C9.74467 49.3589 9.09173 48.2633 8.50902 47.1185C9.04961 46.7463 10.1448 45.8613 10.9382 44.3268C11.8193 42.6342 10.9803 40.4535 10.9803 40.4535C10.9803 40.4535 8.68805 41.6825 8.07023 43.5577C7.84908 44.2355 7.87714 45.2012 7.96139 45.9807C7.41378 44.7692 6.94693 43.5086 6.57834 42.1987C7.16106 41.9354 8.3721 41.2647 9.40764 39.9162C10.5415 38.4308 10.1027 36.1834 10.1027 36.1834C10.1027 36.1834 7.6806 36.977 6.77143 38.6837C6.44848 39.2912 6.31154 40.2007 6.25538 40.9627C5.90083 39.6529 5.65511 38.336 5.50416 37.0192C6.09039 36.8752 7.41028 36.4433 8.674 35.2844C10.022 34.0448 9.98334 31.8009 9.98334 31.8009C9.98334 31.8009 7.51207 32.1556 6.33962 33.6445C5.87977 34.231 5.58142 35.2107 5.40239 35.9762C5.28655 34.5049 5.29006 33.0405 5.39536 31.5938C5.98159 31.5551 7.33304 31.3655 8.75121 30.4595C10.2642 29.4903 10.6082 27.3202 10.6082 27.3202H10.5415H10.538H10.4959C9.99741 27.3202 7.98245 27.4009 6.77841 28.4825C6.24133 28.9636 5.78852 29.845 5.48664 30.5473C5.6446 29.0654 5.91138 27.6081 6.26592 26.1929C6.84512 26.2561 8.17202 26.2983 9.68848 25.6662C11.3138 24.9885 12.0123 22.9517 12.0123 22.9517C12.0123 22.9517 11.4121 22.8253 10.6152 22.8253C9.83943 22.8253 8.88112 22.9447 8.11938 23.4188C7.52964 23.784 6.95396 24.539 6.54325 25.1605C6.95396 23.7313 7.45593 22.3513 8.03162 21.0344C8.55115 21.1924 9.85696 21.4839 11.4717 21.1222C13.1567 20.7465 14.1747 18.8994 14.1747 18.8994C14.1747 18.8994 13.0268 18.4393 11.7666 18.4393C11.2892 18.4393 10.7942 18.5061 10.3379 18.6887C9.65337 18.9661 8.89868 19.686 8.3932 20.2408C9.06367 18.8221 9.81835 17.4877 10.6433 16.2551C11.0294 16.4623 12.3002 17.0558 14.0448 16.9785C15.7333 16.9048 17.0356 15.293 17.0356 15.293C17.0356 15.293 15.5507 14.3694 14.0378 14.3694H14.0167C13.7991 14.3694 13.5814 14.3905 13.3673 14.4361C12.5248 14.6117 11.4893 15.3807 10.9276 15.8373C11.907 14.4291 12.9742 13.1685 14.094 12.0939C14.4029 12.3432 15.5402 13.1614 17.2743 13.3897C18.9206 13.6039 20.4511 12.273 20.4511 12.273C20.4511 12.273 18.8294 10.8192 17.1514 10.8192C17.1198 10.8192 17.0882 10.8192 17.0566 10.8192C16.2071 10.8473 15.0628 11.4197 14.4485 11.7673L14.7223 11.5215C15.9123 10.4119 17.0883 9.46724 18.2221 8.66308C18.4889 8.96508 19.4436 9.93428 21.0689 10.4435C22.617 10.9316 24.323 9.90619 24.323 9.90619C24.323 9.90619 22.954 8.16795 21.2901 7.92916C21.1778 7.9116 21.0584 7.90458 20.9391 7.90458C20.1458 7.90458 19.1594 8.20658 18.5977 8.40323C20.1107 7.36029 21.5288 6.57017 22.768 5.9732C22.9154 6.22253 23.6666 7.41648 25.2427 8.23116C26.6539 8.96509 28.4757 8.26627 28.4757 8.26627C28.4757 8.26627 27.4507 6.35597 25.8886 5.83976C25.5727 5.73441 25.1831 5.69931 24.7829 5.6958H24.7653C24.0492 5.6958 23.3121 5.81519 22.961 5.88191C24.137 5.32357 25.1374 4.9408 25.8886 4.67743C26.1168 4.79682 27.3103 5.37272 28.3845 5.00752C29.8728 4.49834 30.61 3.49052 30.61 3.49052C30.61 3.49052 29.4095 3.03049 28.5003 3.03049L28.5038 3.02347Z" fill="url(#paint1_linear_916_5524)"/>
<path d="M106.289 31.8964L103.203 31.2116C101.455 30.8183 100.132 30.3161 99.2367 29.7051C98.3381 29.0906 97.9062 28.2619 97.9378 27.2189C97.9378 26.5482 98.1344 25.9477 98.5241 25.4175C98.9172 24.8872 99.4964 24.4729 100.262 24.1814C101.03 23.8864 101.961 23.7389 103.052 23.7389C104.144 23.7389 105.148 23.897 105.955 24.2165C106.763 24.5361 107.388 25.0066 107.83 25.6247C108.272 26.2462 108.532 26.9871 108.613 27.8545H116.623C116.606 25.6808 116.041 23.76 114.921 22.085C113.801 20.4099 112.225 19.1177 110.192 18.2012C108.16 17.2881 105.797 16.8281 103.102 16.8281C100.406 16.8281 98.0396 17.2811 95.951 18.1871C93.8588 19.0931 92.2266 20.3819 91.0506 22.0464C89.8746 23.7108 89.2955 25.6247 89.313 27.7808C89.2955 30.3793 90.1379 32.4758 91.8369 34.077C93.5359 35.6783 95.9686 36.8442 99.1349 37.5816L102.859 38.463C104.214 38.772 105.31 39.1056 106.141 39.4568C106.973 39.808 107.591 40.2329 107.991 40.7315C108.392 41.2302 108.599 41.8131 108.616 42.4838C108.599 43.2353 108.371 43.8954 107.932 44.4678C107.489 45.0402 106.847 45.4897 105.998 45.8163C105.148 46.1429 104.137 46.3044 102.961 46.3044C101.669 46.3044 100.55 46.1113 99.5948 45.7285C98.6399 45.3457 97.8852 44.7593 97.3305 43.9762C96.7759 43.1931 96.4635 42.238 96.4003 41.1108H88.3652C88.4144 43.7901 89.0427 46.027 90.2502 47.8249C91.4578 49.6229 93.1497 50.9783 95.3191 51.8913C97.492 52.8079 100.079 53.2538 103.084 53.2398C105.991 53.2398 108.5 52.8149 110.617 51.9651C112.73 51.1153 114.345 49.8862 115.454 48.2779C116.564 46.6696 117.118 44.7453 117.118 42.5084C117.101 39.6991 116.181 37.4236 114.352 35.6854C112.523 33.9471 109.838 32.683 106.292 31.8999L106.289 31.8964Z" fill="url(#paint2_linear_916_5524)"/>
<path d="M150.568 16.9844H120.358V23.8776H131.223V52.7745H139.437V23.8776H150.568V16.9844Z" fill="url(#paint3_linear_916_5524)"/>
<path d="M160.734 16.9844L148.627 52.7745H157.94L160.281 45.351H172.353L174.695 52.7745H184.008L171.876 16.9844H160.731H160.734ZM162.156 38.7246L166.172 25.9986H166.466L170.482 38.7246H162.159H162.156Z" fill="url(#paint4_linear_916_5524)"/>
<path d="M207.513 16.9844L199.797 32.0947H199.499L191.759 16.9844H182.098L195.36 40.663V52.7745H203.841V40.7543L216.987 16.9844H207.513Z" fill="url(#paint5_linear_916_5524)"/>
<path d="M232.197 31.833H215.766V38.196H232.197V31.833Z" fill="url(#paint6_linear_916_5524)"/>
<path d="M255.253 33.423V39.5191H262.312C262.27 40.7447 261.986 41.8192 261.449 42.7393C260.884 43.7085 260.041 44.4564 258.921 44.9902C257.798 45.524 256.464 45.7873 254.916 45.7873C253.158 45.7733 251.648 45.3378 250.391 44.4916C249.131 43.6453 248.169 42.4162 247.499 40.8114C246.828 39.2066 246.495 37.2577 246.495 34.9646C246.495 32.6715 246.839 30.7929 247.523 29.1775C248.208 27.5622 249.18 26.3366 250.441 25.4974C251.701 24.6581 253.193 24.2367 254.916 24.2367C256.061 24.2367 257.082 24.4228 257.977 24.7951C258.872 25.1673 259.624 25.7046 260.227 26.4069C260.831 27.1092 261.273 27.945 261.547 28.9142H270.351C270.351 28.9142 269.2 24.2964 267.792 22.4388C266.381 20.5812 264.549 19.1449 262.288 18.1195C260.027 17.0977 257.538 16.585 254.818 16.585C251.62 16.585 248.728 17.3154 246.147 18.7762C243.567 20.237 241.528 22.365 240.036 25.1603C238.544 27.9555 237.796 31.2529 237.796 35.0454C237.796 38.8379 238.512 42.0229 239.948 44.7971C241.384 47.5677 243.395 49.6957 245.986 51.1811C248.577 52.6665 251.567 53.4075 254.965 53.4075C258.033 53.4075 260.757 52.793 263.141 51.5639C265.524 50.3348 267.378 48.565 268.708 46.2544C270.035 43.9438 270.699 41.2223 270.628 38.0864V33.416H255.257L255.253 33.423Z" fill="url(#paint7_linear_916_5524)"/>
<defs>
<linearGradient id="paint0_linear_916_5524" x1="35.6998" y1="55.142" x2="35.6998" y2="11.1031" gradientUnits="userSpaceOnUse">
<stop stop-color="#99989C"/>
<stop offset="0.35" stop-color="#D1D1D3"/>
<stop offset="0.65" stop-color="#D9D9DC"/>
<stop offset="1" stop-color="#979B9F"/>
</linearGradient>
<linearGradient id="paint1_linear_916_5524" x1="35.7" y1="0.00351159" x2="35.7" y2="69.9965" gradientUnits="userSpaceOnUse">
<stop stop-color="#99989C"/>
<stop offset="0.35" stop-color="#D1D1D3"/>
<stop offset="0.65" stop-color="#D9D9DC"/>
<stop offset="1" stop-color="#979B9F"/>
</linearGradient>
<linearGradient id="paint2_linear_916_5524" x1="86.2485" y1="35.0357" x2="271.141" y2="35.0357" gradientUnits="userSpaceOnUse">
<stop stop-color="#99989C"/>
<stop offset="0.35" stop-color="#D1D1D3"/>
<stop offset="0.65" stop-color="#D9D9DC"/>
<stop offset="1" stop-color="#979B9F"/>
</linearGradient>
<linearGradient id="paint3_linear_916_5524" x1="86.2486" y1="34.8794" x2="271.141" y2="34.8794" gradientUnits="userSpaceOnUse">
<stop stop-color="#99989C"/>
<stop offset="0.35" stop-color="#D1D1D3"/>
<stop offset="0.65" stop-color="#D9D9DC"/>
<stop offset="1" stop-color="#979B9F"/>
</linearGradient>
<linearGradient id="paint4_linear_916_5524" x1="86.2485" y1="34.8794" x2="271.141" y2="34.8794" gradientUnits="userSpaceOnUse">
<stop stop-color="#99989C"/>
<stop offset="0.35" stop-color="#D1D1D3"/>
<stop offset="0.65" stop-color="#D9D9DC"/>
<stop offset="1" stop-color="#979B9F"/>
</linearGradient>
<linearGradient id="paint5_linear_916_5524" x1="86.2486" y1="34.8794" x2="271.141" y2="34.8794" gradientUnits="userSpaceOnUse">
<stop stop-color="#99989C"/>
<stop offset="0.35" stop-color="#D1D1D3"/>
<stop offset="0.65" stop-color="#D9D9DC"/>
<stop offset="1" stop-color="#979B9F"/>
</linearGradient>
<linearGradient id="paint6_linear_916_5524" x1="86.2486" y1="35.0145" x2="271.141" y2="35.0145" gradientUnits="userSpaceOnUse">
<stop stop-color="#99989C"/>
<stop offset="0.35" stop-color="#D1D1D3"/>
<stop offset="0.65" stop-color="#D9D9DC"/>
<stop offset="1" stop-color="#979B9F"/>
</linearGradient>
<linearGradient id="paint7_linear_916_5524" x1="86.2487" y1="34.9997" x2="271.141" y2="34.9997" gradientUnits="userSpaceOnUse">
<stop stop-color="#99989C"/>
<stop offset="0.35" stop-color="#D1D1D3"/>
<stop offset="0.65" stop-color="#D9D9DC"/>
<stop offset="1" stop-color="#979B9F"/>
</linearGradient>
</defs>
</svg>
