<svg xmlns="http://www.w3.org/2000/svg" width="95" height="24" viewBox="0 0 95 24" fill="none">
  <g clip-path="url(#clip0_835_169)">
    <path fill-rule="evenodd" clip-rule="evenodd" d="M4.80444 11.3558C4.80444 15.5251 8.26327 18.9047 12.5317 18.9047C16.8 18.9047 20.2589 15.5251 20.2589 11.3558C20.2589 7.18642 16.7988 3.80566 12.5317 3.80566C8.2645 3.80566 4.80444 7.18642 4.80444 11.3558ZM12.4023 17.0951C11.6679 17.0614 10.9322 16.9181 10.2139 16.6653C9.4807 16.4089 8.79066 15.902 8.15976 15.1567C7.78887 14.704 7.48451 14.1646 7.25285 13.5518C7.0212 12.9378 6.90414 12.1889 6.90414 11.3233C6.90414 9.53778 7.49067 8.12311 8.64525 7.1202C9.79368 6.12211 11.0813 5.61644 12.4713 5.61644C13.4916 5.61644 14.3208 5.70794 14.9345 5.88974C15.5309 6.06673 16.0583 6.23769 16.5006 6.39902C16.5955 6.43394 16.6719 6.48691 16.731 6.55915C16.7914 6.63259 16.8235 6.72771 16.8272 6.83847C16.8654 7.04074 17.272 9.18261 17.272 9.1802C17.2991 9.31264 17.2966 9.4222 17.2658 9.51611C17.2289 9.62326 17.1537 9.70874 17.049 9.76533L17.0366 9.77255L17.0231 9.77737C16.9393 9.80747 16.805 9.82433 16.6485 9.72801C16.5499 9.66781 16.4673 9.57872 16.3971 9.45832C16.2456 9.17538 16.0891 8.90329 15.9313 8.64925C15.7724 8.3916 15.6159 8.17368 15.4631 7.9979C15.229 7.71737 14.895 7.44287 14.4675 7.18281C14.0534 6.93118 13.4879 6.80356 12.7843 6.80356C11.7085 6.80356 10.9236 7.25023 10.3851 8.17127C9.83311 9.11519 9.5534 10.1747 9.5534 11.3233C9.5534 11.8651 9.61254 12.4165 9.72837 12.9595C9.84297 13.4989 10.0167 13.9672 10.241 14.3501C10.5503 14.8533 10.9446 15.2398 11.414 15.4999C11.8823 15.7599 12.3628 15.8911 12.8434 15.8911C13.4275 15.8911 13.9327 15.7924 14.3455 15.5986C14.8088 15.3807 14.884 15.2651 14.8938 15.2458V13.3628C14.8938 13.1328 14.8458 12.9715 14.7496 12.8836C14.6227 12.7668 14.4946 12.6729 14.3726 12.6079C14.2752 12.5561 14.1767 12.5056 14.0818 12.4598C13.9117 12.378 13.8181 12.2371 13.8181 12.0637C13.8181 11.853 13.9315 11.7555 13.9992 11.7146C14.0892 11.6628 14.2099 11.6375 14.3812 11.6375H17.5776C17.7538 11.6375 17.8745 11.6568 17.9608 11.6989C18.0335 11.7338 18.1567 11.8277 18.1567 12.0469C18.1567 12.1444 18.1197 12.3238 17.8733 12.4249C17.7834 12.461 17.6885 12.514 17.5985 12.5754C17.516 12.638 17.4322 12.7283 17.3508 12.8427C17.3028 12.9113 17.2461 13.0534 17.2461 13.3472V15.4661C17.2461 15.6094 17.2153 15.731 17.1562 15.8273C17.1007 15.9176 17.0342 15.9863 16.9442 16.0428C16.5154 16.2728 15.9067 16.5184 15.1329 16.7713C14.4576 16.9928 13.6838 17.1048 12.8311 17.1048C12.6894 17.1048 12.5452 17.1023 12.3998 17.0951H12.4023ZM16.8284 6.86135L16.8259 6.82523C16.8259 6.82523 16.8259 6.83004 16.8284 6.84088V6.86255V6.86135Z" fill="url(#paint0_linear_835_169)"/>
    <path fill-rule="evenodd" clip-rule="evenodd" d="M10.0056 1.03662H9.99942C9.95999 1.03662 9.92056 1.04023 9.88605 1.04625C9.509 1.10886 9.19478 1.45199 9.1036 1.56155C8.90275 1.62175 8.64768 1.70603 8.35071 1.82402C8.55033 1.68677 8.85962 1.44718 8.9853 1.21481C9.25516 0.71516 9.04815 0 9.04815 0C9.04815 0 8.41849 0.260058 8.23981 0.777767C8.05375 1.31835 8.13015 1.76984 8.15972 1.90228C7.74323 2.07806 7.2602 2.31404 6.73775 2.63429C6.91272 2.45851 7.153 2.18521 7.23186 1.94562C7.413 1.39781 7.07414 0.713956 7.07414 0.713956C7.07414 0.713956 6.48761 1.08478 6.40258 1.635C6.31633 2.19605 6.46419 2.62827 6.52211 2.76914C6.12041 3.02679 5.70022 3.3326 5.27264 3.6974C5.40942 3.49273 5.57207 3.20859 5.60411 2.97743C5.68667 2.39591 5.22335 1.76743 5.22335 1.76743C5.22335 1.76743 4.70213 2.2418 4.71568 2.81007C4.72924 3.3627 4.93625 3.7588 5.02867 3.9081C4.67872 4.20789 4.33986 4.55704 4.02195 4.94833C4.10697 4.73643 4.1846 4.48239 4.17597 4.28253C4.15379 3.68295 3.57342 3.13274 3.57342 3.13274C3.57342 3.13274 3.13598 3.69861 3.25304 4.26688C3.36271 4.79422 3.62271 5.14939 3.74963 5.29748C3.45882 5.68998 3.18774 6.11739 2.94376 6.57249C2.99551 6.33531 3.03618 6.04274 2.98812 5.82723C2.85627 5.22886 2.17363 4.77616 2.17363 4.77616C2.17363 4.77616 1.83723 5.42029 2.0578 5.97171C2.26974 6.50025 2.61106 6.81449 2.75893 6.93248C2.54206 7.37674 2.34983 7.84388 2.18964 8.32909C2.1995 8.07866 2.18964 7.77044 2.10092 7.55854C1.86064 6.98064 1.09174 6.64232 1.09174 6.64232C1.09174 6.64232 0.869943 7.34905 1.19278 7.86315C1.50207 8.35919 1.90254 8.61684 2.07135 8.70834C1.93827 9.16344 1.83353 9.63058 1.7596 10.1086C1.72264 9.87017 1.6561 9.59928 1.5415 9.41989C1.19525 8.88051 0.362271 8.67463 0.362271 8.67463C0.362271 8.67463 0.266158 9.42229 0.683879 9.88462C1.06956 10.312 1.50207 10.5047 1.69922 10.5745C1.65117 11.0188 1.63145 11.4703 1.64254 11.9242C1.56368 11.7086 1.45648 11.4799 1.32093 11.3342C0.87364 10.8526 0 10.7888 0 10.7888C0 10.7888 0.0406631 11.5569 0.543406 11.9494C0.995629 12.3022 1.45155 12.4238 1.67088 12.4635C1.70662 12.897 1.77069 13.3328 1.86927 13.7662C1.74974 13.5603 1.59695 13.3436 1.43306 13.2172C1.06587 12.9379 0.532316 12.8921 0.231656 12.8909H0.20578C0.0837905 12.8909 0.00616107 12.8994 0.00616107 12.8994C0.00616107 12.8994 0.186064 13.6639 0.76274 13.9721C1.2889 14.2526 1.77562 14.2924 1.99865 14.2936C2.10092 14.7077 2.23277 15.1099 2.38803 15.4987C2.23524 15.323 2.0541 15.146 1.87666 15.0545C1.63884 14.9317 1.3616 14.8931 1.11146 14.8919H1.09913C0.708523 14.8919 0.385683 14.981 0.385683 14.981C0.385683 14.981 0.704826 15.7191 1.33942 15.9274C1.90623 16.114 2.39296 16.0754 2.62462 16.0393C2.81191 16.4354 3.02509 16.8159 3.25921 17.1795C3.06821 17.0218 2.84395 16.8653 2.6394 16.8014C2.49893 16.7569 2.3523 16.74 2.2069 16.7388H2.20073C1.64993 16.7388 1.12871 16.9857 1.12871 16.9857C1.12871 16.9857 1.5834 17.6719 2.25865 17.7718C2.87599 17.8633 3.36518 17.7333 3.58451 17.6563C3.8482 18.0199 4.13161 18.3642 4.43227 18.6893C4.20678 18.558 3.94185 18.4328 3.71636 18.4015C3.65844 18.3931 3.5993 18.3907 3.54138 18.3907C2.88215 18.3907 2.23031 18.8494 2.23031 18.8494C2.23031 18.8494 2.81314 19.461 3.50935 19.4442C4.15133 19.4285 4.62203 19.2106 4.82658 19.0962C5.14696 19.4093 5.48212 19.7006 5.82714 19.9691C5.59055 19.8824 5.31947 19.8066 5.09644 19.8066H5.06194C4.32754 19.833 3.65105 20.5133 3.65105 20.5133C3.65105 20.5133 4.34602 21.0262 5.04345 20.8889C5.67804 20.7637 6.10932 20.4675 6.29661 20.3146C6.6441 20.5578 6.99774 20.777 7.35508 20.972C7.20722 20.9479 7.05319 20.9311 6.90779 20.9311H6.89917C6.80675 20.9311 6.71926 20.9383 6.6404 20.9552C5.90723 21.1093 5.35027 21.9099 5.35027 21.9099C5.35027 21.9099 6.14135 22.3048 6.81784 22.046C7.41053 21.8196 7.7839 21.4656 7.95517 21.2742C8.33839 21.4524 8.72284 21.6017 9.0999 21.7185C8.85223 21.7221 8.591 21.7486 8.39631 21.8256C7.68532 22.1074 7.27129 23.0079 7.27129 23.0079C7.27129 23.0079 8.13877 23.268 8.77213 22.8899C9.34758 22.548 9.66056 22.1074 9.78871 21.893C10.6882 22.0508 11.4362 22.2964 12.0461 22.5661C10.9408 23.1343 10.4898 23.6593 10.4898 23.6593L10.8829 24C10.8829 24 11.398 23.3884 12.5316 22.7984C13.6653 23.3884 14.1791 24 14.1791 24L14.5722 23.6593C14.5722 23.6593 14.1212 23.1343 13.0159 22.5661C13.6258 22.2976 14.3738 22.0508 15.2733 21.893C15.4014 22.1074 15.7157 22.5468 16.2911 22.8899C16.9245 23.268 17.7919 23.0079 17.7919 23.0079C17.7919 23.0079 17.3779 22.1074 16.6669 21.8256C16.4722 21.7486 16.211 21.7221 15.9633 21.7185C16.3404 21.6017 16.7236 21.4524 17.1081 21.2742C17.2781 21.4656 17.6527 21.8184 18.2442 22.046C18.9206 22.3048 19.713 21.9099 19.713 21.9099C19.713 21.9099 19.156 21.1093 18.4228 20.9552C18.344 20.9383 18.2565 20.9311 18.1641 20.9311H18.1554C18.0113 20.9311 17.856 20.9479 17.7094 20.972C18.0667 20.7782 18.4204 20.5578 18.7666 20.3158C18.9539 20.4675 19.3852 20.7637 20.0198 20.8889C20.7172 21.0262 21.4134 20.5133 21.4134 20.5133C21.4134 20.5133 20.7369 19.833 20.0013 19.8066H19.9668C19.7438 19.8066 19.4739 19.8824 19.2373 19.9691C19.5823 19.7006 19.9163 19.4105 20.2367 19.0974C20.44 19.2118 20.9119 19.4309 21.5539 19.4454C22.2513 19.4622 22.8329 18.8506 22.8329 18.8506C22.8329 18.8506 22.1811 18.3919 21.5219 18.3919C21.4639 18.3919 21.4048 18.3955 21.3469 18.4027C21.1226 18.4328 20.8589 18.558 20.6334 18.6893C20.9341 18.3654 21.2175 18.0211 21.48 17.6575C21.6993 17.7345 22.1897 17.8633 22.8058 17.7731C23.4811 17.6731 23.937 16.9869 23.937 16.9869C23.937 16.9869 23.4145 16.74 22.8637 16.74H22.8563C22.7109 16.74 22.5643 16.7581 22.4238 16.8026C22.2205 16.8665 21.9963 17.0218 21.8053 17.1795C22.0394 16.8159 22.2513 16.4366 22.4386 16.0405C22.6703 16.0779 23.1558 16.1152 23.7213 15.9286C24.3559 15.7203 24.6763 14.9822 24.6763 14.9822C24.6763 14.9822 24.3535 14.8931 23.9629 14.8931H23.9505C23.6992 14.8931 23.4219 14.9329 23.1853 15.0557C23.0079 15.1472 22.8268 15.323 22.6752 15.4987C22.8305 15.1111 22.9611 14.7089 23.0646 14.296C23.2888 14.296 23.7743 14.255 24.2993 13.9745C24.8759 13.6675 25.0571 12.9018 25.0571 12.9018C25.0571 12.9018 24.9794 12.8946 24.8575 12.8933H24.8316C24.5321 12.8946 23.9974 12.9415 23.6314 13.2196C23.4663 13.3448 23.3147 13.5616 23.1952 13.7674C23.2925 13.334 23.3578 12.8994 23.3923 12.4659C23.6117 12.4262 24.0676 12.3046 24.5198 11.953C25.0226 11.5605 25.062 10.7924 25.062 10.7924C25.062 10.7924 24.1871 10.8562 23.7411 11.3378C23.6068 11.4823 23.4996 11.7098 23.4207 11.9242C23.4318 11.4715 23.4121 11.0212 23.364 10.5781C23.5624 10.5071 23.9937 10.3156 24.3781 9.88823C24.7946 9.42591 24.6997 8.67824 24.6997 8.67824C24.6997 8.67824 23.8655 8.88412 23.5205 9.4235C23.4059 9.60169 23.3394 9.87138 23.3024 10.1086C23.2285 9.63179 23.1237 9.16344 22.9906 8.71075C23.1595 8.61804 23.5599 8.36039 23.8692 7.86556C24.1908 7.35026 23.969 6.64473 23.969 6.64473C23.969 6.64473 23.2014 6.98184 22.9598 7.56095C22.8724 7.77165 22.8613 8.07986 22.8711 8.32909C22.7109 7.84509 22.5187 7.37795 22.3018 6.93489C22.4497 6.8169 22.791 6.50145 23.0017 5.97411C23.2235 5.4227 22.8847 4.77857 22.8847 4.77857C22.8847 4.77857 22.202 5.23126 22.0702 5.82964C22.0234 6.04394 22.0628 6.3341 22.1145 6.57129C21.8706 6.11618 21.6007 5.68998 21.3111 5.29869C21.4381 5.1506 21.6981 4.79542 21.8077 4.26929C21.9248 3.70101 21.4873 3.13515 21.4873 3.13515C21.4873 3.13515 20.907 3.68536 20.8848 4.28494C20.8774 4.4848 20.955 4.73763 21.0388 4.94953C20.7197 4.55945 20.3821 4.21029 20.0321 3.9105C20.1245 3.76121 20.3315 3.3651 20.3439 2.81369C20.3586 2.24541 19.8374 1.77104 19.8374 1.77104C19.8374 1.77104 19.3729 2.39952 19.4567 2.98104C19.4887 3.2122 19.6501 3.49393 19.7869 3.69861C19.3593 3.33621 18.9404 3.0304 18.5387 2.77275C18.5966 2.63309 18.7457 2.20086 18.6582 1.63981C18.5732 1.0896 17.9879 0.718772 17.9879 0.718772C17.9879 0.718772 17.649 1.40263 17.8301 1.95044C17.909 2.18882 18.148 2.46213 18.323 2.63791C17.8006 2.31885 17.3175 2.08167 16.901 1.90709C16.9306 1.77466 17.007 1.32317 16.821 0.783787C16.6435 0.266078 16.0126 0.00601987 16.0126 0.00601987C16.0126 0.00601987 15.8056 0.72118 16.0755 1.22083C16.2012 1.4532 16.5104 1.69158 16.7101 1.82884C16.4143 1.71085 16.1593 1.62657 15.9584 1.56637C15.866 1.45681 15.553 1.11488 15.1759 1.05227C15.1402 1.04625 15.102 1.04384 15.0626 1.04264H15.0564C14.7373 1.04264 14.3159 1.20036 14.3159 1.20036C14.3159 1.20036 14.5746 1.5459 15.0971 1.72048C15.4741 1.84689 15.8943 1.64824 15.9732 1.6073C16.2357 1.6976 16.5881 1.82884 17.0009 2.02027C16.8776 1.99739 16.6189 1.95646 16.3663 1.95646H16.3601C16.2209 1.95646 16.0841 1.9697 15.972 2.00582C15.4236 2.1816 15.0638 2.83776 15.0638 2.83776C15.0638 2.83776 15.7021 3.07736 16.1987 2.82572C16.7507 2.5464 17.0156 2.13705 17.0674 2.05157C17.5024 2.25625 18.0014 2.52834 18.5325 2.88592C18.3353 2.8185 17.9879 2.71496 17.7081 2.71496C17.665 2.71496 17.6231 2.71737 17.5837 2.72339C17.0009 2.80526 16.5203 3.40122 16.5203 3.40122C16.5203 3.40122 17.1179 3.75278 17.6626 3.58543C18.2331 3.41086 18.5682 3.07736 18.6606 2.97502C19.0587 3.25073 19.4714 3.5746 19.8892 3.95505L19.9853 4.03933C19.7696 3.92134 19.3667 3.72389 19.0685 3.71426H19.0352C18.4462 3.71426 17.8757 4.2127 17.8757 4.2127C17.8757 4.2127 18.413 4.66901 18.9896 4.59557C19.5996 4.51731 19.9976 4.23678 20.1073 4.1513C20.5003 4.52092 20.8749 4.95315 21.2187 5.43594C21.0216 5.27942 20.6568 5.01575 20.3611 4.95435C20.2859 4.9387 20.2095 4.93147 20.1331 4.93147H20.1258C19.5947 4.93147 19.0722 5.24812 19.0722 5.24812C19.0722 5.24812 19.5294 5.80074 20.1221 5.82603C20.7357 5.85372 21.1818 5.64904 21.3161 5.57801C21.6056 6.0006 21.8718 6.45932 22.1072 6.94693C21.9285 6.7567 21.6636 6.50747 21.422 6.41236C21.2619 6.34975 21.0881 6.32688 20.9205 6.32688C20.4782 6.32688 20.0752 6.4846 20.0752 6.4846C20.0752 6.4846 20.4338 7.11789 21.0253 7.24671C21.5933 7.37072 22.0517 7.26959 22.2328 7.21661C22.4362 7.66931 22.6124 8.14247 22.7565 8.63369C22.6124 8.41938 22.409 8.16053 22.202 8.03411C21.9346 7.87158 21.597 7.83064 21.3259 7.83064C21.0462 7.83064 20.8355 7.87398 20.8355 7.87398C20.8355 7.87398 21.0819 8.57229 21.6525 8.80466C22.1835 9.02137 22.6506 9.00572 22.8539 8.98405C22.9796 9.47045 23.072 9.9701 23.1274 10.4794C23.0215 10.2374 22.8625 9.93398 22.6727 9.76904C22.2501 9.39821 21.5428 9.37173 21.3678 9.37052H21.3272C21.3272 9.37052 21.4479 10.1146 21.979 10.4469C22.478 10.7587 22.9524 10.8225 23.1582 10.8358C23.1952 11.3306 23.1952 11.8339 23.1545 12.3383C23.0917 12.0759 22.987 11.7387 22.8255 11.5389C22.414 11.0272 21.5465 10.9068 21.5465 10.9068C21.5465 10.9068 21.5329 11.6761 22.0073 12.1011C22.4497 12.4996 22.9143 12.6477 23.1188 12.6959C23.0658 13.1474 22.9783 13.5989 22.8551 14.048C22.8366 13.7867 22.7886 13.4749 22.6752 13.2666C22.3548 12.6814 21.5046 12.4094 21.5046 12.4094C21.5046 12.4094 21.3506 13.1799 21.7498 13.6892C22.1133 14.1515 22.5384 14.3815 22.743 14.4718C22.6124 14.922 22.4485 15.3543 22.2562 15.7708C22.2858 15.5024 22.2969 15.1713 22.2193 14.9377C22.0036 14.2948 21.1978 13.8734 21.1978 13.8734C21.1978 13.8734 20.9033 14.621 21.2126 15.2014C21.4923 15.7287 21.8767 16.0321 22.0665 16.1585C21.8619 16.551 21.6327 16.9279 21.3826 17.2854C21.4516 17.035 21.5071 16.7412 21.4738 16.5149C21.374 15.831 20.6408 15.2688 20.6408 15.2688C20.6408 15.2688 20.2095 15.9695 20.4141 16.6064C20.5928 17.1614 20.9045 17.525 21.0783 17.696C20.8146 18.0355 20.5324 18.3582 20.2354 18.6592C20.3414 18.4304 20.4375 18.1668 20.4449 17.9488C20.4683 17.2445 19.8337 16.5522 19.8337 16.5522C19.8337 16.5522 19.2731 17.1819 19.363 17.8573C19.4394 18.434 19.6797 18.8494 19.8239 19.0553C19.5109 19.343 19.1843 19.6103 18.8504 19.8547C18.9946 19.6464 19.1314 19.4056 19.1769 19.1949C19.3273 18.4918 18.8159 17.6864 18.8159 17.6864C18.8159 17.6864 18.1382 18.2221 18.1074 18.9168C18.0803 19.5092 18.2454 19.9679 18.3526 20.1991C17.9792 20.4423 17.6009 20.6578 17.2202 20.8432C17.4149 20.6518 17.6157 20.417 17.7057 20.1991C17.9854 19.5176 17.617 18.6194 17.617 18.6194C17.617 18.6194 16.8382 19.0408 16.6817 19.7331C16.5437 20.3351 16.6324 20.8311 16.699 21.0792C16.2997 21.2465 15.9042 21.3802 15.5173 21.4789C15.7366 21.3248 15.9621 21.1357 16.0841 20.9431C16.4883 20.3074 16.28 19.3406 16.28 19.3406C16.28 19.3406 15.4212 19.6296 15.1377 20.299C14.9073 20.8408 14.8901 21.326 14.9073 21.5993C14.3467 21.704 13.8365 21.8437 13.3806 22.0038C13.0676 22.1122 12.783 22.2253 12.5255 22.3397C12.2679 22.2253 11.9833 22.1122 11.6703 22.0038C11.2144 21.8437 10.7055 21.704 10.1436 21.5993C10.1608 21.326 10.1436 20.8408 9.91316 20.299C9.62852 19.6296 8.7709 19.3406 8.7709 19.3406C8.7709 19.3406 8.56265 20.3074 8.96682 20.9431C9.08881 21.1357 9.31431 21.3248 9.53364 21.4789C9.14672 21.3802 8.75118 21.2465 8.35318 21.0792C8.41972 20.8311 8.50844 20.3351 8.37166 19.7331C8.21394 19.0408 7.43641 18.6194 7.43641 18.6194C7.43641 18.6194 7.06798 19.5176 7.34646 20.1991C7.43518 20.417 7.63726 20.6505 7.83072 20.842C7.4512 20.6566 7.07168 20.4411 6.69955 20.1979C6.80798 19.9655 6.9731 19.5068 6.94599 18.9156C6.91272 18.2221 6.23624 17.6852 6.23624 17.6852C6.23624 17.6852 5.72363 18.4906 5.87643 19.1937C5.92079 19.4044 6.05756 19.644 6.20173 19.8523C5.8678 19.6079 5.5425 19.3418 5.22952 19.0541C5.37368 18.8482 5.61273 18.4328 5.69036 17.8561C5.78032 17.1807 5.21966 16.551 5.21966 16.551C5.21966 16.551 4.5863 17.2433 4.60848 17.9476C4.61587 18.1643 4.71199 18.4268 4.81796 18.6568C4.52099 18.3546 4.23882 18.0343 3.97512 17.6936C4.14886 17.5226 4.46061 17.159 4.63805 16.604C4.8426 15.9671 4.41133 15.2664 4.41133 15.2664C4.41133 15.2664 3.67816 15.8286 3.57835 16.5125C3.54508 16.7376 3.60053 17.0302 3.67077 17.2806C3.42063 16.923 3.19143 16.5474 2.98689 16.1549C3.17665 16.0273 3.5611 15.7239 3.83958 15.1978C4.14886 14.6174 3.85437 13.8698 3.85437 13.8698C3.85437 13.8698 3.04973 14.2912 2.83286 14.9341C2.75523 15.1664 2.76509 15.4975 2.79466 15.7648C2.60244 15.3495 2.43855 14.9172 2.30917 14.4681C2.51372 14.3778 2.93883 14.1479 3.30233 13.6856C3.70034 13.1763 3.54631 12.4057 3.54631 12.4057C3.54631 12.4057 2.69608 12.6778 2.37694 13.263C2.26358 13.4713 2.21552 13.7831 2.19581 14.0443C2.07135 13.5953 1.9851 13.1438 1.93211 12.6923C2.13789 12.6429 2.6012 12.4948 3.0448 12.0975C3.51797 11.6725 3.50442 10.9032 3.50442 10.9032C3.50442 10.9032 2.63694 11.0248 2.22538 11.5353C2.06396 11.7363 1.95922 12.0722 1.89638 12.3347C1.85571 11.8302 1.85695 11.3282 1.89391 10.8321C2.09969 10.8189 2.5741 10.7539 3.07191 10.4433C3.60299 10.111 3.72375 9.36691 3.72375 9.36691H3.68432C3.50935 9.36691 2.80205 9.3946 2.37941 9.76543C2.19088 9.93037 2.03192 10.2326 1.92595 10.4734C1.9814 9.96529 2.07505 9.46564 2.1995 8.98044C2.40282 9.00211 2.86859 9.01655 3.40091 8.79984C3.97143 8.56747 4.21664 7.86917 4.21664 7.86917C4.21664 7.86917 4.00593 7.82583 3.72622 7.82583C3.4539 7.82583 3.1175 7.86676 2.85011 8.0293C2.6431 8.15451 2.44102 8.41336 2.29685 8.62647C2.44102 8.13645 2.61722 7.66329 2.81931 7.2118C3.00167 7.26598 3.46006 7.36591 4.02688 7.2419C4.61834 7.11307 4.97568 6.47978 4.97568 6.47978C4.97568 6.47978 4.57275 6.32206 4.13038 6.32206C3.9628 6.32206 3.78906 6.34494 3.62887 6.40755C3.38859 6.50266 3.12366 6.74947 2.94622 6.9397C3.18158 6.4533 3.4465 5.99579 3.73607 5.57319C3.87162 5.64423 4.31768 5.8477 4.93009 5.82121C5.52278 5.79593 5.97993 5.2433 5.97993 5.2433C5.97993 5.2433 5.45871 4.92666 4.92762 4.92666H4.92023C4.84383 4.92666 4.76744 4.93388 4.69227 4.94953C4.39654 5.00973 4.03304 5.2734 3.83588 5.42992C4.17967 4.94713 4.55426 4.5149 4.94734 4.14648C5.05577 4.23197 5.45501 4.51249 6.06372 4.59075C6.64163 4.66419 7.17888 4.20789 7.17888 4.20789C7.17888 4.20789 6.6096 3.70944 6.0206 3.70944H5.98733C5.68913 3.71907 5.28743 3.91532 5.07179 4.03451L5.16791 3.95024C5.58563 3.56978 5.99842 3.24591 6.39642 2.9702C6.49007 3.07374 6.82523 3.40604 7.39575 3.58062C7.93915 3.74797 8.53801 3.39641 8.53801 3.39641C8.53801 3.39641 8.05745 2.80044 7.47338 2.71857C7.43395 2.71255 7.39205 2.71014 7.35016 2.71014C7.07168 2.71014 6.72542 2.81369 6.52827 2.88111C7.05935 2.52353 7.55717 2.25263 7.99214 2.04796C8.04389 2.13344 8.30759 2.54279 8.86085 2.82211C9.3562 3.07374 9.99572 2.83415 9.99572 2.83415C9.99572 2.83415 9.63591 2.17919 9.08758 2.00221C8.97668 1.96609 8.8399 1.95405 8.69943 1.95284H8.69327C8.4419 1.95284 8.18313 1.99378 8.05991 2.01665C8.4727 1.82522 8.82388 1.69399 9.08758 1.60369C9.16767 1.64463 9.58663 1.84208 9.96368 1.71687C10.4861 1.54229 10.7449 1.19675 10.7449 1.19675C10.7449 1.19675 10.3235 1.03903 10.0043 1.03903V1.03662H10.0056Z" fill="url(#paint1_linear_835_169)"/>
    <path d="M37.3102 10.9358L36.2271 10.701C35.6135 10.5662 35.1489 10.394 34.8347 10.1845C34.5193 9.97381 34.3677 9.68967 34.3788 9.33209C34.3788 9.10213 34.4478 8.89625 34.5846 8.71445C34.7226 8.53265 34.9259 8.39058 35.1945 8.29065C35.4644 8.18952 35.7909 8.13895 36.1741 8.13895C36.5574 8.13895 36.9098 8.19313 37.1932 8.30269C37.4766 8.41225 37.6959 8.57359 37.8512 8.78548C38.0064 8.99859 38.0976 9.25263 38.126 9.55001H40.9379C40.9317 8.80475 40.7333 8.14617 40.3403 7.57188C39.9472 6.99758 39.3939 6.55452 38.6805 6.24029C37.967 5.92725 37.1377 5.76953 36.1914 5.76953C35.245 5.76953 34.4145 5.92484 33.6814 6.23547C32.947 6.54609 32.374 6.98795 31.9612 7.55864C31.5484 8.12932 31.3451 8.78548 31.3513 9.52472C31.3451 10.4157 31.6408 11.1344 32.2372 11.6834C32.8336 12.2325 33.6875 12.6322 34.799 12.885L36.1064 13.1872C36.582 13.2932 36.9665 13.4075 37.2585 13.5279C37.5505 13.6483 37.7674 13.794 37.9079 13.965C38.0483 14.1359 38.121 14.3358 38.1272 14.5658C38.121 14.8234 38.0409 15.0498 37.8869 15.246C37.7317 15.4423 37.5062 15.5964 37.208 15.7083C36.9098 15.8203 36.5549 15.8757 36.1421 15.8757C35.6886 15.8757 35.2956 15.8095 34.9604 15.6782C34.6252 15.547 34.3603 15.3459 34.1656 15.0774C33.9709 14.809 33.8613 14.4815 33.8391 14.095H31.0186C31.0358 15.0136 31.2564 15.7806 31.6803 16.397C32.1041 17.0134 32.6981 17.4782 33.4596 17.7912C34.2223 18.1054 35.1305 18.2583 36.1852 18.2535C37.2055 18.2535 38.0865 18.1078 38.8296 17.8165C39.5714 17.5251 40.1382 17.1037 40.5275 16.5523C40.9169 16.0009 41.1116 15.3411 41.1116 14.5742C41.1055 13.611 40.7826 12.8308 40.1406 12.2349C39.4987 11.6389 38.556 11.2055 37.3115 10.937H37.3102V10.9358Z" fill="url(#paint2_linear_835_169)"/>
    <path d="M37.3102 10.9358L36.2271 10.701C35.6135 10.5662 35.1489 10.394 34.8347 10.1845C34.5193 9.97381 34.3677 9.68967 34.3788 9.33209C34.3788 9.10213 34.4478 8.89625 34.5846 8.71445C34.7226 8.53265 34.9259 8.39058 35.1945 8.29065C35.4644 8.18952 35.7909 8.13895 36.1741 8.13895C36.5574 8.13895 36.9098 8.19313 37.1932 8.30269C37.4766 8.41225 37.6959 8.57359 37.8512 8.78548C38.0064 8.99859 38.0976 9.25263 38.126 9.55001H40.9379C40.9317 8.80475 40.7333 8.14617 40.3403 7.57188C39.9472 6.99758 39.3939 6.55452 38.6805 6.24029C37.967 5.92725 37.1377 5.76953 36.1914 5.76953C35.245 5.76953 34.4145 5.92484 33.6814 6.23547C32.947 6.54609 32.374 6.98795 31.9612 7.55864C31.5484 8.12932 31.3451 8.78548 31.3513 9.52472C31.3451 10.4157 31.6408 11.1344 32.2372 11.6834C32.8336 12.2325 33.6875 12.6322 34.799 12.885L36.1064 13.1872C36.582 13.2932 36.9665 13.4075 37.2585 13.5279C37.5505 13.6483 37.7674 13.794 37.9079 13.965C38.0483 14.1359 38.121 14.3358 38.1272 14.5658C38.121 14.8234 38.0409 15.0498 37.8869 15.246C37.7317 15.4423 37.5062 15.5964 37.208 15.7083C36.9098 15.8203 36.5549 15.8757 36.1421 15.8757C35.6886 15.8757 35.2956 15.8095 34.9604 15.6782C34.6252 15.547 34.3603 15.3459 34.1656 15.0774C33.9709 14.809 33.8613 14.4815 33.8391 14.095H31.0186C31.0358 15.0136 31.2564 15.7806 31.6803 16.397C32.1041 17.0134 32.6981 17.4782 33.4596 17.7912C34.2223 18.1054 35.1305 18.2583 36.1852 18.2535C37.2055 18.2535 38.0865 18.1078 38.8296 17.8165C39.5714 17.5251 40.1382 17.1037 40.5275 16.5523C40.9169 16.0009 41.1116 15.3411 41.1116 14.5742C41.1055 13.611 40.7826 12.8308 40.1406 12.2349C39.4987 11.6389 38.556 11.2055 37.3115 10.937H37.3102V10.9358Z" fill="url(#paint3_linear_835_169)"/>
    <path d="M52.8535 5.82422H42.2478V8.18762H46.0627V18.0951H48.9461V8.18762H52.8535V5.82422Z" fill="url(#paint4_linear_835_169)"/>
    <path d="M52.8535 5.82422H42.2478V8.18762H46.0627V18.0951H48.9461V8.18762H52.8535V5.82422Z" fill="url(#paint5_linear_835_169)"/>
    <path d="M56.4206 5.82422L52.1707 18.0951H55.4397L56.2616 15.5499H60.4992L61.3211 18.0951H64.5901L60.3316 5.82422H56.4193H56.4206ZM56.9196 13.278L58.3293 8.91482H58.4328L59.8424 13.278H56.9196Z" fill="url(#paint6_linear_835_169)"/>
    <path d="M56.4206 5.82422L52.1707 18.0951H55.4397L56.2616 15.5499H60.4992L61.3211 18.0951H64.5901L60.3316 5.82422H56.4193H56.4206ZM56.9196 13.278L58.3293 8.91482H58.4328L59.8424 13.278H56.9196Z" fill="url(#paint7_linear_835_169)"/>
    <path d="M72.8424 5.82422L70.134 11.0049H70.0292L67.3122 5.82422H63.9211L68.5765 13.9426V18.0951H71.5535V13.9739L76.1681 5.82422H72.8424Z" fill="url(#paint8_linear_835_169)"/>
    <path d="M72.8424 5.82422L70.134 11.0049H70.0292L67.3122 5.82422H63.9211L68.5765 13.9426V18.0951H71.5535V13.9739L76.1681 5.82422H72.8424Z" fill="url(#paint9_linear_835_169)"/>
    <path d="M81.5073 10.9141H75.7393V13.0957H81.5073V10.9141Z" fill="url(#paint10_linear_835_169)"/>
    <path d="M81.5073 10.9141H75.7393V13.0957H81.5073V10.9141Z" fill="url(#paint11_linear_835_169)"/>
    <path d="M89.6005 11.4596V13.5497H92.0784C92.0637 13.9699 91.9638 14.3383 91.7753 14.6537C91.5769 14.986 91.2812 15.2425 90.8881 15.4255C90.4938 15.6085 90.0256 15.6988 89.4822 15.6988C88.8648 15.6939 88.335 15.5447 87.8938 15.2545C87.4515 14.9643 87.1139 14.543 86.8785 13.9927C86.6431 13.4425 86.5261 12.7743 86.5261 11.9881C86.5261 11.2019 86.6468 10.5578 86.8871 10.004C87.1274 9.45014 87.4687 9.02996 87.9111 8.74221C88.3535 8.45446 88.8771 8.30998 89.4822 8.30998C89.8839 8.30998 90.2424 8.37379 90.5567 8.50141C90.8709 8.62903 91.1346 8.81324 91.3465 9.05404C91.5584 9.29483 91.7137 9.58138 91.8098 9.91367H94.9002C94.9002 9.91367 94.496 8.33045 94.0019 7.69355C93.5066 7.05665 92.8634 6.56422 92.0698 6.21266C91.2763 5.8623 90.4026 5.68652 89.4477 5.68652C88.3251 5.68652 87.3098 5.93695 86.4041 6.4378C85.4984 6.93866 84.7825 7.66826 84.2588 8.62663C83.7351 9.58499 83.4727 10.7155 83.4727 12.0158C83.4727 13.3161 83.724 14.4081 84.228 15.3592C84.732 16.3092 85.438 17.0388 86.3474 17.5481C87.2568 18.0573 88.3066 18.3114 89.4994 18.3114C90.5764 18.3114 91.5326 18.1007 92.3692 17.6793C93.2059 17.2579 93.8565 16.6511 94.3235 15.8589C94.7893 15.0667 95.0222 14.1336 94.9976 13.0585V11.4572H89.6017V11.4596H89.6005Z" fill="url(#paint12_linear_835_169)"/>
    <path d="M89.6005 11.4596V13.5497H92.0784C92.0637 13.9699 91.9638 14.3383 91.7753 14.6537C91.5769 14.986 91.2812 15.2425 90.8881 15.4255C90.4938 15.6085 90.0256 15.6988 89.4822 15.6988C88.8648 15.6939 88.335 15.5447 87.8938 15.2545C87.4515 14.9643 87.1139 14.543 86.8785 13.9927C86.6431 13.4425 86.5261 12.7743 86.5261 11.9881C86.5261 11.2019 86.6468 10.5578 86.8871 10.004C87.1274 9.45014 87.4687 9.02996 87.9111 8.74221C88.3535 8.45446 88.8771 8.30998 89.4822 8.30998C89.8839 8.30998 90.2424 8.37379 90.5567 8.50141C90.8709 8.62903 91.1346 8.81324 91.3465 9.05404C91.5584 9.29483 91.7137 9.58138 91.8098 9.91367H94.9002C94.9002 9.91367 94.496 8.33045 94.0019 7.69355C93.5066 7.05665 92.8634 6.56422 92.0698 6.21266C91.2763 5.8623 90.4026 5.68652 89.4477 5.68652C88.3251 5.68652 87.3098 5.93695 86.4041 6.4378C85.4984 6.93866 84.7825 7.66826 84.2588 8.62663C83.7351 9.58499 83.4727 10.7155 83.4727 12.0158C83.4727 13.3161 83.724 14.4081 84.228 15.3592C84.732 16.3092 85.438 17.0388 86.3474 17.5481C87.2568 18.0573 88.3066 18.3114 89.4994 18.3114C90.5764 18.3114 91.5326 18.1007 92.3692 17.6793C93.2059 17.2579 93.8565 16.6511 94.3235 15.8589C94.7893 15.0667 95.0222 14.1336 94.9976 13.0585V11.4572H89.6017V11.4596H89.6005Z" fill="url(#paint13_linear_835_169)"/>
  </g>
  <defs>
    <linearGradient id="paint0_linear_835_169" x1="12.5317" y1="18.9059" x2="12.5317" y2="3.80687" gradientUnits="userSpaceOnUse">
      <stop stop-color="#99989C"/>
      <stop offset="0.35" stop-color="#D1D1D3"/>
      <stop offset="0.65" stop-color="#D9D9DC"/>
      <stop offset="1" stop-color="#979B9F"/>
    </linearGradient>
    <linearGradient id="paint1_linear_835_169" x1="12.5316" y1="0.00120397" x2="12.5316" y2="23.9988" gradientUnits="userSpaceOnUse">
      <stop stop-color="#99989C"/>
      <stop offset="0.35" stop-color="#D1D1D3"/>
      <stop offset="0.65" stop-color="#D9D9DC"/>
      <stop offset="1" stop-color="#979B9F"/>
    </linearGradient>
    <linearGradient id="paint2_linear_835_169" x1="30.2755" y1="12.0121" x2="95.1775" y2="12.0121" gradientUnits="userSpaceOnUse">
      <stop stop-color="#B28E47"/>
      <stop offset="0.45" stop-color="#EDDC96"/>
      <stop offset="0.55" stop-color="#EDDC96"/>
      <stop offset="1" stop-color="#B28E47"/>
    </linearGradient>
    <linearGradient id="paint3_linear_835_169" x1="30.2755" y1="12.0121" x2="95.1775" y2="12.0121" gradientUnits="userSpaceOnUse">
      <stop stop-color="#99989C"/>
      <stop offset="0.35" stop-color="#D1D1D3"/>
      <stop offset="0.65" stop-color="#D9D9DC"/>
      <stop offset="1" stop-color="#979B9F"/>
    </linearGradient>
    <linearGradient id="paint4_linear_835_169" x1="30.2756" y1="11.9597" x2="95.1776" y2="11.9597" gradientUnits="userSpaceOnUse">
      <stop stop-color="#B28E47"/>
      <stop offset="0.45" stop-color="#EDDC96"/>
      <stop offset="0.55" stop-color="#EDDC96"/>
      <stop offset="1" stop-color="#B28E47"/>
    </linearGradient>
    <linearGradient id="paint5_linear_835_169" x1="30.273" y1="11.9597" x2="95.1825" y2="11.9597" gradientUnits="userSpaceOnUse">
      <stop stop-color="#99989C"/>
      <stop offset="0.35" stop-color="#D1D1D3"/>
      <stop offset="0.65" stop-color="#D9D9DC"/>
      <stop offset="1" stop-color="#979B9F"/>
    </linearGradient>
    <linearGradient id="paint6_linear_835_169" x1="30.2754" y1="11.9597" x2="95.1774" y2="11.9597" gradientUnits="userSpaceOnUse">
      <stop stop-color="#B28E47"/>
      <stop offset="0.45" stop-color="#EDDC96"/>
      <stop offset="0.55" stop-color="#EDDC96"/>
      <stop offset="1" stop-color="#B28E47"/>
    </linearGradient>
    <linearGradient id="paint7_linear_835_169" x1="30.2742" y1="11.9597" x2="95.1761" y2="11.9597" gradientUnits="userSpaceOnUse">
      <stop stop-color="#99989C"/>
      <stop offset="0.35" stop-color="#D1D1D3"/>
      <stop offset="0.65" stop-color="#D9D9DC"/>
      <stop offset="1" stop-color="#979B9F"/>
    </linearGradient>
    <linearGradient id="paint8_linear_835_169" x1="30.2755" y1="11.9597" x2="95.1775" y2="11.9597" gradientUnits="userSpaceOnUse">
      <stop stop-color="#B28E47"/>
      <stop offset="0.45" stop-color="#EDDC96"/>
      <stop offset="0.55" stop-color="#EDDC96"/>
      <stop offset="1" stop-color="#B28E47"/>
    </linearGradient>
    <linearGradient id="paint9_linear_835_169" x1="30.2755" y1="11.9597" x2="95.1775" y2="11.9597" gradientUnits="userSpaceOnUse">
      <stop stop-color="#99989C"/>
      <stop offset="0.35" stop-color="#D1D1D3"/>
      <stop offset="0.65" stop-color="#D9D9DC"/>
      <stop offset="1" stop-color="#979B9F"/>
    </linearGradient>
    <linearGradient id="paint10_linear_835_169" x1="30.2755" y1="12.0049" x2="95.1774" y2="12.0049" gradientUnits="userSpaceOnUse">
      <stop stop-color="#B28E47"/>
      <stop offset="0.45" stop-color="#EDDC96"/>
      <stop offset="0.55" stop-color="#EDDC96"/>
      <stop offset="1" stop-color="#B28E47"/>
    </linearGradient>
    <linearGradient id="paint11_linear_835_169" x1="30.2755" y1="12.0049" x2="95.1774" y2="12.0049" gradientUnits="userSpaceOnUse">
      <stop stop-color="#99989C"/>
      <stop offset="0.35" stop-color="#D1D1D3"/>
      <stop offset="0.65" stop-color="#D9D9DC"/>
      <stop offset="1" stop-color="#979B9F"/>
    </linearGradient>
    <linearGradient id="paint12_linear_835_169" x1="30.2755" y1="11.999" x2="95.1775" y2="11.999" gradientUnits="userSpaceOnUse">
      <stop stop-color="#B28E47"/>
      <stop offset="0.45" stop-color="#EDDC96"/>
      <stop offset="0.55" stop-color="#EDDC96"/>
      <stop offset="1" stop-color="#B28E47"/>
    </linearGradient>
    <linearGradient id="paint13_linear_835_169" x1="30.2755" y1="12.0002" x2="95.1775" y2="12.0002" gradientUnits="userSpaceOnUse">
      <stop stop-color="#99989C"/>
      <stop offset="0.35" stop-color="#D1D1D3"/>
      <stop offset="0.65" stop-color="#D9D9DC"/>
      <stop offset="1" stop-color="#979B9F"/>
    </linearGradient>
    <clipPath id="clip0_835_169">
      <rect width="95" height="24" fill="white"/>
    </clipPath>
  </defs>
</svg>