<svg xmlns="http://www.w3.org/2000/svg" width="18" height="20" viewBox="0 0 18 20" fill="none">
  <g clip-path="url(#clip0_1097_2441)">
    <path d="M2.5 10C2.5 13.4531 5.29688 16.25 8.75 16.25C9.87891 16.25 10.9375 15.9492 11.8516 15.4258L9.03906 12.0508C8.59766 11.5195 8.66797 10.7305 9.19922 10.2891C9.73047 9.84766 10.5195 9.91797 10.9609 10.4492L13.7305 13.7734C14.5273 12.7266 15 11.418 15 10C15 6.54688 12.2031 3.75 8.75 3.75C5.29688 3.75 2.5 6.54688 2.5 10ZM13.4727 17.3672C12.1094 18.2422 10.4883 18.75 8.75 18.75C3.91797 18.75 0 14.832 0 10C0 5.16797 3.91797 1.25 8.75 1.25C13.582 1.25 17.5 5.16797 17.5 10C17.5 12.1914 16.6953 14.1953 15.3633 15.7305L17.2109 17.9492C17.6523 18.4805 17.582 19.2695 17.0508 19.7109C16.5195 20.1523 15.7305 20.082 15.2891 19.5508L13.4688 17.3672H13.4727Z" fill="#EDDC96"/>
  </g>
  <defs>
    <clipPath id="clip0_1097_2441">
      <rect width="17.5" height="20" fill="white"/>
    </clipPath>
  </defs>
</svg>