<svg xmlns="http://www.w3.org/2000/svg" width="92" height="92" viewBox="0 0 92 92" fill="none">
  <g clip-path="url(#clip0_1270_7741)">
    <path d="M46 92C71.4051 92 92 71.4051 92 46C92 20.5949 71.4051 0 46 0C20.5949 0 0 20.5949 0 46C0 71.4051 20.5949 92 46 92Z" fill="white"/>
    <path d="M38.64 27.5996H33.12C32.6118 27.5996 32.2 28.0115 32.2 28.5196V63.4796C32.2 63.9877 32.6118 64.3996 33.12 64.3996H38.64C39.1481 64.3996 39.56 63.9877 39.56 63.4796V28.5196C39.56 28.0115 39.1481 27.5996 38.64 27.5996Z" fill="#1A1A1A"/>
    <path d="M58.8799 27.5996H53.3599C52.8518 27.5996 52.4399 28.0115 52.4399 28.5196V63.4796C52.4399 63.9877 52.8518 64.3996 53.3599 64.3996H58.8799C59.388 64.3996 59.7999 63.9877 59.7999 63.4796V28.5196C59.7999 28.0115 59.388 27.5996 58.8799 27.5996Z" fill="#1A1A1A"/>
  </g>
  <defs>
    <clipPath id="clip0_1270_7741">
      <rect width="92" height="92" fill="white"/>
    </clipPath>
  </defs>
</svg>