<svg xmlns="http://www.w3.org/2000/svg" viewBox="-5.0 -10.0 16410.0 1021.0" fill="white">
  <path d="M430 182.0Q430 183.0 429 183.0Q416 193.0 399.5 204.5Q383 216.0 367 226.0Q348 238.0 329.5 247.5Q311 257.0 295 265.0Q277 274.0 255.0 283.0Q233 292.0 219 298.0Q203 305.0 183.0 311.5Q163 318.0 150 323.0Q135 328.0 114.0 334.5Q93 341.0 77 345.0Q63 348.0 59.0 338.5Q55 329.0 68 325.0Q85 317.0 103.0 309.5Q121 302.0 137 295.0Q152 288.0 169.0 280.0Q186 272.0 199 265.0Q213 257.0 230.5 248.0Q248 239.0 264 229.0Q281 218.0 299.0 207.5Q317 197.0 330 187.0Q343 178.0 357.0 167.0Q371 156.0 381 148.0Q392 139.0 401.5 130.5Q411 122.0 419 114.0Q427 106.0 434.0 99.0Q441 92.0 445 86.0Q444 81.0 438.0 76.0Q432 71.0 427 67.0Q422 63.0 415.5 60.0Q409 57.0 403 53.0Q398 50.0 391.5 46.5Q385 43.0 385 39.0Q385 34.0 391.5 31.5Q398 29.0 406 30.0Q413 31.0 421.5 32.5Q430 34.0 435 36.0Q440 37.0 452.0 41.0Q464 45.0 471 48.0Q479 51.0 488.0 55.5Q497 60.0 503 63.0Q508 66.0 514.0 71.0Q520 76.0 519 81.0Q517 88.0 513.0 94.5Q509 101.0 505 106.0Q499 114.0 491.0 124.0Q483 134.0 475 142.0Q472 145.0 468.5 148.0Q465 151.0 462 155.0Q476 162.0 490.0 168.5Q504 175.0 517 180.0Q532 186.0 553.0 193.5Q574 201.0 591 206.0Q606 210.0 627.0 214.5Q648 219.0 662 221.0Q673 222.0 686.5 223.0Q700 224.0 711 225.0Q720 229.0 733.5 235.5Q747 242.0 759 249.0Q769 254.0 781.0 262.0Q793 270.0 800 275.0Q809 282.0 815.5 290.0Q822 298.0 822 309.0Q822 317.0 817.5 320.5Q813 324.0 808 324.0Q805 324.0 797.0 322.5Q789 321.0 782 319.0Q772 316.0 753.0 309.0Q734 302.0 719 297.0Q698 289.0 674.5 281.0Q651 273.0 625 263.0Q599 253.0 569.5 242.0Q540 231.0 518 221.0Q499 213.0 474.5 202.5Q450 192.0 430 182.0ZM662 665.0 682 651.0Q694 652.0 703.0 652.5Q712 653.0 719 654.0Q729 655.0 736.5 658.0Q744 661.0 744 667.0Q744 674.0 740.0 684.5Q736 695.0 736 709.0V790.0Q736 803.0 735.5 819.5Q735 836.0 734 850.0Q733 864.0 732.5 877.0Q732 890.0 730 900.0Q729 907.0 727.5 916.0Q726 925.0 724 930.0Q722 937.0 720.0 941.5Q718 946.0 715 951.0Q713 955.0 709.5 957.5Q706 960.0 703 960.0Q699 960.0 696.0 957.0Q693 954.0 691 950.0Q689 945.0 687.5 939.0Q686 933.0 685 929.0Q684 924.0 683.5 917.5Q683 911.0 682 901.0Q681 890.0 680.5 867.0Q680 844.0 680 828.0V699.0H427Q391 699.0 359.5 701.0Q328 703.0 317 705.0Q303 707.0 291.5 709.5Q280 712.0 271 715.0Q263 718.0 255.5 721.0Q248 724.0 242 728.0Q238 728.0 226.5 723.5Q215 719.0 204 715.0Q193 710.0 177.5 702.5Q162 695.0 151 689.0Q144 684.0 134.5 678.0Q125 672.0 125 665.0Q125 660.0 129.5 657.5Q134 655.0 140 656.0Q146 657.0 161.5 658.5Q177 660.0 185 661.0Q202 662.0 239.0 663.5Q276 665.0 325 665.0H440Q436 657.0 434.0 646.0Q432 635.0 431 627.0Q430 613.0 429.0 592.0Q428 571.0 428 559.0V486.0H338Q282 486.0 239.0 490.0Q196 494.0 179 499.0Q169 502.0 159.5 505.5Q150 509.0 140 514.0Q136 514.0 122.5 508.5Q109 503.0 98 498.0Q86 493.0 74.0 486.5Q62 480.0 51 474.0Q42 469.0 33.5 462.5Q25 456.0 25 450.0Q25 445.0 29.5 442.5Q34 440.0 40 441.0Q49 442.0 64.0 444.0Q79 446.0 90 447.0Q108 448.0 149.0 450.0Q190 452.0 232 452.0H585Q622 452.0 646.5 451.0Q671 450.0 683 449.0Q693 447.0 706.5 444.5Q720 442.0 727 438.0Q732 436.0 736.5 433.0Q741 430.0 745 427.0Q759 428.0 774.0 428.5Q789 429.0 805 431.0Q821 432.0 833.5 434.5Q846 437.0 856 439.0Q866 441.0 875.5 447.5Q885 454.0 885 468.0Q885 478.0 880.0 486.0Q875 494.0 861 493.0Q851 492.0 839.5 491.5Q828 491.0 817 490.0Q805 489.0 772.5 487.5Q740 486.0 713 486.0H484V549.0Q484 564.0 483.5 581.5Q483 599.0 481 615.0Q480 625.0 477.0 639.5Q474 654.0 468 665.0Z"/>
  <path d="M1658 348.0Q1670 348.0 1679.5 345.5Q1689 343.0 1699 336.0Q1705 331.0 1710.5 325.5Q1716 320.0 1718 317.0Q1729 318.0 1741.0 319.0Q1753 320.0 1765 322.0Q1784 324.0 1797.0 331.5Q1810 339.0 1810 356.0Q1810 369.0 1803.0 374.5Q1796 380.0 1785 380.0H1646V424.0Q1646 438.0 1645.5 455.5Q1645 473.0 1644 487.0Q1643 503.0 1642.0 520.5Q1641 538.0 1640 544.0Q1639 551.0 1637.5 564.0Q1636 577.0 1634 583.0Q1633 590.0 1630.0 597.0Q1627 604.0 1625 608.0Q1623 612.0 1619.5 614.5Q1616 617.0 1614 617.0Q1611 617.0 1608.0 614.5Q1605 612.0 1603 608.0Q1601 603.0 1599.5 597.0Q1598 591.0 1597 585.0Q1596 580.0 1595.5 572.5Q1595 565.0 1594 552.0Q1593 536.0 1592.5 511.5Q1592 487.0 1592 473.0V125.0Q1592 115.0 1589.5 106.5Q1587 98.0 1583 93.0Q1579 88.0 1574.0 83.0Q1569 78.0 1563 74.0Q1556 69.0 1547.5 64.5Q1539 60.0 1533 57.0Q1526 54.0 1518.0 50.5Q1510 47.0 1504 45.0Q1499 43.0 1492.0 40.0Q1485 37.0 1485 32.0Q1485 26.0 1493.0 23.0Q1501 20.0 1511 20.0Q1517 20.0 1537.0 23.0Q1557 26.0 1573 30.0Q1586 33.0 1599.5 37.0Q1613 41.0 1627 46.0Q1637 50.0 1646.0 55.0Q1655 60.0 1655 68.0Q1655 72.0 1653.0 78.0Q1651 84.0 1649 91.0Q1648 97.0 1647.0 107.0Q1646 117.0 1646 122.0V348.0ZM1058 525.0Q1058 528.0 1057.5 530.0Q1057 532.0 1057 534.0Q1056 543.0 1053.5 552.5Q1051 562.0 1049 568.0Q1046 575.0 1042.0 580.0Q1038 585.0 1033 585.0Q1026 585.0 1022.5 578.0Q1019 571.0 1017 565.0Q1016 559.0 1014.5 547.5Q1013 536.0 1012 525.0Q1011 517.0 1010.5 490.0Q1010 463.0 1010 453.0V196.0Q1010 188.0 1006.5 181.5Q1003 175.0 997 169.0Q993 164.0 985.5 159.5Q978 155.0 973 152.0Q967 149.0 961.0 146.0Q955 143.0 950 141.0Q945 139.0 938.5 136.0Q932 133.0 932 129.0Q932 123.0 939.0 120.0Q946 117.0 954 117.0Q959 117.0 975.0 119.5Q991 122.0 1003 125.0Q1013 127.0 1027.0 131.0Q1041 135.0 1051 139.0Q1059 142.0 1064.5 146.0Q1070 150.0 1070 155.0Q1070 159.0 1067.0 171.0Q1064 183.0 1064 196.0V262.0H1356V156.0Q1356 148.0 1352.0 141.0Q1348 134.0 1342 129.0Q1336 124.0 1328.0 119.0Q1320 114.0 1315 111.0Q1309 108.0 1302.5 105.0Q1296 102.0 1289 99.0Q1284 97.0 1277.5 94.0Q1271 91.0 1271 87.0Q1271 81.0 1278.0 78.0Q1285 75.0 1293 75.0Q1298 75.0 1313.5 77.0Q1329 79.0 1348 84.0Q1357 86.0 1372.0 90.5Q1387 95.0 1397 99.0Q1406 103.0 1411.5 107.0Q1417 111.0 1417 116.0Q1417 121.0 1413.5 131.5Q1410 142.0 1410 158.0V414.0Q1410 427.0 1409.5 443.5Q1409 460.0 1408 473.0Q1407 488.0 1406.0 506.0Q1405 524.0 1403 532.0Q1402 542.0 1399.5 551.0Q1397 560.0 1395 566.0Q1392 573.0 1387.5 578.0Q1383 583.0 1378 583.0Q1372 583.0 1368.5 576.0Q1365 569.0 1363 562.0Q1362 555.0 1360.5 546.5Q1359 538.0 1358 530.0Q1358 529.0 1358.0 527.5Q1358 526.0 1357 525.0ZM1356 492.0Q1356 481.0 1356.0 470.0Q1356 459.0 1356 453.0V295.0H1064V419.0Q1064 431.0 1063.5 448.5Q1063 466.0 1062 477.0Q1062 480.0 1061.5 484.0Q1061 488.0 1061 492.0H1356ZM1589 685.0H1347Q1313 685.0 1281.5 686.5Q1250 688.0 1229 690.0Q1216 691.0 1205.5 693.5Q1195 696.0 1185 699.0Q1178 701.0 1169.0 705.0Q1160 709.0 1155 712.0Q1152 712.0 1140.0 708.0Q1128 704.0 1119 700.0Q1107 695.0 1091.0 688.0Q1075 681.0 1065 675.0Q1057 670.0 1048.5 664.5Q1040 659.0 1040 652.0Q1040 647.0 1043.5 644.5Q1047 642.0 1054 643.0Q1065 644.0 1081.0 646.0Q1097 648.0 1108 649.0Q1123 650.0 1155.5 651.5Q1188 653.0 1240 653.0H1572L1590 639.0Q1602 640.0 1610.5 640.5Q1619 641.0 1625 642.0Q1633 643.0 1642.0 646.0Q1651 649.0 1651 655.0Q1651 662.0 1647.0 672.0Q1643 682.0 1643 697.0V789.0Q1643 799.0 1642.5 817.5Q1642 836.0 1641 850.0Q1640 861.0 1639.0 878.0Q1638 895.0 1636 904.0Q1635 913.0 1633.5 920.5Q1632 928.0 1630 933.0Q1629 938.0 1626.5 943.5Q1624 949.0 1622 952.0Q1620 956.0 1617.0 958.0Q1614 960.0 1611 960.0Q1608 960.0 1605.0 957.5Q1602 955.0 1600 951.0Q1598 946.0 1596.5 940.0Q1595 934.0 1594 929.0Q1593 925.0 1592.5 916.5Q1592 908.0 1591 900.0Q1590 891.0 1589.5 868.0Q1589 845.0 1589 829.0Z"/>
  <path d="M2107 907.0Q2106 912.0 2105.5 918.5Q2105 925.0 2103 930.0Q2102 936.0 2100.0 941.0Q2098 946.0 2095 951.0Q2093 955.0 2089.5 957.5Q2086 960.0 2083 960.0Q2080 960.0 2077.0 957.5Q2074 955.0 2072 952.0Q2070 947.0 2068.5 941.5Q2067 936.0 2066 932.0Q2065 927.0 2064.0 915.5Q2063 904.0 2062 894.0Q2061 884.0 2060.5 862.5Q2060 841.0 2060 825.0V642.0Q2060 632.0 2057.0 627.0Q2054 622.0 2049 618.0Q2045 614.0 2038.5 610.0Q2032 606.0 2027 603.0Q2021 600.0 2014.5 597.0Q2008 594.0 2003 592.0Q1997 590.0 1990.5 587.0Q1984 584.0 1984 580.0Q1984 574.0 1991.0 571.0Q1998 568.0 2005 568.0Q2010 568.0 2026.0 570.0Q2042 572.0 2053 574.0Q2064 576.0 2077.0 579.5Q2090 583.0 2099 586.0Q2107 588.0 2113.0 592.5Q2119 597.0 2119 602.0Q2119 607.0 2116.5 615.0Q2114 623.0 2114 637.0V678.0H2537V611.0Q2537 601.0 2533.5 595.0Q2530 589.0 2523 583.0Q2518 578.0 2511.0 574.0Q2504 570.0 2498 567.0Q2492 564.0 2484.0 560.5Q2476 557.0 2471 555.0Q2466 553.0 2459.5 550.0Q2453 547.0 2453 543.0Q2453 537.0 2460.0 534.0Q2467 531.0 2474 531.0Q2480 531.0 2494.5 533.0Q2509 535.0 2522 538.0Q2533 540.0 2549.0 544.5Q2565 549.0 2575 553.0Q2583 556.0 2590.5 560.5Q2598 565.0 2598 571.0Q2598 575.0 2594.5 587.0Q2591 599.0 2591 615.0V779.0Q2591 791.0 2590.5 810.0Q2590 829.0 2589 844.0Q2588 857.0 2587.0 871.0Q2586 885.0 2585 891.0Q2584 899.0 2582.5 910.5Q2581 922.0 2579 929.0Q2578 935.0 2576.0 940.5Q2574 946.0 2571 951.0Q2568 956.0 2564.5 958.0Q2561 960.0 2559 960.0Q2556 960.0 2553.0 957.0Q2550 954.0 2548 951.0Q2546 946.0 2544.0 939.5Q2542 933.0 2541 926.0Q2540 921.0 2539.5 916.0Q2539 911.0 2539 907.0ZM2537 875.0Q2538 863.0 2537.5 845.5Q2537 828.0 2537 815.0V710.0H2114V791.0Q2114 804.0 2113.5 821.0Q2113 838.0 2112 853.0Q2112 858.0 2111.5 863.5Q2111 869.0 2110 875.0H2537ZM2066 100.0Q2074 96.0 2078.0 92.0Q2082 88.0 2083 84.0Q2083 78.0 2080.0 73.5Q2077 69.0 2072 65.0Q2068 60.0 2062.0 56.5Q2056 53.0 2057 50.0Q2059 45.0 2064.0 43.5Q2069 42.0 2074 43.0Q2083 44.0 2093.5 47.5Q2104 51.0 2111 54.0Q2119 57.0 2127.5 62.0Q2136 67.0 2136 74.0Q2134 81.0 2130.5 87.0Q2127 93.0 2123 100.0Q2147 101.0 2166.5 104.5Q2186 108.0 2199 113.0Q2216 120.0 2233.5 129.5Q2251 139.0 2264 151.0Q2281 165.0 2293.0 183.0Q2305 201.0 2312 218.0Q2317 230.0 2321.0 244.0Q2325 258.0 2326 272.0Q2336 273.0 2347.0 274.0Q2358 275.0 2368 276.0Q2377 277.0 2397.5 277.5Q2418 278.0 2443 278.0H2537V125.0Q2537 115.0 2534.5 106.5Q2532 98.0 2528 93.0Q2524 88.0 2519.0 83.0Q2514 78.0 2508 74.0Q2501 69.0 2492.5 64.5Q2484 60.0 2478 57.0Q2471 54.0 2463.0 50.5Q2455 47.0 2449 45.0Q2444 43.0 2437.0 40.0Q2430 37.0 2430 32.0Q2430 26.0 2438.0 23.0Q2446 20.0 2456 20.0Q2462 20.0 2482.0 23.0Q2502 26.0 2518 30.0Q2531 33.0 2544.5 37.0Q2558 41.0 2572 46.0Q2582 50.0 2591.0 55.0Q2600 60.0 2600 68.0Q2600 72.0 2598.0 78.0Q2596 84.0 2594 91.0Q2593 97.0 2592.0 107.0Q2591 117.0 2591 122.0V337.0Q2591 351.0 2590.5 367.5Q2590 384.0 2589 398.0Q2588 414.0 2587.0 431.5Q2586 449.0 2585 455.0Q2584 462.0 2582.5 475.0Q2581 488.0 2579 494.0Q2578 501.0 2575.0 508.0Q2572 515.0 2570 519.0Q2568 523.0 2564.5 525.5Q2561 528.0 2559 528.0Q2556 528.0 2553.0 525.5Q2550 523.0 2548 519.0Q2546 514.0 2544.5 508.0Q2543 502.0 2542 496.0Q2541 491.0 2540.5 483.5Q2540 476.0 2539 463.0Q2538 447.0 2537.5 422.5Q2537 398.0 2537 384.0V310.0H2500Q2470 310.0 2451.0 313.5Q2432 317.0 2424 320.0Q2417 323.0 2410.0 326.5Q2403 330.0 2396 335.0Q2392 335.0 2377.5 328.0Q2363 321.0 2352 315.0Q2347 312.0 2341.0 308.5Q2335 305.0 2329 301.0Q2329 302.0 2329.0 303.0Q2329 304.0 2329 306.0Q2329 328.0 2324.5 351.0Q2320 374.0 2312 394.0Q2305 410.0 2293.0 428.5Q2281 447.0 2264 461.0Q2251 473.0 2233.5 482.5Q2216 492.0 2199 499.0Q2183 505.0 2157.0 509.5Q2131 514.0 2102 514.0Q2073 514.0 2047.0 509.5Q2021 505.0 2005 499.0Q1988 492.0 1971.0 482.5Q1954 473.0 1940 461.0Q1924 447.0 1911.5 428.5Q1899 410.0 1892 394.0Q1884 374.0 1879.5 351.0Q1875 328.0 1875 306.0Q1875 283.0 1879.5 260.0Q1884 237.0 1892 218.0Q1899 201.0 1911.5 183.0Q1924 165.0 1940 151.0Q1954 139.0 1971.0 129.5Q1988 120.0 2005 113.0Q2016 108.0 2032.0 104.5Q2048 101.0 2066 100.0ZM2102 479.0Q2124 479.0 2146.0 474.5Q2168 470.0 2182 463.0Q2196 456.0 2209.0 447.0Q2222 438.0 2232 427.0Q2244 413.0 2251.5 398.0Q2259 383.0 2263 369.0Q2268 355.0 2270.0 338.0Q2272 321.0 2272 305.0Q2272 289.0 2270.0 271.5Q2268 254.0 2263 241.0Q2259 227.0 2251.5 211.5Q2244 196.0 2232 183.0Q2222 172.0 2209.0 163.0Q2196 154.0 2182 147.0Q2168 140.0 2146.0 135.5Q2124 131.0 2102 131.0Q2080 131.0 2058.5 135.5Q2037 140.0 2023 147.0Q2009 154.0 1996.5 163.0Q1984 172.0 1973 183.0Q1961 196.0 1954.0 211.5Q1947 227.0 1942 241.0Q1938 254.0 1935.5 271.5Q1933 289.0 1933 305.0Q1933 321.0 1935.5 338.0Q1938 355.0 1942 369.0Q1947 383.0 1954.0 398.0Q1961 413.0 1973 427.0Q1984 438.0 1996.5 447.0Q2009 456.0 2023 463.0Q2037 470.0 2058.5 474.5Q2080 479.0 2102 479.0Z"/>
  <path d="M3783 390.0Q3795 390.0 3804.5 387.5Q3814 385.0 3824 378.0Q3830 373.0 3835.5 367.5Q3841 362.0 3843 359.0Q3854 360.0 3866.0 361.0Q3878 362.0 3890 364.0Q3909 366.0 3922.0 373.5Q3935 381.0 3935 398.0Q3935 411.0 3928.0 416.5Q3921 422.0 3910 422.0H3770V522.0Q3770 538.0 3769.5 563.0Q3769 588.0 3768 605.0Q3767 623.0 3766.0 644.0Q3765 665.0 3764 671.0Q3763 678.0 3761.5 689.5Q3760 701.0 3758 712.0Q3757 721.0 3754.0 728.5Q3751 736.0 3749 741.0Q3747 745.0 3744.0 747.5Q3741 750.0 3738 750.0Q3733 750.0 3730.5 746.0Q3728 742.0 3726 738.0Q3725 734.0 3723.5 728.0Q3722 722.0 3721 716.0Q3720 709.0 3719.5 700.5Q3719 692.0 3718 680.0Q3717 663.0 3716.5 635.0Q3716 607.0 3716 591.0V125.0Q3716 115.0 3713.5 106.5Q3711 98.0 3707 93.0Q3703 88.0 3698.0 83.0Q3693 78.0 3687 74.0Q3680 69.0 3671.5 64.5Q3663 60.0 3657 57.0Q3650 54.0 3642.0 50.5Q3634 47.0 3628 45.0Q3623 43.0 3616.0 40.0Q3609 37.0 3609 32.0Q3609 26.0 3617.0 23.0Q3625 20.0 3635 20.0Q3641 20.0 3661.0 23.0Q3681 26.0 3697 30.0Q3710 33.0 3723.5 37.0Q3737 41.0 3751 46.0Q3761 50.0 3770.0 55.0Q3779 60.0 3779 68.0Q3779 72.0 3777.0 78.0Q3775 84.0 3773 91.0Q3772 97.0 3771.0 107.0Q3770 117.0 3770 122.0V390.0ZM3349 542.0Q3371 540.0 3394.5 538.0Q3418 536.0 3441 534.0Q3466 532.0 3505.0 528.0Q3544 524.0 3568 521.0Q3587 519.0 3620.5 514.5Q3654 510.0 3673 506.0Q3685 504.0 3687.0 514.0Q3689 524.0 3676 529.0Q3654 535.0 3621.0 541.5Q3588 548.0 3562 553.0Q3527 559.0 3488.5 564.0Q3450 569.0 3417 574.0Q3389 578.0 3358.5 581.0Q3328 584.0 3302 587.0Q3275 590.0 3242.5 594.5Q3210 599.0 3191 601.0Q3181 602.0 3173.0 605.5Q3165 609.0 3158 615.0Q3154 615.0 3142.0 609.5Q3130 604.0 3119 598.0Q3109 593.0 3097.5 586.0Q3086 579.0 3077 573.0Q3068 567.0 3059.0 559.5Q3050 552.0 3050 546.0Q3050 540.0 3054.5 537.0Q3059 534.0 3066 536.0Q3077 538.0 3088.5 540.0Q3100 542.0 3110 544.0Q3125 546.0 3144.0 547.5Q3163 549.0 3182 549.0Q3211 548.0 3240.5 546.5Q3270 545.0 3295 544.0V384.0Q3295 373.0 3292.0 366.0Q3289 359.0 3280 352.0Q3273 347.0 3266.5 343.0Q3260 339.0 3254 336.0Q3248 333.0 3240.0 329.5Q3232 326.0 3226 324.0Q3222 322.0 3215.5 319.0Q3209 316.0 3209 312.0Q3209 306.0 3216.0 303.0Q3223 300.0 3230 300.0Q3236 300.0 3253.5 302.0Q3271 304.0 3282 306.0Q3296 308.0 3311.0 312.0Q3326 316.0 3336 319.0Q3343 321.0 3349.5 325.5Q3356 330.0 3356 336.0Q3356 340.0 3352.5 352.5Q3349 365.0 3349 385.0V542.0ZM3290 696.0Q3297 698.0 3304.0 702.5Q3311 707.0 3311 713.0Q3311 720.0 3308.5 728.0Q3306 736.0 3306 755.0V863.0Q3306 881.0 3319.0 886.5Q3332 892.0 3357 892.0H3561Q3596 892.0 3617.5 890.0Q3639 888.0 3651 884.0Q3663 880.0 3671.5 875.0Q3680 870.0 3685 865.0Q3705 866.0 3728.5 867.5Q3752 869.0 3774 871.0Q3808 875.0 3821.5 882.0Q3835 889.0 3835 905.0Q3835 915.0 3829.5 920.0Q3824 925.0 3814 925.0H3348Q3310 925.0 3280.0 915.0Q3250 905.0 3250 862.0V757.0Q3250 748.0 3245.5 741.5Q3241 735.0 3236 731.0Q3232 727.0 3223.5 722.5Q3215 718.0 3208 715.0Q3198 710.0 3188.0 706.5Q3178 703.0 3171 701.0Q3166 699.0 3159.0 697.0Q3152 695.0 3152 691.0Q3152 684.0 3160.0 680.0Q3168 676.0 3181 676.0Q3188 676.0 3206.0 678.5Q3224 681.0 3236 683.0Q3249 685.0 3265.0 689.0Q3281 693.0 3290 696.0ZM3505 118.0 3524 104.0Q3537 105.0 3551.0 106.0Q3565 107.0 3572 108.0Q3580 109.0 3587.5 112.5Q3595 116.0 3595 123.0Q3595 130.0 3590.0 139.0Q3585 148.0 3583 156.0Q3582 170.0 3578.5 194.5Q3575 219.0 3573 236.0Q3571 253.0 3567.0 277.5Q3563 302.0 3559 321.0Q3555 340.0 3550.5 362.0Q3546 384.0 3541 402.0Q3537 418.0 3532.0 437.0Q3527 456.0 3522 469.0Q3518 482.0 3506.0 480.5Q3494 479.0 3496 466.0Q3498 453.0 3500.0 433.5Q3502 414.0 3503 401.0Q3505 387.0 3507.5 358.0Q3510 329.0 3511 312.0Q3513 295.0 3514.5 266.0Q3516 237.0 3517 223.0Q3518 208.0 3519.0 182.5Q3520 157.0 3520 150.0H3359Q3333 150.0 3306.5 151.0Q3280 152.0 3268 154.0Q3256 155.0 3244.0 157.5Q3232 160.0 3224 163.0Q3216 166.0 3209.5 169.0Q3203 172.0 3195 176.0Q3193 176.0 3186.0 173.5Q3179 171.0 3174 169.0Q3168 167.0 3160.5 163.5Q3153 160.0 3145 156.0Q3136 151.0 3127.5 146.5Q3119 142.0 3111 138.0Q3105 134.0 3097.5 128.5Q3090 123.0 3090 118.0Q3090 113.0 3094.0 111.0Q3098 109.0 3104 110.0Q3110 111.0 3120.5 112.0Q3131 113.0 3142 114.0Q3159 115.0 3192.5 116.5Q3226 118.0 3277 118.0Z"/>
  <path d="M4629 247.0Q4602 247.0 4581.0 250.0Q4560 253.0 4551 256.0Q4543 259.0 4535.0 263.0Q4527 267.0 4521 271.0Q4518 271.0 4509.0 267.0Q4500 263.0 4493 259.0Q4483 254.0 4471.0 247.0Q4459 240.0 4454 236.0Q4448 231.0 4441.5 225.5Q4435 220.0 4435 216.0Q4435 211.0 4439.0 209.0Q4443 207.0 4448 208.0Q4454 209.0 4463.0 210.0Q4472 211.0 4483 212.0Q4500 213.0 4522.0 214.0Q4544 215.0 4569 215.0H4657V125.0Q4657 115.0 4654.5 106.5Q4652 98.0 4648 93.0Q4644 88.0 4639.0 83.0Q4634 78.0 4628 74.0Q4621 69.0 4612.5 64.5Q4604 60.0 4598 57.0Q4591 54.0 4583.0 50.5Q4575 47.0 4569 45.0Q4564 43.0 4557.0 40.0Q4550 37.0 4550 32.0Q4550 26.0 4558.0 23.0Q4566 20.0 4576 20.0Q4582 20.0 4602.0 23.0Q4622 26.0 4638 30.0Q4651 33.0 4664.5 37.0Q4678 41.0 4692 46.0Q4702 50.0 4711.0 55.0Q4720 60.0 4720 68.0Q4720 72.0 4718.0 78.0Q4716 84.0 4714 91.0Q4713 97.0 4712.0 107.0Q4711 117.0 4711 122.0V512.0Q4711 528.0 4710.5 553.0Q4710 578.0 4709 595.0Q4708 613.0 4707.0 634.0Q4706 655.0 4705 661.0Q4704 668.0 4702.5 679.5Q4701 691.0 4699 702.0Q4698 711.0 4695.0 718.5Q4692 726.0 4690 731.0Q4688 735.0 4685.0 737.5Q4682 740.0 4679 740.0Q4674 740.0 4671.5 736.0Q4669 732.0 4667 728.0Q4666 724.0 4664.5 718.0Q4663 712.0 4662 706.0Q4661 699.0 4660.5 690.5Q4660 682.0 4659 670.0Q4658 653.0 4657.5 625.0Q4657 597.0 4657 581.0V450.0H4624Q4597 450.0 4576.0 453.0Q4555 456.0 4546 459.0Q4538 462.0 4530.0 466.0Q4522 470.0 4516 474.0Q4513 474.0 4504.0 470.0Q4495 466.0 4488 462.0Q4478 457.0 4466.0 450.0Q4454 443.0 4449 439.0Q4443 434.0 4436.5 428.5Q4430 423.0 4430 419.0Q4430 414.0 4434.0 412.0Q4438 410.0 4443 411.0Q4449 412.0 4458.0 413.0Q4467 414.0 4478 415.0Q4495 416.0 4517.0 417.0Q4539 418.0 4564 418.0H4657V247.0ZM4099 574.0Q4119 572.0 4147.5 569.5Q4176 567.0 4196 565.0Q4217 563.0 4245.5 560.0Q4274 557.0 4308 553.0Q4330 551.0 4359.0 547.0Q4388 543.0 4412 539.0Q4433 536.0 4458.0 532.0Q4483 528.0 4500 524.0Q4513 521.0 4516.0 531.5Q4519 542.0 4505 547.0Q4487 553.0 4460.0 559.5Q4433 566.0 4412 571.0Q4387 577.0 4355.5 583.5Q4324 590.0 4301 595.0Q4271 601.0 4243.0 606.0Q4215 611.0 4191 616.0Q4169 620.0 4139.5 625.0Q4110 630.0 4093 632.0Q4083 632.0 4064.0 617.5Q4045 603.0 4045 588.0V377.0Q4045 372.0 4041.5 366.0Q4038 360.0 4029 355.0Q4020 350.0 4007.5 345.5Q3995 341.0 3984 339.0Q3978 337.0 3971.5 335.0Q3965 333.0 3965 328.0Q3965 321.0 3975.0 316.5Q3985 312.0 4000 312.0Q4014 312.0 4037.5 313.5Q4061 315.0 4070 317.0Q4081 318.0 4093.0 321.5Q4105 325.0 4106 329.0H4325L4340 318.0V142.0H4220Q4180 142.0 4152.5 145.0Q4125 148.0 4112 153.0Q4103 156.0 4095.0 159.5Q4087 163.0 4082 166.0Q4079 166.0 4069.0 162.0Q4059 158.0 4051 154.0Q4042 149.0 4029.5 143.0Q4017 137.0 4010 133.0Q4004 129.0 3994.5 122.5Q3985 116.0 3985 111.0Q3985 105.0 3990.0 103.0Q3995 101.0 3999 102.0Q4010 103.0 4023.0 104.5Q4036 106.0 4046 107.0Q4062 108.0 4094.0 109.0Q4126 110.0 4154 110.0H4324L4344 96.0Q4350 96.0 4361.5 96.5Q4373 97.0 4386 99.0Q4400 100.0 4406.0 103.5Q4412 107.0 4412 114.0Q4412 120.0 4407.5 130.0Q4403 140.0 4400 152.0L4378 318.0Q4387 325.0 4395.5 332.5Q4404 340.0 4404 347.0Q4404 355.0 4398.5 358.0Q4393 361.0 4381 361.0H4099ZM4220 702.0Q4227 704.0 4234.0 708.5Q4241 713.0 4241 719.0Q4241 726.0 4238.5 734.0Q4236 742.0 4236 761.0V863.0Q4236 881.0 4249.0 886.5Q4262 892.0 4287 892.0H4502Q4537 892.0 4558.5 890.0Q4580 888.0 4592 884.0Q4604 880.0 4612.5 875.0Q4621 870.0 4626 865.0Q4646 866.0 4669.5 867.5Q4693 869.0 4715 871.0Q4749 875.0 4762.5 882.0Q4776 889.0 4776 905.0Q4776 915.0 4770.5 920.0Q4765 925.0 4755 925.0H4278Q4240 925.0 4210.0 915.0Q4180 905.0 4180 862.0V763.0Q4180 754.0 4175.5 747.5Q4171 741.0 4166 737.0Q4162 733.0 4153.5 728.5Q4145 724.0 4138 721.0Q4128 716.0 4118.0 712.5Q4108 709.0 4101 707.0Q4096 705.0 4089.0 703.0Q4082 701.0 4082 697.0Q4082 690.0 4090.0 686.0Q4098 682.0 4111 682.0Q4118 682.0 4136.0 684.5Q4154 687.0 4166 689.0Q4179 691.0 4195.0 695.0Q4211 699.0 4220 702.0Z"/>
  <path d="M5445 403.0Q5456 419.0 5470.0 439.0Q5484 459.0 5494 470.0Q5505 484.0 5518.5 500.0Q5532 516.0 5543 527.0Q5556 540.0 5569.0 550.0Q5582 560.0 5593 568.0Q5602 574.0 5612.5 579.0Q5623 584.0 5632 587.0Q5638 595.0 5645.5 607.5Q5653 620.0 5659 630.0Q5667 643.0 5675.0 658.0Q5683 673.0 5687 683.0Q5694 696.0 5701.0 715.5Q5708 735.0 5699 744.0Q5693 750.0 5685.5 749.0Q5678 748.0 5667 738.0Q5653 722.0 5638.0 704.5Q5623 687.0 5611 673.0Q5594 652.0 5577.0 632.0Q5560 612.0 5544 593.0Q5528 573.0 5512.5 554.0Q5497 535.0 5480 514.0Q5469 500.0 5454.5 481.0Q5440 462.0 5426 444.0Q5424 448.0 5421.5 452.0Q5419 456.0 5417 461.0Q5406 482.0 5394.5 503.0Q5383 524.0 5370 544.0Q5356 566.0 5340.5 588.5Q5325 611.0 5311 631.0Q5297 650.0 5281.0 670.0Q5265 690.0 5251 707.0Q5235 727.0 5217.5 745.0Q5200 763.0 5187 776.0Q5176 786.0 5168.0 779.0Q5160 772.0 5170 762.0Q5184 745.0 5197.5 726.5Q5211 708.0 5224 690.0Q5236 673.0 5251.0 650.5Q5266 628.0 5277 610.0Q5288 592.0 5301.0 570.5Q5314 549.0 5324 530.0Q5332 515.0 5344.5 492.0Q5357 469.0 5364 453.0Q5372 436.0 5381.0 414.5Q5390 393.0 5397 376.0Q5402 362.0 5409.0 343.0Q5416 324.0 5420 311.0Q5425 297.0 5430.0 281.0Q5435 265.0 5439 250.0Q5443 236.0 5447.5 217.0Q5452 198.0 5453 190.0Q5452 185.0 5445.5 178.5Q5439 172.0 5432 167.0Q5425 162.0 5414.5 155.5Q5404 149.0 5396 145.0Q5392 143.0 5385.0 139.0Q5378 135.0 5379 130.0Q5380 125.0 5384.5 122.5Q5389 120.0 5399 120.0Q5404 120.0 5415.0 122.5Q5426 125.0 5433 127.0Q5441 129.0 5452.0 132.5Q5463 136.0 5471 139.0Q5479 142.0 5487.0 145.5Q5495 149.0 5501 152.0Q5509 156.0 5514.5 160.5Q5520 165.0 5520 170.0Q5519 180.0 5513.0 204.0Q5507 228.0 5502 247.0Q5497 266.0 5487.0 296.0Q5477 326.0 5468 349.0Q5463 362.0 5457.0 375.5Q5451 389.0 5445 403.0ZM5919 734.0Q5919 754.0 5918.0 787.0Q5917 820.0 5916 837.0Q5915 865.0 5912.0 889.0Q5909 913.0 5907 924.0Q5906 931.0 5904.0 936.5Q5902 942.0 5900 947.0Q5898 952.0 5894.5 956.0Q5891 960.0 5886 960.0Q5882 960.0 5879.5 956.0Q5877 952.0 5875 948.0Q5874 943.0 5872.5 936.5Q5871 930.0 5870 923.0Q5869 909.0 5868.5 899.5Q5868 890.0 5867 871.0Q5866 849.0 5866.0 812.5Q5866 776.0 5866 764.0V126.0Q5866 116.0 5864.0 108.0Q5862 100.0 5858 94.0Q5854 89.0 5849.0 83.5Q5844 78.0 5837 74.0Q5830 69.0 5822.5 65.0Q5815 61.0 5807 57.0Q5799 53.0 5791.0 50.0Q5783 47.0 5777 45.0Q5771 43.0 5764.5 40.0Q5758 37.0 5758 32.0Q5758 26.0 5766.0 23.0Q5774 20.0 5784 20.0Q5790 20.0 5808.5 22.5Q5827 25.0 5844 30.0Q5856 33.0 5873.0 38.0Q5890 43.0 5902 48.0Q5912 52.0 5920.0 56.5Q5928 61.0 5928 69.0Q5928 73.0 5926.0 78.5Q5924 84.0 5922 91.0Q5921 97.0 5920.0 107.0Q5919 117.0 5919 122.0Z"/>
  <path d="M6645 479.0Q6682 479.0 6706.5 478.0Q6731 477.0 6743 476.0Q6753 474.0 6766.5 471.5Q6780 469.0 6787 465.0Q6792 463.0 6796.5 460.0Q6801 457.0 6805 454.0Q6819 455.0 6834.0 455.5Q6849 456.0 6865 458.0Q6881 459.0 6893.5 461.5Q6906 464.0 6916 466.0Q6926 468.0 6935.5 474.5Q6945 481.0 6945 495.0Q6945 505.0 6940.0 513.0Q6935 521.0 6921 520.0Q6911 519.0 6899.5 518.5Q6888 518.0 6877 517.0Q6865 516.0 6832.5 514.5Q6800 513.0 6773 513.0H6398Q6342 513.0 6299.0 517.0Q6256 521.0 6239 526.0Q6229 529.0 6219.5 532.5Q6210 536.0 6200 541.0Q6196 541.0 6182.5 535.5Q6169 530.0 6158 525.0Q6146 520.0 6134.0 513.5Q6122 507.0 6111 501.0Q6102 496.0 6093.5 489.5Q6085 483.0 6085 477.0Q6085 472.0 6089.5 469.5Q6094 467.0 6100 468.0Q6109 469.0 6124.0 471.0Q6139 473.0 6150 474.0Q6168 475.0 6209.0 477.0Q6250 479.0 6292 479.0H6453V339.0Q6453 330.0 6449.5 323.0Q6446 316.0 6439 310.0Q6434 305.0 6426.5 301.0Q6419 297.0 6413 294.0Q6407 291.0 6399.0 287.5Q6391 284.0 6385 282.0Q6381 280.0 6374.5 277.0Q6368 274.0 6368 270.0Q6368 264.0 6375.0 260.5Q6382 257.0 6389 257.0Q6397 257.0 6414.5 259.0Q6432 261.0 6447 264.0Q6460 266.0 6474.0 269.5Q6488 273.0 6496 276.0Q6504 279.0 6510.0 282.5Q6516 286.0 6516 294.0Q6516 298.0 6512.5 310.0Q6509 322.0 6509 341.0V479.0ZM6521 940.0Q6491 940.0 6450.0 936.5Q6409 933.0 6387 929.0Q6362 924.0 6335.5 916.5Q6309 909.0 6292 901.0Q6276 893.0 6261.5 882.0Q6247 871.0 6236 857.0Q6222 840.0 6216.5 818.0Q6211 796.0 6211 781.0Q6211 766.0 6216.5 744.0Q6222 722.0 6236 705.0Q6247 691.0 6261.5 680.0Q6276 669.0 6292 661.0Q6309 653.0 6335.5 645.0Q6362 637.0 6387 633.0Q6409 629.0 6450.0 625.5Q6491 622.0 6521 622.0Q6551 622.0 6592.0 625.5Q6633 629.0 6655 633.0Q6680 637.0 6707.0 645.0Q6734 653.0 6750 661.0Q6767 669.0 6781.0 680.0Q6795 691.0 6806 705.0Q6820 722.0 6825.5 744.0Q6831 766.0 6831 781.0Q6831 796.0 6825.5 818.0Q6820 840.0 6806 857.0Q6795 871.0 6781.0 882.0Q6767 893.0 6750 901.0Q6734 909.0 6707.0 916.5Q6680 924.0 6655 929.0Q6633 933.0 6592.0 936.5Q6551 940.0 6521 940.0ZM6521 904.0Q6562 904.0 6603.0 898.5Q6644 893.0 6666 887.0Q6686 882.0 6704.5 873.0Q6723 864.0 6733 857.0Q6743 849.0 6750.0 840.5Q6757 832.0 6761 825.0Q6766 815.0 6768.5 804.0Q6771 793.0 6771 780.0Q6771 767.0 6768.5 756.0Q6766 745.0 6761 735.0Q6757 727.0 6750.0 718.5Q6743 710.0 6733 703.0Q6723 695.0 6704.5 686.5Q6686 678.0 6666 673.0Q6644 667.0 6603.0 661.5Q6562 656.0 6521 656.0Q6480 656.0 6439.0 661.5Q6398 667.0 6376 673.0Q6357 678.0 6338.5 686.5Q6320 695.0 6309 703.0Q6299 710.0 6292.0 718.5Q6285 727.0 6281 735.0Q6276 745.0 6273.5 757.0Q6271 769.0 6271 780.0Q6271 793.0 6273.5 804.0Q6276 815.0 6281 825.0Q6285 832.0 6292.0 840.5Q6299 849.0 6309 857.0Q6320 864.0 6338.5 873.0Q6357 882.0 6376 887.0Q6398 893.0 6439.0 898.5Q6480 904.0 6521 904.0ZM6731 412.0Q6733 395.0 6735.5 374.5Q6738 354.0 6740 338.0Q6742 319.0 6744.5 295.5Q6747 272.0 6748 258.0Q6750 244.0 6751.5 217.5Q6753 191.0 6754 176.0Q6755 159.0 6756.0 142.0Q6757 125.0 6757 114.0H6476Q6442 114.0 6404.5 116.0Q6367 118.0 6353 120.0Q6340 122.0 6329.0 125.0Q6318 128.0 6310 131.0Q6302 134.0 6296.5 137.0Q6291 140.0 6286 143.0Q6284 143.0 6275.0 140.0Q6266 137.0 6261 135.0Q6254 132.0 6246.0 128.5Q6238 125.0 6230 121.0Q6223 117.0 6213.5 112.5Q6204 108.0 6196 104.0Q6189 99.0 6179.5 93.0Q6170 87.0 6170 81.0Q6170 74.0 6176.0 72.5Q6182 71.0 6186 72.0Q6192 73.0 6203.5 74.0Q6215 75.0 6225 76.0Q6243 77.0 6278.0 78.5Q6313 80.0 6370 80.0H6741L6760 65.0Q6774 66.0 6786.5 66.5Q6799 67.0 6810 69.0Q6818 70.0 6825.5 73.5Q6833 77.0 6833 84.0Q6833 91.0 6827.5 100.5Q6822 110.0 6820 120.0Q6818 134.0 6815.0 152.0Q6812 170.0 6810 184.0Q6807 201.0 6803.0 224.0Q6799 247.0 6796 262.0Q6792 281.0 6787.5 302.0Q6783 323.0 6778 340.0Q6774 357.0 6767.5 378.5Q6761 400.0 6756 414.0Q6752 428.0 6740.5 427.0Q6729 426.0 6731 412.0Z"/>
  <path d="M7128 798.0Q7128 817.0 7125.5 834.0Q7123 851.0 7117 869.0Q7110 889.0 7102.5 902.5Q7095 916.0 7085 929.0Q7075 943.0 7062.0 956.0Q7049 969.0 7038 979.0Q7031 983.0 7026.0 979.0Q7021 975.0 7026 968.0Q7031 961.0 7037.0 953.0Q7043 945.0 7048 938.0Q7053 931.0 7059.0 921.0Q7065 911.0 7069 901.0Q7073 893.0 7077.0 881.5Q7081 870.0 7081 864.0Q7081 859.0 7076.0 854.5Q7071 850.0 7065 848.0Q7056 845.0 7048.0 840.5Q7040 836.0 7034 829.0Q7027 821.0 7023.5 812.0Q7020 803.0 7020 792.0Q7020 780.0 7024.5 770.5Q7029 761.0 7036 754.0Q7044 746.0 7054.5 743.0Q7065 740.0 7072 740.0Q7083 740.0 7093.0 745.0Q7103 750.0 7109 755.0Q7117 762.0 7122.5 774.0Q7128 786.0 7128 798.0Z"/>
  <path d="M8148 392.0Q8116 392.0 8093.0 395.0Q8070 398.0 8054 403.0Q8044 406.0 8035.5 410.0Q8027 414.0 8020 418.0Q8015 416.0 8005.5 412.0Q7996 408.0 7987 404.0Q7977 399.0 7965.5 392.5Q7954 386.0 7947 382.0Q7941 378.0 7933.0 371.5Q7925 365.0 7925 361.0Q7925 356.0 7929.0 353.5Q7933 351.0 7939 352.0Q7952 353.0 7961.5 354.5Q7971 356.0 7985 357.0Q7997 358.0 8022.5 359.0Q8048 360.0 8076 360.0H8197V125.0Q8197 115.0 8194.5 106.5Q8192 98.0 8188 93.0Q8184 88.0 8179.0 83.0Q8174 78.0 8168 74.0Q8161 69.0 8152.5 64.5Q8144 60.0 8138 57.0Q8131 54.0 8123.0 50.5Q8115 47.0 8109 45.0Q8104 43.0 8097.0 40.0Q8090 37.0 8090 32.0Q8090 26.0 8098.0 23.0Q8106 20.0 8116 20.0Q8122 20.0 8142.0 23.0Q8162 26.0 8178 30.0Q8191 33.0 8204.5 37.0Q8218 41.0 8232 46.0Q8242 50.0 8251.0 55.0Q8260 60.0 8260 68.0Q8260 72.0 8258.0 78.0Q8256 84.0 8254 91.0Q8253 97.0 8252.0 107.0Q8251 117.0 8251 122.0V507.0Q8251 523.0 8250.5 548.0Q8250 573.0 8249 590.0Q8248 608.0 8247.0 629.0Q8246 650.0 8245 656.0Q8244 663.0 8242.5 674.5Q8241 686.0 8239 697.0Q8238 706.0 8235.0 713.5Q8232 721.0 8230 726.0Q8228 730.0 8225.0 732.5Q8222 735.0 8219 735.0Q8214 735.0 8211.5 731.0Q8209 727.0 8207 723.0Q8206 719.0 8204.5 713.0Q8203 707.0 8202 701.0Q8201 694.0 8200.5 685.5Q8200 677.0 8199 665.0Q8198 648.0 8197.5 620.0Q8197 592.0 8197 576.0V392.0ZM7987 168.0Q7983 181.0 7977.0 197.0Q7971 213.0 7964 230.0Q7957 248.0 7949.5 264.0Q7942 280.0 7932 297.0Q7922 313.0 7910.0 332.5Q7898 352.0 7885 368.0Q7872 384.0 7856.0 401.0Q7840 418.0 7825 432.0Q7807 448.0 7788.0 464.0Q7769 480.0 7753 492.0Q7736 505.0 7713.0 520.0Q7690 535.0 7672 546.0Q7653 558.0 7632.5 570.0Q7612 582.0 7594 592.0Q7575 602.0 7555.0 612.0Q7535 622.0 7517 630.0Q7504 634.0 7498.0 626.0Q7492 618.0 7505 611.0Q7523 600.0 7541.5 587.5Q7560 575.0 7579 562.0Q7595 551.0 7611.5 539.0Q7628 527.0 7646 514.0Q7663 501.0 7682.0 485.5Q7701 470.0 7720 454.0Q7737 440.0 7752.0 425.0Q7767 410.0 7780 397.0Q7794 382.0 7807.5 366.5Q7821 351.0 7832 337.0Q7843 323.0 7853.5 308.0Q7864 293.0 7873 278.0Q7883 262.0 7891.0 246.0Q7899 230.0 7906 214.0Q7911 202.0 7916.0 188.5Q7921 175.0 7925 162.0H7807Q7759 162.0 7732.5 164.5Q7706 167.0 7692 169.0Q7682 170.0 7671.5 173.0Q7661 176.0 7654 179.0Q7649 181.0 7645.0 183.5Q7641 186.0 7637 188.0Q7635 188.0 7628.5 185.5Q7622 183.0 7617 181.0Q7612 179.0 7604.5 175.5Q7597 172.0 7589 168.0Q7579 163.0 7571.0 158.5Q7563 154.0 7555 150.0Q7549 146.0 7542.0 140.0Q7535 134.0 7535 130.0Q7535 125.0 7539.5 123.0Q7544 121.0 7549 122.0Q7555 123.0 7566.0 124.0Q7577 125.0 7586 126.0Q7601 127.0 7628.0 128.5Q7655 130.0 7692 130.0H7918L7937 117.0Q7947 118.0 7956.5 118.5Q7966 119.0 7974 120.0Q7984 121.0 7994.5 124.0Q8005 127.0 8005 136.0Q8005 141.0 7999.0 149.5Q7993 158.0 7987 168.0ZM7760 685.0Q7767 687.0 7774.0 691.5Q7781 696.0 7781 702.0Q7781 709.0 7778.5 717.0Q7776 725.0 7776 744.0V863.0Q7776 881.0 7789.0 886.5Q7802 892.0 7827 892.0H8042Q8077 892.0 8098.5 890.0Q8120 888.0 8132 884.0Q8144 880.0 8152.5 875.0Q8161 870.0 8166 865.0Q8186 866.0 8209.5 867.5Q8233 869.0 8255 871.0Q8289 875.0 8302.5 882.0Q8316 889.0 8316 905.0Q8316 915.0 8310.5 920.0Q8305 925.0 8295 925.0H7818Q7780 925.0 7750.0 915.0Q7720 905.0 7720 862.0V746.0Q7720 737.0 7715.5 730.5Q7711 724.0 7706 720.0Q7702 716.0 7693.5 711.5Q7685 707.0 7678 704.0Q7668 699.0 7658.0 695.5Q7648 692.0 7641 690.0Q7636 688.0 7629.0 686.0Q7622 684.0 7622 680.0Q7622 673.0 7630.0 669.0Q7638 665.0 7651 665.0Q7658 665.0 7676.0 667.5Q7694 670.0 7706 672.0Q7719 674.0 7735.0 678.0Q7751 682.0 7760 685.0Z"/>
  <path d="M9052 674.0 9072 660.0Q9084 661.0 9093.0 661.5Q9102 662.0 9109 663.0Q9119 664.0 9126.5 667.0Q9134 670.0 9134 676.0Q9134 683.0 9130.0 693.5Q9126 704.0 9126 718.0V790.0Q9126 803.0 9125.5 819.5Q9125 836.0 9124 850.0Q9123 864.0 9122.5 877.0Q9122 890.0 9120 900.0Q9119 907.0 9117.5 916.0Q9116 925.0 9114 930.0Q9112 937.0 9110.0 941.5Q9108 946.0 9105 951.0Q9103 955.0 9099.5 957.5Q9096 960.0 9093 960.0Q9089 960.0 9086.0 957.0Q9083 954.0 9081 950.0Q9079 945.0 9077.5 939.0Q9076 933.0 9075 929.0Q9074 924.0 9073.5 917.5Q9073 911.0 9072 901.0Q9071 890.0 9070.5 867.0Q9070 844.0 9070 828.0V708.0H8817Q8781 708.0 8749.5 710.0Q8718 712.0 8707 714.0Q8693 716.0 8681.5 718.5Q8670 721.0 8661 724.0Q8653 727.0 8645.5 730.0Q8638 733.0 8632 737.0Q8628 737.0 8616.5 732.5Q8605 728.0 8594 724.0Q8583 719.0 8567.5 711.5Q8552 704.0 8541 698.0Q8534 693.0 8524.5 687.0Q8515 681.0 8515 674.0Q8515 669.0 8519.5 666.5Q8524 664.0 8530 665.0Q8536 666.0 8551.5 667.5Q8567 669.0 8575 670.0Q8592 671.0 8629.0 672.5Q8666 674.0 8715 674.0H8834Q8829 666.0 8826.5 652.0Q8824 638.0 8823 628.0Q8822 612.0 8821.0 592.0Q8820 572.0 8820 560.0V522.0H8712Q8656 522.0 8619.5 526.0Q8583 530.0 8566 535.0Q8556 538.0 8547.0 541.0Q8538 544.0 8528 549.0Q8525 549.0 8512.5 544.0Q8500 539.0 8489 534.0Q8477 529.0 8465.0 522.5Q8453 516.0 8442 510.0Q8433 505.0 8424.0 498.5Q8415 492.0 8415 486.0Q8415 481.0 8419.5 478.5Q8424 476.0 8430 477.0Q8439 478.0 8454.0 480.0Q8469 482.0 8480 483.0Q8498 484.0 8539.0 486.0Q8580 488.0 8622 488.0H8975Q9012 488.0 9037.5 487.0Q9063 486.0 9075 485.0Q9086 483.0 9097.5 480.5Q9109 478.0 9116 475.0Q9121 473.0 9126.0 470.5Q9131 468.0 9135 464.0Q9149 465.0 9163.5 465.5Q9178 466.0 9193 468.0Q9208 469.0 9222.0 471.5Q9236 474.0 9246 476.0Q9256 478.0 9265.5 484.0Q9275 490.0 9275 504.0Q9275 514.0 9270.0 522.0Q9265 530.0 9251 529.0Q9241 528.0 9230.0 527.5Q9219 527.0 9208 526.0Q9197 525.0 9163.5 523.5Q9130 522.0 9103 522.0H8876V552.0Q8876 567.0 8875.0 587.5Q8874 608.0 8872 622.0Q8871 632.0 8868.0 648.0Q8865 664.0 8858 674.0ZM8740 102.0Q8721 102.0 8704.0 97.0Q8687 92.0 8673 85.0Q8663 79.0 8651.5 69.0Q8640 59.0 8640 52.0Q8640 46.0 8644.5 43.5Q8649 41.0 8653 43.0Q8660 45.0 8669.0 48.0Q8678 51.0 8686 53.0Q8697 56.0 8719.5 58.0Q8742 60.0 8769 60.0H8867Q8889 60.0 8902.5 56.5Q8916 53.0 8923 46.0Q8936 47.0 8950.0 48.0Q8964 49.0 8976 51.0Q8992 53.0 9002.0 60.0Q9012 67.0 9012 81.0Q9012 91.0 9005.0 96.5Q8998 102.0 8985 102.0ZM8860 283.0Q8869 286.0 8878.0 289.0Q8887 292.0 8894 294.0Q8908 298.0 8929.0 303.5Q8950 309.0 8963 311.0Q8979 314.0 9002.5 316.5Q9026 319.0 9041 320.0Q9055 321.0 9069.5 321.0Q9084 321.0 9094 320.0Q9108 324.0 9127.5 331.5Q9147 339.0 9165 347.0Q9182 354.0 9193.0 364.0Q9204 374.0 9204 387.0Q9204 395.0 9197.5 399.0Q9191 403.0 9174 400.0Q9160 398.0 9138.0 392.5Q9116 387.0 9098 383.0Q9079 378.0 9052.5 371.5Q9026 365.0 9003 360.0Q8978 354.0 8949.5 346.0Q8921 338.0 8901 332.0Q8885 327.0 8865.0 321.0Q8845 315.0 8826 308.0Q8815 315.0 8803.0 321.5Q8791 328.0 8777 335.0Q8760 343.0 8739.5 351.5Q8719 360.0 8705 365.0Q8687 372.0 8666.0 378.5Q8645 385.0 8628 390.0Q8610 395.0 8586.0 401.0Q8562 407.0 8546 411.0Q8530 415.0 8512.0 418.5Q8494 422.0 8471 426.0Q8457 427.0 8454.5 418.0Q8452 409.0 8465 406.0Q8485 400.0 8511.0 391.5Q8537 383.0 8554 377.0Q8571 371.0 8593.0 362.5Q8615 354.0 8631 347.0Q8648 340.0 8667.0 331.5Q8686 323.0 8704 314.0Q8718 306.0 8732.0 299.5Q8746 293.0 8757 286.0Q8768 279.0 8779.0 272.5Q8790 266.0 8798 260.0Q8806 254.0 8815.0 247.0Q8824 240.0 8828 236.0Q8828 234.0 8824.0 225.0Q8820 216.0 8815 207.0H8738Q8716 207.0 8693.0 208.5Q8670 210.0 8660 212.0Q8651 213.0 8641.5 215.5Q8632 218.0 8624 221.0Q8618 223.0 8612.5 226.0Q8607 229.0 8601 233.0Q8599 233.0 8587.5 228.5Q8576 224.0 8565 219.0Q8554 214.0 8540.0 207.0Q8526 200.0 8517 195.0Q8510 191.0 8502.5 185.0Q8495 179.0 8495 174.0Q8495 169.0 8499.5 166.5Q8504 164.0 8509 165.0Q8519 166.0 8530.0 167.5Q8541 169.0 8549 170.0Q8563 171.0 8594.5 172.5Q8626 174.0 8660 174.0H8910Q8945 174.0 8971.5 172.5Q8998 171.0 9012 168.0Q9023 166.0 9034.0 161.0Q9045 156.0 9050 151.0Q9061 152.0 9078.5 153.0Q9096 154.0 9103 155.0Q9118 156.0 9130.0 158.5Q9142 161.0 9150 163.0Q9158 165.0 9166.5 171.5Q9175 178.0 9175 191.0Q9175 201.0 9170.0 207.5Q9165 214.0 9154 214.0Q9149 214.0 9137.0 213.0Q9125 212.0 9114 211.0Q9101 210.0 9066.0 208.5Q9031 207.0 9013 207.0H8847Q8852 211.0 8856.0 214.5Q8860 218.0 8864 221.0Q8872 227.0 8881.0 232.5Q8890 238.0 8895 243.0Q8895 248.0 8892.0 252.5Q8889 257.0 8884 262.0Q8880 266.0 8875.0 271.0Q8870 276.0 8865 280.0Q8864 281.0 8863.0 281.5Q8862 282.0 8860 283.0Z"/>
  <path d="M9569 170.0Q9577 165.0 9581.0 161.0Q9585 157.0 9586 154.0Q9586 149.0 9583.0 144.5Q9580 140.0 9575 136.0Q9571 132.0 9565.5 129.0Q9560 126.0 9560 123.0Q9560 118.0 9566.0 116.0Q9572 114.0 9577 115.0Q9583 116.0 9595.0 118.5Q9607 121.0 9615 124.0Q9621 126.0 9630.0 131.5Q9639 137.0 9639 144.0Q9638 149.0 9634.5 155.5Q9631 162.0 9626 168.0Q9652 169.0 9673.5 175.0Q9695 181.0 9708 186.0Q9728 195.0 9745.5 206.5Q9763 218.0 9779 235.0Q9796 253.0 9808.5 274.5Q9821 296.0 9829 317.0Q9839 341.0 9844.0 375.0Q9849 409.0 9849 437.0Q9849 465.0 9844.0 499.0Q9839 533.0 9829 557.0Q9821 578.0 9808.5 599.5Q9796 621.0 9779 639.0Q9763 655.0 9745.5 667.0Q9728 679.0 9708 688.0Q9693 695.0 9665.0 701.0Q9637 707.0 9605 707.0Q9574 707.0 9545.5 701.0Q9517 695.0 9502 688.0Q9482 679.0 9464.5 667.0Q9447 655.0 9431 639.0Q9414 621.0 9401.5 599.5Q9389 578.0 9381 557.0Q9371 533.0 9366.0 499.0Q9361 465.0 9361 437.0Q9361 409.0 9366.0 375.0Q9371 341.0 9381 317.0Q9389 296.0 9401.5 274.5Q9414 253.0 9431 235.0Q9447 218.0 9464.5 206.5Q9482 195.0 9502 186.0Q9513 181.0 9530.5 176.5Q9548 172.0 9569 170.0ZM9605 670.0Q9631 670.0 9653.5 664.5Q9676 659.0 9693 650.0Q9710 641.0 9725.0 628.0Q9740 615.0 9750 599.0Q9761 582.0 9769.0 563.5Q9777 545.0 9781 529.0Q9786 512.0 9789.0 485.0Q9792 458.0 9792 436.0Q9792 413.0 9789.0 386.0Q9786 359.0 9781 343.0Q9777 327.0 9769.0 308.0Q9761 289.0 9750 273.0Q9740 257.0 9725.0 244.0Q9710 231.0 9693 222.0Q9676 213.0 9653.5 207.5Q9631 202.0 9605 202.0Q9580 202.0 9557.0 207.5Q9534 213.0 9517 222.0Q9501 231.0 9486.0 244.0Q9471 257.0 9460 273.0Q9449 289.0 9441.5 308.0Q9434 327.0 9429 343.0Q9425 359.0 9421.5 386.0Q9418 413.0 9418 436.0Q9418 458.0 9421.5 485.0Q9425 512.0 9429 529.0Q9434 545.0 9441.5 563.5Q9449 582.0 9460 599.0Q9471 615.0 9486.0 628.0Q9501 641.0 9517 650.0Q9534 659.0 9557.0 664.5Q9580 670.0 9605 670.0ZM10071 734.0Q10071 754.0 10070.0 783.5Q10069 813.0 10068 830.0Q10067 860.0 10065.0 880.5Q10063 901.0 10061 910.0Q10059 923.0 10056.5 932.0Q10054 941.0 10052 946.0Q10050 951.0 10046.5 955.5Q10043 960.0 10038 960.0Q10034 960.0 10031.0 955.5Q10028 951.0 10026 947.0Q10025 942.0 10023.5 935.5Q10022 929.0 10021 922.0Q10020 908.0 10019.5 898.0Q10019 888.0 10018 870.0Q10017 848.0 10017.0 812.0Q10017 776.0 10017 764.0V126.0Q10017 116.0 10015.0 108.0Q10013 100.0 10009 94.0Q10005 89.0 10000.0 83.5Q9995 78.0 9988 74.0Q9981 69.0 9973.5 65.0Q9966 61.0 9958 57.0Q9951 54.0 9942.5 50.5Q9934 47.0 9928 45.0Q9922 43.0 9915.5 40.0Q9909 37.0 9909 32.0Q9909 26.0 9917.0 23.0Q9925 20.0 9935 20.0Q9941 20.0 9959.5 22.5Q9978 25.0 9995 30.0Q10007 33.0 10023.0 37.5Q10039 42.0 10053 47.0Q10063 51.0 10071.5 56.0Q10080 61.0 10080 69.0Q10080 73.0 10078.0 78.5Q10076 84.0 10074 91.0Q10073 97.0 10072.0 107.0Q10071 117.0 10071 122.0Z"/>
  <path d="M10942 275.0Q10943 265.0 10938.0 258.5Q10933 252.0 10925 246.0Q10918 241.0 10910.0 236.0Q10902 231.0 10895 227.0Q10890 224.0 10883.0 220.0Q10876 216.0 10877 212.0Q10878 207.0 10883.0 204.0Q10888 201.0 10897 202.0Q10905 203.0 10916.0 205.0Q10927 207.0 10935 209.0Q10943 211.0 10952.0 213.5Q10961 216.0 10970 219.0Q10976 221.0 10983.0 224.0Q10990 227.0 10996 230.0Q11001 233.0 11006.5 237.0Q11012 241.0 11010 249.0L10963 462.0Q10983 460.0 11003.0 458.0Q11023 456.0 11037 455.0Q11061 452.0 11091.0 448.5Q11121 445.0 11140 441.0Q11155 438.0 11157.0 449.0Q11159 460.0 11145 465.0Q11120 471.0 11090.0 476.5Q11060 482.0 11032 487.0Q11002 492.0 10962.0 497.5Q10922 503.0 10894 507.0Q10866 511.0 10830.0 515.0Q10794 519.0 10775 521.0Q10747 524.0 10716.5 527.0Q10686 530.0 10669 532.0Q10660 533.0 10652.5 537.0Q10645 541.0 10638 546.0Q10635 546.0 10623.0 539.5Q10611 533.0 10600 527.0Q10587 519.0 10577.0 513.0Q10567 507.0 10557 500.0Q10549 494.0 10542.0 488.0Q10535 482.0 10535 476.0Q10535 471.0 10540.0 468.0Q10545 465.0 10552 467.0Q10563 469.0 10574.0 471.0Q10585 473.0 10595 475.0Q10606 476.0 10626.5 478.0Q10647 480.0 10671 480.0Q10679 480.0 10695.5 479.5Q10712 479.0 10731 478.0L10693 311.0Q10692 305.0 10689.5 300.5Q10687 296.0 10684 292.0Q10682 289.0 10677.5 285.0Q10673 281.0 10668 279.0Q10662 276.0 10655.5 273.5Q10649 271.0 10642 269.0Q10638 267.0 10629.5 264.0Q10621 261.0 10621 257.0Q10621 251.0 10628.5 247.5Q10636 244.0 10645 244.0Q10652 244.0 10666.5 245.0Q10681 246.0 10693 248.0Q10701 249.0 10712.0 250.5Q10723 252.0 10733 254.0Q10739 255.0 10746.5 259.0Q10754 263.0 10755 271.0L10767 476.0Q10772 476.0 10776.5 475.5Q10781 475.0 10785 475.0Q10811 473.0 10845.0 471.0Q10879 469.0 10903 467.0Q10908 466.0 10914.0 466.0Q10920 466.0 10927 465.0ZM10775 149.0Q10762 149.0 10737.5 150.5Q10713 152.0 10704 154.0Q10695 155.0 10685.0 158.0Q10675 161.0 10669 163.0Q10664 165.0 10657.0 168.5Q10650 172.0 10645 175.0Q10642 175.0 10632.5 170.5Q10623 166.0 10614 162.0Q10601 155.0 10589.0 148.0Q10577 141.0 10569 136.0Q10563 132.0 10555.5 126.0Q10548 120.0 10548 115.0Q10548 110.0 10552.0 108.0Q10556 106.0 10562 107.0Q10568 108.0 10580.5 109.5Q10593 111.0 10602 112.0Q10612 113.0 10642.0 114.5Q10672 116.0 10699 116.0H10863Q10885 116.0 10907.5 115.0Q10930 114.0 10945 110.0Q10955 108.0 10965.0 102.0Q10975 96.0 10978 93.0Q10990 94.0 11001.5 94.5Q11013 95.0 11026 97.0Q11039 98.0 11047.0 99.5Q11055 101.0 11065 103.0Q11075 105.0 11083.5 111.0Q11092 117.0 11092 131.0Q11092 141.0 11087.0 148.0Q11082 155.0 11073 155.0Q11069 155.0 11056.0 154.0Q11043 153.0 11033 152.0Q11023 151.0 10992.5 150.0Q10962 149.0 10946 149.0ZM11209 739.0 11220 728.0V628.0H10949Q10924 628.0 10894.5 629.0Q10865 630.0 10851 632.0Q10839 633.0 10827.5 635.5Q10816 638.0 10808 641.0Q10801 644.0 10796.0 647.0Q10791 650.0 10786 653.0Q10783 653.0 10776.0 650.5Q10769 648.0 10763 646.0Q10757 644.0 10749.0 640.5Q10741 637.0 10733 633.0Q10725 629.0 10715.5 624.5Q10706 620.0 10700 616.0Q10694 612.0 10686.5 606.5Q10679 601.0 10679 596.0Q10679 591.0 10683.5 589.0Q10688 587.0 10692 588.0Q10699 589.0 10709.5 590.0Q10720 591.0 10730 592.0Q10740 593.0 10774.0 594.5Q10808 596.0 10863 596.0H11204L11223 583.0Q11234 584.0 11246.5 584.5Q11259 585.0 11271 587.0Q11282 588.0 11287.0 591.5Q11292 595.0 11292 601.0Q11292 607.0 11287.5 616.0Q11283 625.0 11279 636.0L11260 729.0Q11295 750.0 11286.5 760.0Q11278 770.0 11266 770.0H10800V867.0Q10800 884.0 10810.0 891.0Q10820 898.0 10847 898.0H11095Q11129 898.0 11147.5 896.0Q11166 894.0 11176 891.0Q11186 888.0 11195.5 882.5Q11205 877.0 11210 872.0Q11230 873.0 11249.5 874.0Q11269 875.0 11287 877.0Q11318 880.0 11334.0 887.0Q11350 894.0 11350 911.0Q11350 919.0 11344.5 924.5Q11339 930.0 11325 930.0H10837Q10802 930.0 10773.5 920.0Q10745 910.0 10745 866.0V789.0Q10745 781.0 10739.0 774.5Q10733 768.0 10724 764.0Q10717 760.0 10706.0 757.0Q10695 754.0 10688 753.0Q10681 751.0 10673.5 749.5Q10666 748.0 10666 744.0Q10666 735.0 10678.0 730.5Q10690 726.0 10706 726.0Q10732 726.0 10764.0 728.5Q10796 731.0 10805 739.0ZM11281 372.0Q11281 386.0 11280.5 402.5Q11280 419.0 11279 433.0Q11278 449.0 11277.0 466.5Q11276 484.0 11275 490.0Q11274 497.0 11272.5 510.0Q11271 523.0 11269 529.0Q11268 536.0 11265.0 543.0Q11262 550.0 11260 554.0Q11258 558.0 11254.5 560.5Q11251 563.0 11249 563.0Q11246 563.0 11243.0 560.5Q11240 558.0 11238 554.0Q11236 549.0 11234.5 543.0Q11233 537.0 11232 531.0Q11231 526.0 11230.5 518.5Q11230 511.0 11229 498.0Q11228 482.0 11227.5 457.5Q11227 433.0 11227 419.0V125.0Q11227 115.0 11224.5 106.5Q11222 98.0 11218 93.0Q11214 88.0 11209.0 83.0Q11204 78.0 11198 74.0Q11191 69.0 11182.5 64.5Q11174 60.0 11168 57.0Q11161 54.0 11153.0 50.5Q11145 47.0 11139 45.0Q11134 43.0 11127.0 40.0Q11120 37.0 11120 32.0Q11120 26.0 11128.0 23.0Q11136 20.0 11146 20.0Q11152 20.0 11172.0 23.0Q11192 26.0 11208 30.0Q11221 33.0 11234.5 37.0Q11248 41.0 11262 46.0Q11272 50.0 11281.0 55.0Q11290 60.0 11290 68.0Q11290 72.0 11288.0 78.0Q11286 84.0 11284 91.0Q11283 97.0 11282.0 107.0Q11281 117.0 11281 122.0Z"/>
  <path d="M11684 657.0Q11683 649.0 11677.5 642.0Q11672 635.0 11664 630.0Q11656 624.0 11646.0 619.5Q11636 615.0 11629 613.0Q11622 611.0 11614.0 608.0Q11606 605.0 11606 601.0Q11606 595.0 11614.0 591.5Q11622 588.0 11632 588.0Q11638 588.0 11653.5 589.0Q11669 590.0 11679 592.0Q11686 593.0 11699.5 595.0Q11713 597.0 11719 599.0Q11727 600.0 11736.0 604.5Q11745 609.0 11746 618.0L11765 825.0H11996Q12002 825.0 12007.5 825.0Q12013 825.0 12017 825.0L12046 641.0Q12048 632.0 12041.5 622.5Q12035 613.0 12026 606.0Q12019 601.0 12012.5 596.5Q12006 592.0 12000 588.0Q11994 584.0 11989.0 581.0Q11984 578.0 11984 575.0Q11984 570.0 11989.0 567.5Q11994 565.0 12004 565.0Q12009 565.0 12024.5 568.5Q12040 572.0 12050 575.0Q12061 578.0 12071.5 582.0Q12082 586.0 12089 589.0Q12106 596.0 12112.0 603.0Q12118 610.0 12115 619.0L12050 825.0Q12060 824.0 12067.0 823.5Q12074 823.0 12079 823.0Q12090 822.0 12106.5 820.0Q12123 818.0 12134 814.0Q12144 811.0 12151.5 807.0Q12159 803.0 12164 799.0Q12178 800.0 12191.5 800.5Q12205 801.0 12218 803.0Q12234 804.0 12248.0 806.5Q12262 809.0 12273 811.0Q12287 814.0 12296.0 821.0Q12305 828.0 12305 842.0Q12305 853.0 12299.5 860.5Q12294 868.0 12282 868.0Q12277 868.0 12259.5 866.5Q12242 865.0 12229 864.0Q12210 862.0 12177.5 861.0Q12145 860.0 12120 860.0H11768Q11732 860.0 11698.5 861.5Q11665 863.0 11651 865.0Q11638 866.0 11623.0 869.0Q11608 872.0 11598 875.0Q11590 877.0 11580.0 881.5Q11570 886.0 11562 890.0Q11560 890.0 11553.0 887.5Q11546 885.0 11541 883.0Q11534 880.0 11525.5 876.0Q11517 872.0 11506 867.0Q11497 862.0 11486.0 856.5Q11475 851.0 11467 846.0Q11460 841.0 11452.5 835.0Q11445 829.0 11445 824.0Q11445 819.0 11449.0 816.5Q11453 814.0 11459 815.0Q11471 816.0 11489.0 818.0Q11507 820.0 11523 821.0Q11549 822.0 11584.0 823.5Q11619 825.0 11657 825.0H11729ZM11830 118.0Q11839 114.0 11844.0 109.0Q11849 104.0 11850 100.0Q11850 94.0 11847.0 89.5Q11844 85.0 11839 81.0Q11835 76.0 11829.0 72.5Q11823 69.0 11824 66.0Q11826 61.0 11831.0 59.5Q11836 58.0 11841 59.0Q11850 60.0 11860.0 62.5Q11870 65.0 11880 69.0Q11888 72.0 11896.5 77.5Q11905 83.0 11905 90.0Q11903 97.0 11899.0 104.0Q11895 111.0 11891 117.0Q11926 118.0 11958.5 122.0Q11991 126.0 12016 134.0Q12045 142.0 12070.5 154.5Q12096 167.0 12114 181.0Q12133 194.0 12147.0 211.5Q12161 229.0 12169 246.0Q12181 269.0 12185.5 291.5Q12190 314.0 12190 340.0Q12190 365.0 12185.5 388.0Q12181 411.0 12169 434.0Q12161 450.0 12147.0 467.5Q12133 485.0 12114 499.0Q12096 512.0 12070.5 525.0Q12045 538.0 12016 546.0Q11987 554.0 11949.0 559.0Q11911 564.0 11870 564.0Q11830 564.0 11791.5 559.0Q11753 554.0 11724 546.0Q11696 538.0 11670.0 525.0Q11644 512.0 11626 499.0Q11607 485.0 11593.0 467.5Q11579 450.0 11571 434.0Q11559 411.0 11554.5 388.0Q11550 365.0 11550 340.0Q11550 317.0 11554.5 293.0Q11559 269.0 11571 246.0Q11579 229.0 11593.0 211.5Q11607 194.0 11626 181.0Q11644 167.0 11670.0 154.5Q11696 142.0 11724 134.0Q11746 128.0 11773.5 123.5Q11801 119.0 11830 118.0ZM11870 528.0Q11908 528.0 11943.5 523.0Q11979 518.0 12002 511.0Q12025 503.0 12043.0 493.0Q12061 483.0 12075 472.0Q12089 461.0 12097.5 447.0Q12106 433.0 12113 420.0Q12122 402.0 12126.5 380.5Q12131 359.0 12131 340.0Q12131 320.0 12126.5 299.0Q12122 278.0 12113 260.0Q12106 246.0 12097.5 232.5Q12089 219.0 12075 208.0Q12061 197.0 12043.0 186.5Q12025 176.0 12002 169.0Q11979 161.0 11943.5 156.5Q11908 152.0 11870 152.0Q11833 152.0 11797.0 156.5Q11761 161.0 11738 169.0Q11716 176.0 11697.5 186.5Q11679 197.0 11665 208.0Q11651 219.0 11641.5 232.5Q11632 246.0 11625 260.0Q11616 278.0 11612.5 300.0Q11609 322.0 11609 340.0Q11609 359.0 11612.5 380.5Q11616 402.0 11625 420.0Q11632 433.0 11641.5 447.0Q11651 461.0 11665 472.0Q11679 483.0 11697.5 493.0Q11716 503.0 11738 511.0Q11761 518.0 11796.5 523.0Q11832 528.0 11870 528.0Z"/>
  <path d="M13079 469.0Q13090 469.0 13100.0 466.5Q13110 464.0 13119 458.0Q13126 453.0 13131.0 448.0Q13136 443.0 13138 439.0Q13149 440.0 13163.5 441.0Q13178 442.0 13188 444.0Q13205 446.0 13217.5 453.5Q13230 461.0 13230 477.0Q13230 490.0 13223.5 495.5Q13217 501.0 13205 501.0H13066V734.0Q13066 754.0 13065.0 783.5Q13064 813.0 13063 830.0Q13062 860.0 13060.0 880.5Q13058 901.0 13056 910.0Q13054 923.0 13051.5 932.0Q13049 941.0 13047 946.0Q13045 951.0 13041.5 955.5Q13038 960.0 13033 960.0Q13029 960.0 13026.0 955.5Q13023 951.0 13021 947.0Q13020 942.0 13018.5 935.5Q13017 929.0 13016 922.0Q13015 908.0 13014.5 898.0Q13014 888.0 13013 870.0Q13012 848.0 13012.0 812.0Q13012 776.0 13012 764.0V126.0Q13012 116.0 13010.0 108.0Q13008 100.0 13004 94.0Q13000 89.0 12995.0 83.5Q12990 78.0 12983 74.0Q12976 69.0 12968.5 65.0Q12961 61.0 12953 57.0Q12946 54.0 12937.5 50.5Q12929 47.0 12923 45.0Q12917 43.0 12910.5 40.0Q12904 37.0 12904 32.0Q12904 26.0 12912.0 23.0Q12920 20.0 12930 20.0Q12936 20.0 12954.5 22.5Q12973 25.0 12990 30.0Q13002 33.0 13018.0 37.5Q13034 42.0 13048 47.0Q13058 51.0 13066.5 56.0Q13075 61.0 13075 69.0Q13075 73.0 13073.0 78.5Q13071 84.0 13069 91.0Q13068 97.0 13067.0 107.0Q13066 117.0 13066 122.0V469.0ZM12648 800.0Q12619 800.0 12593.5 795.5Q12568 791.0 12551 785.0Q12536 780.0 12520.0 771.0Q12504 762.0 12492 752.0Q12475 738.0 12464.0 723.5Q12453 709.0 12445 695.0Q12434 673.0 12429.5 650.5Q12425 628.0 12425 607.0Q12425 586.0 12429.5 563.5Q12434 541.0 12445 519.0Q12453 505.0 12464.0 490.0Q12475 475.0 12492 462.0Q12504 452.0 12520.0 443.0Q12536 434.0 12551 429.0Q12568 423.0 12593.5 418.5Q12619 414.0 12648 414.0Q12677 414.0 12703.0 418.5Q12729 423.0 12745 429.0Q12760 434.0 12776.0 443.0Q12792 452.0 12804 462.0Q12821 475.0 12832.5 490.0Q12844 505.0 12851 519.0Q12862 541.0 12866.5 563.5Q12871 586.0 12871 607.0Q12871 628.0 12866.5 650.5Q12862 673.0 12851 695.0Q12844 709.0 12832.5 723.5Q12821 738.0 12804 752.0Q12792 762.0 12776.0 771.0Q12760 780.0 12745 785.0Q12729 791.0 12703.0 795.5Q12677 800.0 12648 800.0ZM12648 765.0Q12671 765.0 12692.5 760.5Q12714 756.0 12727 750.0Q12738 745.0 12752.5 735.0Q12767 725.0 12774 717.0Q12784 706.0 12792.0 693.0Q12800 680.0 12804 668.0Q12809 656.0 12811.5 637.5Q12814 619.0 12814 606.0Q12814 592.0 12811.5 574.0Q12809 556.0 12804 544.0Q12800 532.0 12792.0 518.5Q12784 505.0 12774 495.0Q12767 487.0 12752.5 477.0Q12738 467.0 12727 462.0Q12714 456.0 12692.5 451.5Q12671 447.0 12648 447.0Q12626 447.0 12604.5 451.5Q12583 456.0 12569 462.0Q12558 467.0 12544.0 477.0Q12530 487.0 12522 495.0Q12512 505.0 12504.5 518.5Q12497 532.0 12492 544.0Q12488 556.0 12485.0 574.0Q12482 592.0 12482 606.0Q12482 619.0 12485.0 637.5Q12488 656.0 12492 668.0Q12497 680.0 12504.5 693.0Q12512 706.0 12522 717.0Q12530 725.0 12544.0 735.0Q12558 745.0 12569 750.0Q12583 756.0 12604.5 760.5Q12626 765.0 12648 765.0ZM12571 158.0Q12551 158.0 12533.5 152.5Q12516 147.0 12503 140.0Q12493 134.0 12481.5 124.0Q12470 114.0 12470 106.0Q12470 101.0 12475.0 99.0Q12480 97.0 12484 99.0Q12491 101.0 12500.5 103.5Q12510 106.0 12517 108.0Q12527 110.0 12548.0 112.5Q12569 115.0 12600 115.0H12663Q12685 115.0 12698.0 112.0Q12711 109.0 12718 102.0Q12731 103.0 12745.0 104.0Q12759 105.0 12769 107.0Q12781 109.0 12793.0 114.5Q12805 120.0 12805 136.0Q12805 146.0 12798.0 152.0Q12791 158.0 12779 158.0ZM12589 315.0Q12570 315.0 12543.0 316.5Q12516 318.0 12507 320.0Q12497 322.0 12484.5 325.0Q12472 328.0 12467 330.0Q12461 332.0 12454.5 335.5Q12448 339.0 12443 342.0Q12441 342.0 12431.5 338.0Q12422 334.0 12413 330.0Q12403 325.0 12391.0 318.5Q12379 312.0 12368 305.0Q12361 300.0 12353.0 294.0Q12345 288.0 12345 282.0Q12345 277.0 12349.0 275.0Q12353 273.0 12359 274.0Q12365 275.0 12377.5 276.5Q12390 278.0 12399 279.0Q12409 280.0 12439.0 281.5Q12469 283.0 12496 283.0H12705Q12726 283.0 12749.0 282.0Q12772 281.0 12787 277.0Q12797 275.0 12806.5 269.5Q12816 264.0 12820 260.0Q12831 261.0 12844.0 261.5Q12857 262.0 12870 264.0Q12879 265.0 12889.0 266.5Q12899 268.0 12909 270.0Q12918 272.0 12926.5 278.0Q12935 284.0 12935 299.0Q12935 309.0 12930.0 315.0Q12925 321.0 12915 321.0Q12911 321.0 12898.5 320.0Q12886 319.0 12876 318.0Q12866 317.0 12835.5 316.0Q12805 315.0 12789 315.0Z"/>
  <path d="M13522 311.0Q13533 323.0 13546.5 338.0Q13560 353.0 13570 363.0Q13582 375.0 13594.5 385.5Q13607 396.0 13617 404.0Q13629 413.0 13640.5 420.5Q13652 428.0 13663 433.0Q13671 437.0 13682.0 440.5Q13693 444.0 13700 446.0Q13706 453.0 13713.5 463.0Q13721 473.0 13727 481.0Q13733 489.0 13740.5 500.0Q13748 511.0 13754 521.0Q13761 532.0 13766.5 543.5Q13772 555.0 13772 564.0Q13772 574.0 13767.5 578.0Q13763 582.0 13756 582.0Q13751 582.0 13745.5 579.0Q13740 576.0 13735 573.0Q13725 564.0 13712.0 552.5Q13699 541.0 13688 530.0Q13673 515.0 13655.0 498.0Q13637 481.0 13620 464.0Q13602 447.0 13585.5 430.0Q13569 413.0 13552 397.0Q13541 386.0 13527.5 372.0Q13514 358.0 13502 346.0Q13493 362.0 13482.5 378.5Q13472 395.0 13463 409.0Q13450 428.0 13432.0 451.0Q13414 474.0 13402 488.0Q13389 504.0 13373.0 521.5Q13357 539.0 13343 553.0Q13329 567.0 13309.5 585.5Q13290 604.0 13275 615.0Q13265 623.0 13257.5 616.5Q13250 610.0 13259 601.0Q13271 588.0 13285.5 571.5Q13300 555.0 13311 540.0Q13324 523.0 13338.0 504.5Q13352 486.0 13363 470.0Q13374 454.0 13386.5 435.0Q13399 416.0 13409 400.0Q13418 386.0 13429.5 366.0Q13441 346.0 13449 330.0Q13457 315.0 13467.0 293.5Q13477 272.0 13483 257.0Q13488 244.0 13495.5 225.5Q13503 207.0 13507 194.0Q13511 184.0 13515.5 169.0Q13520 154.0 13523 143.0Q13522 139.0 13518.5 134.5Q13515 130.0 13511 126.0Q13507 121.0 13502.5 118.0Q13498 115.0 13493 112.0Q13489 109.0 13483.5 106.0Q13478 103.0 13473 100.0Q13468 97.0 13461.5 93.5Q13455 90.0 13455 86.0Q13455 81.0 13459.5 78.0Q13464 75.0 13473 75.0Q13477 75.0 13486.5 77.0Q13496 79.0 13503 81.0Q13514 84.0 13523.5 87.0Q13533 90.0 13543 94.0Q13552 98.0 13559.0 100.5Q13566 103.0 13574 107.0Q13582 111.0 13587.0 115.0Q13592 119.0 13592 125.0Q13591 130.0 13586.5 146.5Q13582 163.0 13578 174.0Q13574 188.0 13565.5 210.0Q13557 232.0 13551 247.0Q13546 260.0 13538.0 277.0Q13530 294.0 13522 311.0ZM14011 507.0Q14011 523.0 14010.5 548.0Q14010 573.0 14009 590.0Q14008 608.0 14007.0 629.0Q14006 650.0 14005 656.0Q14004 663.0 14002.5 674.5Q14001 686.0 13999 697.0Q13998 706.0 13995.0 713.5Q13992 721.0 13990 726.0Q13988 730.0 13985.0 732.5Q13982 735.0 13979 735.0Q13974 735.0 13971.5 731.0Q13969 727.0 13967 723.0Q13966 719.0 13964.5 713.0Q13963 707.0 13962 701.0Q13961 694.0 13960.5 685.5Q13960 677.0 13959 665.0Q13958 648.0 13957.5 620.0Q13957 592.0 13957 576.0V125.0Q13957 115.0 13954.5 106.5Q13952 98.0 13948 93.0Q13944 88.0 13939.0 83.0Q13934 78.0 13928 74.0Q13921 69.0 13912.5 64.5Q13904 60.0 13898 57.0Q13891 54.0 13883.0 50.5Q13875 47.0 13869 45.0Q13864 43.0 13857.0 40.0Q13850 37.0 13850 32.0Q13850 26.0 13858.0 23.0Q13866 20.0 13876 20.0Q13882 20.0 13902.0 23.0Q13922 26.0 13938 30.0Q13951 33.0 13964.5 37.0Q13978 41.0 13992 46.0Q14002 50.0 14011.0 55.0Q14020 60.0 14020 68.0Q14020 72.0 14018.0 78.0Q14016 84.0 14014 91.0Q14013 97.0 14012.0 107.0Q14011 117.0 14011 122.0ZM13520 685.0Q13527 687.0 13534.0 691.5Q13541 696.0 13541 702.0Q13541 709.0 13538.5 717.0Q13536 725.0 13536 744.0V863.0Q13536 881.0 13549.0 886.5Q13562 892.0 13587 892.0H13802Q13837 892.0 13858.5 890.0Q13880 888.0 13892 884.0Q13904 880.0 13912.5 875.0Q13921 870.0 13926 865.0Q13946 866.0 13969.5 867.5Q13993 869.0 14015 871.0Q14049 875.0 14062.5 882.0Q14076 889.0 14076 905.0Q14076 915.0 14070.5 920.0Q14065 925.0 14055 925.0H13578Q13540 925.0 13510.0 915.0Q13480 905.0 13480 862.0V746.0Q13480 737.0 13475.5 730.5Q13471 724.0 13466 720.0Q13462 716.0 13453.5 711.5Q13445 707.0 13438 704.0Q13428 699.0 13418.0 695.5Q13408 692.0 13401 690.0Q13396 688.0 13389.0 686.0Q13382 684.0 13382 680.0Q13382 673.0 13390.0 669.0Q13398 665.0 13411 665.0Q13418 665.0 13436.0 667.5Q13454 670.0 13466 672.0Q13479 674.0 13495.0 678.0Q13511 682.0 13520 685.0Z"/>
  <path d="M14899 469.0Q14910 469.0 14920.0 466.5Q14930 464.0 14939 458.0Q14946 453.0 14951.0 448.0Q14956 443.0 14958 439.0Q14969 440.0 14983.5 441.0Q14998 442.0 15008 444.0Q15025 446.0 15037.5 453.5Q15050 461.0 15050 477.0Q15050 490.0 15043.5 495.5Q15037 501.0 15025 501.0H14886V734.0Q14886 754.0 14885.0 783.5Q14884 813.0 14883 830.0Q14882 860.0 14880.0 880.5Q14878 901.0 14876 910.0Q14874 923.0 14871.5 932.0Q14869 941.0 14867 946.0Q14865 951.0 14861.5 955.5Q14858 960.0 14853 960.0Q14849 960.0 14846.0 955.5Q14843 951.0 14841 947.0Q14840 942.0 14838.5 935.5Q14837 929.0 14836 922.0Q14835 908.0 14834.5 898.0Q14834 888.0 14833 870.0Q14832 848.0 14832.0 812.0Q14832 776.0 14832 764.0V118.0Q14832 113.0 14830.0 106.5Q14828 100.0 14824 95.0Q14820 90.0 14815.0 84.5Q14810 79.0 14803 75.0Q14796 70.0 14788.0 65.5Q14780 61.0 14772 57.0Q14765 54.0 14757.0 50.5Q14749 47.0 14743 45.0Q14737 43.0 14730.5 40.0Q14724 37.0 14724 32.0Q14724 26.0 14732.0 23.0Q14740 20.0 14750 20.0Q14756 20.0 14776.5 23.0Q14797 26.0 14812 30.0Q14824 33.0 14839.0 37.5Q14854 42.0 14868 47.0Q14878 51.0 14886.5 56.0Q14895 61.0 14895 69.0Q14895 73.0 14893.0 78.5Q14891 84.0 14889 91.0Q14888 97.0 14887.0 107.0Q14886 117.0 14886 122.0V469.0ZM14660 211.0Q14656 230.0 14649.0 251.0Q14642 272.0 14636 288.0Q14629 305.0 14619.0 330.0Q14609 355.0 14601 372.0Q14592 391.0 14579.0 414.5Q14566 438.0 14552 458.0Q14536 483.0 14517.0 508.5Q14498 534.0 14478 557.0Q14459 579.0 14439.5 598.0Q14420 617.0 14400 636.0Q14375 659.0 14348.5 680.0Q14322 701.0 14302 716.0Q14280 733.0 14249.5 754.0Q14219 775.0 14194 790.0Q14181 795.0 14175.5 789.5Q14170 784.0 14180 774.0Q14199 759.0 14225.5 736.5Q14252 714.0 14274 695.0Q14294 677.0 14316.5 655.0Q14339 633.0 14358 613.0Q14377 593.0 14398.0 569.0Q14419 545.0 14435 526.0Q14450 507.0 14467.5 482.0Q14485 457.0 14497 438.0Q14508 420.0 14521.0 397.0Q14534 374.0 14543 357.0Q14551 342.0 14560.0 320.0Q14569 298.0 14576 280.0Q14583 262.0 14588.5 243.0Q14594 224.0 14598 208.0H14466Q14441 208.0 14415.0 209.0Q14389 210.0 14372 212.0Q14361 213.0 14349.5 216.0Q14338 219.0 14331 221.0Q14325 223.0 14317.5 226.0Q14310 229.0 14304 233.0Q14302 233.0 14295.5 230.5Q14289 228.0 14284 226.0Q14278 224.0 14270.5 220.5Q14263 217.0 14255 213.0Q14245 208.0 14237.0 203.5Q14229 199.0 14221 195.0Q14214 191.0 14207.0 185.0Q14200 179.0 14200 175.0Q14200 170.0 14204.0 167.5Q14208 165.0 14213 166.0Q14224 167.0 14232.0 168.0Q14240 169.0 14250 170.0Q14268 171.0 14300.5 173.0Q14333 175.0 14376 175.0H14587L14607 161.0Q14618 162.0 14628.0 162.5Q14638 163.0 14650 165.0Q14661 166.0 14668.0 168.5Q14675 171.0 14675 179.0Q14675 185.0 14670.5 191.5Q14666 198.0 14660 211.0Z"/>
  <path d="M15324 657.0Q15323 649.0 15317.5 642.0Q15312 635.0 15304 630.0Q15296 624.0 15286.0 619.5Q15276 615.0 15269 613.0Q15262 611.0 15254.0 608.0Q15246 605.0 15246 601.0Q15246 595.0 15254.0 591.5Q15262 588.0 15272 588.0Q15278 588.0 15293.5 589.0Q15309 590.0 15319 592.0Q15326 593.0 15339.5 595.0Q15353 597.0 15359 599.0Q15367 600.0 15376.0 604.5Q15385 609.0 15386 618.0L15405 825.0H15636Q15642 825.0 15647.5 825.0Q15653 825.0 15657 825.0L15686 641.0Q15688 632.0 15681.5 622.5Q15675 613.0 15666 606.0Q15659 601.0 15652.5 596.5Q15646 592.0 15640 588.0Q15634 584.0 15629.0 581.0Q15624 578.0 15624 575.0Q15624 570.0 15629.0 567.5Q15634 565.0 15644 565.0Q15649 565.0 15664.5 568.5Q15680 572.0 15690 575.0Q15701 578.0 15711.5 582.0Q15722 586.0 15729 589.0Q15746 596.0 15752.0 603.0Q15758 610.0 15755 619.0L15690 825.0Q15700 824.0 15707.0 823.5Q15714 823.0 15719 823.0Q15730 822.0 15746.5 820.0Q15763 818.0 15774 814.0Q15784 811.0 15791.5 807.0Q15799 803.0 15804 799.0Q15818 800.0 15831.5 800.5Q15845 801.0 15858 803.0Q15874 804.0 15888.0 806.5Q15902 809.0 15913 811.0Q15927 814.0 15936.0 821.0Q15945 828.0 15945 842.0Q15945 853.0 15939.5 860.5Q15934 868.0 15922 868.0Q15917 868.0 15899.5 866.5Q15882 865.0 15869 864.0Q15850 862.0 15817.5 861.0Q15785 860.0 15760 860.0H15408Q15372 860.0 15338.5 861.5Q15305 863.0 15291 865.0Q15278 866.0 15263.0 869.0Q15248 872.0 15238 875.0Q15230 877.0 15220.0 881.5Q15210 886.0 15202 890.0Q15200 890.0 15193.0 887.5Q15186 885.0 15181 883.0Q15174 880.0 15165.5 876.0Q15157 872.0 15146 867.0Q15137 862.0 15126.0 856.5Q15115 851.0 15107 846.0Q15100 841.0 15092.5 835.0Q15085 829.0 15085 824.0Q15085 819.0 15089.0 816.5Q15093 814.0 15099 815.0Q15111 816.0 15129.0 818.0Q15147 820.0 15163 821.0Q15189 822.0 15224.0 823.5Q15259 825.0 15297 825.0H15369ZM15470 118.0Q15479 114.0 15484.0 109.0Q15489 104.0 15490 100.0Q15490 94.0 15487.0 89.5Q15484 85.0 15479 81.0Q15475 76.0 15469.0 72.5Q15463 69.0 15464 66.0Q15466 61.0 15471.0 59.5Q15476 58.0 15481 59.0Q15490 60.0 15500.0 62.5Q15510 65.0 15520 69.0Q15528 72.0 15536.5 77.5Q15545 83.0 15545 90.0Q15543 97.0 15539.0 104.0Q15535 111.0 15531 117.0Q15566 118.0 15598.5 122.0Q15631 126.0 15656 134.0Q15685 142.0 15710.5 154.5Q15736 167.0 15754 181.0Q15773 194.0 15787.0 211.5Q15801 229.0 15809 246.0Q15821 269.0 15825.5 291.5Q15830 314.0 15830 340.0Q15830 365.0 15825.5 388.0Q15821 411.0 15809 434.0Q15801 450.0 15787.0 467.5Q15773 485.0 15754 499.0Q15736 512.0 15710.5 525.0Q15685 538.0 15656 546.0Q15627 554.0 15589.0 559.0Q15551 564.0 15510 564.0Q15470 564.0 15431.5 559.0Q15393 554.0 15364 546.0Q15336 538.0 15310.0 525.0Q15284 512.0 15266 499.0Q15247 485.0 15233.0 467.5Q15219 450.0 15211 434.0Q15199 411.0 15194.5 388.0Q15190 365.0 15190 340.0Q15190 317.0 15194.5 293.0Q15199 269.0 15211 246.0Q15219 229.0 15233.0 211.5Q15247 194.0 15266 181.0Q15284 167.0 15310.0 154.5Q15336 142.0 15364 134.0Q15386 128.0 15413.5 123.5Q15441 119.0 15470 118.0ZM15510 528.0Q15548 528.0 15583.5 523.0Q15619 518.0 15642 511.0Q15665 503.0 15683.0 493.0Q15701 483.0 15715 472.0Q15729 461.0 15737.5 447.0Q15746 433.0 15753 420.0Q15762 402.0 15766.5 380.5Q15771 359.0 15771 340.0Q15771 320.0 15766.5 299.0Q15762 278.0 15753 260.0Q15746 246.0 15737.5 232.5Q15729 219.0 15715 208.0Q15701 197.0 15683.0 186.5Q15665 176.0 15642 169.0Q15619 161.0 15583.5 156.5Q15548 152.0 15510 152.0Q15473 152.0 15437.0 156.5Q15401 161.0 15378 169.0Q15356 176.0 15337.5 186.5Q15319 197.0 15305 208.0Q15291 219.0 15281.5 232.5Q15272 246.0 15265 260.0Q15256 278.0 15252.5 300.0Q15249 322.0 15249 340.0Q15249 359.0 15252.5 380.5Q15256 402.0 15265 420.0Q15272 433.0 15281.5 447.0Q15291 461.0 15305 472.0Q15319 483.0 15337.5 493.0Q15356 503.0 15378 511.0Q15401 518.0 15436.5 523.0Q15472 528.0 15510 528.0Z"/>
  <path d="M16020 253.0Q16020 236.0 16023.0 216.5Q16026 197.0 16033 182.0Q16039 168.0 16048.0 154.5Q16057 141.0 16069 131.0Q16079 122.0 16093.5 113.5Q16108 105.0 16122 100.0Q16132 96.0 16152.0 93.0Q16172 90.0 16185 90.0Q16194 90.0 16215.5 92.0Q16237 94.0 16247 97.0Q16260 101.0 16271.5 105.5Q16283 110.0 16291 115.0Q16301 120.0 16311.5 128.0Q16322 136.0 16332 147.0Q16341 157.0 16349.0 171.0Q16357 185.0 16362 197.0Q16368 210.0 16371.5 231.0Q16375 252.0 16375 272.0Q16375 297.0 16369.5 317.5Q16364 338.0 16358 351.0Q16351 367.0 16341.5 379.5Q16332 392.0 16324 403.0Q16317 413.0 16306.5 423.0Q16296 433.0 16287 443.0Q16278 453.0 16269.0 461.5Q16260 470.0 16252 479.0Q16244 489.0 16237.0 499.0Q16230 509.0 16224 519.0Q16218 529.0 16212.0 542.0Q16206 555.0 16201 567.0Q16195 583.0 16191.0 604.0Q16187 625.0 16186 640.0Q16185 652.0 16184.5 662.0Q16184 672.0 16184 683.0V702.0H16154V666.0Q16154 658.0 16154.5 636.5Q16155 615.0 16156 597.0Q16158 583.0 16162.0 565.0Q16166 547.0 16171 533.0Q16176 521.0 16182.0 506.5Q16188 492.0 16195 480.0Q16202 469.0 16210.5 457.0Q16219 445.0 16227 435.0Q16236 424.0 16245.0 412.0Q16254 400.0 16262 390.0Q16270 380.0 16277.0 370.0Q16284 360.0 16290 349.0Q16296 338.0 16302.5 314.0Q16309 290.0 16309 277.0Q16309 268.0 16307.0 246.5Q16305 225.0 16298 206.0Q16293 190.0 16283.0 175.0Q16273 160.0 16262 150.0Q16254 143.0 16243.5 137.5Q16233 132.0 16224 128.0Q16215 124.0 16200.5 121.5Q16186 119.0 16176 119.0Q16166 119.0 16153.0 121.0Q16140 123.0 16131 126.0Q16123 129.0 16115.0 132.5Q16107 136.0 16100 141.0Q16093 145.0 16086.0 152.5Q16079 160.0 16074 168.0Q16070 175.0 16068.0 182.5Q16066 190.0 16066 195.0Q16066 204.0 16067.5 210.5Q16069 217.0 16072 222.0Q16075 227.0 16078.5 231.0Q16082 235.0 16086 239.0Q16089 242.0 16092.5 245.5Q16096 249.0 16100 254.0Q16105 260.0 16107.0 268.0Q16109 276.0 16109 284.0Q16109 294.0 16105.0 302.0Q16101 310.0 16095 316.0Q16088 323.0 16079.5 325.0Q16071 327.0 16066 327.0Q16058 327.0 16048.0 319.5Q16038 312.0 16032 302.0Q16028 295.0 16024.0 281.0Q16020 267.0 16020 253.0ZM16121 845.0Q16121 820.0 16138.0 805.0Q16155 790.0 16174 790.0Q16194 790.0 16210.5 805.0Q16227 820.0 16227 845.0Q16227 868.0 16210.5 884.0Q16194 900.0 16174 900.0Q16155 900.0 16138.0 884.0Q16121 868.0 16121 845.0Z"/>
</svg>