<svg xmlns="http://www.w3.org/2000/svg" viewBox="-5.0 -10.0 3545.0 1000.0" fill="white">
  <path d="M227 382.0Q226 387.0 226.0 391.5Q226 396.0 225 400.0Q224 404.0 222.5 410.5Q221 417.0 219 422.0Q218 426.0 214.0 430.5Q210 435.0 205 435.0Q201 435.0 197.5 431.0Q194 427.0 192 424.0Q191 421.0 189.5 416.0Q188 411.0 186 404.0Q185 396.0 183.5 383.0Q182 370.0 181 360.0Q180 351.0 179.5 336.5Q179 322.0 178 310.0L170 130.0Q169 123.0 166.0 117.0Q163 111.0 158 108.0Q154 106.0 148.0 103.0Q142 100.0 137 99.0Q132 97.0 124.0 95.5Q116 94.0 111 93.0Q107 92.0 100.0 90.5Q93 89.0 93 82.0Q93 77.0 98.5 73.0Q104 69.0 108 68.0Q113 66.0 122.5 65.0Q132 64.0 139 64.0Q147 64.0 161.0 64.5Q175 65.0 188 67.0Q197 68.0 208.5 70.0Q220 72.0 225 74.0Q227 75.0 229.5 76.5Q232 78.0 233 80.0H667L688 65.0Q696 65.0 708.0 65.5Q720 66.0 734 68.0Q748 69.0 754.0 73.0Q760 77.0 760 83.0Q760 87.0 757.5 94.0Q755 101.0 753 105.0Q752 109.0 750.0 115.5Q748 122.0 747 128.0L726 341.0Q734 345.0 745.0 352.0Q756 359.0 756 368.0Q756 375.0 752.0 378.5Q748 382.0 737 382.0H227ZM230 299.0Q230 307.0 230.0 321.0Q230 335.0 229 348.0H669L684 337.0V114.0H230ZM487 618.0Q487 632.0 486.5 652.0Q486 672.0 485 686.0Q484 700.0 483.0 717.0Q482 734.0 481 740.0Q480 747.0 479.0 756.5Q478 766.0 476 773.0Q475 780.0 471.5 788.5Q468 797.0 466 801.0Q464 805.0 460.5 807.5Q457 810.0 453 810.0Q450 810.0 447.0 807.5Q444 805.0 442 801.0Q440 796.0 438.5 789.5Q437 783.0 436 778.0Q435 773.0 434.5 765.0Q434 757.0 433 746.0Q432 732.0 431.5 707.5Q431 683.0 431 666.0V534.0H338Q282 534.0 239.0 538.0Q196 542.0 179 547.0Q169 550.0 159.5 553.5Q150 557.0 140 562.0Q136 562.0 122.5 556.5Q109 551.0 98 546.0Q86 541.0 74.0 534.5Q62 528.0 51 522.0Q42 517.0 33.5 510.5Q25 504.0 25 498.0Q25 493.0 29.5 490.5Q34 488.0 40 489.0Q49 490.0 64.0 492.0Q79 494.0 90 495.0Q108 496.0 149.0 498.0Q190 500.0 232 500.0H585Q622 500.0 646.5 499.0Q671 498.0 683 497.0Q693 495.0 706.5 492.5Q720 490.0 727 486.0Q732 484.0 736.5 481.0Q741 478.0 745 475.0Q759 476.0 774.0 476.5Q789 477.0 805 479.0Q821 480.0 833.5 482.5Q846 485.0 856 487.0Q866 489.0 875.5 495.5Q885 502.0 885 516.0Q885 526.0 880.0 534.0Q875 542.0 861 541.0Q851 540.0 839.5 539.5Q828 539.0 817 538.0Q805 537.0 772.5 535.5Q740 534.0 713 534.0H487ZM230 682.0Q237 684.0 244.0 688.5Q251 693.0 251 699.0Q251 706.0 248.5 714.0Q246 722.0 246 741.0V861.0Q246 879.0 259.0 885.0Q272 891.0 297 891.0H526Q561 891.0 582.5 889.0Q604 887.0 616 883.0Q628 879.0 636.5 874.0Q645 869.0 650 864.0Q670 865.0 693.5 866.5Q717 868.0 739 870.0Q773 874.0 786.5 881.5Q800 889.0 800 905.0Q800 915.0 794.5 920.0Q789 925.0 779 925.0H288Q250 925.0 220.0 915.0Q190 905.0 190 862.0V744.0Q190 735.0 185.5 728.5Q181 722.0 176 718.0Q172 714.0 163.5 709.5Q155 705.0 148 702.0Q138 697.0 128.0 693.5Q118 690.0 111 688.0Q106 686.0 99.0 684.0Q92 682.0 92 678.0Q92 670.0 100.0 666.0Q108 662.0 121 662.0Q128 662.0 146.0 664.5Q164 667.0 176 669.0Q189 671.0 205.0 675.0Q221 679.0 230 682.0Z"/>
  <path d="M1067 740.0Q1097 739.0 1135.5 737.0Q1174 735.0 1203 733.0Q1223 731.0 1260.5 728.0Q1298 725.0 1332 721.0Q1362 718.0 1401.5 714.0Q1441 710.0 1466 706.0Q1492 702.0 1524.5 697.0Q1557 692.0 1579 688.0Q1591 686.0 1593.0 696.5Q1595 707.0 1582 712.0Q1560 719.0 1522.0 726.5Q1484 734.0 1458 739.0Q1425 746.0 1386.0 752.0Q1347 758.0 1312 763.0Q1284 767.0 1249.0 772.0Q1214 777.0 1194 779.0Q1166 782.0 1131.5 786.0Q1097 790.0 1077 792.0Q1068 793.0 1059.0 796.5Q1050 800.0 1043 806.0Q1039 806.0 1027.0 800.5Q1015 795.0 1004 789.0Q994 784.0 982.5 777.0Q971 770.0 962 764.0Q953 758.0 944.0 750.5Q935 743.0 935 737.0Q935 731.0 939.5 728.0Q944 725.0 951 727.0Q962 729.0 973.5 731.0Q985 733.0 995 735.0Q1009 737.0 1027.0 738.5Q1045 740.0 1067 740.0ZM1681 734.0Q1681 754.0 1680.0 783.5Q1679 813.0 1678 830.0Q1677 860.0 1675.0 880.5Q1673 901.0 1671 910.0Q1669 923.0 1666.5 932.0Q1664 941.0 1662 946.0Q1660 951.0 1656.5 955.5Q1653 960.0 1648 960.0Q1644 960.0 1641.0 955.5Q1638 951.0 1636 947.0Q1635 942.0 1633.5 935.5Q1632 929.0 1631 922.0Q1630 908.0 1629.5 898.0Q1629 888.0 1628 870.0Q1627 848.0 1627.0 812.0Q1627 776.0 1627 764.0V126.0Q1627 116.0 1625.0 108.0Q1623 100.0 1619 94.0Q1615 89.0 1610.0 83.5Q1605 78.0 1598 74.0Q1591 69.0 1583.5 65.0Q1576 61.0 1568 57.0Q1561 54.0 1552.5 50.5Q1544 47.0 1538 45.0Q1532 43.0 1525.5 40.0Q1519 37.0 1519 32.0Q1519 26.0 1527.0 23.0Q1535 20.0 1545 20.0Q1551 20.0 1569.5 22.5Q1588 25.0 1605 30.0Q1617 33.0 1633.0 37.5Q1649 42.0 1663 47.0Q1673 51.0 1681.5 56.0Q1690 61.0 1690 69.0Q1690 73.0 1688.0 78.5Q1686 84.0 1684 91.0Q1683 97.0 1682.0 107.0Q1681 117.0 1681 122.0ZM1215 132.0Q1222 128.0 1225.5 124.0Q1229 120.0 1229 117.0Q1229 112.0 1226.0 107.5Q1223 103.0 1218 99.0Q1214 95.0 1208.5 92.0Q1203 89.0 1203 86.0Q1203 81.0 1209.0 79.5Q1215 78.0 1220 79.0Q1226 80.0 1236.5 82.0Q1247 84.0 1255 87.0Q1261 89.0 1270.5 94.5Q1280 100.0 1280 107.0Q1280 111.0 1277.0 118.0Q1274 125.0 1270 132.0Q1294 133.0 1314.0 137.0Q1334 141.0 1349 146.0Q1368 153.0 1385.0 162.0Q1402 171.0 1417 184.0Q1434 198.0 1447.0 215.5Q1460 233.0 1469 252.0Q1479 272.0 1483.5 299.5Q1488 327.0 1488 350.0Q1488 372.0 1483.5 400.0Q1479 428.0 1469 448.0Q1460 467.0 1447.0 484.5Q1434 502.0 1417 516.0Q1402 529.0 1385.0 538.0Q1368 547.0 1349 554.0Q1330 561.0 1303.0 566.5Q1276 572.0 1244 572.0Q1213 572.0 1185.5 567.0Q1158 562.0 1139 555.0Q1120 548.0 1103.0 539.0Q1086 530.0 1071 517.0Q1054 503.0 1041.0 485.5Q1028 468.0 1019 449.0Q1009 429.0 1004.5 401.0Q1000 373.0 1000 351.0Q1000 328.0 1004.5 300.5Q1009 273.0 1019 253.0Q1028 234.0 1041.0 216.5Q1054 199.0 1071 185.0Q1086 172.0 1103.0 163.0Q1120 154.0 1139 147.0Q1153 142.0 1173.0 137.5Q1193 133.0 1215 132.0ZM1244 536.0Q1268 536.0 1290.0 532.0Q1312 528.0 1328 521.0Q1344 514.0 1359.0 503.5Q1374 493.0 1385 482.0Q1398 468.0 1407.0 451.5Q1416 435.0 1420 422.0Q1425 407.0 1428.0 387.0Q1431 367.0 1431 350.0Q1431 333.0 1428.0 313.0Q1425 293.0 1420 278.0Q1416 265.0 1407.0 248.0Q1398 231.0 1385 218.0Q1374 207.0 1359.0 196.5Q1344 186.0 1328 179.0Q1312 172.0 1290.0 168.0Q1268 164.0 1244 164.0Q1220 164.0 1198.0 168.0Q1176 172.0 1160 179.0Q1144 186.0 1129.0 196.5Q1114 207.0 1103 218.0Q1090 231.0 1081.5 248.0Q1073 265.0 1068 278.0Q1063 293.0 1060.0 313.0Q1057 333.0 1057 350.0Q1057 367.0 1060.0 387.0Q1063 407.0 1068 422.0Q1073 435.0 1081.5 451.5Q1090 468.0 1103 482.0Q1114 493.0 1129.0 503.5Q1144 514.0 1160 521.0Q1175 528.0 1197.5 532.0Q1220 536.0 1244 536.0Z"/>
  <path d="M2569 469.0Q2580 469.0 2590.0 466.5Q2600 464.0 2609 458.0Q2616 453.0 2621.0 448.0Q2626 443.0 2628 439.0Q2639 440.0 2653.5 441.0Q2668 442.0 2678 444.0Q2695 446.0 2707.5 453.5Q2720 461.0 2720 477.0Q2720 490.0 2713.5 495.5Q2707 501.0 2695 501.0H2556V734.0Q2556 754.0 2555.0 783.5Q2554 813.0 2553 830.0Q2552 860.0 2550.0 880.5Q2548 901.0 2546 910.0Q2544 923.0 2541.5 932.0Q2539 941.0 2537 946.0Q2535 951.0 2531.5 955.5Q2528 960.0 2523 960.0Q2519 960.0 2516.0 955.5Q2513 951.0 2511 947.0Q2510 942.0 2508.5 935.5Q2507 929.0 2506 922.0Q2505 908.0 2504.5 898.0Q2504 888.0 2503 870.0Q2502 848.0 2502.0 812.0Q2502 776.0 2502 764.0V126.0Q2502 116.0 2500.0 108.0Q2498 100.0 2494 94.0Q2490 89.0 2485.0 83.5Q2480 78.0 2473 74.0Q2466 69.0 2458.5 65.0Q2451 61.0 2443 57.0Q2436 54.0 2427.5 50.5Q2419 47.0 2413 45.0Q2407 43.0 2400.5 40.0Q2394 37.0 2394 32.0Q2394 26.0 2402.0 23.0Q2410 20.0 2420 20.0Q2426 20.0 2444.5 22.5Q2463 25.0 2480 30.0Q2492 33.0 2508.0 37.5Q2524 42.0 2538 47.0Q2548 51.0 2556.5 56.0Q2565 61.0 2565 69.0Q2565 73.0 2563.0 78.5Q2561 84.0 2559 91.0Q2558 97.0 2557.0 107.0Q2556 117.0 2556 122.0V469.0ZM2138 800.0Q2109 800.0 2083.5 795.5Q2058 791.0 2041 785.0Q2026 780.0 2010.0 771.0Q1994 762.0 1982 752.0Q1965 738.0 1954.0 723.5Q1943 709.0 1935 695.0Q1924 673.0 1919.5 650.5Q1915 628.0 1915 607.0Q1915 586.0 1919.5 563.5Q1924 541.0 1935 519.0Q1943 505.0 1954.0 490.0Q1965 475.0 1982 462.0Q1994 452.0 2010.0 443.0Q2026 434.0 2041 429.0Q2058 423.0 2083.5 418.5Q2109 414.0 2138 414.0Q2167 414.0 2193.0 418.5Q2219 423.0 2235 429.0Q2250 434.0 2266.0 443.0Q2282 452.0 2294 462.0Q2311 475.0 2322.5 490.0Q2334 505.0 2341 519.0Q2352 541.0 2356.5 563.5Q2361 586.0 2361 607.0Q2361 628.0 2356.5 650.5Q2352 673.0 2341 695.0Q2334 709.0 2322.5 723.5Q2311 738.0 2294 752.0Q2282 762.0 2266.0 771.0Q2250 780.0 2235 785.0Q2219 791.0 2193.0 795.5Q2167 800.0 2138 800.0ZM2138 765.0Q2161 765.0 2182.5 760.5Q2204 756.0 2217 750.0Q2228 745.0 2242.5 735.0Q2257 725.0 2264 717.0Q2274 706.0 2282.0 693.0Q2290 680.0 2294 668.0Q2299 656.0 2301.5 637.5Q2304 619.0 2304 606.0Q2304 592.0 2301.5 574.0Q2299 556.0 2294 544.0Q2290 532.0 2282.0 518.5Q2274 505.0 2264 495.0Q2257 487.0 2242.5 477.0Q2228 467.0 2217 462.0Q2204 456.0 2182.5 451.5Q2161 447.0 2138 447.0Q2116 447.0 2094.5 451.5Q2073 456.0 2059 462.0Q2048 467.0 2034.0 477.0Q2020 487.0 2012 495.0Q2002 505.0 1994.5 518.5Q1987 532.0 1982 544.0Q1978 556.0 1975.0 574.0Q1972 592.0 1972 606.0Q1972 619.0 1975.0 637.5Q1978 656.0 1982 668.0Q1987 680.0 1994.5 693.0Q2002 706.0 2012 717.0Q2020 725.0 2034.0 735.0Q2048 745.0 2059 750.0Q2073 756.0 2094.5 760.5Q2116 765.0 2138 765.0ZM2061 158.0Q2041 158.0 2023.5 152.5Q2006 147.0 1993 140.0Q1983 134.0 1971.5 124.0Q1960 114.0 1960 106.0Q1960 101.0 1965.0 99.0Q1970 97.0 1974 99.0Q1981 101.0 1990.5 103.5Q2000 106.0 2007 108.0Q2017 110.0 2038.0 112.5Q2059 115.0 2090 115.0H2153Q2175 115.0 2188.0 112.0Q2201 109.0 2208 102.0Q2221 103.0 2235.0 104.0Q2249 105.0 2259 107.0Q2271 109.0 2283.0 114.5Q2295 120.0 2295 136.0Q2295 146.0 2288.0 152.0Q2281 158.0 2269 158.0ZM2079 315.0Q2060 315.0 2033.0 316.5Q2006 318.0 1997 320.0Q1987 322.0 1974.5 325.0Q1962 328.0 1957 330.0Q1951 332.0 1944.5 335.5Q1938 339.0 1933 342.0Q1931 342.0 1921.5 338.0Q1912 334.0 1903 330.0Q1893 325.0 1881.0 318.5Q1869 312.0 1858 305.0Q1851 300.0 1843.0 294.0Q1835 288.0 1835 282.0Q1835 277.0 1839.0 275.0Q1843 273.0 1849 274.0Q1855 275.0 1867.5 276.5Q1880 278.0 1889 279.0Q1899 280.0 1929.0 281.5Q1959 283.0 1986 283.0H2195Q2216 283.0 2239.0 282.0Q2262 281.0 2277 277.0Q2287 275.0 2296.5 269.5Q2306 264.0 2310 260.0Q2321 261.0 2334.0 261.5Q2347 262.0 2360 264.0Q2369 265.0 2379.0 266.5Q2389 268.0 2399 270.0Q2408 272.0 2416.5 278.0Q2425 284.0 2425 299.0Q2425 309.0 2420.0 315.0Q2415 321.0 2405 321.0Q2401 321.0 2388.5 320.0Q2376 319.0 2366 318.0Q2356 317.0 2325.5 316.0Q2295 315.0 2279 315.0Z"/>
  <path d="M3501 734.0Q3501 754.0 3500.0 783.5Q3499 813.0 3498 830.0Q3497 860.0 3495.0 880.5Q3493 901.0 3491 910.0Q3489 923.0 3486.5 932.0Q3484 941.0 3482 946.0Q3480 951.0 3476.5 955.5Q3473 960.0 3468 960.0Q3464 960.0 3461.0 955.5Q3458 951.0 3456 947.0Q3455 942.0 3453.5 935.5Q3452 929.0 3451 922.0Q3450 908.0 3449.5 898.0Q3449 888.0 3448 870.0Q3447 848.0 3447.0 812.0Q3447 776.0 3447 764.0V126.0Q3447 116.0 3445.0 108.0Q3443 100.0 3439 94.0Q3435 89.0 3430.0 83.5Q3425 78.0 3418 74.0Q3411 69.0 3403.5 65.0Q3396 61.0 3388 57.0Q3381 54.0 3372.5 50.5Q3364 47.0 3358 45.0Q3352 43.0 3345.5 40.0Q3339 37.0 3339 32.0Q3339 26.0 3347.0 23.0Q3355 20.0 3365 20.0Q3371 20.0 3389.5 22.5Q3408 25.0 3425 30.0Q3437 33.0 3453.0 37.5Q3469 42.0 3483 47.0Q3493 51.0 3501.5 56.0Q3510 61.0 3510 69.0Q3510 73.0 3508.0 78.5Q3506 84.0 3504 91.0Q3503 97.0 3502.0 107.0Q3501 117.0 3501 122.0ZM3265 211.0Q3261 227.0 3253.5 249.5Q3246 272.0 3240 287.0Q3232 308.0 3222.0 331.0Q3212 354.0 3204 371.0Q3195 390.0 3181.5 413.5Q3168 437.0 3154 457.0Q3138 480.0 3117.5 506.5Q3097 533.0 3077 556.0Q3058 577.0 3036.5 598.0Q3015 619.0 2995 636.0Q2971 657.0 2942.5 680.0Q2914 703.0 2894 718.0Q2873 734.0 2842.0 754.0Q2811 774.0 2785 790.0Q2772 796.0 2764.5 789.0Q2757 782.0 2770 772.0Q2795 753.0 2819.0 733.0Q2843 713.0 2868 691.0Q2889 673.0 2912.5 650.5Q2936 628.0 2955 609.0Q2975 589.0 2997.0 565.5Q3019 542.0 3034 523.0Q3048 506.0 3065.5 482.0Q3083 458.0 3096 439.0Q3107 422.0 3121.5 397.0Q3136 372.0 3145 355.0Q3155 337.0 3163.5 317.0Q3172 297.0 3179 278.0Q3186 261.0 3192.0 242.5Q3198 224.0 3202 208.0H3056Q3031 208.0 3005.0 209.0Q2979 210.0 2962 212.0Q2951 213.0 2939.5 216.0Q2928 219.0 2921 221.0Q2915 223.0 2907.5 226.0Q2900 229.0 2894 233.0Q2892 233.0 2885.5 230.5Q2879 228.0 2874 226.0Q2868 224.0 2860.5 220.5Q2853 217.0 2845 213.0Q2835 208.0 2827.0 203.5Q2819 199.0 2811 195.0Q2804 191.0 2797.0 185.0Q2790 179.0 2790 175.0Q2790 170.0 2794.0 167.5Q2798 165.0 2803 166.0Q2814 167.0 2822.0 168.0Q2830 169.0 2840 170.0Q2858 171.0 2890.5 173.0Q2923 175.0 2966 175.0H3190L3210 161.0Q3221 162.0 3232.5 162.5Q3244 163.0 3255 165.0Q3266 166.0 3273.0 168.5Q3280 171.0 3280 179.0Q3280 186.0 3275.0 194.5Q3270 203.0 3265 211.0Z"/>
</svg>