<svg xmlns="http://www.w3.org/2000/svg" viewBox="-5.0 -10.0 12635.0 1000.0" fill="white">
  <path d="M430 182.0Q430 183.0 429 183.0Q416 193.0 399.5 204.5Q383 216.0 367 226.0Q348 238.0 329.5 247.5Q311 257.0 295 265.0Q277 274.0 255.0 283.0Q233 292.0 219 298.0Q203 305.0 183.0 311.5Q163 318.0 150 323.0Q135 328.0 114.0 334.5Q93 341.0 77 345.0Q63 348.0 59.0 338.5Q55 329.0 68 325.0Q85 317.0 103.0 309.5Q121 302.0 137 295.0Q152 288.0 169.0 280.0Q186 272.0 199 265.0Q213 257.0 230.5 248.0Q248 239.0 264 229.0Q281 218.0 299.0 207.5Q317 197.0 330 187.0Q343 178.0 357.0 167.0Q371 156.0 381 148.0Q392 139.0 401.5 130.5Q411 122.0 419 114.0Q427 106.0 434.0 99.0Q441 92.0 445 86.0Q444 81.0 438.0 76.0Q432 71.0 427 67.0Q422 63.0 415.5 60.0Q409 57.0 403 53.0Q398 50.0 391.5 46.5Q385 43.0 385 39.0Q385 34.0 391.5 31.5Q398 29.0 406 30.0Q413 31.0 421.5 32.5Q430 34.0 435 36.0Q440 37.0 452.0 41.0Q464 45.0 471 48.0Q479 51.0 488.0 55.5Q497 60.0 503 63.0Q508 66.0 514.0 71.0Q520 76.0 519 81.0Q517 88.0 513.0 94.5Q509 101.0 505 106.0Q499 114.0 491.0 124.0Q483 134.0 475 142.0Q472 145.0 468.5 148.0Q465 151.0 462 155.0Q476 162.0 490.0 168.5Q504 175.0 517 180.0Q532 186.0 553.0 193.5Q574 201.0 591 206.0Q606 210.0 627.0 214.5Q648 219.0 662 221.0Q673 222.0 686.5 223.0Q700 224.0 711 225.0Q720 229.0 733.5 235.5Q747 242.0 759 249.0Q769 254.0 781.0 262.0Q793 270.0 800 275.0Q809 282.0 815.5 290.0Q822 298.0 822 309.0Q822 317.0 817.5 320.5Q813 324.0 808 324.0Q805 324.0 797.0 322.5Q789 321.0 782 319.0Q772 316.0 753.0 309.0Q734 302.0 719 297.0Q698 289.0 674.5 281.0Q651 273.0 625 263.0Q599 253.0 569.5 242.0Q540 231.0 518 221.0Q499 213.0 474.5 202.5Q450 192.0 430 182.0ZM662 665.0 682 651.0Q694 652.0 703.0 652.5Q712 653.0 719 654.0Q729 655.0 736.5 658.0Q744 661.0 744 667.0Q744 674.0 740.0 684.5Q736 695.0 736 709.0V790.0Q736 803.0 735.5 819.5Q735 836.0 734 850.0Q733 864.0 732.5 877.0Q732 890.0 730 900.0Q729 907.0 727.5 916.0Q726 925.0 724 930.0Q722 937.0 720.0 941.5Q718 946.0 715 951.0Q713 955.0 709.5 957.5Q706 960.0 703 960.0Q699 960.0 696.0 957.0Q693 954.0 691 950.0Q689 945.0 687.5 939.0Q686 933.0 685 929.0Q684 924.0 683.5 917.5Q683 911.0 682 901.0Q681 890.0 680.5 867.0Q680 844.0 680 828.0V699.0H427Q391 699.0 359.5 701.0Q328 703.0 317 705.0Q303 707.0 291.5 709.5Q280 712.0 271 715.0Q263 718.0 255.5 721.0Q248 724.0 242 728.0Q238 728.0 226.5 723.5Q215 719.0 204 715.0Q193 710.0 177.5 702.5Q162 695.0 151 689.0Q144 684.0 134.5 678.0Q125 672.0 125 665.0Q125 660.0 129.5 657.5Q134 655.0 140 656.0Q146 657.0 161.5 658.5Q177 660.0 185 661.0Q202 662.0 239.0 663.5Q276 665.0 325 665.0H440Q436 657.0 434.0 646.0Q432 635.0 431 627.0Q430 613.0 429.0 592.0Q428 571.0 428 559.0V486.0H338Q282 486.0 239.0 490.0Q196 494.0 179 499.0Q169 502.0 159.5 505.5Q150 509.0 140 514.0Q136 514.0 122.5 508.5Q109 503.0 98 498.0Q86 493.0 74.0 486.5Q62 480.0 51 474.0Q42 469.0 33.5 462.5Q25 456.0 25 450.0Q25 445.0 29.5 442.5Q34 440.0 40 441.0Q49 442.0 64.0 444.0Q79 446.0 90 447.0Q108 448.0 149.0 450.0Q190 452.0 232 452.0H585Q622 452.0 646.5 451.0Q671 450.0 683 449.0Q693 447.0 706.5 444.5Q720 442.0 727 438.0Q732 436.0 736.5 433.0Q741 430.0 745 427.0Q759 428.0 774.0 428.5Q789 429.0 805 431.0Q821 432.0 833.5 434.5Q846 437.0 856 439.0Q866 441.0 875.5 447.5Q885 454.0 885 468.0Q885 478.0 880.0 486.0Q875 494.0 861 493.0Q851 492.0 839.5 491.5Q828 491.0 817 490.0Q805 489.0 772.5 487.5Q740 486.0 713 486.0H484V549.0Q484 564.0 483.5 581.5Q483 599.0 481 615.0Q480 625.0 477.0 639.5Q474 654.0 468 665.0Z"/>
  <path d="M1658 348.0Q1670 348.0 1679.5 345.5Q1689 343.0 1699 336.0Q1705 331.0 1710.5 325.5Q1716 320.0 1718 317.0Q1729 318.0 1741.0 319.0Q1753 320.0 1765 322.0Q1784 324.0 1797.0 331.5Q1810 339.0 1810 356.0Q1810 369.0 1803.0 374.5Q1796 380.0 1785 380.0H1646V424.0Q1646 438.0 1645.5 455.5Q1645 473.0 1644 487.0Q1643 503.0 1642.0 520.5Q1641 538.0 1640 544.0Q1639 551.0 1637.5 564.0Q1636 577.0 1634 583.0Q1633 590.0 1630.0 597.0Q1627 604.0 1625 608.0Q1623 612.0 1619.5 614.5Q1616 617.0 1614 617.0Q1611 617.0 1608.0 614.5Q1605 612.0 1603 608.0Q1601 603.0 1599.5 597.0Q1598 591.0 1597 585.0Q1596 580.0 1595.5 572.5Q1595 565.0 1594 552.0Q1593 536.0 1592.5 511.5Q1592 487.0 1592 473.0V125.0Q1592 115.0 1589.5 106.5Q1587 98.0 1583 93.0Q1579 88.0 1574.0 83.0Q1569 78.0 1563 74.0Q1556 69.0 1547.5 64.5Q1539 60.0 1533 57.0Q1526 54.0 1518.0 50.5Q1510 47.0 1504 45.0Q1499 43.0 1492.0 40.0Q1485 37.0 1485 32.0Q1485 26.0 1493.0 23.0Q1501 20.0 1511 20.0Q1517 20.0 1537.0 23.0Q1557 26.0 1573 30.0Q1586 33.0 1599.5 37.0Q1613 41.0 1627 46.0Q1637 50.0 1646.0 55.0Q1655 60.0 1655 68.0Q1655 72.0 1653.0 78.0Q1651 84.0 1649 91.0Q1648 97.0 1647.0 107.0Q1646 117.0 1646 122.0V348.0ZM1058 525.0Q1058 528.0 1057.5 530.0Q1057 532.0 1057 534.0Q1056 543.0 1053.5 552.5Q1051 562.0 1049 568.0Q1046 575.0 1042.0 580.0Q1038 585.0 1033 585.0Q1026 585.0 1022.5 578.0Q1019 571.0 1017 565.0Q1016 559.0 1014.5 547.5Q1013 536.0 1012 525.0Q1011 517.0 1010.5 490.0Q1010 463.0 1010 453.0V196.0Q1010 188.0 1006.5 181.5Q1003 175.0 997 169.0Q993 164.0 985.5 159.5Q978 155.0 973 152.0Q967 149.0 961.0 146.0Q955 143.0 950 141.0Q945 139.0 938.5 136.0Q932 133.0 932 129.0Q932 123.0 939.0 120.0Q946 117.0 954 117.0Q959 117.0 975.0 119.5Q991 122.0 1003 125.0Q1013 127.0 1027.0 131.0Q1041 135.0 1051 139.0Q1059 142.0 1064.5 146.0Q1070 150.0 1070 155.0Q1070 159.0 1067.0 171.0Q1064 183.0 1064 196.0V262.0H1356V156.0Q1356 148.0 1352.0 141.0Q1348 134.0 1342 129.0Q1336 124.0 1328.0 119.0Q1320 114.0 1315 111.0Q1309 108.0 1302.5 105.0Q1296 102.0 1289 99.0Q1284 97.0 1277.5 94.0Q1271 91.0 1271 87.0Q1271 81.0 1278.0 78.0Q1285 75.0 1293 75.0Q1298 75.0 1313.5 77.0Q1329 79.0 1348 84.0Q1357 86.0 1372.0 90.5Q1387 95.0 1397 99.0Q1406 103.0 1411.5 107.0Q1417 111.0 1417 116.0Q1417 121.0 1413.5 131.5Q1410 142.0 1410 158.0V414.0Q1410 427.0 1409.5 443.5Q1409 460.0 1408 473.0Q1407 488.0 1406.0 506.0Q1405 524.0 1403 532.0Q1402 542.0 1399.5 551.0Q1397 560.0 1395 566.0Q1392 573.0 1387.5 578.0Q1383 583.0 1378 583.0Q1372 583.0 1368.5 576.0Q1365 569.0 1363 562.0Q1362 555.0 1360.5 546.5Q1359 538.0 1358 530.0Q1358 529.0 1358.0 527.5Q1358 526.0 1357 525.0ZM1356 492.0Q1356 481.0 1356.0 470.0Q1356 459.0 1356 453.0V295.0H1064V419.0Q1064 431.0 1063.5 448.5Q1063 466.0 1062 477.0Q1062 480.0 1061.5 484.0Q1061 488.0 1061 492.0H1356ZM1589 685.0H1347Q1313 685.0 1281.5 686.5Q1250 688.0 1229 690.0Q1216 691.0 1205.5 693.5Q1195 696.0 1185 699.0Q1178 701.0 1169.0 705.0Q1160 709.0 1155 712.0Q1152 712.0 1140.0 708.0Q1128 704.0 1119 700.0Q1107 695.0 1091.0 688.0Q1075 681.0 1065 675.0Q1057 670.0 1048.5 664.5Q1040 659.0 1040 652.0Q1040 647.0 1043.5 644.5Q1047 642.0 1054 643.0Q1065 644.0 1081.0 646.0Q1097 648.0 1108 649.0Q1123 650.0 1155.5 651.5Q1188 653.0 1240 653.0H1572L1590 639.0Q1602 640.0 1610.5 640.5Q1619 641.0 1625 642.0Q1633 643.0 1642.0 646.0Q1651 649.0 1651 655.0Q1651 662.0 1647.0 672.0Q1643 682.0 1643 697.0V789.0Q1643 799.0 1642.5 817.5Q1642 836.0 1641 850.0Q1640 861.0 1639.0 878.0Q1638 895.0 1636 904.0Q1635 913.0 1633.5 920.5Q1632 928.0 1630 933.0Q1629 938.0 1626.5 943.5Q1624 949.0 1622 952.0Q1620 956.0 1617.0 958.0Q1614 960.0 1611 960.0Q1608 960.0 1605.0 957.5Q1602 955.0 1600 951.0Q1598 946.0 1596.5 940.0Q1595 934.0 1594 929.0Q1593 925.0 1592.5 916.5Q1592 908.0 1591 900.0Q1590 891.0 1589.5 868.0Q1589 845.0 1589 829.0Z"/>
  <path d="M2607 618.0Q2607 632.0 2606.5 652.0Q2606 672.0 2605 686.0Q2604 700.0 2603.0 717.0Q2602 734.0 2601 740.0Q2600 747.0 2599.0 756.5Q2598 766.0 2596 773.0Q2595 780.0 2591.5 788.5Q2588 797.0 2586 801.0Q2584 805.0 2580.5 807.5Q2577 810.0 2573 810.0Q2570 810.0 2567.0 807.5Q2564 805.0 2562 801.0Q2560 796.0 2558.5 789.5Q2557 783.0 2556 778.0Q2555 773.0 2554.5 765.0Q2554 757.0 2553 746.0Q2552 732.0 2551.5 707.5Q2551 683.0 2551 666.0V536.0H2458Q2402 536.0 2359.0 540.0Q2316 544.0 2299 549.0Q2289 552.0 2279.5 555.5Q2270 559.0 2260 564.0Q2256 564.0 2242.5 558.5Q2229 553.0 2218 548.0Q2206 543.0 2194.0 536.5Q2182 530.0 2171 524.0Q2162 519.0 2153.5 512.5Q2145 506.0 2145 500.0Q2145 495.0 2149.5 492.5Q2154 490.0 2160 491.0Q2169 492.0 2184.0 494.0Q2199 496.0 2210 497.0Q2228 498.0 2269.0 500.0Q2310 502.0 2352 502.0H2705Q2742 502.0 2766.5 501.0Q2791 500.0 2803 499.0Q2813 497.0 2826.5 494.5Q2840 492.0 2847 488.0Q2852 486.0 2856.5 483.0Q2861 480.0 2865 477.0Q2879 478.0 2894.0 478.5Q2909 479.0 2925 481.0Q2941 482.0 2953.5 484.5Q2966 487.0 2976 489.0Q2986 491.0 2995.5 497.5Q3005 504.0 3005 518.0Q3005 528.0 3000.0 536.0Q2995 544.0 2981 543.0Q2971 542.0 2959.5 541.5Q2948 541.0 2937 540.0Q2925 539.0 2892.5 537.5Q2860 536.0 2833 536.0H2607ZM2532 82.0Q2542 77.0 2545.5 72.0Q2549 67.0 2549 64.0Q2549 60.0 2545.5 55.0Q2542 50.0 2537 46.0Q2533 43.0 2527.5 39.0Q2522 35.0 2522 32.0Q2522 27.0 2528.5 25.5Q2535 24.0 2540 25.0Q2546 26.0 2557.0 28.5Q2568 31.0 2578 35.0Q2584 37.0 2593.0 42.5Q2602 48.0 2602 55.0Q2602 59.0 2598.0 66.0Q2594 73.0 2589 81.0Q2629 81.0 2664.0 85.5Q2699 90.0 2724 95.0Q2753 101.0 2774.0 110.0Q2795 119.0 2808 127.0Q2823 136.0 2835.0 149.0Q2847 162.0 2855 176.0Q2863 188.0 2868.0 209.5Q2873 231.0 2873 246.0Q2873 261.0 2868.0 282.5Q2863 304.0 2855 316.0Q2847 329.0 2835.0 342.5Q2823 356.0 2808 365.0Q2795 373.0 2774.0 382.0Q2753 391.0 2724 397.0Q2696 403.0 2655.5 407.5Q2615 412.0 2570 412.0Q2525 412.0 2484.5 407.5Q2444 403.0 2416 397.0Q2388 391.0 2367.0 382.0Q2346 373.0 2332 365.0Q2317 356.0 2305.0 342.5Q2293 329.0 2285 316.0Q2278 304.0 2272.5 283.0Q2267 262.0 2267 246.0Q2267 230.0 2272.5 209.0Q2278 188.0 2285 176.0Q2293 162.0 2305.0 149.0Q2317 136.0 2332 127.0Q2346 119.0 2367.0 110.0Q2388 101.0 2416 95.0Q2438 90.0 2468.0 86.5Q2498 83.0 2532 82.0ZM2570 376.0Q2606 376.0 2640.0 372.0Q2674 368.0 2692 364.0Q2715 359.0 2733.5 351.5Q2752 344.0 2765 336.0Q2777 328.0 2787.0 317.5Q2797 307.0 2802 297.0Q2808 286.0 2811.0 271.0Q2814 256.0 2814 245.0Q2814 234.0 2811.0 219.0Q2808 204.0 2802 193.0Q2797 182.0 2787.0 171.5Q2777 161.0 2765 154.0Q2752 146.0 2733.5 138.5Q2715 131.0 2692 126.0Q2674 122.0 2640.0 118.0Q2606 114.0 2570 114.0Q2534 114.0 2500.0 117.5Q2466 121.0 2448 125.0Q2425 130.0 2407.0 137.5Q2389 145.0 2375 153.0Q2363 160.0 2353.0 170.5Q2343 181.0 2338 192.0Q2332 203.0 2329.0 218.0Q2326 233.0 2326 244.0Q2326 255.0 2329.0 270.0Q2332 285.0 2338 296.0Q2343 306.0 2353.0 316.5Q2363 327.0 2375 335.0Q2389 343.0 2407.0 350.5Q2425 358.0 2448 363.0Q2466 367.0 2500.0 371.5Q2534 376.0 2570 376.0ZM2350 682.0Q2357 684.0 2364.0 688.5Q2371 693.0 2371 699.0Q2371 706.0 2368.5 714.0Q2366 722.0 2366 741.0V861.0Q2366 879.0 2379.0 885.0Q2392 891.0 2417 891.0H2646Q2681 891.0 2702.5 889.0Q2724 887.0 2736 883.0Q2748 879.0 2756.5 874.0Q2765 869.0 2770 864.0Q2790 865.0 2813.5 866.5Q2837 868.0 2859 870.0Q2893 874.0 2906.5 881.5Q2920 889.0 2920 905.0Q2920 915.0 2914.5 920.0Q2909 925.0 2899 925.0H2408Q2370 925.0 2340.0 915.0Q2310 905.0 2310 862.0V744.0Q2310 735.0 2305.5 728.5Q2301 722.0 2296 718.0Q2292 714.0 2283.5 709.5Q2275 705.0 2268 702.0Q2258 697.0 2248.0 693.5Q2238 690.0 2231 688.0Q2226 686.0 2219.0 684.0Q2212 682.0 2212 678.0Q2212 670.0 2220.0 666.0Q2228 662.0 2241 662.0Q2248 662.0 2266.0 664.5Q2284 667.0 2296 669.0Q2309 671.0 2325.0 675.0Q2341 679.0 2350 682.0Z"/>
  <path d="M3715 451.0Q3689 451.0 3670.5 454.5Q3652 458.0 3644 461.0Q3636 464.0 3629.0 467.5Q3622 471.0 3617 475.0Q3616 475.0 3611.5 473.0Q3607 471.0 3602 469.0Q3597 467.0 3591.0 464.0Q3585 461.0 3579 457.0Q3572 453.0 3565.0 449.0Q3558 445.0 3553 441.0Q3546 436.0 3539.5 430.5Q3533 425.0 3533 420.0Q3533 415.0 3537.5 413.0Q3542 411.0 3547 412.0Q3554 413.0 3563.5 414.0Q3573 415.0 3582 416.0Q3599 417.0 3621.5 418.0Q3644 419.0 3662 419.0H3747V232.0H3712Q3685 232.0 3667.0 235.5Q3649 239.0 3641 242.0Q3633 245.0 3626.0 248.5Q3619 252.0 3614 256.0Q3613 256.0 3608.5 254.0Q3604 252.0 3599 250.0Q3594 248.0 3588.0 245.0Q3582 242.0 3576 238.0Q3569 234.0 3562.0 230.0Q3555 226.0 3550 222.0Q3543 217.0 3536.5 211.5Q3530 206.0 3530 201.0Q3530 196.0 3534.5 194.0Q3539 192.0 3544 193.0Q3551 194.0 3560.5 195.0Q3570 196.0 3579 197.0Q3596 198.0 3618.5 199.0Q3641 200.0 3659 200.0H3747V125.0Q3747 115.0 3744.5 106.5Q3742 98.0 3738 93.0Q3734 88.0 3729.0 83.0Q3724 78.0 3718 74.0Q3711 69.0 3702.5 64.5Q3694 60.0 3688 57.0Q3681 54.0 3673.0 50.5Q3665 47.0 3659 45.0Q3654 43.0 3647.0 40.0Q3640 37.0 3640 32.0Q3640 26.0 3648.0 23.0Q3656 20.0 3666 20.0Q3672 20.0 3692.0 23.0Q3712 26.0 3728 30.0Q3741 33.0 3754.5 37.0Q3768 41.0 3782 46.0Q3792 50.0 3801.0 55.0Q3810 60.0 3810 68.0Q3810 72.0 3808.0 78.0Q3806 84.0 3804 91.0Q3803 97.0 3802.0 107.0Q3801 117.0 3801 122.0V425.0Q3801 439.0 3800.5 456.5Q3800 474.0 3799 488.0Q3798 504.0 3797.0 521.5Q3796 539.0 3795 545.0Q3794 552.0 3792.5 565.0Q3791 578.0 3789 584.0Q3788 591.0 3785.0 598.0Q3782 605.0 3780 609.0Q3778 613.0 3774.5 615.5Q3771 618.0 3769 618.0Q3766 618.0 3763.0 615.5Q3760 613.0 3758 609.0Q3756 604.0 3754.5 598.0Q3753 592.0 3752 586.0Q3751 581.0 3750.5 573.5Q3750 566.0 3749 553.0Q3748 537.0 3747.5 512.5Q3747 488.0 3747 474.0V451.0ZM3274 100.0Q3282 95.0 3286.0 91.0Q3290 87.0 3291 83.0Q3291 77.0 3288.0 72.5Q3285 68.0 3280 64.0Q3276 59.0 3270.0 55.5Q3264 52.0 3265 49.0Q3267 44.0 3272.0 42.5Q3277 41.0 3282 42.0Q3291 43.0 3301.5 46.5Q3312 50.0 3319 53.0Q3327 56.0 3335.5 61.0Q3344 66.0 3344 73.0Q3342 80.0 3338.5 86.0Q3335 92.0 3331 99.0Q3354 100.0 3373.5 104.0Q3393 108.0 3405 113.0Q3425 121.0 3441.0 131.0Q3457 141.0 3470 155.0Q3487 171.0 3498.5 188.5Q3510 206.0 3518 226.0Q3526 247.0 3530.5 273.5Q3535 300.0 3535 325.0Q3535 350.0 3530.5 376.5Q3526 403.0 3518 424.0Q3510 443.0 3498.5 461.0Q3487 479.0 3470 495.0Q3457 508.0 3441.0 518.5Q3425 529.0 3405 537.0Q3390 543.0 3364.5 548.0Q3339 553.0 3310 553.0Q3282 553.0 3256.0 548.0Q3230 543.0 3215 537.0Q3195 529.0 3179.0 518.5Q3163 508.0 3150 495.0Q3134 479.0 3122.0 461.0Q3110 443.0 3102 424.0Q3094 403.0 3089.5 376.5Q3085 350.0 3085 325.0Q3085 300.0 3089.5 273.5Q3094 247.0 3102 226.0Q3110 206.0 3122.0 188.5Q3134 171.0 3150 155.0Q3163 141.0 3179.0 131.0Q3195 121.0 3215 113.0Q3226 109.0 3241.0 105.0Q3256 101.0 3274 100.0ZM3310 518.0Q3333 518.0 3353.5 513.0Q3374 508.0 3389 500.0Q3403 493.0 3416.0 482.0Q3429 471.0 3438 461.0Q3449 447.0 3457.0 428.5Q3465 410.0 3469 396.0Q3473 382.0 3475.5 361.5Q3478 341.0 3478 324.0Q3478 307.0 3475.5 286.0Q3473 265.0 3469 252.0Q3465 238.0 3457.0 219.5Q3449 201.0 3438 187.0Q3429 176.0 3416.0 165.5Q3403 155.0 3389 148.0Q3374 140.0 3353.5 135.0Q3333 130.0 3310 130.0Q3288 130.0 3267.5 135.0Q3247 140.0 3232 148.0Q3218 155.0 3204.5 165.5Q3191 176.0 3182 187.0Q3171 201.0 3163.0 219.5Q3155 238.0 3151 252.0Q3147 265.0 3144.5 286.0Q3142 307.0 3142 324.0Q3142 341.0 3144.5 361.5Q3147 382.0 3151 396.0Q3155 410.0 3163.0 428.5Q3171 447.0 3182 461.0Q3191 471.0 3204.5 482.0Q3218 493.0 3232 500.0Q3247 508.0 3267.5 513.0Q3288 518.0 3310 518.0ZM3507 935.0Q3476 935.0 3433.0 931.5Q3390 928.0 3370 924.0Q3344 919.0 3317.0 911.0Q3290 903.0 3273 895.0Q3257 887.0 3241.5 875.0Q3226 863.0 3215 849.0Q3201 831.0 3195.5 810.5Q3190 790.0 3190 774.0Q3190 758.0 3195.5 737.5Q3201 717.0 3215 699.0Q3226 685.0 3241.5 673.0Q3257 661.0 3273 653.0Q3290 645.0 3317.0 636.5Q3344 628.0 3370 624.0Q3390 620.0 3433.0 616.5Q3476 613.0 3507 613.0Q3538 613.0 3581.0 616.5Q3624 620.0 3644 624.0Q3670 628.0 3697.5 636.5Q3725 645.0 3741 653.0Q3758 661.0 3773.0 673.0Q3788 685.0 3799 699.0Q3813 717.0 3818.5 737.5Q3824 758.0 3824 774.0Q3824 790.0 3818.5 810.5Q3813 831.0 3799 849.0Q3788 863.0 3773.0 875.0Q3758 887.0 3741 895.0Q3725 903.0 3697.5 911.0Q3670 919.0 3644 924.0Q3624 928.0 3581.0 931.5Q3538 935.0 3507 935.0ZM3507 899.0Q3550 899.0 3591.0 893.5Q3632 888.0 3656 881.0Q3679 875.0 3696.5 866.5Q3714 858.0 3724 851.0Q3737 842.0 3744.0 833.0Q3751 824.0 3755 816.0Q3760 805.0 3762.5 795.5Q3765 786.0 3765 773.0Q3765 759.0 3762.5 749.5Q3760 740.0 3755 730.0Q3751 722.0 3744.0 713.0Q3737 704.0 3724 695.0Q3714 687.0 3696.5 679.0Q3679 671.0 3656 665.0Q3632 658.0 3591.0 652.5Q3550 647.0 3507 647.0Q3464 647.0 3423.0 652.5Q3382 658.0 3358 665.0Q3336 671.0 3318.5 679.0Q3301 687.0 3290 695.0Q3277 704.0 3270.5 713.0Q3264 722.0 3259 730.0Q3254 740.0 3251.5 751.0Q3249 762.0 3249 773.0Q3249 786.0 3251.5 795.5Q3254 805.0 3259 816.0Q3264 824.0 3270.5 833.0Q3277 842.0 3290 851.0Q3301 858.0 3318.5 866.5Q3336 875.0 3358 881.0Q3382 888.0 3423.0 893.5Q3464 899.0 3507 899.0Z"/>
  <path d="M4097 740.0Q4127 739.0 4165.5 737.0Q4204 735.0 4233 733.0Q4253 731.0 4290.5 728.0Q4328 725.0 4362 721.0Q4392 718.0 4431.5 714.0Q4471 710.0 4496 706.0Q4522 702.0 4554.5 697.0Q4587 692.0 4609 688.0Q4621 686.0 4623.0 696.5Q4625 707.0 4612 712.0Q4590 719.0 4552.0 726.5Q4514 734.0 4488 739.0Q4455 746.0 4416.0 752.0Q4377 758.0 4342 763.0Q4314 767.0 4279.0 772.0Q4244 777.0 4224 779.0Q4196 782.0 4161.5 786.0Q4127 790.0 4107 792.0Q4098 793.0 4089.0 796.5Q4080 800.0 4073 806.0Q4069 806.0 4057.0 800.5Q4045 795.0 4034 789.0Q4024 784.0 4012.5 777.0Q4001 770.0 3992 764.0Q3983 758.0 3974.0 750.5Q3965 743.0 3965 737.0Q3965 731.0 3969.5 728.0Q3974 725.0 3981 727.0Q3992 729.0 4003.5 731.0Q4015 733.0 4025 735.0Q4039 737.0 4057.0 738.5Q4075 740.0 4097 740.0ZM4711 734.0Q4711 754.0 4710.0 783.5Q4709 813.0 4708 830.0Q4707 860.0 4705.0 880.5Q4703 901.0 4701 910.0Q4699 923.0 4696.5 932.0Q4694 941.0 4692 946.0Q4690 951.0 4686.5 955.5Q4683 960.0 4678 960.0Q4674 960.0 4671.0 955.5Q4668 951.0 4666 947.0Q4665 942.0 4663.5 935.5Q4662 929.0 4661 922.0Q4660 908.0 4659.5 898.0Q4659 888.0 4658 870.0Q4657 848.0 4657.0 812.0Q4657 776.0 4657 764.0V126.0Q4657 116.0 4655.0 108.0Q4653 100.0 4649 94.0Q4645 89.0 4640.0 83.5Q4635 78.0 4628 74.0Q4621 69.0 4613.5 65.0Q4606 61.0 4598 57.0Q4591 54.0 4582.5 50.5Q4574 47.0 4568 45.0Q4562 43.0 4555.5 40.0Q4549 37.0 4549 32.0Q4549 26.0 4557.0 23.0Q4565 20.0 4575 20.0Q4581 20.0 4599.5 22.5Q4618 25.0 4635 30.0Q4647 33.0 4663.0 37.5Q4679 42.0 4693 47.0Q4703 51.0 4711.5 56.0Q4720 61.0 4720 69.0Q4720 73.0 4718.0 78.5Q4716 84.0 4714 91.0Q4713 97.0 4712.0 107.0Q4711 117.0 4711 122.0ZM4245 132.0Q4252 128.0 4255.5 124.0Q4259 120.0 4259 117.0Q4259 112.0 4256.0 107.5Q4253 103.0 4248 99.0Q4244 95.0 4238.5 92.0Q4233 89.0 4233 86.0Q4233 81.0 4239.0 79.5Q4245 78.0 4250 79.0Q4256 80.0 4266.5 82.0Q4277 84.0 4285 87.0Q4291 89.0 4300.5 94.5Q4310 100.0 4310 107.0Q4310 111.0 4307.0 118.0Q4304 125.0 4300 132.0Q4324 133.0 4344.0 137.0Q4364 141.0 4379 146.0Q4398 153.0 4415.0 162.0Q4432 171.0 4447 184.0Q4464 198.0 4477.0 215.5Q4490 233.0 4499 252.0Q4509 272.0 4513.5 299.5Q4518 327.0 4518 350.0Q4518 372.0 4513.5 400.0Q4509 428.0 4499 448.0Q4490 467.0 4477.0 484.5Q4464 502.0 4447 516.0Q4432 529.0 4415.0 538.0Q4398 547.0 4379 554.0Q4360 561.0 4333.0 566.5Q4306 572.0 4274 572.0Q4243 572.0 4215.5 567.0Q4188 562.0 4169 555.0Q4150 548.0 4133.0 539.0Q4116 530.0 4101 517.0Q4084 503.0 4071.0 485.5Q4058 468.0 4049 449.0Q4039 429.0 4034.5 401.0Q4030 373.0 4030 351.0Q4030 328.0 4034.5 300.5Q4039 273.0 4049 253.0Q4058 234.0 4071.0 216.5Q4084 199.0 4101 185.0Q4116 172.0 4133.0 163.0Q4150 154.0 4169 147.0Q4183 142.0 4203.0 137.5Q4223 133.0 4245 132.0ZM4274 536.0Q4298 536.0 4320.0 532.0Q4342 528.0 4358 521.0Q4374 514.0 4389.0 503.5Q4404 493.0 4415 482.0Q4428 468.0 4437.0 451.5Q4446 435.0 4450 422.0Q4455 407.0 4458.0 387.0Q4461 367.0 4461 350.0Q4461 333.0 4458.0 313.0Q4455 293.0 4450 278.0Q4446 265.0 4437.0 248.0Q4428 231.0 4415 218.0Q4404 207.0 4389.0 196.5Q4374 186.0 4358 179.0Q4342 172.0 4320.0 168.0Q4298 164.0 4274 164.0Q4250 164.0 4228.0 168.0Q4206 172.0 4190 179.0Q4174 186.0 4159.0 196.5Q4144 207.0 4133 218.0Q4120 231.0 4111.5 248.0Q4103 265.0 4098 278.0Q4093 293.0 4090.0 313.0Q4087 333.0 4087 350.0Q4087 367.0 4090.0 387.0Q4093 407.0 4098 422.0Q4103 435.0 4111.5 451.5Q4120 468.0 4133 482.0Q4144 493.0 4159.0 503.5Q4174 514.0 4190 521.0Q4205 528.0 4227.5 532.0Q4250 536.0 4274 536.0Z"/>
  <path d="M5445 403.0Q5456 419.0 5470.0 439.0Q5484 459.0 5494 470.0Q5505 484.0 5518.5 500.0Q5532 516.0 5543 527.0Q5556 540.0 5569.0 550.0Q5582 560.0 5593 568.0Q5602 574.0 5612.5 579.0Q5623 584.0 5632 587.0Q5638 595.0 5645.5 607.5Q5653 620.0 5659 630.0Q5667 643.0 5675.0 658.0Q5683 673.0 5687 683.0Q5694 696.0 5701.0 715.5Q5708 735.0 5699 744.0Q5693 750.0 5685.5 749.0Q5678 748.0 5667 738.0Q5653 722.0 5638.0 704.5Q5623 687.0 5611 673.0Q5594 652.0 5577.0 632.0Q5560 612.0 5544 593.0Q5528 573.0 5512.5 554.0Q5497 535.0 5480 514.0Q5469 500.0 5454.5 481.0Q5440 462.0 5426 444.0Q5424 448.0 5421.5 452.0Q5419 456.0 5417 461.0Q5406 482.0 5394.5 503.0Q5383 524.0 5370 544.0Q5356 566.0 5340.5 588.5Q5325 611.0 5311 631.0Q5297 650.0 5281.0 670.0Q5265 690.0 5251 707.0Q5235 727.0 5217.5 745.0Q5200 763.0 5187 776.0Q5176 786.0 5168.0 779.0Q5160 772.0 5170 762.0Q5184 745.0 5197.5 726.5Q5211 708.0 5224 690.0Q5236 673.0 5251.0 650.5Q5266 628.0 5277 610.0Q5288 592.0 5301.0 570.5Q5314 549.0 5324 530.0Q5332 515.0 5344.5 492.0Q5357 469.0 5364 453.0Q5372 436.0 5381.0 414.5Q5390 393.0 5397 376.0Q5402 362.0 5409.0 343.0Q5416 324.0 5420 311.0Q5425 297.0 5430.0 281.0Q5435 265.0 5439 250.0Q5443 236.0 5447.5 217.0Q5452 198.0 5453 190.0Q5452 185.0 5445.5 178.5Q5439 172.0 5432 167.0Q5425 162.0 5414.5 155.5Q5404 149.0 5396 145.0Q5392 143.0 5385.0 139.0Q5378 135.0 5379 130.0Q5380 125.0 5384.5 122.5Q5389 120.0 5399 120.0Q5404 120.0 5415.0 122.5Q5426 125.0 5433 127.0Q5441 129.0 5452.0 132.5Q5463 136.0 5471 139.0Q5479 142.0 5487.0 145.5Q5495 149.0 5501 152.0Q5509 156.0 5514.5 160.5Q5520 165.0 5520 170.0Q5519 180.0 5513.0 204.0Q5507 228.0 5502 247.0Q5497 266.0 5487.0 296.0Q5477 326.0 5468 349.0Q5463 362.0 5457.0 375.5Q5451 389.0 5445 403.0ZM5919 734.0Q5919 754.0 5918.0 787.0Q5917 820.0 5916 837.0Q5915 865.0 5912.0 889.0Q5909 913.0 5907 924.0Q5906 931.0 5904.0 936.5Q5902 942.0 5900 947.0Q5898 952.0 5894.5 956.0Q5891 960.0 5886 960.0Q5882 960.0 5879.5 956.0Q5877 952.0 5875 948.0Q5874 943.0 5872.5 936.5Q5871 930.0 5870 923.0Q5869 909.0 5868.5 899.5Q5868 890.0 5867 871.0Q5866 849.0 5866.0 812.5Q5866 776.0 5866 764.0V126.0Q5866 116.0 5864.0 108.0Q5862 100.0 5858 94.0Q5854 89.0 5849.0 83.5Q5844 78.0 5837 74.0Q5830 69.0 5822.5 65.0Q5815 61.0 5807 57.0Q5799 53.0 5791.0 50.0Q5783 47.0 5777 45.0Q5771 43.0 5764.5 40.0Q5758 37.0 5758 32.0Q5758 26.0 5766.0 23.0Q5774 20.0 5784 20.0Q5790 20.0 5808.5 22.5Q5827 25.0 5844 30.0Q5856 33.0 5873.0 38.0Q5890 43.0 5902 48.0Q5912 52.0 5920.0 56.5Q5928 61.0 5928 69.0Q5928 73.0 5926.0 78.5Q5924 84.0 5922 91.0Q5921 97.0 5920.0 107.0Q5919 117.0 5919 122.0Z"/>
  <path d="M6309 158.0Q6296 158.0 6275.0 159.0Q6254 160.0 6243 162.0Q6234 163.0 6224.5 165.5Q6215 168.0 6209 171.0Q6204 173.0 6197.5 177.0Q6191 181.0 6186 184.0Q6183 184.0 6173.5 179.5Q6164 175.0 6155 171.0Q6144 165.0 6131.5 158.0Q6119 151.0 6111 146.0Q6105 142.0 6097.5 136.5Q6090 131.0 6090 125.0Q6090 120.0 6094.0 118.0Q6098 116.0 6104 117.0Q6110 118.0 6122.5 119.5Q6135 121.0 6144 122.0Q6154 123.0 6184.0 124.5Q6214 126.0 6241 126.0H6389Q6411 126.0 6433.5 125.0Q6456 124.0 6471 120.0Q6481 118.0 6491.0 112.0Q6501 106.0 6504 103.0Q6515 104.0 6526.0 104.5Q6537 105.0 6552 107.0Q6561 108.0 6570.5 109.5Q6580 111.0 6590 113.0Q6599 115.0 6607.0 121.5Q6615 128.0 6615 142.0Q6615 152.0 6610.0 158.0Q6605 164.0 6595 164.0Q6591 164.0 6578.5 163.0Q6566 162.0 6556 161.0Q6546 160.0 6515.5 159.0Q6485 158.0 6469 158.0H6363Q6368 162.0 6373.0 166.0Q6378 170.0 6383 175.0Q6392 182.0 6404.0 190.0Q6416 198.0 6418 203.0Q6417 210.0 6412.0 223.0Q6407 236.0 6403 246.0Q6399 256.0 6392.5 269.5Q6386 283.0 6380 295.0Q6376 302.0 6372.5 308.5Q6369 315.0 6364 322.0Q6375 333.0 6389.0 345.0Q6403 357.0 6414 366.0Q6425 375.0 6438.0 384.5Q6451 394.0 6464 403.0Q6478 412.0 6494.0 420.5Q6510 429.0 6520 434.0Q6529 438.0 6540.5 440.5Q6552 443.0 6559 445.0Q6570 455.0 6582.5 468.5Q6595 482.0 6606 496.0Q6622 515.0 6632.0 535.0Q6642 555.0 6634 566.0Q6629 573.0 6620.0 571.5Q6611 570.0 6601 564.0Q6591 556.0 6576.0 544.5Q6561 533.0 6548 523.0Q6532 510.0 6512.5 494.5Q6493 479.0 6473 463.0Q6452 446.0 6434.5 431.5Q6417 417.0 6399 403.0Q6386 392.0 6371.5 379.5Q6357 367.0 6343 355.0Q6334 368.0 6322.0 384.0Q6310 400.0 6299 414.0Q6284 432.0 6265.5 450.5Q6247 469.0 6230 486.0Q6211 503.0 6192.5 518.0Q6174 533.0 6157 547.0Q6142 559.0 6125.0 571.0Q6108 583.0 6094 592.0Q6084 596.0 6077.5 590.5Q6071 585.0 6080 576.0Q6092 565.0 6107.5 551.0Q6123 537.0 6137 523.0Q6149 511.0 6165.0 494.0Q6181 477.0 6194 462.0Q6205 449.0 6221.5 429.0Q6238 409.0 6249 394.0Q6259 380.0 6272.5 360.5Q6286 341.0 6296 325.0Q6304 312.0 6313.5 294.5Q6323 277.0 6329 264.0Q6334 253.0 6341.5 236.0Q6349 219.0 6353 206.0Q6352 197.0 6346.0 184.0Q6340 171.0 6333 158.0ZM6739 672.0H6497Q6463 672.0 6431.5 673.5Q6400 675.0 6379 677.0Q6366 678.0 6355.5 680.5Q6345 683.0 6335 686.0Q6328 688.0 6319.0 692.0Q6310 696.0 6305 699.0Q6302 699.0 6290.0 695.0Q6278 691.0 6269 687.0Q6257 682.0 6241.0 675.0Q6225 668.0 6215 662.0Q6207 657.0 6198.5 651.5Q6190 646.0 6190 639.0Q6190 634.0 6193.5 631.5Q6197 629.0 6204 630.0Q6215 631.0 6231.0 633.0Q6247 635.0 6258 636.0Q6273 637.0 6305.5 638.5Q6338 640.0 6390 640.0H6722L6740 626.0Q6752 627.0 6760.5 627.5Q6769 628.0 6775 629.0Q6783 630.0 6792.0 633.0Q6801 636.0 6801 642.0Q6801 649.0 6797.0 659.0Q6793 669.0 6793 684.0V789.0Q6793 799.0 6792.5 817.5Q6792 836.0 6791 850.0Q6790 861.0 6789.0 878.0Q6788 895.0 6786 904.0Q6785 913.0 6783.5 920.5Q6782 928.0 6780 933.0Q6779 938.0 6776.5 943.5Q6774 949.0 6772 952.0Q6770 956.0 6767.0 958.0Q6764 960.0 6761 960.0Q6758 960.0 6755.0 957.5Q6752 955.0 6750 951.0Q6748 946.0 6746.5 940.0Q6745 934.0 6744 929.0Q6743 925.0 6742.5 916.5Q6742 908.0 6741 900.0Q6740 891.0 6739.5 868.0Q6739 845.0 6739 829.0ZM6808 342.0Q6820 342.0 6829.5 339.5Q6839 337.0 6849 330.0Q6855 325.0 6860.5 319.5Q6866 314.0 6868 311.0Q6879 312.0 6891.0 313.0Q6903 314.0 6915 316.0Q6934 318.0 6947.0 325.5Q6960 333.0 6960 350.0Q6960 363.0 6953.0 368.5Q6946 374.0 6935 374.0H6796V414.0Q6796 428.0 6795.5 445.5Q6795 463.0 6794 477.0Q6793 493.0 6792.0 510.5Q6791 528.0 6790 534.0Q6789 541.0 6787.5 554.0Q6786 567.0 6784 573.0Q6783 580.0 6780.0 587.0Q6777 594.0 6775 598.0Q6773 602.0 6769.5 604.5Q6766 607.0 6764 607.0Q6761 607.0 6758.0 604.5Q6755 602.0 6753 598.0Q6751 593.0 6749.5 587.0Q6748 581.0 6747 575.0Q6746 570.0 6745.5 562.5Q6745 555.0 6744 542.0Q6743 526.0 6742.5 501.5Q6742 477.0 6742 463.0V125.0Q6742 115.0 6739.5 106.5Q6737 98.0 6733 93.0Q6729 88.0 6724.0 83.0Q6719 78.0 6713 74.0Q6706 69.0 6697.5 64.5Q6689 60.0 6683 57.0Q6676 54.0 6668.0 50.5Q6660 47.0 6654 45.0Q6649 43.0 6642.0 40.0Q6635 37.0 6635 32.0Q6635 26.0 6643.0 23.0Q6651 20.0 6661 20.0Q6667 20.0 6687.0 23.0Q6707 26.0 6723 30.0Q6736 33.0 6749.5 37.0Q6763 41.0 6777 46.0Q6787 50.0 6796.0 55.0Q6805 60.0 6805 68.0Q6805 72.0 6803.0 78.0Q6801 84.0 6799 91.0Q6798 97.0 6797.0 107.0Q6796 117.0 6796 122.0V342.0Z"/>
  <path d="M7450 747.0Q7450 762.0 7449.5 782.5Q7449 803.0 7448 820.0Q7447 834.0 7446.5 851.0Q7446 868.0 7444 880.0Q7443 888.0 7441.5 900.5Q7440 913.0 7438 920.0Q7437 927.0 7434.0 936.0Q7431 945.0 7429 949.0Q7427 953.0 7423.5 956.5Q7420 960.0 7417 960.0Q7413 960.0 7410.0 957.0Q7407 954.0 7405 950.0Q7404 947.0 7402.5 942.0Q7401 937.0 7400 931.0Q7399 922.0 7398.0 911.5Q7397 901.0 7396 891.0Q7395 877.0 7394.5 847.5Q7394 818.0 7394 804.0V599.0H7315Q7255 599.0 7215.5 603.5Q7176 608.0 7154 613.0Q7142 616.0 7131.5 620.0Q7121 624.0 7113 629.0Q7109 629.0 7093.0 622.5Q7077 616.0 7066 611.0Q7053 605.0 7041.5 599.0Q7030 593.0 7020 587.0Q7011 582.0 7003.0 575.5Q6995 569.0 6995 563.0Q6995 557.0 6999.5 555.0Q7004 553.0 7011 554.0Q7022 555.0 7040.5 557.5Q7059 560.0 7071 561.0Q7088 562.0 7126.5 563.5Q7165 565.0 7207 565.0H7541Q7594 565.0 7625.5 563.0Q7657 561.0 7670 557.0Q7684 553.0 7693.5 549.0Q7703 545.0 7710 539.0Q7724 540.0 7745.0 541.0Q7766 542.0 7779 544.0Q7794 545.0 7807.0 547.5Q7820 550.0 7831 553.0Q7839 555.0 7847.0 561.0Q7855 567.0 7855 581.0Q7855 590.0 7850.5 599.0Q7846 608.0 7832 607.0Q7824 606.0 7808.5 605.0Q7793 604.0 7782 603.0Q7766 602.0 7736.0 600.5Q7706 599.0 7681 599.0H7450ZM7190 435.0Q7189 447.0 7186.5 457.5Q7184 468.0 7181 475.0Q7178 483.0 7173.5 488.5Q7169 494.0 7164 494.0Q7157 494.0 7153.5 488.5Q7150 483.0 7148 476.0Q7147 471.0 7145.0 459.0Q7143 447.0 7142 437.0Q7141 428.0 7140.5 402.5Q7140 377.0 7140 366.0V147.0Q7140 139.0 7137.5 132.5Q7135 126.0 7130 122.0Q7126 118.0 7118.5 113.0Q7111 108.0 7105 105.0Q7098 102.0 7091.5 99.0Q7085 96.0 7079 94.0Q7073 92.0 7065.0 88.5Q7057 85.0 7057 80.0Q7057 74.0 7064.5 71.0Q7072 68.0 7080 68.0Q7088 68.0 7103.0 70.0Q7118 72.0 7129 74.0Q7141 76.0 7154.5 79.0Q7168 82.0 7181 87.0Q7188 89.0 7195.0 93.0Q7202 97.0 7202 103.0Q7202 108.0 7199.0 118.0Q7196 128.0 7196 140.0V198.0H7655V120.0Q7655 112.0 7652.0 105.0Q7649 98.0 7644 94.0Q7639 89.0 7631.0 84.0Q7623 79.0 7617 76.0Q7611 73.0 7603.5 69.5Q7596 66.0 7590 64.0Q7584 62.0 7576.5 58.5Q7569 55.0 7569 50.0Q7569 44.0 7576.5 41.0Q7584 38.0 7591 38.0Q7596 38.0 7609.5 39.5Q7623 41.0 7638 44.0Q7650 46.0 7667.0 50.5Q7684 55.0 7693 58.0Q7700 60.0 7708.5 64.0Q7717 68.0 7717 75.0Q7717 80.0 7714.0 90.5Q7711 101.0 7711 114.0V346.0Q7711 359.0 7709.5 384.0Q7708 409.0 7706 426.0Q7705 439.0 7702.0 452.0Q7699 465.0 7696 473.0Q7693 481.0 7688.5 486.5Q7684 492.0 7679 492.0Q7672 492.0 7668.5 486.5Q7665 481.0 7663 474.0Q7662 469.0 7660.0 457.0Q7658 445.0 7657 435.0ZM7655 400.0Q7655 389.0 7655.0 379.0Q7655 369.0 7655 364.0V233.0H7196V348.0Q7196 356.0 7195.5 370.5Q7195 385.0 7193 400.0H7655Z"/>
  <path d="M8562 445.0Q8534 445.0 8512.5 448.5Q8491 452.0 8480 456.0Q8472 459.0 8463.5 463.0Q8455 467.0 8449 471.0Q8446 471.0 8434.5 465.5Q8423 460.0 8415 456.0Q8405 451.0 8394.5 444.5Q8384 438.0 8377 434.0Q8371 430.0 8363.5 424.0Q8356 418.0 8356 414.0Q8356 409.0 8360.0 407.0Q8364 405.0 8370 406.0Q8381 407.0 8394.0 408.5Q8407 410.0 8418 411.0Q8430 412.0 8452.0 412.5Q8474 413.0 8502 413.0H8597V126.0Q8597 116.0 8595.0 108.0Q8593 100.0 8589 94.0Q8585 89.0 8580.0 83.5Q8575 78.0 8568 74.0Q8561 69.0 8553.5 65.0Q8546 61.0 8538 57.0Q8531 54.0 8522.5 50.5Q8514 47.0 8508 45.0Q8502 43.0 8495.5 40.0Q8489 37.0 8489 32.0Q8489 26.0 8497.0 23.0Q8505 20.0 8515 20.0Q8521 20.0 8539.5 22.5Q8558 25.0 8575 30.0Q8587 33.0 8603.0 37.5Q8619 42.0 8633 47.0Q8643 51.0 8651.5 56.0Q8660 61.0 8660 69.0Q8660 73.0 8658.0 78.5Q8656 84.0 8654 91.0Q8653 97.0 8652.0 107.0Q8651 117.0 8651 122.0V734.0Q8651 754.0 8650.0 783.5Q8649 813.0 8648 830.0Q8647 860.0 8645.0 880.5Q8643 901.0 8641 910.0Q8639 923.0 8636.5 932.0Q8634 941.0 8632 946.0Q8630 951.0 8626.5 955.5Q8623 960.0 8618 960.0Q8614 960.0 8611.0 955.5Q8608 951.0 8606 947.0Q8605 942.0 8603.5 935.5Q8602 929.0 8601 922.0Q8600 908.0 8599.5 898.0Q8599 888.0 8598 870.0Q8597 848.0 8597.0 812.0Q8597 776.0 8597 764.0V445.0ZM8112 420.0Q8140 420.0 8159.0 418.0Q8178 416.0 8191 412.0Q8201 408.0 8208.0 403.5Q8215 399.0 8220 394.0Q8234 395.0 8248.0 395.5Q8262 396.0 8277 398.0Q8302 400.0 8316.0 407.0Q8330 414.0 8330 430.0Q8330 440.0 8324.5 446.5Q8319 453.0 8306 453.0H8040V735.0Q8066 733.0 8096.5 729.5Q8127 726.0 8149 723.0Q8172 720.0 8204.0 715.5Q8236 711.0 8266 707.0Q8289 703.0 8323.0 697.5Q8357 692.0 8385 687.0Q8405 683.0 8432.0 677.5Q8459 672.0 8477 668.0Q8489 664.0 8491.5 675.0Q8494 686.0 8483 691.0Q8467 697.0 8438.0 705.5Q8409 714.0 8387 720.0Q8360 727.0 8328.0 735.0Q8296 743.0 8271 749.0Q8240 756.0 8206.5 763.0Q8173 770.0 8148 775.0Q8116 782.0 8087.0 787.0Q8058 792.0 8036 795.0Q8024 795.0 8004.5 779.5Q7985 764.0 7985 753.0V211.0Q7985 202.0 7981.0 195.5Q7977 189.0 7970 185.0Q7962 180.0 7949.5 175.5Q7937 171.0 7926 168.0Q7921 166.0 7913.0 164.5Q7905 163.0 7905 157.0Q7905 150.0 7915.5 145.5Q7926 141.0 7942 141.0Q7959 141.0 7975.5 142.5Q7992 144.0 8006 146.0Q8020 148.0 8034.0 152.0Q8048 156.0 8050 160.0H8183Q8212 160.0 8232.0 158.0Q8252 156.0 8262 152.0Q8270 149.0 8277.5 145.0Q8285 141.0 8291 135.0Q8308 136.0 8323.0 136.0Q8338 136.0 8357 138.0Q8386 140.0 8402.0 147.5Q8418 155.0 8418 171.0Q8418 183.0 8412.5 188.0Q8407 193.0 8394 193.0H8040V420.0Z"/>
  <path d="M9232 690.0Q9232 698.0 9231.5 705.0Q9231 712.0 9230 718.0Q9229 724.0 9227.5 731.5Q9226 739.0 9224 746.0Q9222 752.0 9219.0 756.0Q9216 760.0 9211 760.0Q9207 760.0 9204.5 757.5Q9202 755.0 9200 751.0Q9198 746.0 9196.5 739.0Q9195 732.0 9193 723.0Q9192 714.0 9191.0 702.0Q9190 690.0 9189 681.0Q9188 670.0 9187.5 650.5Q9187 631.0 9186 617.0L9175 254.0Q9175 245.0 9171.5 239.5Q9168 234.0 9163 230.0Q9160 228.0 9154.0 224.5Q9148 221.0 9143 220.0Q9139 218.0 9131.5 216.5Q9124 215.0 9121 214.0Q9117 213.0 9110.0 211.0Q9103 209.0 9103 203.0Q9103 198.0 9108.5 194.0Q9114 190.0 9118 189.0Q9123 187.0 9131.0 186.0Q9139 185.0 9146 185.0Q9154 185.0 9167.0 185.5Q9180 186.0 9193 188.0Q9201 189.0 9212.5 191.0Q9224 193.0 9230 195.0Q9232 196.0 9234.0 197.0Q9236 198.0 9237 200.0H9454L9476 185.0L9517 189.0Q9533 190.0 9538.5 195.0Q9544 200.0 9544 205.0Q9544 212.0 9538.5 224.5Q9533 237.0 9530 251.0L9506 647.0Q9515 652.0 9526.5 659.5Q9538 667.0 9538 676.0Q9538 683.0 9534.0 686.5Q9530 690.0 9519 690.0H9232ZM9235 610.0Q9235 619.0 9235.0 631.5Q9235 644.0 9234 657.0H9455L9470 643.0V233.0H9235ZM9822 120.0Q9822 113.0 9821.0 106.5Q9820 100.0 9816 94.0Q9813 89.0 9808.5 84.0Q9804 79.0 9799 75.0Q9794 70.0 9787.0 66.0Q9780 62.0 9773 58.0Q9766 54.0 9758.0 50.5Q9750 47.0 9744 45.0Q9739 43.0 9732.5 39.5Q9726 36.0 9726 32.0Q9726 26.0 9734.5 23.0Q9743 20.0 9753 20.0Q9759 20.0 9777.0 23.0Q9795 26.0 9808 30.0Q9820 33.0 9837.0 38.0Q9854 43.0 9863 47.0Q9871 51.0 9877.5 55.0Q9884 59.0 9884 67.0Q9884 71.0 9882.5 76.5Q9881 82.0 9879 89.0Q9878 95.0 9877.0 105.5Q9876 116.0 9876 121.0V734.0Q9876 754.0 9875.0 783.5Q9874 813.0 9873 830.0Q9872 860.0 9870.0 880.5Q9868 901.0 9866 910.0Q9864 923.0 9861.5 932.0Q9859 941.0 9857 946.0Q9855 951.0 9851.5 955.5Q9848 960.0 9843 960.0Q9839 960.0 9836.0 955.5Q9833 951.0 9831 947.0Q9830 942.0 9828.5 935.5Q9827 929.0 9826 922.0Q9825 908.0 9824.5 898.0Q9824 888.0 9823 870.0Q9822 848.0 9822.0 812.0Q9822 776.0 9822 764.0V484.0H9687V710.0Q9687 728.0 9686.0 758.0Q9685 788.0 9683 807.0Q9682 828.0 9680.0 843.5Q9678 859.0 9676 867.0Q9675 874.0 9672.0 882.5Q9669 891.0 9667 895.0Q9665 899.0 9662.0 902.0Q9659 905.0 9655 905.0Q9652 905.0 9649.5 902.0Q9647 899.0 9645 895.0Q9644 891.0 9642.5 885.5Q9641 880.0 9640 874.0Q9639 865.0 9638.0 854.0Q9637 843.0 9636 830.0Q9635 815.0 9635.0 788.0Q9635 761.0 9635 742.0V156.0Q9635 148.0 9633.5 141.0Q9632 134.0 9629 130.0Q9626 125.0 9622.5 121.0Q9619 117.0 9613 113.0Q9608 109.0 9602.0 105.5Q9596 102.0 9590 99.0Q9586 97.0 9579.5 94.0Q9573 91.0 9567 89.0Q9562 87.0 9555.5 84.0Q9549 81.0 9549 77.0Q9549 70.0 9556.5 67.5Q9564 65.0 9571 65.0Q9576 65.0 9590.0 67.0Q9604 69.0 9617 72.0Q9631 75.0 9647.5 79.5Q9664 84.0 9674 88.0Q9680 90.0 9687.0 94.5Q9694 99.0 9694 105.0Q9694 110.0 9692.0 117.5Q9690 125.0 9689 130.0Q9688 134.0 9687.5 143.0Q9687 152.0 9687 157.0V449.0H9822Z"/>
  <path d="M10471 272.0Q10480 274.0 10488.5 276.5Q10497 279.0 10504 281.0Q10518 285.0 10539.5 289.5Q10561 294.0 10573 296.0Q10587 298.0 10606.5 300.0Q10626 302.0 10642 303.0Q10656 304.0 10676.0 303.5Q10696 303.0 10706 302.0Q10717 305.0 10737.0 311.5Q10757 318.0 10775 326.0Q10792 333.0 10803.0 342.5Q10814 352.0 10814 363.0Q10814 370.0 10807.0 375.0Q10800 380.0 10784 378.0Q10768 376.0 10749.0 372.0Q10730 368.0 10712 364.0Q10690 359.0 10662.5 353.5Q10635 348.0 10613 343.0Q10588 337.0 10560.0 329.5Q10532 322.0 10512 317.0Q10496 312.0 10476.0 306.0Q10456 300.0 10436 294.0Q10425 301.0 10412.5 307.0Q10400 313.0 10386 319.0Q10370 326.0 10349.5 333.5Q10329 341.0 10313 346.0Q10297 351.0 10272.5 357.5Q10248 364.0 10231 369.0Q10215 373.0 10193.0 377.5Q10171 382.0 10154 386.0Q10138 390.0 10119.5 393.0Q10101 396.0 10081 399.0Q10067 400.0 10064.5 391.0Q10062 382.0 10075 379.0Q10094 374.0 10116.0 367.5Q10138 361.0 10156 355.0Q10173 350.0 10197.5 342.0Q10222 334.0 10240 327.0Q10256 321.0 10275.5 313.5Q10295 306.0 10311 299.0Q10325 292.0 10340.0 285.5Q10355 279.0 10366 273.0Q10378 267.0 10389.5 260.5Q10401 254.0 10409 249.0Q10417 244.0 10425.0 238.0Q10433 232.0 10438 228.0Q10437 224.0 10433.5 214.5Q10430 205.0 10424 196.0H10348Q10326 196.0 10303.0 197.5Q10280 199.0 10270 201.0Q10261 202.0 10251.5 204.5Q10242 207.0 10234 210.0Q10228 212.0 10222.5 215.0Q10217 218.0 10211 222.0Q10209 222.0 10197.5 217.5Q10186 213.0 10175 208.0Q10164 203.0 10150.0 196.0Q10136 189.0 10127 184.0Q10120 180.0 10112.5 174.0Q10105 168.0 10105 163.0Q10105 158.0 10109.5 155.5Q10114 153.0 10119 154.0Q10129 155.0 10140.0 156.5Q10151 158.0 10159 159.0Q10173 160.0 10204.5 161.5Q10236 163.0 10270 163.0H10520Q10555 163.0 10581.5 161.5Q10608 160.0 10622 157.0Q10633 155.0 10644.0 150.0Q10655 145.0 10660 140.0Q10671 141.0 10688.5 142.0Q10706 143.0 10713 144.0Q10728 145.0 10740.0 147.5Q10752 150.0 10760 152.0Q10768 154.0 10776.5 160.5Q10785 167.0 10785 180.0Q10785 190.0 10780.0 196.5Q10775 203.0 10764 203.0Q10759 203.0 10747.0 202.0Q10735 201.0 10724 200.0Q10711 199.0 10676.0 197.5Q10641 196.0 10623 196.0H10456Q10461 200.0 10466.5 204.5Q10472 209.0 10476 212.0Q10484 218.0 10492.5 223.5Q10501 229.0 10506 234.0Q10506 238.0 10503.0 242.5Q10500 247.0 10495 252.0Q10491 256.0 10486.0 260.0Q10481 264.0 10475 269.0Q10474 270.0 10473.5 270.5Q10473 271.0 10471 272.0ZM10350 97.0Q10331 97.0 10314.0 92.0Q10297 87.0 10283 80.0Q10273 74.0 10261.5 64.0Q10250 54.0 10250 47.0Q10250 41.0 10254.5 38.5Q10259 36.0 10263 38.0Q10270 40.0 10279.0 43.0Q10288 46.0 10296 48.0Q10307 51.0 10329.5 53.0Q10352 55.0 10379 55.0H10477Q10499 55.0 10512.5 51.5Q10526 48.0 10533 41.0Q10546 42.0 10560.0 43.0Q10574 44.0 10586 46.0Q10602 48.0 10612.0 55.0Q10622 62.0 10622 76.0Q10622 86.0 10615.0 91.5Q10608 97.0 10595 97.0ZM10484 507.0Q10484 520.0 10483.5 537.5Q10483 555.0 10481 568.0Q10480 575.0 10477.5 589.0Q10475 603.0 10468 614.0H10667L10686 600.0Q10697 601.0 10710.0 601.5Q10723 602.0 10733 604.0Q10744 605.0 10750.0 609.0Q10756 613.0 10756 618.0Q10756 622.0 10750.5 633.0Q10745 644.0 10742 653.0L10723 739.0Q10758 760.0 10749.5 771.0Q10741 782.0 10729 782.0H10246V864.0Q10246 880.0 10255.5 888.0Q10265 896.0 10293 896.0H10550Q10584 896.0 10602.5 894.0Q10621 892.0 10631 889.0Q10641 886.0 10650.5 881.0Q10660 876.0 10665 871.0Q10687 872.0 10706.5 872.5Q10726 873.0 10745 875.0Q10776 877.0 10790.5 885.0Q10805 893.0 10805 910.0Q10805 919.0 10799.5 924.5Q10794 930.0 10780 930.0H10282Q10246 930.0 10218.0 920.0Q10190 910.0 10190 865.0V800.0Q10190 791.0 10184.0 784.5Q10178 778.0 10169 774.0Q10161 769.0 10151.0 766.5Q10141 764.0 10133 763.0Q10126 761.0 10118.5 759.5Q10111 758.0 10111 754.0Q10111 746.0 10123.0 741.0Q10135 736.0 10151 736.0Q10177 736.0 10209.0 738.5Q10241 741.0 10250 749.0H10671L10682 738.0V647.0H10394Q10369 647.0 10340.0 648.0Q10311 649.0 10296 651.0Q10281 652.0 10271.0 654.5Q10261 657.0 10253 660.0Q10246 663.0 10241.0 665.5Q10236 668.0 10231 671.0Q10229 671.0 10223.0 669.0Q10217 667.0 10211 665.0Q10205 663.0 10196.5 659.5Q10188 656.0 10180 652.0Q10172 648.0 10163.5 643.5Q10155 639.0 10147 635.0Q10140 631.0 10132.0 624.5Q10124 618.0 10124 614.0Q10124 609.0 10128.5 607.0Q10133 605.0 10137 606.0Q10144 607.0 10154.5 608.0Q10165 609.0 10175 610.0Q10185 611.0 10219.0 612.5Q10253 614.0 10308 614.0H10440Q10436 606.0 10434.0 594.5Q10432 583.0 10431 575.0Q10430 559.0 10429.0 541.5Q10428 524.0 10428 514.0V486.0H10322Q10266 486.0 10229.5 490.0Q10193 494.0 10176 499.0Q10166 502.0 10157.0 505.0Q10148 508.0 10138 513.0Q10135 513.0 10122.5 508.0Q10110 503.0 10099 498.0Q10087 493.0 10075.0 486.5Q10063 480.0 10052 474.0Q10043 469.0 10034.0 462.5Q10025 456.0 10025 450.0Q10025 445.0 10029.5 442.5Q10034 440.0 10040 441.0Q10049 442.0 10064.0 444.0Q10079 446.0 10090 447.0Q10108 448.0 10149.0 450.0Q10190 452.0 10232 452.0H10585Q10622 452.0 10647.5 451.0Q10673 450.0 10685 449.0Q10696 447.0 10707.5 444.5Q10719 442.0 10726 439.0Q10731 437.0 10736.0 434.5Q10741 432.0 10745 428.0Q10759 429.0 10773.5 429.5Q10788 430.0 10803 432.0Q10818 433.0 10832.0 435.5Q10846 438.0 10856 440.0Q10866 442.0 10875.5 448.0Q10885 454.0 10885 468.0Q10885 478.0 10880.0 486.0Q10875 494.0 10861 493.0Q10851 492.0 10840.0 491.5Q10829 491.0 10818 490.0Q10807 489.0 10773.5 487.5Q10740 486.0 10713 486.0H10484Z"/>
  <path d="M11233 171.0Q11235 169.0 11238.0 168.5Q11241 168.0 11243 169.0Q11247 170.0 11255.0 171.0Q11263 172.0 11273 173.0Q11289 174.0 11304.0 175.0Q11319 176.0 11344 176.0H11427L11447 161.0Q11456 162.0 11468.5 163.0Q11481 164.0 11487 165.0Q11495 166.0 11503.0 169.0Q11511 172.0 11511 180.0Q11511 184.0 11505.5 193.5Q11500 203.0 11497 212.0Q11494 225.0 11490.0 242.5Q11486 260.0 11482 273.0Q11478 286.0 11472.0 306.5Q11466 327.0 11460 344.0Q11454 360.0 11445.5 383.5Q11437 407.0 11429 424.0Q11419 444.0 11409.0 465.0Q11399 486.0 11388 506.0Q11375 529.0 11360.0 554.0Q11345 579.0 11329 601.0Q11311 626.0 11290.5 652.5Q11270 679.0 11253 699.0Q11233 723.0 11209.0 748.0Q11185 773.0 11164 791.0Q11153 799.0 11143.5 793.0Q11134 787.0 11146 776.0Q11162 758.0 11180.5 734.0Q11199 710.0 11216 687.0Q11230 668.0 11247.0 642.5Q11264 617.0 11276 599.0Q11287 582.0 11301.5 557.5Q11316 533.0 11325 516.0Q11334 499.0 11346.5 473.0Q11359 447.0 11367 428.0Q11374 413.0 11383.0 389.5Q11392 366.0 11399 347.0Q11405 330.0 11411.5 309.0Q11418 288.0 11422 272.0Q11427 256.0 11430.5 240.0Q11434 224.0 11437 208.0H11385Q11371 208.0 11354.5 210.0Q11338 212.0 11330 215.0Q11323 218.0 11317.0 221.0Q11311 224.0 11304 229.0Q11298 227.0 11287.5 222.0Q11277 217.0 11266 210.0Q11261 207.0 11254.5 203.0Q11248 199.0 11243 195.0Q11241 197.0 11239.0 201.0Q11237 205.0 11235 209.0Q11232 220.0 11228.0 236.0Q11224 252.0 11220 263.0Q11216 277.0 11210.0 294.0Q11204 311.0 11199 325.0Q11194 339.0 11186.5 358.0Q11179 377.0 11171 392.0Q11163 408.0 11153.0 428.5Q11143 449.0 11133 464.0Q11123 480.0 11109.0 502.5Q11095 525.0 11082 542.0Q11068 561.0 11052.5 579.0Q11037 597.0 11022 615.0Q11006 634.0 10987.0 654.0Q10968 674.0 10949 691.0Q10938 699.0 10930.0 693.0Q10922 687.0 10932 676.0Q10946 659.0 10960.5 640.0Q10975 621.0 10989 602.0Q11002 585.0 11014.5 567.0Q11027 549.0 11037 533.0Q11048 516.0 11057.5 500.5Q11067 485.0 11076 469.0Q11085 454.0 11093.0 438.0Q11101 422.0 11109 405.0Q11117 390.0 11124.0 370.5Q11131 351.0 11138 335.0Q11144 320.0 11151.0 297.5Q11158 275.0 11162 262.0Q11167 248.0 11170.0 235.0Q11173 222.0 11175 210.0H11122Q11103 210.0 11086.0 212.5Q11069 215.0 11061 218.0Q11056 220.0 11048.5 224.0Q11041 228.0 11036 231.0Q11031 230.0 11019.0 224.0Q11007 218.0 10996 212.0Q10986 206.0 10970.5 195.5Q10955 185.0 10955 179.0Q10955 174.0 10959.0 171.5Q10963 169.0 10968 170.0Q10973 171.0 10981.5 172.0Q10990 173.0 10998 174.0Q11013 175.0 11034.5 176.5Q11056 178.0 11087 178.0H11165L11186 165.0Q11195 166.0 11202.0 166.5Q11209 167.0 11215 168.0Q11219 168.0 11224.0 168.5Q11229 169.0 11233 171.0ZM11663 469.0Q11674 469.0 11684.0 466.5Q11694 464.0 11703 458.0Q11710 453.0 11715.0 448.0Q11720 443.0 11722 439.0Q11733 440.0 11747.5 441.0Q11762 442.0 11772 444.0Q11789 446.0 11801.5 453.5Q11814 461.0 11814 477.0Q11814 490.0 11807.5 495.5Q11801 501.0 11789 501.0H11650V734.0Q11650 754.0 11649.0 783.5Q11648 813.0 11647 830.0Q11646 860.0 11644.0 880.5Q11642 901.0 11640 910.0Q11638 923.0 11635.5 932.0Q11633 941.0 11631 946.0Q11629 951.0 11625.5 955.5Q11622 960.0 11617 960.0Q11613 960.0 11610.0 955.5Q11607 951.0 11605 947.0Q11604 942.0 11602.5 935.5Q11601 929.0 11600 922.0Q11599 908.0 11598.5 898.0Q11598 888.0 11597 870.0Q11596 848.0 11596.0 812.0Q11596 776.0 11596 764.0V126.0Q11596 116.0 11594.0 108.0Q11592 100.0 11588 94.0Q11584 89.0 11579.0 83.5Q11574 78.0 11567 74.0Q11560 69.0 11552.5 65.0Q11545 61.0 11537 57.0Q11530 54.0 11521.5 50.5Q11513 47.0 11507 45.0Q11501 43.0 11494.5 40.0Q11488 37.0 11488 32.0Q11488 26.0 11496.0 23.0Q11504 20.0 11514 20.0Q11520 20.0 11538.5 22.5Q11557 25.0 11574 30.0Q11586 33.0 11602.0 37.5Q11618 42.0 11632 47.0Q11642 51.0 11650.5 56.0Q11659 61.0 11659 69.0Q11659 73.0 11657.0 78.5Q11655 84.0 11653 91.0Q11652 97.0 11651.0 107.0Q11650 117.0 11650 122.0V469.0Z"/>
  <path d="M12132 203.0Q12137 208.0 12143.0 213.5Q12149 219.0 12155 224.0Q12166 233.0 12177.5 242.0Q12189 251.0 12192 256.0Q12192 260.0 12186.0 281.5Q12180 303.0 12176 315.0Q12171 331.0 12163.0 353.0Q12155 375.0 12149 390.0Q12146 397.0 12143.0 404.5Q12140 412.0 12135 421.0Q12147 438.0 12162.0 458.0Q12177 478.0 12187 490.0Q12198 504.0 12213.0 520.0Q12228 536.0 12238 547.0Q12251 560.0 12265.5 572.5Q12280 585.0 12291 593.0Q12301 600.0 12314.5 607.5Q12328 615.0 12336 617.0Q12347 632.0 12357.5 649.0Q12368 666.0 12378 684.0Q12389 703.0 12401.5 731.5Q12414 760.0 12402 773.0Q12395 780.0 12386.0 777.0Q12377 774.0 12370 767.0Q12360 757.0 12346.0 741.0Q12332 725.0 12318 709.0Q12305 693.0 12285.5 669.0Q12266 645.0 12246 623.0Q12230 603.0 12208.5 577.5Q12187 552.0 12170 532.0Q12159 518.0 12144.0 500.0Q12129 482.0 12115 463.0Q12114 466.0 12113.0 469.0Q12112 472.0 12110 475.0Q12099 497.0 12083.5 523.5Q12068 550.0 12055 570.0Q12043 589.0 12025.0 615.0Q12007 641.0 11994 657.0Q11979 675.0 11960.5 697.0Q11942 719.0 11929 733.0Q11914 750.0 11896.5 768.0Q11879 786.0 11862 800.0Q11853 808.0 11844.5 801.5Q11836 795.0 11846 785.0Q11858 771.0 11874.5 750.5Q11891 730.0 11903 713.0Q11916 695.0 11929.5 676.0Q11943 657.0 11954 640.0Q11965 623.0 11977.5 602.5Q11990 582.0 12000 566.0Q12011 548.0 12024.5 523.0Q12038 498.0 12045 482.0Q12054 463.0 12064.5 439.5Q12075 416.0 12083 396.0Q12090 379.0 12098.0 357.0Q12106 335.0 12111 319.0Q12116 303.0 12121.0 285.5Q12126 268.0 12129 254.0Q12128 248.0 12120.5 233.0Q12113 218.0 12102 203.0H12074Q12061 203.0 12038.5 204.0Q12016 205.0 12007 207.0Q11999 208.0 11990.0 210.5Q11981 213.0 11974 216.0Q11969 218.0 11962.5 222.0Q11956 226.0 11951 229.0Q11948 229.0 11939.0 224.5Q11930 220.0 11921 216.0Q11908 209.0 11896.0 202.0Q11884 195.0 11876 190.0Q11870 186.0 11862.5 180.0Q11855 174.0 11855 169.0Q11855 164.0 11859.0 162.0Q11863 160.0 11869 161.0Q11875 162.0 11887.5 163.5Q11900 165.0 11909 166.0Q11919 167.0 11949.0 168.5Q11979 170.0 12006 170.0H12172Q12194 170.0 12216.5 169.0Q12239 168.0 12254 164.0Q12264 162.0 12274.0 156.0Q12284 150.0 12287 147.0Q12299 148.0 12310.5 148.5Q12322 149.0 12335 151.0Q12348 152.0 12356.5 153.5Q12365 155.0 12375 157.0Q12385 159.0 12393.0 165.5Q12401 172.0 12401 185.0Q12401 195.0 12396.0 202.0Q12391 209.0 12382 209.0Q12378 209.0 12365.0 208.0Q12352 207.0 12342 206.0Q12332 205.0 12301.5 204.0Q12271 203.0 12255 203.0H12132ZM12591 734.0Q12591 754.0 12590.0 783.5Q12589 813.0 12588 830.0Q12587 860.0 12585.0 880.5Q12583 901.0 12581 910.0Q12579 923.0 12576.5 932.0Q12574 941.0 12572 946.0Q12570 951.0 12566.5 955.5Q12563 960.0 12558 960.0Q12554 960.0 12551.0 955.5Q12548 951.0 12546 947.0Q12545 942.0 12543.5 935.5Q12542 929.0 12541 922.0Q12540 908.0 12539.5 898.0Q12539 888.0 12538 870.0Q12537 848.0 12537.0 812.0Q12537 776.0 12537 764.0V126.0Q12537 116.0 12535.0 108.0Q12533 100.0 12529 94.0Q12525 89.0 12520.0 83.5Q12515 78.0 12508 74.0Q12501 69.0 12493.5 65.0Q12486 61.0 12478 57.0Q12471 54.0 12462.5 50.5Q12454 47.0 12448 45.0Q12442 43.0 12435.5 40.0Q12429 37.0 12429 32.0Q12429 26.0 12437.0 23.0Q12445 20.0 12455 20.0Q12461 20.0 12479.5 22.5Q12498 25.0 12515 30.0Q12527 33.0 12543.0 37.5Q12559 42.0 12573 47.0Q12583 51.0 12591.5 56.0Q12600 61.0 12600 69.0Q12600 73.0 12598.0 78.5Q12596 84.0 12594 91.0Q12593 97.0 12592.0 107.0Q12591 117.0 12591 122.0Z"/>
</svg>