<svg xmlns="http://www.w3.org/2000/svg" viewBox="-5.0 96.0 7915.0 2244.0" fill="white">
  <path d="M40 495.0Q40 462.0 46.0 418.0Q52 374.0 61 344.0Q69 317.0 83.0 286.0Q97 255.0 115 232.0Q129 213.0 149.5 194.0Q170 175.0 195 160.0Q217 147.0 257.0 136.5Q297 126.0 327 126.0Q357 126.0 397.0 136.5Q437 147.0 459 160.0Q484 175.0 504.5 194.0Q525 213.0 539 232.0Q557 255.0 571.0 286.0Q585 317.0 593 344.0Q602 374.0 608.0 418.0Q614 462.0 614 495.0Q614 528.0 608.0 572.0Q602 616.0 593 646.0Q585 673.0 571.0 704.0Q557 735.0 539 758.0Q525 777.0 504.5 796.0Q484 815.0 459 830.0Q437 843.0 397.0 853.5Q357 864.0 327 864.0Q297 864.0 257.0 853.5Q217 843.0 195 830.0Q170 815.0 149.5 796.0Q129 777.0 115 758.0Q97 735.0 83.0 704.0Q69 673.0 61 646.0Q52 616.0 46.0 572.0Q40 528.0 40 495.0ZM105 495.0Q105 517.0 108.5 557.0Q112 597.0 118 626.0Q123 650.0 134.5 679.0Q146 708.0 157 726.0Q168 744.0 186.0 764.0Q204 784.0 223 798.0Q241 811.0 273.5 820.0Q306 829.0 327 829.0Q348 829.0 380.5 820.0Q413 811.0 431 798.0Q451 784.0 468.5 764.0Q486 744.0 497 726.0Q508 708.0 519.5 679.0Q531 650.0 536 626.0Q542 597.0 545.5 557.0Q549 517.0 549 495.0Q549 473.0 545.5 432.5Q542 392.0 536 364.0Q531 340.0 519.5 311.0Q508 282.0 497 264.0Q486 246.0 468.5 226.0Q451 206.0 431 192.0Q413 178.0 380.5 169.5Q348 161.0 327 161.0Q306 161.0 273.5 169.5Q241 178.0 223 192.0Q204 206.0 186.0 226.0Q168 246.0 157 264.0Q146 282.0 134.5 311.0Q123 340.0 118 364.0Q112 392.0 108.5 432.5Q105 473.0 105 495.0Z"/>
  <path d="M1227 140.0 1260 317.0H1242Q1236 304.0 1228.5 289.0Q1221 274.0 1213 261.0Q1206 248.0 1197.0 235.0Q1188 222.0 1176 210.0Q1166 200.0 1153.5 192.0Q1141 184.0 1128 179.0Q1118 175.0 1101.5 172.5Q1085 170.0 1074 170.0H1059Q1052 170.0 1042.5 171.0Q1033 172.0 1027 174.0Q1020 176.0 1012.5 180.5Q1005 185.0 1000 190.0Q996 195.0 993.0 204.0Q990 213.0 990 221.0V764.0Q990 770.0 991.5 777.5Q993 785.0 994 789.0Q996 795.0 1000.0 799.5Q1004 804.0 1008 807.0Q1013 810.0 1019.5 812.0Q1026 814.0 1032 816.0Q1040 817.0 1056.5 818.5Q1073 820.0 1080 820.0V850.0H842V820.0Q849 820.0 866.0 818.5Q883 817.0 890 816.0Q896 814.0 902.5 812.0Q909 810.0 914 807.0Q919 804.0 922.5 799.5Q926 795.0 928 789.0Q930 785.0 931.0 777.5Q932 770.0 932 764.0V221.0Q932 213.0 929.5 204.0Q927 195.0 922 190.0Q918 185.0 910.5 180.5Q903 176.0 895 174.0Q889 172.0 879.5 171.0Q870 170.0 863 170.0H848Q837 170.0 820.5 172.5Q804 175.0 794 179.0Q781 184.0 768.5 192.0Q756 200.0 746 210.0Q734 222.0 725.5 235.0Q717 248.0 709 261.0Q702 274.0 694.0 289.0Q686 304.0 680 317.0H662L695 140.0Z"/>
  <path d="M1456 582.0 1398 763.0Q1396 771.0 1394.0 780.0Q1392 789.0 1392 795.0Q1392 801.0 1397.5 806.0Q1403 811.0 1409 813.0Q1419 816.0 1434.0 818.0Q1449 820.0 1470 820.0V850.0H1276V820.0Q1293 820.0 1311.5 816.0Q1330 812.0 1339 803.0Q1347 796.0 1355.0 783.5Q1363 771.0 1368 756.0L1568 136.0L1604 126.0L1828 768.0Q1832 775.0 1836.5 783.5Q1841 792.0 1845 797.0Q1850 803.0 1855.5 807.0Q1861 811.0 1868 814.0Q1876 817.0 1885.0 818.0Q1894 819.0 1906 820.0V850.0H1696V820.0Q1715 820.0 1729.0 818.5Q1743 817.0 1750 815.0Q1758 813.0 1763.0 808.0Q1768 803.0 1768 796.0Q1768 792.0 1766.5 782.5Q1765 773.0 1762 763.0L1699 582.0ZM1573 218.0 1466 552.0H1689Z"/>
  <path d="M2442 422.0Q2469 422.0 2488.0 441.0Q2507 460.0 2507 489.0Q2507 517.0 2488.0 536.5Q2469 556.0 2442 556.0Q2416 556.0 2396.5 536.5Q2377 517.0 2377 489.0Q2377 460.0 2396.5 441.0Q2416 422.0 2442 422.0Z"/>
  <path d="M3445 333.0 3430 339.0Q3417 316.0 3404.5 293.0Q3392 270.0 3377 248.0Q3364 228.0 3346.5 211.5Q3329 195.0 3315 186.0Q3293 172.0 3267.0 164.0Q3241 156.0 3216 156.0Q3194 156.0 3170.5 163.5Q3147 171.0 3130 185.0Q3118 195.0 3107.5 210.0Q3097 225.0 3091 239.0Q3085 254.0 3082.5 271.5Q3080 289.0 3080 300.0Q3080 320.0 3087.5 339.5Q3095 359.0 3105 373.0Q3116 388.0 3137.5 401.5Q3159 415.0 3178 423.0Q3201 433.0 3225.5 442.5Q3250 452.0 3269 459.0Q3290 466.0 3315.0 475.5Q3340 485.0 3359 496.0Q3382 509.0 3400.5 522.5Q3419 536.0 3432 556.0Q3446 576.0 3454.5 607.0Q3463 638.0 3463 666.0Q3463 685.0 3454.5 716.5Q3446 748.0 3432 769.0Q3419 788.0 3398.5 807.5Q3378 827.0 3358 838.0Q3338 850.0 3309.5 857.0Q3281 864.0 3255 864.0Q3239 864.0 3211.5 858.5Q3184 853.0 3161 845.0Q3142 837.0 3125.5 832.5Q3109 828.0 3103 828.0Q3093 828.0 3077.5 836.5Q3062 845.0 3056 850.0L2990 646.0L3008 639.0Q3029 682.0 3058.5 722.5Q3088 763.0 3122 789.0Q3145 806.0 3179.5 818.5Q3214 831.0 3245 831.0Q3266 831.0 3290.0 826.0Q3314 821.0 3327 814.0Q3344 804.0 3358.5 790.5Q3373 777.0 3383 761.0Q3394 744.0 3398.5 723.5Q3403 703.0 3403 684.0Q3403 664.0 3398.5 645.0Q3394 626.0 3384 611.0Q3374 595.0 3359.5 583.5Q3345 572.0 3328 562.0Q3315 554.0 3290.0 543.5Q3265 533.0 3250 527.0Q3231 519.0 3202.5 506.5Q3174 494.0 3151 484.0Q3131 474.0 3104.5 458.0Q3078 442.0 3061 420.0Q3045 400.0 3035.0 372.0Q3025 344.0 3025 319.0Q3025 300.0 3029.0 274.0Q3033 248.0 3041 230.0Q3049 214.0 3059.0 199.0Q3069 184.0 3081 173.0Q3093 162.0 3110.0 152.5Q3127 143.0 3144 137.0Q3157 132.0 3180.5 129.0Q3204 126.0 3214 126.0Q3231 126.0 3256.0 131.5Q3281 137.0 3299 147.0Q3316 155.0 3331.5 163.5Q3347 172.0 3353 172.0Q3362 172.0 3375.0 163.0Q3388 154.0 3394 147.0Z"/>
  <path d="M4067 226.0Q4067 220.0 4066.0 212.5Q4065 205.0 4063 201.0Q4061 195.0 4057.5 190.5Q4054 186.0 4049 183.0Q4045 180.0 4039.0 177.5Q4033 175.0 4027 174.0Q4020 172.0 4007.0 171.0Q3994 170.0 3987 170.0V140.0H4179V170.0Q4172 170.0 4159.5 171.0Q4147 172.0 4139 174.0Q4133 175.0 4127.5 177.5Q4122 180.0 4117 183.0Q4113 186.0 4109.0 190.5Q4105 195.0 4103 201.0Q4102 205.0 4100.5 212.5Q4099 220.0 4099 226.0V850.0H4064L3651 203.0V764.0Q3651 770.0 3652.5 777.5Q3654 785.0 3655 789.0Q3657 795.0 3661.0 799.5Q3665 804.0 3669 807.0Q3674 810.0 3679.5 812.0Q3685 814.0 3691 816.0Q3699 817.0 3711.5 818.5Q3724 820.0 3731 820.0V850.0H3539V820.0Q3546 820.0 3559.0 818.5Q3572 817.0 3579 816.0Q3585 814.0 3591.0 812.0Q3597 810.0 3601 807.0Q3606 804.0 3609.5 799.5Q3613 795.0 3615 789.0Q3617 785.0 3618.0 777.5Q3619 770.0 3619 764.0V226.0Q3619 220.0 3618.0 212.5Q3617 205.0 3615 201.0Q3613 195.0 3609.5 190.5Q3606 186.0 3601 183.0Q3597 180.0 3591.0 177.5Q3585 175.0 3579 174.0Q3572 172.0 3559.0 171.0Q3546 170.0 3539 170.0V140.0H3673L4067 735.0Z"/>
  <path d="M4695 333.0 4680 339.0Q4667 316.0 4654.5 293.0Q4642 270.0 4627 248.0Q4614 228.0 4596.5 211.5Q4579 195.0 4565 186.0Q4543 172.0 4517.0 164.0Q4491 156.0 4466 156.0Q4444 156.0 4420.5 163.5Q4397 171.0 4380 185.0Q4368 195.0 4357.5 210.0Q4347 225.0 4341 239.0Q4335 254.0 4332.5 271.5Q4330 289.0 4330 300.0Q4330 320.0 4337.5 339.5Q4345 359.0 4355 373.0Q4366 388.0 4387.5 401.5Q4409 415.0 4428 423.0Q4451 433.0 4475.5 442.5Q4500 452.0 4519 459.0Q4540 466.0 4565.0 475.5Q4590 485.0 4609 496.0Q4632 509.0 4650.5 522.5Q4669 536.0 4682 556.0Q4696 576.0 4704.5 607.0Q4713 638.0 4713 666.0Q4713 685.0 4704.5 716.5Q4696 748.0 4682 769.0Q4669 788.0 4648.5 807.5Q4628 827.0 4608 838.0Q4588 850.0 4559.5 857.0Q4531 864.0 4505 864.0Q4489 864.0 4461.5 858.5Q4434 853.0 4411 845.0Q4392 837.0 4375.5 832.5Q4359 828.0 4353 828.0Q4343 828.0 4327.5 836.5Q4312 845.0 4306 850.0L4240 646.0L4258 639.0Q4279 682.0 4308.5 722.5Q4338 763.0 4372 789.0Q4395 806.0 4429.5 818.5Q4464 831.0 4495 831.0Q4516 831.0 4540.0 826.0Q4564 821.0 4577 814.0Q4594 804.0 4608.5 790.5Q4623 777.0 4633 761.0Q4644 744.0 4648.5 723.5Q4653 703.0 4653 684.0Q4653 664.0 4648.5 645.0Q4644 626.0 4634 611.0Q4624 595.0 4609.5 583.5Q4595 572.0 4578 562.0Q4565 554.0 4540.0 543.5Q4515 533.0 4500 527.0Q4481 519.0 4452.5 506.5Q4424 494.0 4401 484.0Q4381 474.0 4354.5 458.0Q4328 442.0 4311 420.0Q4295 400.0 4285.0 372.0Q4275 344.0 4275 319.0Q4275 300.0 4279.0 274.0Q4283 248.0 4291 230.0Q4299 214.0 4309.0 199.0Q4319 184.0 4331 173.0Q4343 162.0 4360.0 152.5Q4377 143.0 4394 137.0Q4407 132.0 4430.5 129.0Q4454 126.0 4464 126.0Q4481 126.0 4506.0 131.5Q4531 137.0 4549 147.0Q4566 155.0 4581.5 163.5Q4597 172.0 4603 172.0Q4612 172.0 4625.0 163.0Q4638 154.0 4644 147.0Z"/>
  <path d="M412 1434.0Q422 1429.0 425.5 1424.0Q429 1419.0 429 1416.0Q429 1412.0 425.5 1407.0Q422 1402.0 417 1398.0Q413 1395.0 407.5 1391.0Q402 1387.0 402 1384.0Q402 1379.0 408.5 1377.5Q415 1376.0 420 1377.0Q426 1378.0 437.0 1380.5Q448 1383.0 458 1387.0Q464 1389.0 473.0 1394.5Q482 1400.0 482 1407.0Q482 1411.0 478.0 1418.0Q474 1425.0 469 1433.0Q510 1433.0 546.0 1437.5Q582 1442.0 604 1447.0Q633 1454.0 654.0 1463.0Q675 1472.0 688 1480.0Q703 1490.0 715.0 1502.5Q727 1515.0 735 1529.0Q743 1541.0 748.0 1563.0Q753 1585.0 753 1600.0Q753 1615.0 748.0 1637.0Q743 1659.0 735 1671.0Q727 1684.0 715.0 1697.0Q703 1710.0 688 1720.0Q675 1728.0 654.0 1737.0Q633 1746.0 604 1753.0Q584 1758.0 551.0 1762.0Q518 1766.0 480 1768.0V1895.0H585Q622 1895.0 646.5 1894.0Q671 1893.0 683 1892.0Q693 1890.0 706.5 1887.5Q720 1885.0 727 1881.0Q732 1879.0 736.5 1876.0Q741 1873.0 745 1870.0Q759 1871.0 774.0 1871.5Q789 1872.0 805 1874.0Q821 1875.0 833.5 1877.5Q846 1880.0 856 1882.0Q866 1884.0 875.5 1890.5Q885 1897.0 885 1911.0Q885 1921.0 880.0 1929.0Q875 1937.0 861 1936.0Q851 1935.0 839.5 1934.5Q828 1934.0 817 1933.0Q805 1932.0 772.5 1930.5Q740 1929.0 713 1929.0H338Q282 1929.0 239.0 1933.0Q196 1937.0 179 1942.0Q169 1945.0 159.5 1948.5Q150 1952.0 140 1957.0Q136 1957.0 122.5 1951.5Q109 1946.0 98 1941.0Q86 1936.0 74.0 1929.5Q62 1923.0 51 1917.0Q42 1912.0 33.5 1905.5Q25 1899.0 25 1893.0Q25 1888.0 29.5 1885.5Q34 1883.0 40 1884.0Q49 1885.0 64.0 1887.0Q79 1889.0 90 1890.0Q108 1891.0 149.0 1893.0Q190 1895.0 232 1895.0H424V1768.0Q386 1766.0 351.5 1762.0Q317 1758.0 296 1753.0Q267 1746.0 246.0 1737.0Q225 1728.0 212 1720.0Q197 1710.0 185.0 1697.0Q173 1684.0 165 1671.0Q158 1659.0 152.5 1637.5Q147 1616.0 147 1600.0Q147 1584.0 152.5 1562.5Q158 1541.0 165 1529.0Q173 1515.0 185.0 1502.5Q197 1490.0 212 1480.0Q225 1472.0 246.0 1463.0Q267 1454.0 296 1447.0Q316 1442.0 347.0 1438.5Q378 1435.0 412 1434.0ZM450 1734.0Q486 1734.0 521.0 1729.5Q556 1725.0 574 1721.0Q596 1716.0 614.0 1709.0Q632 1702.0 645 1694.0Q657 1686.0 667.0 1675.5Q677 1665.0 682 1655.0Q688 1642.0 691.0 1626.5Q694 1611.0 694 1600.0Q694 1589.0 691.0 1573.5Q688 1558.0 682 1545.0Q677 1534.0 667.0 1523.5Q657 1513.0 645 1506.0Q632 1498.0 614.0 1491.0Q596 1484.0 574 1479.0Q556 1474.0 521.0 1470.0Q486 1466.0 450 1466.0Q414 1466.0 379.0 1469.5Q344 1473.0 326 1478.0Q304 1483.0 286.5 1490.0Q269 1497.0 255 1505.0Q243 1512.0 233.0 1522.5Q223 1533.0 218 1544.0Q212 1557.0 209.0 1572.5Q206 1588.0 206 1599.0Q206 1610.0 209.0 1625.5Q212 1641.0 218 1654.0Q223 1664.0 233.0 1674.5Q243 1685.0 255 1693.0Q269 1701.0 286.5 1708.0Q304 1715.0 326 1720.0Q344 1724.0 379.0 1729.0Q414 1734.0 450 1734.0ZM235 2040.0Q242 2042.0 249.0 2046.5Q256 2051.0 256 2057.0Q256 2064.0 253.5 2072.0Q251 2080.0 251 2099.0V2209.0Q251 2227.0 264.0 2233.5Q277 2240.0 302 2240.0H526Q561 2240.0 582.5 2238.0Q604 2236.0 616 2232.0Q628 2228.0 636.5 2223.0Q645 2218.0 650 2213.0Q670 2214.0 695.0 2215.0Q720 2216.0 739 2218.0Q770 2220.0 785.0 2228.5Q800 2237.0 800 2255.0Q800 2265.0 794.0 2270.0Q788 2275.0 778 2275.0H293Q255 2275.0 225.0 2265.0Q195 2255.0 195 2212.0V2102.0Q195 2093.0 190.5 2086.5Q186 2080.0 181 2076.0Q177 2072.0 168.5 2067.5Q160 2063.0 153 2060.0Q143 2055.0 133.0 2051.5Q123 2048.0 116 2046.0Q111 2044.0 104.0 2042.0Q97 2040.0 97 2036.0Q97 2028.0 105.0 2024.0Q113 2020.0 126 2020.0Q133 2020.0 151.0 2022.5Q169 2025.0 181 2027.0Q194 2029.0 210.0 2033.0Q226 2037.0 235 2040.0Z"/>
  <path d="M1307 1474.0 978 2216.0H925L1252 1474.0Z"/>
  <path d="M1738 1472.0Q1746 1467.0 1750.5 1463.0Q1755 1459.0 1756 1455.0Q1756 1449.0 1753.0 1444.5Q1750 1440.0 1745 1436.0Q1741 1431.0 1735.0 1427.5Q1729 1424.0 1730 1421.0Q1732 1416.0 1737.0 1414.5Q1742 1413.0 1747 1414.0Q1756 1415.0 1766.0 1417.5Q1776 1420.0 1786 1424.0Q1794 1427.0 1802.5 1432.5Q1811 1438.0 1811 1445.0Q1809 1452.0 1805.5 1458.5Q1802 1465.0 1798 1471.0Q1833 1472.0 1864.5 1477.0Q1896 1482.0 1923 1490.0Q1951 1498.0 1976.5 1510.5Q2002 1523.0 2020 1537.0Q2039 1551.0 2053.0 1569.5Q2067 1588.0 2075 1605.0Q2086 1628.0 2091.0 1652.5Q2096 1677.0 2096 1703.0Q2096 1728.0 2091.0 1753.0Q2086 1778.0 2075 1801.0Q2067 1818.0 2053.0 1836.5Q2039 1855.0 2020 1869.0Q2002 1883.0 1976.5 1895.5Q1951 1908.0 1923 1916.0Q1898 1923.0 1868.0 1928.0Q1838 1933.0 1806 1935.0V2175.0H1902Q1935 2175.0 1954.5 2174.5Q1974 2174.0 1985 2173.0Q1996 2172.0 2012.5 2170.0Q2029 2168.0 2040 2164.0Q2050 2161.0 2057.5 2157.0Q2065 2153.0 2070 2149.0Q2084 2150.0 2097.5 2150.5Q2111 2151.0 2124 2153.0Q2140 2154.0 2154.0 2156.5Q2168 2159.0 2179 2161.0Q2193 2164.0 2202.0 2171.0Q2211 2178.0 2211 2192.0Q2211 2203.0 2205.5 2210.5Q2200 2218.0 2188 2218.0Q2183 2218.0 2165.5 2216.5Q2148 2215.0 2135 2214.0Q2116 2212.0 2083.5 2211.0Q2051 2210.0 2026 2210.0H1674Q1638 2210.0 1604.5 2211.5Q1571 2213.0 1557 2215.0Q1544 2216.0 1529.0 2219.0Q1514 2222.0 1504 2225.0Q1496 2227.0 1486.0 2231.5Q1476 2236.0 1468 2240.0Q1466 2240.0 1459.0 2237.5Q1452 2235.0 1447 2233.0Q1440 2230.0 1431.5 2226.0Q1423 2222.0 1412 2217.0Q1403 2212.0 1392.0 2206.5Q1381 2201.0 1373 2196.0Q1366 2191.0 1358.5 2185.0Q1351 2179.0 1351 2174.0Q1351 2169.0 1355.0 2166.5Q1359 2164.0 1365 2165.0Q1377 2166.0 1395.0 2168.0Q1413 2170.0 1429 2171.0Q1455 2172.0 1490.0 2173.5Q1525 2175.0 1563 2175.0H1750V1936.0Q1717 1934.0 1686.0 1928.5Q1655 1923.0 1629 1916.0Q1601 1908.0 1575.5 1895.5Q1550 1883.0 1532 1869.0Q1513 1855.0 1499.0 1836.5Q1485 1818.0 1477 1801.0Q1466 1778.0 1461.0 1753.0Q1456 1728.0 1456 1703.0Q1456 1679.0 1461.0 1653.5Q1466 1628.0 1477 1605.0Q1485 1588.0 1499.0 1569.5Q1513 1551.0 1532 1537.0Q1550 1523.0 1575.5 1510.5Q1601 1498.0 1629 1490.0Q1653 1483.0 1681.0 1478.0Q1709 1473.0 1738 1472.0ZM1776 1900.0Q1814 1900.0 1848.5 1895.0Q1883 1890.0 1908 1882.0Q1931 1874.0 1949.5 1864.0Q1968 1854.0 1981 1842.0Q1995 1830.0 2004.5 1815.5Q2014 1801.0 2021 1787.0Q2030 1768.0 2033.5 1745.5Q2037 1723.0 2037 1703.0Q2037 1682.0 2033.5 1660.0Q2030 1638.0 2021 1619.0Q2014 1605.0 2004.5 1590.5Q1995 1576.0 1981 1564.0Q1968 1552.0 1949.5 1541.5Q1931 1531.0 1908 1524.0Q1883 1516.0 1848.5 1511.0Q1814 1506.0 1776 1506.0Q1739 1506.0 1704.0 1511.0Q1669 1516.0 1644 1524.0Q1622 1531.0 1603.5 1541.5Q1585 1552.0 1571 1564.0Q1557 1576.0 1547.5 1590.5Q1538 1605.0 1531 1619.0Q1522 1638.0 1518.5 1661.0Q1515 1684.0 1515 1703.0Q1515 1723.0 1518.5 1745.5Q1522 1768.0 1531 1787.0Q1538 1801.0 1547.5 1815.5Q1557 1830.0 1571 1842.0Q1585 1854.0 1603.5 1864.0Q1622 1874.0 1644 1882.0Q1669 1890.0 1703.5 1895.0Q1738 1900.0 1776 1900.0Z"/>
  <path d="M2820 1663.0Q2821 1656.0 2819.0 1651.5Q2817 1647.0 2815 1644.0Q2813 1640.0 2808.5 1635.0Q2804 1630.0 2799 1626.0Q2793 1621.0 2787.0 1617.5Q2781 1614.0 2776 1611.0Q2771 1608.0 2763.5 1603.0Q2756 1598.0 2757 1594.0Q2758 1589.0 2763.5 1587.0Q2769 1585.0 2777 1586.0Q2785 1587.0 2797.0 1589.5Q2809 1592.0 2816 1594.0Q2824 1596.0 2833.0 1599.0Q2842 1602.0 2850 1605.0Q2856 1607.0 2864.0 1610.5Q2872 1614.0 2878 1617.0Q2886 1621.0 2889.0 1626.0Q2892 1631.0 2890 1639.0L2825 1889.0Q2840 1888.0 2851.5 1886.5Q2863 1885.0 2870 1884.0Q2880 1882.0 2891.5 1876.5Q2903 1871.0 2909 1866.0Q2923 1867.0 2935.0 1867.5Q2947 1868.0 2963 1870.0Q2977 1871.0 2989.0 1873.5Q3001 1876.0 3011 1879.0Q3019 1881.0 3026.5 1887.5Q3034 1894.0 3034 1908.0Q3034 1918.0 3028.5 1925.0Q3023 1932.0 3013 1932.0Q3009 1932.0 2995.0 1931.0Q2981 1930.0 2970 1929.0Q2954 1927.0 2921.5 1926.0Q2889 1925.0 2872 1925.0H2576Q2557 1925.0 2534.5 1926.0Q2512 1927.0 2501 1929.0Q2491 1930.0 2479.0 1933.0Q2467 1936.0 2459 1939.0Q2452 1942.0 2444.5 1945.5Q2437 1949.0 2430 1953.0Q2426 1953.0 2414.0 1947.5Q2402 1942.0 2393 1938.0Q2382 1933.0 2369.5 1926.5Q2357 1920.0 2347 1914.0Q2340 1909.0 2331.5 1902.5Q2323 1896.0 2323 1891.0Q2323 1886.0 2328.0 1883.0Q2333 1880.0 2338 1881.0Q2346 1882.0 2358.5 1883.5Q2371 1885.0 2381 1886.0Q2396 1887.0 2425.0 1888.5Q2454 1890.0 2488 1890.0H2539L2500 1686.0Q2499 1680.0 2496.0 1675.0Q2493 1670.0 2491 1667.0Q2488 1663.0 2483.0 1659.0Q2478 1655.0 2473 1653.0Q2467 1650.0 2461.0 1647.5Q2455 1645.0 2449 1643.0Q2445 1641.0 2436.0 1638.0Q2427 1635.0 2427 1631.0Q2427 1624.0 2434.5 1620.5Q2442 1617.0 2452 1617.0Q2459 1617.0 2470.5 1618.0Q2482 1619.0 2493 1621.0Q2504 1622.0 2516.5 1624.5Q2529 1627.0 2540 1630.0Q2547 1631.0 2554.0 1635.0Q2561 1639.0 2562 1647.0L2573 1890.0H2769Q2775 1890.0 2781.0 1890.0Q2787 1890.0 2792 1890.0ZM2581 1519.0Q2562 1519.0 2539.5 1520.0Q2517 1521.0 2506 1523.0Q2496 1524.0 2484.0 1527.0Q2472 1530.0 2464 1533.0Q2457 1536.0 2449.5 1539.5Q2442 1543.0 2435 1547.0Q2431 1547.0 2419.0 1541.5Q2407 1536.0 2398 1532.0Q2387 1527.0 2374.5 1520.5Q2362 1514.0 2352 1508.0Q2345 1503.0 2336.5 1496.5Q2328 1490.0 2328 1485.0Q2328 1480.0 2333.0 1477.0Q2338 1474.0 2343 1475.0Q2351 1476.0 2363.5 1477.5Q2376 1479.0 2386 1480.0Q2401 1481.0 2430.0 1482.5Q2459 1484.0 2493 1484.0H2749Q2784 1484.0 2810.0 1482.5Q2836 1481.0 2850 1478.0Q2860 1476.0 2871.5 1470.5Q2883 1465.0 2889 1460.0Q2903 1461.0 2915.0 1461.5Q2927 1462.0 2943 1464.0Q2957 1465.0 2969.0 1467.5Q2981 1470.0 2991 1473.0Q2999 1475.0 3006.5 1481.5Q3014 1488.0 3014 1502.0Q3014 1512.0 3008.5 1519.0Q3003 1526.0 2993 1526.0Q2989 1526.0 2975.0 1525.0Q2961 1524.0 2950 1523.0Q2934 1521.0 2901.5 1520.0Q2869 1519.0 2852 1519.0ZM2275 2150.0Q2287 2151.0 2305.0 2153.0Q2323 2155.0 2339 2156.0Q2365 2157.0 2400.0 2158.5Q2435 2160.0 2473 2160.0H2812Q2845 2160.0 2864.5 2159.5Q2884 2159.0 2895 2158.0Q2906 2157.0 2922.5 2155.0Q2939 2153.0 2950 2149.0Q2960 2146.0 2967.5 2142.0Q2975 2138.0 2980 2134.0Q2994 2135.0 3007.5 2135.5Q3021 2136.0 3034 2138.0Q3050 2139.0 3063.0 2141.5Q3076 2144.0 3087 2146.0Q3101 2149.0 3111.0 2156.0Q3121 2163.0 3121 2177.0Q3121 2188.0 3115.5 2195.5Q3110 2203.0 3098 2203.0Q3093 2203.0 3075.5 2201.5Q3058 2200.0 3045 2199.0Q3026 2197.0 2993.5 2196.0Q2961 2195.0 2936 2195.0H2584Q2548 2195.0 2514.5 2196.5Q2481 2198.0 2467 2200.0Q2454 2201.0 2439.0 2204.0Q2424 2207.0 2414 2210.0Q2406 2212.0 2396.0 2216.5Q2386 2221.0 2378 2225.0Q2376 2225.0 2369.0 2222.5Q2362 2220.0 2357 2218.0Q2350 2215.0 2341.5 2211.0Q2333 2207.0 2322 2202.0Q2313 2197.0 2302.0 2191.5Q2291 2186.0 2283 2181.0Q2276 2176.0 2268.5 2170.0Q2261 2164.0 2261 2159.0Q2261 2154.0 2265.0 2151.5Q2269 2149.0 2275 2150.0Z"/>
  <path d="M3895 1819.0Q3906 1819.0 3916.0 1816.5Q3926 1814.0 3935 1808.0Q3942 1803.0 3947.0 1798.0Q3952 1793.0 3954 1789.0Q3965 1790.0 3979.5 1791.0Q3994 1792.0 4004 1794.0Q4021 1796.0 4033.5 1803.5Q4046 1811.0 4046 1827.0Q4046 1840.0 4039.5 1845.5Q4033 1851.0 4021 1851.0H3882V2084.0Q3882 2104.0 3881.0 2133.5Q3880 2163.0 3879 2180.0Q3878 2210.0 3876.0 2230.5Q3874 2251.0 3872 2260.0Q3870 2273.0 3867.5 2282.0Q3865 2291.0 3863 2296.0Q3861 2301.0 3857.5 2305.5Q3854 2310.0 3849 2310.0Q3845 2310.0 3842.0 2305.5Q3839 2301.0 3837 2297.0Q3836 2292.0 3834.5 2285.5Q3833 2279.0 3832 2272.0Q3831 2258.0 3830.5 2248.0Q3830 2238.0 3829 2220.0Q3828 2198.0 3828.0 2162.0Q3828 2126.0 3828 2114.0V1476.0Q3828 1466.0 3826.0 1458.0Q3824 1450.0 3820 1444.0Q3816 1439.0 3811.0 1433.5Q3806 1428.0 3799 1424.0Q3792 1419.0 3784.5 1415.0Q3777 1411.0 3769 1407.0Q3762 1404.0 3753.5 1400.5Q3745 1397.0 3739 1395.0Q3733 1393.0 3726.5 1390.0Q3720 1387.0 3720 1382.0Q3720 1376.0 3728.0 1373.0Q3736 1370.0 3746 1370.0Q3752 1370.0 3770.5 1372.5Q3789 1375.0 3806 1380.0Q3818 1383.0 3834.0 1387.5Q3850 1392.0 3864 1397.0Q3874 1401.0 3882.5 1406.0Q3891 1411.0 3891 1419.0Q3891 1423.0 3889.0 1428.5Q3887 1434.0 3885 1441.0Q3884 1447.0 3883.0 1457.0Q3882 1467.0 3882 1472.0V1819.0ZM3246 1825.0Q3246 1816.0 3242.0 1809.0Q3238 1802.0 3229 1798.0Q3218 1792.0 3206.5 1788.0Q3195 1784.0 3185 1782.0Q3181 1781.0 3173.5 1778.5Q3166 1776.0 3166 1771.0Q3166 1764.0 3176.5 1759.5Q3187 1755.0 3201 1755.0Q3215 1755.0 3237.0 1756.5Q3259 1758.0 3270 1760.0Q3281 1761.0 3294.0 1765.0Q3307 1769.0 3308 1773.0H3553L3568 1762.0V1542.0H3416Q3373 1542.0 3348.5 1546.0Q3324 1550.0 3314 1553.0Q3305 1556.0 3296.0 1560.0Q3287 1564.0 3282 1567.0Q3279 1567.0 3267.5 1562.0Q3256 1557.0 3248 1553.0Q3238 1548.0 3228.0 1542.5Q3218 1537.0 3207 1531.0Q3201 1527.0 3193.5 1521.0Q3186 1515.0 3186 1510.0Q3186 1506.0 3189.5 1503.5Q3193 1501.0 3199 1502.0Q3209 1503.0 3223.0 1504.5Q3237 1506.0 3249 1507.0Q3266 1508.0 3296.5 1509.0Q3327 1510.0 3355 1510.0H3552L3571 1496.0Q3587 1497.0 3598.0 1497.5Q3609 1498.0 3616 1499.0Q3630 1500.0 3635.5 1503.5Q3641 1507.0 3641 1513.0Q3641 1518.0 3636.0 1530.0Q3631 1542.0 3628 1553.0L3606 1762.0Q3616 1768.0 3625.5 1776.0Q3635 1784.0 3635 1792.0Q3635 1800.0 3629.0 1802.5Q3623 1805.0 3611 1805.0H3300V2080.0Q3329 2078.0 3357.0 2074.5Q3385 2071.0 3418 2067.0Q3445 2063.0 3479.5 2058.5Q3514 2054.0 3541 2050.0Q3567 2045.0 3602.0 2039.5Q3637 2034.0 3665 2029.0Q3688 2024.0 3715.5 2018.0Q3743 2012.0 3761 2008.0Q3773 2004.0 3776.0 2015.0Q3779 2026.0 3767 2031.0Q3751 2038.0 3719.5 2047.0Q3688 2056.0 3667 2062.0Q3641 2069.0 3602.0 2078.0Q3563 2087.0 3538 2093.0Q3508 2100.0 3473.0 2107.5Q3438 2115.0 3413 2120.0Q3383 2126.0 3351.0 2131.5Q3319 2137.0 3296 2140.0Q3287 2140.0 3266.5 2122.5Q3246 2105.0 3246 2095.0Z"/>
  <path d="M4827 1857.0Q4827 1873.0 4826.5 1898.0Q4826 1923.0 4825 1940.0Q4824 1958.0 4823.0 1979.0Q4822 2000.0 4821 2006.0Q4820 2013.0 4818.5 2024.5Q4817 2036.0 4815 2047.0Q4814 2056.0 4811.0 2063.5Q4808 2071.0 4806 2076.0Q4804 2080.0 4801.0 2082.5Q4798 2085.0 4795 2085.0Q4790 2085.0 4787.5 2081.0Q4785 2077.0 4783 2073.0Q4782 2069.0 4780.5 2063.0Q4779 2057.0 4778 2051.0Q4777 2044.0 4776.5 2035.5Q4776 2027.0 4775 2015.0Q4774 1998.0 4773.5 1970.0Q4773 1942.0 4773 1926.0V1475.0Q4773 1465.0 4770.5 1456.5Q4768 1448.0 4764 1443.0Q4760 1438.0 4755.0 1433.0Q4750 1428.0 4744 1424.0Q4737 1419.0 4728.5 1414.5Q4720 1410.0 4714 1407.0Q4707 1404.0 4699.0 1400.5Q4691 1397.0 4685 1395.0Q4680 1393.0 4673.0 1390.0Q4666 1387.0 4666 1382.0Q4666 1376.0 4674.0 1373.0Q4682 1370.0 4692 1370.0Q4698 1370.0 4718.0 1373.0Q4738 1376.0 4754 1380.0Q4767 1383.0 4780.5 1387.0Q4794 1391.0 4808 1396.0Q4818 1400.0 4827.0 1405.0Q4836 1410.0 4836 1418.0Q4836 1422.0 4834.0 1428.0Q4832 1434.0 4830 1441.0Q4829 1447.0 4828.0 1457.0Q4827 1467.0 4827 1472.0ZM4336 2035.0Q4343 2037.0 4350.0 2041.5Q4357 2046.0 4357 2052.0Q4357 2059.0 4354.5 2067.0Q4352 2075.0 4352 2094.0V2213.0Q4352 2231.0 4365.0 2236.5Q4378 2242.0 4403 2242.0H4618Q4653 2242.0 4674.5 2240.0Q4696 2238.0 4708 2234.0Q4720 2230.0 4728.5 2225.0Q4737 2220.0 4742 2215.0Q4762 2216.0 4785.5 2217.5Q4809 2219.0 4831 2221.0Q4865 2225.0 4878.5 2232.0Q4892 2239.0 4892 2255.0Q4892 2265.0 4886.5 2270.0Q4881 2275.0 4871 2275.0H4394Q4356 2275.0 4326.0 2265.0Q4296 2255.0 4296 2212.0V2096.0Q4296 2087.0 4291.5 2080.5Q4287 2074.0 4282 2070.0Q4278 2066.0 4269.5 2061.5Q4261 2057.0 4254 2054.0Q4244 2049.0 4234.0 2045.5Q4224 2042.0 4217 2040.0Q4212 2038.0 4205.0 2036.0Q4198 2034.0 4198 2030.0Q4198 2023.0 4206.0 2019.0Q4214 2015.0 4227 2015.0Q4234 2015.0 4252.0 2017.5Q4270 2020.0 4282 2022.0Q4295 2024.0 4311.0 2028.0Q4327 2032.0 4336 2035.0ZM4317 1461.0Q4325 1457.0 4329.5 1452.5Q4334 1448.0 4335 1444.0Q4335 1438.0 4332.0 1433.5Q4329 1429.0 4324 1425.0Q4320 1420.0 4314.0 1416.5Q4308 1413.0 4309 1410.0Q4311 1405.0 4316.0 1403.5Q4321 1402.0 4326 1403.0Q4335 1404.0 4345.5 1407.5Q4356 1411.0 4363 1414.0Q4371 1417.0 4379.5 1422.0Q4388 1427.0 4388 1434.0Q4386 1441.0 4382.5 1447.0Q4379 1453.0 4376 1459.0Q4400 1460.0 4422.0 1465.0Q4444 1470.0 4456 1475.0Q4477 1483.0 4494.5 1493.0Q4512 1503.0 4525 1517.0Q4542 1533.0 4554.0 1552.0Q4566 1571.0 4573 1588.0Q4582 1610.0 4586.5 1637.0Q4591 1664.0 4591 1689.0Q4591 1714.0 4586.5 1740.5Q4582 1767.0 4573 1790.0Q4566 1806.0 4554.0 1825.0Q4542 1844.0 4525 1861.0Q4512 1874.0 4494.5 1884.5Q4477 1895.0 4456 1903.0Q4441 1909.0 4412.5 1914.5Q4384 1920.0 4354 1920.0Q4324 1920.0 4295.5 1914.5Q4267 1909.0 4252 1903.0Q4231 1895.0 4214.0 1884.5Q4197 1874.0 4183 1861.0Q4166 1844.0 4154.0 1825.0Q4142 1806.0 4135 1790.0Q4126 1767.0 4121.5 1740.5Q4117 1714.0 4117 1689.0Q4117 1664.0 4121.5 1637.0Q4126 1610.0 4135 1588.0Q4142 1571.0 4154.0 1552.0Q4166 1533.0 4183 1517.0Q4197 1503.0 4214.0 1493.0Q4231 1483.0 4252 1475.0Q4263 1470.0 4280.0 1466.0Q4297 1462.0 4317 1461.0ZM4354 1885.0Q4377 1885.0 4399.5 1880.5Q4422 1876.0 4438 1868.0Q4455 1860.0 4467.5 1848.5Q4480 1837.0 4490 1826.0Q4503 1812.0 4511.5 1793.0Q4520 1774.0 4524 1762.0Q4529 1747.0 4531.5 1727.0Q4534 1707.0 4534 1688.0Q4534 1670.0 4531.5 1649.5Q4529 1629.0 4524 1614.0Q4520 1602.0 4511.5 1583.0Q4503 1564.0 4490 1550.0Q4480 1539.0 4467.5 1527.5Q4455 1516.0 4438 1508.0Q4422 1500.0 4399.5 1495.5Q4377 1491.0 4354 1491.0Q4331 1491.0 4308.5 1495.5Q4286 1500.0 4270 1508.0Q4254 1516.0 4241.0 1527.5Q4228 1539.0 4218 1550.0Q4205 1564.0 4196.5 1583.0Q4188 1602.0 4184 1614.0Q4180 1629.0 4177.0 1649.5Q4174 1670.0 4174 1688.0Q4174 1707.0 4177.0 1727.0Q4180 1747.0 4184 1762.0Q4188 1774.0 4196.5 1793.0Q4205 1812.0 4218 1826.0Q4228 1837.0 4241.0 1848.5Q4254 1860.0 4270 1868.0Q4286 1876.0 4308.5 1880.5Q4331 1885.0 4354 1885.0Z"/>
  <path d="M5419 2040.0Q5418 2053.0 5417.5 2061.5Q5417 2070.0 5416 2078.0Q5415 2084.0 5413.5 2091.5Q5412 2099.0 5410 2106.0Q5408 2112.0 5405.0 2116.0Q5402 2120.0 5397 2120.0Q5393 2120.0 5390.5 2117.5Q5388 2115.0 5386 2111.0Q5384 2106.0 5382.5 2099.0Q5381 2092.0 5379 2083.0Q5378 2074.0 5377.0 2062.0Q5376 2050.0 5375 2041.0Q5374 2030.0 5373.5 2010.5Q5373 1991.0 5372 1977.0L5361 1583.0Q5361 1574.0 5357.5 1568.5Q5354 1563.0 5349 1559.0Q5346 1557.0 5339.5 1553.5Q5333 1550.0 5328 1549.0Q5324 1547.0 5316.0 1545.5Q5308 1544.0 5305 1543.0Q5301 1542.0 5294.0 1540.0Q5287 1538.0 5287 1532.0Q5287 1527.0 5291.5 1523.0Q5296 1519.0 5300 1518.0Q5305 1516.0 5314.0 1515.0Q5323 1514.0 5330 1514.0Q5338 1514.0 5352.0 1514.5Q5366 1515.0 5379 1517.0Q5387 1518.0 5398.5 1520.0Q5410 1522.0 5416 1524.0Q5418 1525.0 5420.5 1526.5Q5423 1528.0 5424 1530.0H5700L5722 1515.0L5763 1519.0Q5779 1520.0 5784.5 1525.0Q5790 1530.0 5790 1535.0Q5790 1542.0 5784.5 1554.5Q5779 1567.0 5776 1581.0L5752 1997.0Q5761 2002.0 5772.5 2009.5Q5784 2017.0 5784 2026.0Q5784 2033.0 5780.0 2036.5Q5776 2040.0 5765 2040.0H5419ZM5421 1970.0Q5421 1977.0 5421.0 1986.5Q5421 1996.0 5420 2007.0H5701L5716 1993.0V1563.0H5421ZM6015 1819.0Q6026 1819.0 6036.0 1816.5Q6046 1814.0 6055 1808.0Q6062 1803.0 6067.0 1798.0Q6072 1793.0 6074 1789.0Q6085 1790.0 6099.5 1791.0Q6114 1792.0 6124 1794.0Q6141 1796.0 6153.5 1803.5Q6166 1811.0 6166 1827.0Q6166 1840.0 6159.5 1845.5Q6153 1851.0 6141 1851.0H6002V2084.0Q6002 2104.0 6001.0 2133.5Q6000 2163.0 5999 2180.0Q5998 2210.0 5996.0 2230.5Q5994 2251.0 5992 2260.0Q5990 2273.0 5987.5 2282.0Q5985 2291.0 5983 2296.0Q5981 2301.0 5977.5 2305.5Q5974 2310.0 5969 2310.0Q5965 2310.0 5962.0 2305.5Q5959 2301.0 5957 2297.0Q5956 2292.0 5954.5 2285.5Q5953 2279.0 5952 2272.0Q5951 2258.0 5950.5 2248.0Q5950 2238.0 5949 2220.0Q5948 2198.0 5948.0 2162.0Q5948 2126.0 5948 2114.0V1476.0Q5948 1466.0 5946.0 1458.0Q5944 1450.0 5940 1444.0Q5936 1439.0 5931.0 1433.5Q5926 1428.0 5919 1424.0Q5912 1419.0 5904.5 1415.0Q5897 1411.0 5889 1407.0Q5882 1404.0 5873.5 1400.5Q5865 1397.0 5859 1395.0Q5853 1393.0 5846.5 1390.0Q5840 1387.0 5840 1382.0Q5840 1376.0 5848.0 1373.0Q5856 1370.0 5866 1370.0Q5872 1370.0 5890.5 1372.5Q5909 1375.0 5926 1380.0Q5938 1383.0 5954.0 1387.5Q5970 1392.0 5984 1397.0Q5994 1401.0 6002.5 1406.0Q6011 1411.0 6011 1419.0Q6011 1423.0 6009.0 1428.5Q6007 1434.0 6005 1441.0Q6004 1447.0 6003.0 1457.0Q6002 1467.0 6002 1472.0V1819.0Z"/>
  <path d="M6503 1759.0Q6493 1761.0 6483.0 1763.5Q6473 1766.0 6463 1768.0Q6447 1772.0 6420.0 1777.0Q6393 1782.0 6380 1784.0Q6363 1787.0 6342.0 1791.0Q6321 1795.0 6309 1797.0Q6300 1798.0 6293.0 1802.0Q6286 1806.0 6280 1811.0Q6278 1811.0 6271.0 1807.5Q6264 1804.0 6260 1802.0Q6254 1798.0 6247.5 1794.0Q6241 1790.0 6234 1786.0Q6227 1781.0 6220.5 1776.5Q6214 1772.0 6207 1767.0Q6202 1762.0 6196.5 1757.0Q6191 1752.0 6191 1747.0Q6191 1741.0 6196.0 1739.0Q6201 1737.0 6205 1738.0Q6213 1739.0 6220.0 1740.5Q6227 1742.0 6234 1743.0Q6247 1744.0 6262.5 1745.5Q6278 1747.0 6289 1747.0Q6300 1747.0 6326.0 1745.5Q6352 1744.0 6371 1743.0Q6393 1741.0 6419.0 1739.0Q6445 1737.0 6464 1735.0Q6476 1733.0 6489.5 1731.5Q6503 1730.0 6515 1729.0Q6518 1723.0 6520.0 1717.5Q6522 1712.0 6524 1707.0Q6530 1691.0 6536.5 1670.0Q6543 1649.0 6547 1633.0Q6551 1620.0 6555.0 1600.0Q6559 1580.0 6561 1567.0H6454Q6434 1567.0 6413.5 1568.0Q6393 1569.0 6383 1571.0Q6374 1572.0 6365.0 1574.5Q6356 1577.0 6350 1579.0Q6345 1581.0 6339.0 1584.0Q6333 1587.0 6327 1591.0Q6323 1590.0 6315.0 1587.0Q6307 1584.0 6299 1580.0Q6291 1576.0 6279.5 1570.0Q6268 1564.0 6259 1559.0Q6251 1554.0 6242.5 1547.5Q6234 1541.0 6234 1537.0Q6234 1531.0 6239.0 1529.0Q6244 1527.0 6248 1528.0Q6253 1529.0 6264.5 1530.0Q6276 1531.0 6283 1532.0Q6299 1533.0 6327.0 1534.5Q6355 1536.0 6390 1536.0H6548L6568 1521.0Q6577 1522.0 6590.0 1523.0Q6603 1524.0 6608 1525.0Q6617 1526.0 6626.0 1529.5Q6635 1533.0 6635 1539.0Q6635 1543.0 6630.0 1552.0Q6625 1561.0 6622 1570.0Q6619 1585.0 6614.0 1606.0Q6609 1627.0 6605 1641.0Q6601 1657.0 6595.0 1676.5Q6589 1696.0 6583 1713.0Q6577 1729.0 6569.0 1751.0Q6561 1773.0 6551 1793.0Q6552 1793.0 6552.5 1793.0Q6553 1793.0 6554 1793.0Q6559 1794.0 6571.0 1795.0Q6583 1796.0 6590 1797.0Q6601 1798.0 6623.0 1799.0Q6645 1800.0 6676 1800.0H6748V1506.0Q6748 1498.0 6746.5 1491.0Q6745 1484.0 6742 1480.0Q6739 1475.0 6735.5 1471.0Q6732 1467.0 6726 1463.0Q6721 1459.0 6715.0 1455.5Q6709 1452.0 6703 1449.0Q6699 1447.0 6692.5 1444.0Q6686 1441.0 6680 1439.0Q6675 1437.0 6668.5 1434.0Q6662 1431.0 6662 1427.0Q6662 1420.0 6669.5 1417.5Q6677 1415.0 6684 1415.0Q6689 1415.0 6703.0 1417.0Q6717 1419.0 6730 1422.0Q6744 1425.0 6760.5 1429.5Q6777 1434.0 6787 1438.0Q6793 1440.0 6800.0 1444.5Q6807 1449.0 6807 1455.0Q6807 1460.0 6805.0 1467.5Q6803 1475.0 6802 1480.0Q6801 1484.0 6800.5 1493.0Q6800 1502.0 6800 1507.0V2060.0Q6800 2078.0 6799.0 2108.0Q6798 2138.0 6796 2157.0Q6795 2178.0 6793.0 2193.5Q6791 2209.0 6789 2217.0Q6788 2224.0 6785.0 2232.5Q6782 2241.0 6780 2245.0Q6778 2249.0 6775.0 2252.0Q6772 2255.0 6768 2255.0Q6765 2255.0 6762.5 2252.0Q6760 2249.0 6758 2245.0Q6757 2241.0 6755.5 2235.5Q6754 2230.0 6753 2224.0Q6752 2215.0 6751.0 2204.0Q6750 2193.0 6749 2180.0Q6748 2165.0 6748.0 2138.0Q6748 2111.0 6748 2092.0V1832.0H6728Q6697 1832.0 6680.0 1836.0Q6663 1840.0 6654 1844.0Q6646 1847.0 6640.0 1850.5Q6634 1854.0 6628 1858.0Q6625 1858.0 6615.5 1853.5Q6606 1849.0 6599 1845.0Q6589 1840.0 6579.5 1834.0Q6570 1828.0 6562 1823.0Q6558 1820.0 6552.5 1816.0Q6547 1812.0 6544 1808.0Q6534 1825.0 6522.0 1846.0Q6510 1867.0 6499 1882.0Q6483 1905.0 6463.0 1929.5Q6443 1954.0 6425 1974.0Q6406 1995.0 6384.0 2016.5Q6362 2038.0 6341 2056.0Q6316 2078.0 6288.5 2101.0Q6261 2124.0 6238 2140.0Q6227 2146.0 6220.0 2139.0Q6213 2132.0 6223 2122.0Q6243 2104.0 6264.0 2082.5Q6285 2061.0 6304 2041.0Q6321 2024.0 6340.5 2001.0Q6360 1978.0 6377 1957.0Q6392 1939.0 6411.0 1913.5Q6430 1888.0 6443 1868.0Q6454 1851.0 6468.0 1827.0Q6482 1803.0 6492 1783.0Q6495 1777.0 6498.0 1771.0Q6501 1765.0 6503 1759.0ZM6908 1470.0Q6908 1463.0 6907.0 1456.5Q6906 1450.0 6902 1444.0Q6899 1439.0 6894.5 1434.0Q6890 1429.0 6885 1425.0Q6880 1420.0 6873.0 1416.0Q6866 1412.0 6859 1408.0Q6852 1404.0 6844.0 1400.5Q6836 1397.0 6830 1395.0Q6825 1393.0 6818.5 1389.5Q6812 1386.0 6812 1382.0Q6812 1376.0 6820.5 1373.0Q6829 1370.0 6839 1370.0Q6845 1370.0 6863.0 1373.0Q6881 1376.0 6894 1380.0Q6906 1383.0 6923.0 1388.0Q6940 1393.0 6949 1397.0Q6957 1401.0 6963.5 1405.0Q6970 1409.0 6970 1417.0Q6970 1421.0 6968.5 1426.5Q6967 1432.0 6965 1439.0Q6964 1445.0 6963.0 1455.5Q6962 1466.0 6962 1471.0V2084.0Q6962 2104.0 6961.0 2133.5Q6960 2163.0 6959 2180.0Q6958 2210.0 6956.0 2230.5Q6954 2251.0 6952 2260.0Q6950 2273.0 6947.5 2282.0Q6945 2291.0 6943 2296.0Q6941 2301.0 6937.5 2305.5Q6934 2310.0 6929 2310.0Q6925 2310.0 6922.0 2305.5Q6919 2301.0 6917 2297.0Q6916 2292.0 6914.5 2285.5Q6913 2279.0 6912 2272.0Q6911 2258.0 6910.5 2248.0Q6910 2238.0 6909 2220.0Q6908 2198.0 6908.0 2162.0Q6908 2126.0 6908 2114.0Z"/>
  <path d="M7370 1659.0Q7398 1659.0 7418.5 1657.5Q7439 1656.0 7450 1652.0Q7458 1649.0 7465.5 1644.5Q7473 1640.0 7478 1635.0Q7492 1636.0 7508.0 1636.5Q7524 1637.0 7540 1639.0Q7570 1642.0 7585.5 1648.0Q7601 1654.0 7601 1670.0Q7601 1680.0 7595.5 1685.5Q7590 1691.0 7577 1691.0H7251V1871.0Q7281 1869.0 7308.0 1866.0Q7335 1863.0 7353 1861.0Q7373 1859.0 7413.0 1854.0Q7453 1849.0 7485 1845.0Q7514 1841.0 7552.0 1835.5Q7590 1830.0 7614 1826.0Q7636 1822.0 7667.5 1816.0Q7699 1810.0 7721 1805.0Q7734 1802.0 7737.0 1812.5Q7740 1823.0 7726 1828.0Q7706 1835.0 7674.5 1843.0Q7643 1851.0 7617 1858.0Q7586 1866.0 7547.5 1874.0Q7509 1882.0 7483 1887.0Q7449 1894.0 7415.0 1900.0Q7381 1906.0 7355 1911.0Q7328 1915.0 7294.5 1921.0Q7261 1927.0 7244 1929.0Q7234 1929.0 7215.0 1914.5Q7196 1900.0 7196 1885.0V1518.0Q7196 1510.0 7191.5 1504.5Q7187 1499.0 7180 1495.0Q7170 1489.0 7158.5 1485.0Q7147 1481.0 7137 1479.0Q7132 1477.0 7125.0 1475.5Q7118 1474.0 7118 1468.0Q7118 1461.0 7129.5 1456.0Q7141 1451.0 7157 1451.0Q7192 1451.0 7224.5 1457.0Q7257 1463.0 7261 1470.0H7397Q7426 1470.0 7444.5 1468.0Q7463 1466.0 7474 1462.0Q7483 1459.0 7490.0 1455.0Q7497 1451.0 7504 1445.0Q7521 1446.0 7535.0 1446.0Q7549 1446.0 7569 1448.0Q7601 1450.0 7615.5 1457.5Q7630 1465.0 7630 1481.0Q7630 1492.0 7624.0 1497.0Q7618 1502.0 7606 1502.0H7251V1659.0ZM7857 1785.0Q7857 1799.0 7856.5 1816.5Q7856 1834.0 7855 1848.0Q7854 1864.0 7853.0 1881.5Q7852 1899.0 7851 1905.0Q7850 1912.0 7848.5 1925.0Q7847 1938.0 7845 1944.0Q7844 1951.0 7841.0 1958.0Q7838 1965.0 7836 1969.0Q7834 1973.0 7830.5 1975.5Q7827 1978.0 7825 1978.0Q7822 1978.0 7819.0 1975.5Q7816 1973.0 7814 1969.0Q7812 1964.0 7810.5 1958.0Q7809 1952.0 7808 1946.0Q7807 1941.0 7806.5 1933.5Q7806 1926.0 7805 1913.0Q7804 1897.0 7803.5 1872.5Q7803 1848.0 7803 1834.0V1475.0Q7803 1465.0 7800.5 1456.5Q7798 1448.0 7794 1443.0Q7790 1438.0 7785.0 1433.0Q7780 1428.0 7774 1424.0Q7767 1419.0 7758.5 1414.5Q7750 1410.0 7744 1407.0Q7737 1404.0 7729.0 1400.5Q7721 1397.0 7715 1395.0Q7710 1393.0 7703.0 1390.0Q7696 1387.0 7696 1382.0Q7696 1376.0 7704.0 1373.0Q7712 1370.0 7722 1370.0Q7728 1370.0 7748.0 1373.0Q7768 1376.0 7784 1380.0Q7797 1383.0 7810.5 1387.0Q7824 1391.0 7838 1396.0Q7848 1400.0 7857.0 1405.0Q7866 1410.0 7866 1418.0Q7866 1422.0 7864.0 1428.0Q7862 1434.0 7860 1441.0Q7859 1447.0 7858.0 1457.0Q7857 1467.0 7857 1472.0ZM7563 2285.0Q7532 2285.0 7487.5 2281.5Q7443 2278.0 7421 2274.0Q7396 2269.0 7370.5 2262.0Q7345 2255.0 7327 2246.0Q7308 2237.0 7295.0 2226.5Q7282 2216.0 7271 2202.0Q7257 2184.0 7251.5 2164.0Q7246 2144.0 7246 2129.0Q7246 2114.0 7251.5 2094.0Q7257 2074.0 7271 2056.0Q7282 2042.0 7295.0 2031.5Q7308 2021.0 7327 2012.0Q7345 2003.0 7370.5 1995.5Q7396 1988.0 7421 1984.0Q7443 1980.0 7487.5 1976.5Q7532 1973.0 7563 1973.0Q7594 1973.0 7638.5 1976.5Q7683 1980.0 7705 1984.0Q7730 1988.0 7755.5 1995.5Q7781 2003.0 7799 2012.0Q7818 2021.0 7831.0 2031.5Q7844 2042.0 7855 2056.0Q7869 2074.0 7874.5 2094.0Q7880 2114.0 7880 2129.0Q7880 2144.0 7874.5 2164.0Q7869 2184.0 7855 2202.0Q7844 2216.0 7831.0 2226.5Q7818 2237.0 7799 2246.0Q7781 2255.0 7755.5 2262.0Q7730 2269.0 7705 2274.0Q7683 2278.0 7638.5 2281.5Q7594 2285.0 7563 2285.0ZM7563 2249.0Q7606 2249.0 7646.5 2244.0Q7687 2239.0 7712 2232.0Q7732 2227.0 7750.5 2218.5Q7769 2210.0 7780 2203.0Q7792 2195.0 7799.0 2187.0Q7806 2179.0 7811 2170.0Q7817 2160.0 7819.0 2150.5Q7821 2141.0 7821 2128.0Q7821 2115.0 7819.0 2105.5Q7817 2096.0 7811 2086.0Q7806 2077.0 7799.0 2069.0Q7792 2061.0 7780 2053.0Q7769 2045.0 7750.5 2037.0Q7732 2029.0 7712 2024.0Q7687 2017.0 7646.5 2012.0Q7606 2007.0 7563 2007.0Q7520 2007.0 7479.0 2012.0Q7438 2017.0 7413 2024.0Q7393 2029.0 7375.0 2037.0Q7357 2045.0 7346 2053.0Q7334 2061.0 7327.0 2069.0Q7320 2077.0 7315 2086.0Q7309 2096.0 7307.0 2106.5Q7305 2117.0 7305 2128.0Q7305 2141.0 7307.0 2150.5Q7309 2160.0 7315 2170.0Q7320 2179.0 7327.0 2187.0Q7334 2195.0 7346 2203.0Q7357 2210.0 7375.5 2218.5Q7394 2227.0 7414 2232.0Q7439 2239.0 7479.5 2244.0Q7520 2249.0 7563 2249.0Z"/>
</svg>