<svg xmlns="http://www.w3.org/2000/svg" viewBox="-22.0 -15.4 8167.3 2355.4" fill="white">
  <path d="M652 412.0Q620 412.0 596.5 415.0Q573 418.0 558 423.0Q549 426.0 540.0 430.5Q531 435.0 524 439.0Q521 439.0 510.0 433.5Q499 428.0 491 424.0Q481 419.0 469.5 412.5Q458 406.0 451 402.0Q445 398.0 437.0 391.5Q429 385.0 429 381.0Q429 376.0 433.0 373.5Q437 371.0 443 372.0Q456 373.0 465.5 374.5Q475 376.0 489 377.0Q501 378.0 526.5 379.0Q552 380.0 580 380.0H717V126.0Q717 116.0 715.0 108.0Q713 100.0 709 94.0Q705 89.0 700.0 83.5Q695 78.0 688 74.0Q681 69.0 673.5 65.0Q666 61.0 658 57.0Q651 54.0 642.5 50.5Q634 47.0 628 45.0Q622 43.0 615.5 40.0Q609 37.0 609 32.0Q609 26.0 617.0 23.0Q625 20.0 635 20.0Q641 20.0 659.5 22.5Q678 25.0 695 30.0Q707 33.0 723.0 37.5Q739 42.0 753 47.0Q763 51.0 771.5 56.0Q780 61.0 780 69.0Q780 73.0 778.0 78.5Q776 84.0 774 91.0Q773 97.0 772.0 107.0Q771 117.0 771 122.0V734.0Q771 754.0 770.0 783.5Q769 813.0 768 830.0Q767 860.0 765.0 880.5Q763 901.0 761 910.0Q759 923.0 756.5 932.0Q754 941.0 752 946.0Q750 951.0 746.5 955.5Q743 960.0 738 960.0Q734 960.0 731.0 955.5Q728 951.0 726 947.0Q725 942.0 723.5 935.5Q722 929.0 721 922.0Q720 908.0 719.5 898.0Q719 888.0 718 870.0Q717 848.0 717.0 812.0Q717 776.0 717 764.0V412.0ZM269 427.0Q280 443.0 293.0 461.0Q306 479.0 316 491.0Q327 504.0 339.5 518.5Q352 533.0 365 546.0Q377 558.0 390.5 568.5Q404 579.0 415 587.0Q426 594.0 436.5 599.5Q447 605.0 457 609.0Q463 617.0 471.0 629.0Q479 641.0 484 650.0Q492 663.0 499.5 676.5Q507 690.0 511 700.0Q517 713.0 524.0 732.0Q531 751.0 522 760.0Q517 765.0 508.5 764.5Q500 764.0 491 755.0Q477 741.0 461.5 723.0Q446 705.0 434 692.0Q417 672.0 400.5 652.5Q384 633.0 368 614.0Q353 597.0 336.5 577.0Q320 557.0 303 537.0Q292 523.0 277.0 504.5Q262 486.0 248 469.0Q238 489.0 227.0 510.5Q216 532.0 205 549.0Q191 571.0 176.5 593.5Q162 616.0 148 636.0Q132 658.0 118.0 677.0Q104 696.0 90 713.0Q74 733.0 59.0 751.0Q44 769.0 30 782.0Q20 791.0 12.0 784.5Q4 778.0 12 768.0Q26 751.0 38.5 732.0Q51 713.0 64 693.0Q75 676.0 89.0 654.0Q103 632.0 113 614.0Q124 595.0 136.5 572.5Q149 550.0 159 531.0Q169 512.0 179.5 491.5Q190 471.0 197 455.0Q205 438.0 213.5 416.0Q222 394.0 229 377.0Q235 363.0 242.5 339.5Q250 316.0 254 303.0Q259 287.0 264.0 272.0Q269 257.0 273 242.0Q277 228.0 281.5 210.5Q286 193.0 287 185.0Q286 180.0 279.5 173.5Q273 167.0 266 162.0Q259 157.0 249.0 150.5Q239 144.0 230 140.0Q226 138.0 219.0 134.0Q212 130.0 213 125.0Q214 120.0 218.5 117.5Q223 115.0 233 115.0Q238 115.0 249.5 117.5Q261 120.0 268 122.0Q276 124.0 285.5 127.0Q295 130.0 303 133.0Q311 136.0 321.0 140.0Q331 144.0 337 147.0Q345 151.0 350.0 155.5Q355 160.0 355 165.0Q354 175.0 348.5 197.5Q343 220.0 337 241.0Q332 258.0 321.5 291.0Q311 324.0 302 347.0Q294 368.0 286.0 388.0Q278 408.0 269 427.0Z"/>
  <path d="M1064 700.0Q1064 707.0 1063.5 714.0Q1063 721.0 1062 726.0Q1061 736.0 1058.5 745.5Q1056 755.0 1054 762.0Q1051 771.0 1046.5 775.5Q1042 780.0 1037 780.0Q1032 780.0 1028.0 772.0Q1024 764.0 1022 757.0Q1021 750.0 1019.5 739.0Q1018 728.0 1017 716.0Q1016 707.0 1015.5 679.5Q1015 652.0 1015 639.0V239.0Q1015 231.0 1011.5 224.5Q1008 218.0 1002 212.0Q998 207.0 990.5 202.5Q983 198.0 978 195.0Q972 192.0 966.0 189.0Q960 186.0 955 184.0Q950 182.0 943.5 179.0Q937 176.0 937 172.0Q937 166.0 944.0 163.0Q951 160.0 959 160.0Q964 160.0 980.0 162.5Q996 165.0 1008 168.0Q1018 170.0 1032.0 174.0Q1046 178.0 1056 182.0Q1064 185.0 1069.5 189.0Q1075 193.0 1075 198.0Q1075 202.0 1072.0 214.0Q1069 226.0 1069 239.0V352.0H1381V181.0Q1381 173.0 1377.0 166.0Q1373 159.0 1367 154.0Q1361 149.0 1353.0 144.0Q1345 139.0 1340 136.0Q1334 133.0 1327.5 130.0Q1321 127.0 1314 124.0Q1309 122.0 1302.5 119.0Q1296 116.0 1296 112.0Q1296 106.0 1303.0 103.0Q1310 100.0 1318 100.0Q1323 100.0 1338.5 102.0Q1354 104.0 1373 109.0Q1382 111.0 1397.0 115.5Q1412 120.0 1422 124.0Q1431 128.0 1436.5 132.0Q1442 136.0 1442 141.0Q1442 146.0 1438.5 156.5Q1435 167.0 1435 183.0V593.0Q1435 606.0 1434.5 626.0Q1434 646.0 1433 660.0Q1432 676.0 1431.0 695.5Q1430 715.0 1428 726.0Q1427 736.0 1424.5 745.5Q1422 755.0 1420 762.0Q1417 770.0 1413.0 775.0Q1409 780.0 1403 780.0Q1397 780.0 1393.5 772.0Q1390 764.0 1388 757.0Q1387 750.0 1385.5 737.5Q1384 725.0 1383 715.0Q1383 713.0 1382.5 708.5Q1382 704.0 1382 700.0ZM1381 667.0Q1381 657.0 1381.0 649.0Q1381 641.0 1381 636.0V385.0H1069V596.0Q1069 609.0 1068.5 629.0Q1068 649.0 1067 663.0Q1067 664.0 1067.0 664.5Q1067 665.0 1067 667.0H1381ZM1681 734.0Q1681 754.0 1680.0 783.5Q1679 813.0 1678 830.0Q1677 860.0 1675.0 880.5Q1673 901.0 1671 910.0Q1669 923.0 1666.5 932.0Q1664 941.0 1662 946.0Q1660 951.0 1656.5 955.5Q1653 960.0 1648 960.0Q1644 960.0 1641.0 955.5Q1638 951.0 1636 947.0Q1635 942.0 1633.5 935.5Q1632 929.0 1631 922.0Q1630 908.0 1629.5 898.0Q1629 888.0 1628 870.0Q1627 848.0 1627.0 812.0Q1627 776.0 1627 764.0V126.0Q1627 116.0 1625.0 108.0Q1623 100.0 1619 94.0Q1615 89.0 1610.0 83.5Q1605 78.0 1598 74.0Q1591 69.0 1583.5 65.0Q1576 61.0 1568 57.0Q1561 54.0 1552.5 50.5Q1544 47.0 1538 45.0Q1532 43.0 1525.5 40.0Q1519 37.0 1519 32.0Q1519 26.0 1527.0 23.0Q1535 20.0 1545 20.0Q1551 20.0 1569.5 22.5Q1588 25.0 1605 30.0Q1617 33.0 1633.0 37.5Q1649 42.0 1663 47.0Q1673 51.0 1681.5 56.0Q1690 61.0 1690 69.0Q1690 73.0 1688.0 78.5Q1686 84.0 1684 91.0Q1683 97.0 1682.0 107.0Q1681 117.0 1681 122.0Z"/>
  <path d="M2250 297.0Q2236 313.0 2218.0 329.5Q2200 346.0 2181 363.0Q2156 384.0 2127.5 404.5Q2099 425.0 2079 439.0Q2057 454.0 2029.5 470.5Q2002 487.0 1982 498.0Q1962 509.0 1934.0 522.5Q1906 536.0 1887 544.0Q1874 548.0 1868.5 539.5Q1863 531.0 1876 525.0Q1897 513.0 1924.0 495.5Q1951 478.0 1971 465.0Q1991 452.0 2014.0 434.0Q2037 416.0 2056 401.0Q2074 387.0 2097.5 367.0Q2121 347.0 2137 331.0Q2153 316.0 2169.0 299.5Q2185 283.0 2197 269.0Q2208 256.0 2221.5 238.5Q2235 221.0 2245 207.0Q2253 196.0 2263.0 179.5Q2273 163.0 2279 153.0Q2278 149.0 2272.0 142.5Q2266 136.0 2259 132.0Q2253 127.0 2245.0 123.5Q2237 120.0 2232 117.0Q2226 114.0 2218.0 109.5Q2210 105.0 2210 101.0Q2210 96.0 2216.0 92.5Q2222 89.0 2232 90.0Q2242 91.0 2255.0 94.0Q2268 97.0 2278 100.0Q2289 103.0 2301.0 107.0Q2313 111.0 2321 115.0Q2330 119.0 2341.0 125.5Q2352 132.0 2352 140.0Q2351 147.0 2345.5 159.0Q2340 171.0 2335 179.0Q2331 188.0 2322.5 201.0Q2314 214.0 2306 226.0Q2300 236.0 2291.5 246.5Q2283 257.0 2275 268.0Q2287 275.0 2301.0 284.0Q2315 293.0 2329 301.0Q2347 311.0 2368.5 323.0Q2390 335.0 2406 343.0Q2423 352.0 2447.5 360.5Q2472 369.0 2486 374.0Q2500 378.0 2519.0 381.5Q2538 385.0 2549 387.0Q2564 397.0 2581.5 409.5Q2599 422.0 2615 436.0Q2634 452.0 2648.0 470.0Q2662 488.0 2657 500.0Q2652 511.0 2641.0 510.0Q2630 509.0 2619 505.0Q2608 499.0 2588.5 489.0Q2569 479.0 2549 468.0Q2525 454.0 2500.5 441.5Q2476 429.0 2447 413.0Q2419 397.0 2393.5 383.0Q2368 369.0 2339 352.0Q2317 338.0 2293.5 324.0Q2270 310.0 2250 297.0ZM1859 800.0Q1871 801.0 1889.0 803.0Q1907 805.0 1923 806.0Q1949 807.0 1984.0 808.5Q2019 810.0 2057 810.0H2396Q2429 810.0 2448.5 809.5Q2468 809.0 2479 808.0Q2490 807.0 2506.5 805.0Q2523 803.0 2534 799.0Q2544 796.0 2551.5 792.0Q2559 788.0 2564 784.0Q2578 785.0 2591.5 785.5Q2605 786.0 2618 788.0Q2634 789.0 2648.0 791.5Q2662 794.0 2673 796.0Q2687 799.0 2696.0 806.0Q2705 813.0 2705 827.0Q2705 838.0 2699.5 845.5Q2694 853.0 2682 853.0Q2677 853.0 2659.5 851.5Q2642 850.0 2629 849.0Q2610 847.0 2577.5 846.0Q2545 845.0 2520 845.0H2168Q2132 845.0 2098.5 846.5Q2065 848.0 2051 850.0Q2038 851.0 2023.0 854.0Q2008 857.0 1998 860.0Q1990 862.0 1980.0 866.5Q1970 871.0 1962 875.0Q1960 875.0 1953.0 872.5Q1946 870.0 1941 868.0Q1934 865.0 1925.5 861.0Q1917 857.0 1906 852.0Q1897 847.0 1886.0 841.5Q1875 836.0 1867 831.0Q1860 826.0 1852.5 820.0Q1845 814.0 1845 809.0Q1845 804.0 1849.0 801.5Q1853 799.0 1859 800.0Z"/>
  <path d="M3299 170.0Q3307 165.0 3311.0 161.0Q3315 157.0 3316 154.0Q3316 149.0 3313.0 144.5Q3310 140.0 3305 136.0Q3301 132.0 3295.5 129.0Q3290 126.0 3290 123.0Q3290 118.0 3296.0 116.0Q3302 114.0 3307 115.0Q3313 116.0 3325.0 118.5Q3337 121.0 3345 124.0Q3351 126.0 3360.0 131.5Q3369 137.0 3369 144.0Q3368 149.0 3364.5 155.5Q3361 162.0 3356 168.0Q3382 169.0 3403.5 175.0Q3425 181.0 3438 186.0Q3458 195.0 3475.5 206.5Q3493 218.0 3509 235.0Q3526 253.0 3538.5 274.5Q3551 296.0 3559 317.0Q3569 341.0 3574.0 375.0Q3579 409.0 3579 437.0Q3579 465.0 3574.0 499.0Q3569 533.0 3559 557.0Q3551 578.0 3538.5 599.5Q3526 621.0 3509 639.0Q3493 655.0 3475.5 667.0Q3458 679.0 3438 688.0Q3423 695.0 3395.0 701.0Q3367 707.0 3335 707.0Q3304 707.0 3275.5 701.0Q3247 695.0 3232 688.0Q3212 679.0 3194.5 667.0Q3177 655.0 3161 639.0Q3144 621.0 3131.5 599.5Q3119 578.0 3111 557.0Q3101 533.0 3096.0 499.0Q3091 465.0 3091 437.0Q3091 409.0 3096.0 375.0Q3101 341.0 3111 317.0Q3119 296.0 3131.5 274.5Q3144 253.0 3161 235.0Q3177 218.0 3194.5 206.5Q3212 195.0 3232 186.0Q3243 181.0 3260.5 176.5Q3278 172.0 3299 170.0ZM3335 670.0Q3361 670.0 3383.5 664.5Q3406 659.0 3423 650.0Q3440 641.0 3455.0 628.0Q3470 615.0 3480 599.0Q3491 582.0 3499.0 563.5Q3507 545.0 3511 529.0Q3516 512.0 3519.0 485.0Q3522 458.0 3522 436.0Q3522 413.0 3519.0 386.0Q3516 359.0 3511 343.0Q3507 327.0 3499.0 308.0Q3491 289.0 3480 273.0Q3470 257.0 3455.0 244.0Q3440 231.0 3423 222.0Q3406 213.0 3383.5 207.5Q3361 202.0 3335 202.0Q3310 202.0 3287.0 207.5Q3264 213.0 3247 222.0Q3231 231.0 3216.0 244.0Q3201 257.0 3190 273.0Q3179 289.0 3171.5 308.0Q3164 327.0 3159 343.0Q3155 359.0 3151.5 386.0Q3148 413.0 3148 436.0Q3148 458.0 3151.5 485.0Q3155 512.0 3159 529.0Q3164 545.0 3171.5 563.5Q3179 582.0 3190 599.0Q3201 615.0 3216.0 628.0Q3231 641.0 3247 650.0Q3264 659.0 3287.0 664.5Q3310 670.0 3335 670.0ZM3801 734.0Q3801 754.0 3800.0 783.5Q3799 813.0 3798 830.0Q3797 860.0 3795.0 880.5Q3793 901.0 3791 910.0Q3789 923.0 3786.5 932.0Q3784 941.0 3782 946.0Q3780 951.0 3776.5 955.5Q3773 960.0 3768 960.0Q3764 960.0 3761.0 955.5Q3758 951.0 3756 947.0Q3755 942.0 3753.5 935.5Q3752 929.0 3751 922.0Q3750 908.0 3749.5 898.0Q3749 888.0 3748 870.0Q3747 848.0 3747.0 812.0Q3747 776.0 3747 764.0V126.0Q3747 116.0 3745.0 108.0Q3743 100.0 3739 94.0Q3735 89.0 3730.0 83.5Q3725 78.0 3718 74.0Q3711 69.0 3703.5 65.0Q3696 61.0 3688 57.0Q3681 54.0 3672.5 50.5Q3664 47.0 3658 45.0Q3652 43.0 3645.5 40.0Q3639 37.0 3639 32.0Q3639 26.0 3647.0 23.0Q3655 20.0 3665 20.0Q3671 20.0 3689.5 22.5Q3708 25.0 3725 30.0Q3737 33.0 3753.0 37.5Q3769 42.0 3783 47.0Q3793 51.0 3801.5 56.0Q3810 61.0 3810 69.0Q3810 73.0 3808.0 78.5Q3806 84.0 3804 91.0Q3803 97.0 3802.0 107.0Q3801 117.0 3801 122.0Z"/>
  <path d="M4202 442.0Q4200 437.0 4197.5 433.5Q4195 430.0 4190 427.0Q4186 424.0 4180.0 421.5Q4174 419.0 4168 417.0Q4162 415.0 4155.5 413.0Q4149 411.0 4149 407.0Q4149 399.0 4158.0 397.0Q4167 395.0 4171 395.0Q4176 395.0 4188.0 395.5Q4200 396.0 4210 398.0Q4217 399.0 4226.5 400.5Q4236 402.0 4242 404.0Q4247 405.0 4252.0 408.0Q4257 411.0 4258 419.0L4264 518.0H4525Q4528 518.0 4531.0 518.0Q4534 518.0 4536 518.0L4554 431.0Q4556 424.0 4554.0 420.5Q4552 417.0 4549 413.0Q4545 408.0 4540.5 405.0Q4536 402.0 4531 398.0Q4527 395.0 4521.5 391.5Q4516 388.0 4517 384.0Q4518 380.0 4521.5 378.5Q4525 377.0 4533 378.0Q4541 379.0 4548.0 381.0Q4555 383.0 4562 385.0Q4572 388.0 4582.0 392.0Q4592 396.0 4599 400.0Q4607 404.0 4613.5 410.0Q4620 416.0 4617 424.0L4574 518.0Q4591 517.0 4603.5 516.5Q4616 516.0 4623 515.0Q4633 513.0 4646.5 510.5Q4660 508.0 4667 504.0Q4672 502.0 4676.5 499.0Q4681 496.0 4685 493.0Q4699 494.0 4714.0 494.5Q4729 495.0 4745 497.0Q4761 498.0 4773.5 500.5Q4786 503.0 4796 505.0Q4806 507.0 4815.5 513.5Q4825 520.0 4825 534.0Q4825 544.0 4820.0 552.0Q4815 560.0 4801 559.0Q4791 558.0 4779.5 557.5Q4768 557.0 4757 556.0Q4745 555.0 4712.5 553.5Q4680 552.0 4653 552.0H4278Q4222 552.0 4179.0 556.0Q4136 560.0 4119 565.0Q4109 568.0 4099.5 571.5Q4090 575.0 4080 580.0Q4076 580.0 4062.5 574.5Q4049 569.0 4038 564.0Q4026 559.0 4014.0 552.5Q4002 546.0 3991 540.0Q3982 535.0 3973.5 528.5Q3965 522.0 3965 516.0Q3965 511.0 3969.5 508.5Q3974 506.0 3980 507.0Q3989 508.0 4004.0 510.0Q4019 512.0 4030 513.0Q4048 514.0 4089.0 516.0Q4130 518.0 4172 518.0H4226ZM4352 72.0Q4362 67.0 4365.5 62.0Q4369 57.0 4369 54.0Q4369 50.0 4365.5 45.0Q4362 40.0 4357 36.0Q4353 33.0 4347.5 29.0Q4342 25.0 4342 22.0Q4342 17.0 4348.5 15.5Q4355 14.0 4360 15.0Q4366 16.0 4377.0 18.5Q4388 21.0 4398 25.0Q4404 27.0 4413.0 32.5Q4422 38.0 4422 45.0Q4422 49.0 4418.0 56.0Q4414 63.0 4409 71.0Q4450 72.0 4486.0 76.0Q4522 80.0 4541 83.0Q4567 87.0 4592.0 96.5Q4617 106.0 4629 114.0Q4643 123.0 4655.0 134.0Q4667 145.0 4676 160.0Q4684 173.0 4688.5 191.5Q4693 210.0 4693 224.0Q4693 237.0 4688.5 255.5Q4684 274.0 4676 288.0Q4667 303.0 4655.0 314.0Q4643 325.0 4629 334.0Q4617 341.0 4592.0 350.5Q4567 360.0 4541 365.0Q4520 369.0 4477.5 373.5Q4435 378.0 4390 378.0Q4345 378.0 4302.5 373.5Q4260 369.0 4239 365.0Q4214 360.0 4188.5 350.5Q4163 341.0 4151 334.0Q4137 325.0 4125.0 314.0Q4113 303.0 4104 288.0Q4096 274.0 4091.5 256.0Q4087 238.0 4087 224.0Q4087 210.0 4091.5 191.5Q4096 173.0 4104 160.0Q4113 145.0 4125.0 134.0Q4137 123.0 4151 114.0Q4163 106.0 4188.5 96.5Q4214 87.0 4239 83.0Q4256 80.0 4286.5 76.5Q4317 73.0 4352 72.0ZM4390 344.0Q4426 344.0 4459.0 341.0Q4492 338.0 4511 334.0Q4534 329.0 4553.0 322.0Q4572 315.0 4585 308.0Q4598 300.0 4607.0 291.5Q4616 283.0 4622 273.0Q4628 262.0 4631.0 248.0Q4634 234.0 4634 224.0Q4634 213.0 4631.0 199.0Q4628 185.0 4622 175.0Q4616 165.0 4607.0 156.0Q4598 147.0 4585 140.0Q4572 132.0 4553.0 125.0Q4534 118.0 4511 114.0Q4492 110.0 4459.0 107.0Q4426 104.0 4390 104.0Q4354 104.0 4321.0 106.5Q4288 109.0 4269 113.0Q4247 117.0 4227.5 124.0Q4208 131.0 4195 139.0Q4182 146.0 4173.0 155.0Q4164 164.0 4158 174.0Q4152 184.0 4149.0 198.0Q4146 212.0 4146 223.0Q4146 233.0 4149.0 247.0Q4152 261.0 4158 272.0Q4164 282.0 4173.0 290.5Q4182 299.0 4195 307.0Q4208 314.0 4227.5 321.0Q4247 328.0 4269 333.0Q4288 337.0 4321.0 340.5Q4354 344.0 4390 344.0ZM4401 940.0Q4371 940.0 4329.5 937.0Q4288 934.0 4266 930.0Q4238 925.0 4211.0 917.0Q4184 909.0 4169 902.0Q4153 894.0 4139.5 883.5Q4126 873.0 4115 860.0Q4102 843.0 4096.5 821.5Q4091 800.0 4091 785.0Q4091 770.0 4096.5 748.5Q4102 727.0 4115 710.0Q4126 696.0 4139.5 685.5Q4153 675.0 4169 668.0Q4184 660.0 4211.0 652.5Q4238 645.0 4266 640.0Q4288 636.0 4329.5 633.0Q4371 630.0 4401 630.0Q4431 630.0 4472.5 633.0Q4514 636.0 4536 640.0Q4565 645.0 4591.5 652.5Q4618 660.0 4633 668.0Q4649 675.0 4663.0 685.5Q4677 696.0 4687 710.0Q4701 727.0 4706.0 748.5Q4711 770.0 4711 785.0Q4711 800.0 4706.0 821.5Q4701 843.0 4687 860.0Q4677 873.0 4663.0 883.5Q4649 894.0 4633 902.0Q4618 909.0 4591.5 917.0Q4565 925.0 4536 930.0Q4514 934.0 4472.5 937.0Q4431 940.0 4401 940.0ZM4401 904.0Q4442 904.0 4482.0 899.0Q4522 894.0 4545 888.0Q4568 882.0 4585.0 874.0Q4602 866.0 4612 859.0Q4622 852.0 4629.5 843.0Q4637 834.0 4641 826.0Q4646 818.0 4648.5 807.5Q4651 797.0 4651 784.0Q4651 771.0 4648.5 760.5Q4646 750.0 4641 742.0Q4637 734.0 4629.5 725.0Q4622 716.0 4612 709.0Q4602 701.0 4585.0 693.5Q4568 686.0 4545 680.0Q4522 674.0 4482.0 669.0Q4442 664.0 4401 664.0Q4360 664.0 4320.0 669.0Q4280 674.0 4257 680.0Q4235 686.0 4218.0 693.5Q4201 701.0 4190 709.0Q4180 716.0 4173.0 725.0Q4166 734.0 4161 742.0Q4157 750.0 4154.0 762.0Q4151 774.0 4151 784.0Q4151 797.0 4154.0 807.5Q4157 818.0 4161 826.0Q4166 834.0 4173.0 843.0Q4180 852.0 4190 859.0Q4201 866.0 4218.0 874.0Q4235 882.0 4257 888.0Q4280 894.0 4320.0 899.0Q4360 904.0 4401 904.0Z"/>
  <path d="M5399 148.0Q5386 148.0 5365.0 149.0Q5344 150.0 5333 152.0Q5324 153.0 5314.5 155.5Q5305 158.0 5299 161.0Q5294 163.0 5287.5 167.0Q5281 171.0 5276 174.0Q5273 174.0 5264.0 169.5Q5255 165.0 5246 161.0Q5233 154.0 5221.0 147.5Q5209 141.0 5201 136.0Q5195 132.0 5187.5 126.5Q5180 121.0 5180 115.0Q5180 110.0 5184.0 108.0Q5188 106.0 5194 107.0Q5200 108.0 5212.5 109.5Q5225 111.0 5234 112.0Q5244 113.0 5274.0 114.5Q5304 116.0 5331 116.0H5482Q5504 116.0 5526.5 115.0Q5549 114.0 5564 110.0Q5574 108.0 5584.0 102.0Q5594 96.0 5597 93.0Q5608 94.0 5619.0 94.5Q5630 95.0 5645 97.0Q5654 98.0 5663.5 99.5Q5673 101.0 5683 103.0Q5692 105.0 5700.0 111.5Q5708 118.0 5708 132.0Q5708 142.0 5703.0 148.0Q5698 154.0 5688 154.0Q5684 154.0 5671.5 153.0Q5659 152.0 5649 151.0Q5639 150.0 5608.5 149.0Q5578 148.0 5562 148.0H5454Q5460 153.0 5465.5 158.0Q5471 163.0 5476 168.0Q5484 175.0 5495.5 182.0Q5507 189.0 5509 194.0Q5506 206.0 5501.0 218.5Q5496 231.0 5492 239.0Q5487 249.0 5481.5 259.5Q5476 270.0 5470 281.0Q5466 288.0 5461.0 296.5Q5456 305.0 5449 314.0Q5462 325.0 5476.0 336.5Q5490 348.0 5500 356.0Q5511 364.0 5524.0 373.5Q5537 383.0 5549 391.0Q5562 399.0 5578.5 407.0Q5595 415.0 5605 419.0Q5615 423.0 5624.5 424.5Q5634 426.0 5644 428.0Q5656 438.0 5668.5 451.0Q5681 464.0 5693 478.0Q5710 497.0 5719.0 514.0Q5728 531.0 5720 542.0Q5715 549.0 5706.5 548.5Q5698 548.0 5688 542.0Q5678 535.0 5663.5 525.0Q5649 515.0 5635 505.0Q5619 494.0 5599.0 479.0Q5579 464.0 5559 449.0Q5539 434.0 5521.0 420.5Q5503 407.0 5486 393.0Q5474 383.0 5458.0 370.0Q5442 357.0 5427 346.0Q5418 358.0 5407.5 371.0Q5397 384.0 5387 395.0Q5371 413.0 5352.5 431.5Q5334 450.0 5319 464.0Q5301 480.0 5282.5 495.5Q5264 511.0 5247 524.0Q5231 537.0 5215.0 548.5Q5199 560.0 5184 570.0Q5174 574.0 5167.5 569.0Q5161 564.0 5170 554.0Q5183 543.0 5197.5 529.0Q5212 515.0 5226 501.0Q5240 487.0 5254.0 472.0Q5268 457.0 5281 442.0Q5292 429.0 5307.5 410.5Q5323 392.0 5336 375.0Q5347 361.0 5360.5 341.5Q5374 322.0 5384 307.0Q5393 293.0 5402.5 276.0Q5412 259.0 5419 247.0Q5426 235.0 5432.5 220.0Q5439 205.0 5443 194.0Q5442 186.0 5436.0 173.0Q5430 160.0 5422 148.0ZM5849 736.0 5860 725.0V620.0H5589Q5564 620.0 5534.5 621.0Q5505 622.0 5491 624.0Q5479 625.0 5467.5 627.5Q5456 630.0 5448 633.0Q5441 636.0 5436.0 639.0Q5431 642.0 5426 645.0Q5423 645.0 5416.0 642.5Q5409 640.0 5403 638.0Q5397 636.0 5389.0 632.5Q5381 629.0 5373 625.0Q5365 621.0 5355.5 616.5Q5346 612.0 5340 608.0Q5334 604.0 5326.5 598.5Q5319 593.0 5319 588.0Q5319 583.0 5323.5 581.0Q5328 579.0 5332 580.0Q5339 581.0 5349.5 582.0Q5360 583.0 5370 584.0Q5380 585.0 5414.0 586.5Q5448 588.0 5503 588.0H5844L5863 575.0Q5874 576.0 5886.5 576.5Q5899 577.0 5911 579.0Q5922 580.0 5927.0 583.5Q5932 587.0 5932 593.0Q5932 599.0 5927.5 608.0Q5923 617.0 5919 628.0L5900 726.0Q5935 747.0 5926.5 757.0Q5918 767.0 5906 767.0H5440V867.0Q5440 884.0 5450.0 891.0Q5460 898.0 5487 898.0H5735Q5769 898.0 5787.5 896.0Q5806 894.0 5816 891.0Q5826 888.0 5835.5 882.5Q5845 877.0 5850 872.0Q5870 873.0 5889.5 874.0Q5909 875.0 5927 877.0Q5958 880.0 5974.0 887.0Q5990 894.0 5990 911.0Q5990 919.0 5984.5 924.5Q5979 930.0 5965 930.0H5477Q5442 930.0 5413.5 920.0Q5385 910.0 5385 866.0V786.0Q5385 778.0 5379.0 771.5Q5373 765.0 5364 761.0Q5357 757.0 5346.0 754.0Q5335 751.0 5328 750.0Q5321 748.0 5313.5 746.5Q5306 745.0 5306 741.0Q5306 732.0 5318.0 727.5Q5330 723.0 5346 723.0Q5372 723.0 5404.0 725.5Q5436 728.0 5445 736.0ZM5817 307.0Q5785 307.0 5763.0 310.0Q5741 313.0 5727 318.0Q5718 321.0 5709.0 325.0Q5700 329.0 5693 334.0Q5689 334.0 5678.5 329.0Q5668 324.0 5658 319.0Q5649 314.0 5639.5 308.0Q5630 302.0 5622 297.0Q5616 293.0 5608.0 286.5Q5600 280.0 5600 276.0Q5600 271.0 5604.0 268.5Q5608 266.0 5614 267.0Q5627 268.0 5639.0 269.5Q5651 271.0 5661 272.0Q5673 273.0 5698.0 274.0Q5723 275.0 5751 275.0H5867V125.0Q5867 115.0 5864.5 106.5Q5862 98.0 5858 93.0Q5854 88.0 5849.0 83.0Q5844 78.0 5838 74.0Q5831 69.0 5822.5 64.5Q5814 60.0 5808 57.0Q5801 54.0 5793.0 50.5Q5785 47.0 5779 45.0Q5774 43.0 5767.0 40.0Q5760 37.0 5760 32.0Q5760 26.0 5768.0 23.0Q5776 20.0 5786 20.0Q5792 20.0 5812.0 23.0Q5832 26.0 5848 30.0Q5861 33.0 5874.5 37.0Q5888 41.0 5902 46.0Q5912 50.0 5921.0 55.0Q5930 60.0 5930 68.0Q5930 72.0 5928.0 78.0Q5926 84.0 5924 91.0Q5923 97.0 5922.0 107.0Q5921 117.0 5921 122.0V368.0Q5921 382.0 5920.5 398.5Q5920 415.0 5919 429.0Q5918 445.0 5917.0 462.5Q5916 480.0 5915 486.0Q5914 493.0 5912.5 506.0Q5911 519.0 5909 525.0Q5908 532.0 5905.0 539.0Q5902 546.0 5900 550.0Q5898 554.0 5894.5 556.5Q5891 559.0 5889 559.0Q5886 559.0 5883.0 556.5Q5880 554.0 5878 550.0Q5876 545.0 5874.5 539.0Q5873 533.0 5872 527.0Q5871 522.0 5870.5 514.5Q5870 507.0 5869 494.0Q5868 478.0 5867.5 453.5Q5867 429.0 5867 415.0V307.0Z"/>
  <path d="M6309 328.0Q6296 328.0 6275.0 329.0Q6254 330.0 6243 332.0Q6234 333.0 6224.5 335.5Q6215 338.0 6209 341.0Q6204 343.0 6197.5 347.0Q6191 351.0 6186 354.0Q6183 354.0 6174.0 349.5Q6165 345.0 6156 341.0Q6143 334.0 6131.0 327.5Q6119 321.0 6111 316.0Q6105 312.0 6097.5 306.5Q6090 301.0 6090 295.0Q6090 290.0 6094.0 288.0Q6098 286.0 6104 287.0Q6110 288.0 6122.5 289.5Q6135 291.0 6144 292.0Q6154 293.0 6184.0 294.5Q6214 296.0 6241 296.0H6401Q6423 296.0 6445.5 295.0Q6468 294.0 6483 290.0Q6493 288.0 6503.0 282.0Q6513 276.0 6516 273.0Q6527 274.0 6538.0 274.5Q6549 275.0 6564 277.0Q6573 278.0 6582.0 279.5Q6591 281.0 6601 283.0Q6610 285.0 6618.5 291.5Q6627 298.0 6627 312.0Q6627 322.0 6622.0 328.0Q6617 334.0 6607 334.0Q6603 334.0 6590.5 333.0Q6578 332.0 6568 331.0Q6558 330.0 6527.5 329.0Q6497 328.0 6481 328.0H6365Q6371 334.0 6376.5 339.5Q6382 345.0 6387 350.0Q6396 358.0 6408.5 366.5Q6421 375.0 6423 380.0Q6421 390.0 6416.5 402.5Q6412 415.0 6407 425.0Q6403 435.0 6397.0 448.0Q6391 461.0 6384 474.0Q6382 479.0 6379.0 484.5Q6376 490.0 6373 495.0Q6384 507.0 6395.0 519.0Q6406 531.0 6416 542.0Q6428 554.0 6441.0 566.5Q6454 579.0 6467 590.0Q6479 600.0 6495.0 610.5Q6511 621.0 6522 627.0Q6530 631.0 6542.5 636.0Q6555 641.0 6565 644.0Q6577 658.0 6591.0 675.0Q6605 692.0 6614 706.0Q6628 727.0 6639.0 750.0Q6650 773.0 6639 785.0Q6632 792.0 6623.5 788.0Q6615 784.0 6607 780.0Q6597 772.0 6582.0 758.0Q6567 744.0 6553 730.0Q6537 714.0 6516.5 694.5Q6496 675.0 6478 658.0Q6458 638.0 6440.5 621.0Q6423 604.0 6406 587.0Q6393 574.0 6379.0 559.0Q6365 544.0 6352 531.0Q6342 547.0 6328.0 568.0Q6314 589.0 6302 604.0Q6286 625.0 6265.5 648.5Q6245 672.0 6228 689.0Q6210 708.0 6189.5 727.0Q6169 746.0 6155 759.0Q6139 772.0 6122.5 787.0Q6106 802.0 6092 811.0Q6080 818.0 6074.0 811.5Q6068 805.0 6077 795.0Q6089 784.0 6104.0 767.5Q6119 751.0 6133 735.0Q6145 721.0 6160.5 703.5Q6176 686.0 6189 669.0Q6201 654.0 6220.5 628.0Q6240 602.0 6252 584.0Q6262 569.0 6275.5 546.5Q6289 524.0 6299 507.0Q6307 493.0 6317.0 473.0Q6327 453.0 6334 439.0Q6339 428.0 6346.0 411.0Q6353 394.0 6357 382.0Q6355 372.0 6349.0 357.0Q6343 342.0 6335 328.0ZM6292 168.0Q6272 168.0 6255.0 162.5Q6238 157.0 6225 150.0Q6215 144.0 6203.5 133.5Q6192 123.0 6192 116.0Q6192 110.0 6196.5 108.0Q6201 106.0 6205 108.0Q6210 109.0 6219.0 112.0Q6228 115.0 6237 117.0Q6249 120.0 6269.0 122.5Q6289 125.0 6321 125.0H6374Q6396 125.0 6409.0 122.0Q6422 119.0 6429 112.0Q6442 113.0 6455.5 114.0Q6469 115.0 6479 117.0Q6491 119.0 6503.0 124.5Q6515 130.0 6515 146.0Q6515 156.0 6508.0 162.0Q6501 168.0 6489 168.0ZM6809 469.0Q6820 469.0 6830.0 466.5Q6840 464.0 6849 458.0Q6856 453.0 6861.0 448.0Q6866 443.0 6868 439.0Q6879 440.0 6893.5 441.0Q6908 442.0 6918 444.0Q6935 446.0 6947.5 453.5Q6960 461.0 6960 477.0Q6960 490.0 6953.5 495.5Q6947 501.0 6935 501.0H6796V734.0Q6796 754.0 6795.0 783.5Q6794 813.0 6793 830.0Q6792 860.0 6790.0 880.5Q6788 901.0 6786 910.0Q6784 923.0 6781.5 932.0Q6779 941.0 6777 946.0Q6775 951.0 6771.5 955.5Q6768 960.0 6763 960.0Q6759 960.0 6756.0 955.5Q6753 951.0 6751 947.0Q6750 942.0 6748.5 935.5Q6747 929.0 6746 922.0Q6745 908.0 6744.5 898.0Q6744 888.0 6743 870.0Q6742 848.0 6742.0 812.0Q6742 776.0 6742 764.0V126.0Q6742 116.0 6740.0 108.0Q6738 100.0 6734 94.0Q6730 89.0 6725.0 83.5Q6720 78.0 6713 74.0Q6706 69.0 6698.5 65.0Q6691 61.0 6683 57.0Q6676 54.0 6667.5 50.5Q6659 47.0 6653 45.0Q6647 43.0 6640.5 40.0Q6634 37.0 6634 32.0Q6634 26.0 6642.0 23.0Q6650 20.0 6660 20.0Q6666 20.0 6684.5 22.5Q6703 25.0 6720 30.0Q6732 33.0 6748.0 37.5Q6764 42.0 6778 47.0Q6788 51.0 6796.5 56.0Q6805 61.0 6805 69.0Q6805 73.0 6803.0 78.5Q6801 84.0 6799 91.0Q6798 97.0 6797.0 107.0Q6796 117.0 6796 122.0V469.0Z"/>
  <path d="M7779 757.0Q7789 762.0 7799.0 767.0Q7809 772.0 7817 777.0Q7831 784.0 7849.0 792.5Q7867 801.0 7882 807.0Q7897 813.0 7916.5 819.0Q7936 825.0 7950 828.0Q7964 831.0 7980.0 832.5Q7996 834.0 8006 835.0Q8024 846.0 8040.0 857.0Q8056 868.0 8074 882.0Q8091 895.0 8105.0 910.5Q8119 926.0 8114 937.0Q8110 945.0 8102.0 946.0Q8094 947.0 8080 943.0Q8063 935.0 8041.0 925.0Q8019 915.0 8000 906.0Q7980 896.0 7955.5 884.0Q7931 872.0 7912 863.0Q7890 852.0 7868.5 841.0Q7847 830.0 7827 820.0Q7810 812.0 7791.0 801.0Q7772 790.0 7753 780.0Q7744 788.0 7732.0 798.0Q7720 808.0 7708 816.0Q7692 827.0 7673.0 838.0Q7654 849.0 7636 859.0Q7616 869.0 7593.5 879.0Q7571 889.0 7554 896.0Q7532 905.0 7509.5 913.0Q7487 921.0 7470 927.0Q7452 933.0 7429.0 939.0Q7406 945.0 7386 950.0Q7373 951.0 7369.5 943.5Q7366 936.0 7379 932.0Q7395 926.0 7414.0 918.0Q7433 910.0 7450 903.0Q7466 896.0 7483.5 888.0Q7501 880.0 7519 871.0Q7535 863.0 7551.0 854.5Q7567 846.0 7582 837.0Q7594 829.0 7608.5 820.5Q7623 812.0 7636 803.0Q7646 796.0 7658.5 787.0Q7671 778.0 7681 771.0Q7689 764.0 7698.0 756.5Q7707 749.0 7716 741.0Q7724 733.0 7732.0 725.0Q7740 717.0 7744 712.0Q7743 707.0 7739.0 698.0Q7735 689.0 7729 681.0H7652Q7608 681.0 7581.5 685.0Q7555 689.0 7541 694.0Q7534 696.0 7526.0 700.0Q7518 704.0 7513 707.0Q7509 707.0 7499.0 703.0Q7489 699.0 7478 695.0Q7466 690.0 7452.5 683.5Q7439 677.0 7428 670.0Q7421 665.0 7413.0 659.0Q7405 653.0 7405 649.0Q7405 644.0 7409.5 641.5Q7414 639.0 7418 640.0Q7426 641.0 7438.0 642.5Q7450 644.0 7460 645.0Q7471 646.0 7503.0 647.5Q7535 649.0 7569 649.0H7812Q7845 649.0 7874.5 647.5Q7904 646.0 7918 643.0Q7930 641.0 7942.0 636.0Q7954 631.0 7959 627.0Q7973 628.0 7989.0 629.0Q8005 630.0 8018 632.0Q8029 633.0 8043.0 635.5Q8057 638.0 8067 642.0Q8074 644.0 8079.5 650.0Q8085 656.0 8085 667.0Q8085 676.0 8080.0 681.5Q8075 687.0 8064 687.0Q8059 687.0 8047.0 686.0Q8035 685.0 8024 684.0Q8009 683.0 7975.0 682.0Q7941 681.0 7923 681.0H7758Q7772 694.0 7787.5 704.5Q7803 715.0 7807 720.0Q7807 723.0 7800.5 730.5Q7794 738.0 7789 745.0Q7787 748.0 7784.5 750.5Q7782 753.0 7779 757.0ZM7676 578.0Q7657 578.0 7640.0 573.0Q7623 568.0 7609 560.0Q7599 554.0 7588.0 545.0Q7577 536.0 7577 529.0Q7577 524.0 7581.5 522.0Q7586 520.0 7591 522.0Q7598 524.0 7605.5 526.5Q7613 529.0 7623 531.0Q7633 533.0 7653.5 535.5Q7674 538.0 7699 538.0H7772Q7793 538.0 7807.0 535.0Q7821 532.0 7828 525.0Q7841 526.0 7856.0 527.0Q7871 528.0 7881 530.0Q7893 531.0 7905.0 537.0Q7917 543.0 7917 557.0Q7917 568.0 7910.5 573.0Q7904 578.0 7892 578.0ZM8041 362.0Q8041 376.0 8040.5 392.5Q8040 409.0 8039 423.0Q8038 439.0 8037.0 456.5Q8036 474.0 8035 480.0Q8034 487.0 8032.5 500.0Q8031 513.0 8029 519.0Q8028 526.0 8025.0 533.0Q8022 540.0 8020 544.0Q8018 548.0 8014.5 550.5Q8011 553.0 8009 553.0Q8006 553.0 8003.0 550.5Q8000 548.0 7998 544.0Q7996 539.0 7994.5 533.0Q7993 527.0 7992 521.0Q7991 516.0 7990.5 508.5Q7990 501.0 7989 488.0Q7988 472.0 7987.5 448.5Q7987 425.0 7987 411.0V125.0Q7987 115.0 7984.5 106.5Q7982 98.0 7978 93.0Q7974 88.0 7969.0 83.0Q7964 78.0 7958 74.0Q7951 69.0 7942.5 64.5Q7934 60.0 7928 57.0Q7921 54.0 7913.0 50.5Q7905 47.0 7899 45.0Q7894 43.0 7887.0 40.0Q7880 37.0 7880 32.0Q7880 26.0 7888.0 23.0Q7896 20.0 7906 20.0Q7912 20.0 7932.0 23.0Q7952 26.0 7968 30.0Q7981 33.0 7994.5 37.0Q8008 41.0 8022 46.0Q8032 50.0 8041.0 55.0Q8050 60.0 8050 68.0Q8050 72.0 8048.0 78.0Q8046 84.0 8044 91.0Q8043 97.0 8042.0 107.0Q8041 117.0 8041 122.0ZM7432 470.0Q7432 478.0 7431.5 483.0Q7431 488.0 7430 493.0Q7429 499.0 7427.5 506.5Q7426 514.0 7424 518.0Q7423 522.0 7419.5 526.0Q7416 530.0 7412 530.0Q7408 530.0 7405.0 527.0Q7402 524.0 7400 520.0Q7399 517.0 7397.0 510.5Q7395 504.0 7393 496.0Q7392 487.0 7390.5 474.5Q7389 462.0 7388 452.0Q7387 441.0 7386.5 429.5Q7386 418.0 7385 400.0L7375 161.0Q7374 153.0 7371.0 148.0Q7368 143.0 7363 139.0Q7360 137.0 7353.5 134.0Q7347 131.0 7342 130.0Q7338 128.0 7330.5 126.5Q7323 125.0 7319 124.0Q7315 123.0 7308.0 121.5Q7301 120.0 7301 113.0Q7301 108.0 7306.5 104.0Q7312 100.0 7316 99.0Q7321 97.0 7330.0 96.0Q7339 95.0 7346 95.0Q7354 95.0 7367.0 95.5Q7380 96.0 7393 98.0Q7401 99.0 7412.5 101.0Q7424 103.0 7430 105.0Q7433 106.0 7435.0 107.5Q7437 109.0 7438 112.0H7718L7739 98.0Q7747 98.0 7757.5 98.5Q7768 99.0 7782 101.0Q7796 102.0 7802.0 106.0Q7808 110.0 7808 115.0Q7808 119.0 7806.0 125.0Q7804 131.0 7802 136.0Q7801 140.0 7799.0 147.0Q7797 154.0 7796 159.0L7773 429.0Q7781 433.0 7792.0 440.5Q7803 448.0 7803 456.0Q7803 463.0 7799.0 466.5Q7795 470.0 7784 470.0H7432ZM7435 394.0Q7435 401.0 7435.0 413.5Q7435 426.0 7434 438.0H7719L7734 425.0V144.0H7435Z"/>
  <path d="M749 1819.0Q760 1819.0 770.0 1816.5Q780 1814.0 789 1808.0Q796 1803.0 801.0 1798.0Q806 1793.0 808 1789.0Q819 1790.0 833.5 1791.0Q848 1792.0 858 1794.0Q875 1796.0 887.5 1803.5Q900 1811.0 900 1827.0Q900 1840.0 893.5 1845.5Q887 1851.0 875 1851.0H736V2084.0Q736 2104.0 735.0 2133.5Q734 2163.0 733 2180.0Q732 2210.0 730.0 2230.5Q728 2251.0 726 2260.0Q724 2273.0 721.5 2282.0Q719 2291.0 717 2296.0Q715 2301.0 711.5 2305.5Q708 2310.0 703 2310.0Q699 2310.0 696.0 2305.5Q693 2301.0 691 2297.0Q690 2292.0 688.5 2285.5Q687 2279.0 686 2272.0Q685 2258.0 684.5 2248.0Q684 2238.0 683 2220.0Q682 2198.0 682.0 2162.0Q682 2126.0 682 2114.0V1468.0Q682 1463.0 680.0 1456.5Q678 1450.0 674 1445.0Q670 1440.0 665.0 1434.5Q660 1429.0 653 1425.0Q646 1420.0 638.0 1415.5Q630 1411.0 622 1407.0Q615 1404.0 607.0 1400.5Q599 1397.0 593 1395.0Q587 1393.0 580.5 1390.0Q574 1387.0 574 1382.0Q574 1376.0 582.0 1373.0Q590 1370.0 600 1370.0Q606 1370.0 626.5 1373.0Q647 1376.0 662 1380.0Q674 1383.0 689.0 1387.5Q704 1392.0 718 1397.0Q728 1401.0 736.5 1406.0Q745 1411.0 745 1419.0Q745 1423.0 743.0 1428.5Q741 1434.0 739 1441.0Q738 1447.0 737.0 1457.0Q736 1467.0 736 1472.0V1819.0ZM510 1561.0Q506 1580.0 499.0 1601.0Q492 1622.0 486 1638.0Q479 1655.0 469.0 1680.0Q459 1705.0 451 1722.0Q442 1741.0 429.0 1764.5Q416 1788.0 402 1808.0Q386 1833.0 367.0 1858.5Q348 1884.0 328 1907.0Q309 1929.0 289.5 1948.0Q270 1967.0 250 1986.0Q225 2009.0 198.5 2030.0Q172 2051.0 152 2066.0Q130 2083.0 99.5 2104.0Q69 2125.0 44 2140.0Q31 2145.0 25.5 2139.5Q20 2134.0 30 2124.0Q49 2109.0 75.5 2086.5Q102 2064.0 124 2045.0Q144 2027.0 166.5 2005.0Q189 1983.0 208 1963.0Q227 1943.0 248.0 1919.0Q269 1895.0 285 1876.0Q300 1857.0 317.5 1832.0Q335 1807.0 347 1788.0Q358 1770.0 371.0 1747.0Q384 1724.0 393 1707.0Q401 1692.0 410.0 1670.0Q419 1648.0 426 1630.0Q433 1612.0 438.5 1593.0Q444 1574.0 448 1558.0H316Q291 1558.0 265.0 1559.0Q239 1560.0 222 1562.0Q211 1563.0 199.5 1566.0Q188 1569.0 181 1571.0Q175 1573.0 167.5 1576.0Q160 1579.0 154 1583.0Q152 1583.0 145.5 1580.5Q139 1578.0 134 1576.0Q128 1574.0 120.5 1570.5Q113 1567.0 105 1563.0Q95 1558.0 87.0 1553.5Q79 1549.0 71 1545.0Q64 1541.0 57.0 1535.0Q50 1529.0 50 1525.0Q50 1520.0 54.0 1517.5Q58 1515.0 63 1516.0Q74 1517.0 82.0 1518.0Q90 1519.0 100 1520.0Q118 1521.0 150.5 1523.0Q183 1525.0 226 1525.0H437L457 1511.0Q468 1512.0 478.0 1512.5Q488 1513.0 500 1515.0Q511 1516.0 518.0 1518.5Q525 1521.0 525 1529.0Q525 1535.0 520.5 1541.5Q516 1548.0 510 1561.0Z"/>
  <path d="M1179 1520.0Q1187 1515.0 1191.0 1511.0Q1195 1507.0 1196 1504.0Q1196 1499.0 1193.0 1494.5Q1190 1490.0 1185 1486.0Q1181 1482.0 1175.5 1479.0Q1170 1476.0 1170 1473.0Q1170 1468.0 1176.0 1466.0Q1182 1464.0 1187 1465.0Q1193 1466.0 1205.0 1468.5Q1217 1471.0 1225 1474.0Q1231 1476.0 1240.0 1481.5Q1249 1487.0 1249 1494.0Q1248 1499.0 1244.5 1505.5Q1241 1512.0 1236 1518.0Q1262 1519.0 1283.5 1525.0Q1305 1531.0 1318 1536.0Q1338 1545.0 1355.5 1556.5Q1373 1568.0 1389 1585.0Q1406 1603.0 1418.5 1624.5Q1431 1646.0 1439 1667.0Q1449 1691.0 1454.0 1725.0Q1459 1759.0 1459 1787.0Q1459 1815.0 1454.0 1849.0Q1449 1883.0 1439 1907.0Q1431 1928.0 1418.5 1949.5Q1406 1971.0 1389 1989.0Q1373 2005.0 1355.5 2017.0Q1338 2029.0 1318 2038.0Q1303 2045.0 1275.0 2051.0Q1247 2057.0 1215 2057.0Q1184 2057.0 1155.5 2051.0Q1127 2045.0 1112 2038.0Q1092 2029.0 1074.5 2017.0Q1057 2005.0 1041 1989.0Q1024 1971.0 1011.5 1949.5Q999 1928.0 991 1907.0Q981 1883.0 976.0 1849.0Q971 1815.0 971 1787.0Q971 1759.0 976.0 1725.0Q981 1691.0 991 1667.0Q999 1646.0 1011.5 1624.5Q1024 1603.0 1041 1585.0Q1057 1568.0 1074.5 1556.5Q1092 1545.0 1112 1536.0Q1123 1531.0 1140.5 1526.5Q1158 1522.0 1179 1520.0ZM1215 2020.0Q1241 2020.0 1263.5 2014.5Q1286 2009.0 1303 2000.0Q1320 1991.0 1335.0 1978.0Q1350 1965.0 1360 1949.0Q1371 1932.0 1379.0 1913.5Q1387 1895.0 1391 1879.0Q1396 1862.0 1399.0 1835.0Q1402 1808.0 1402 1786.0Q1402 1763.0 1399.0 1736.0Q1396 1709.0 1391 1693.0Q1387 1677.0 1379.0 1658.0Q1371 1639.0 1360 1623.0Q1350 1607.0 1335.0 1594.0Q1320 1581.0 1303 1572.0Q1286 1563.0 1263.5 1557.5Q1241 1552.0 1215 1552.0Q1190 1552.0 1167.0 1557.5Q1144 1563.0 1127 1572.0Q1111 1581.0 1096.0 1594.0Q1081 1607.0 1070 1623.0Q1059 1639.0 1051.5 1658.0Q1044 1677.0 1039 1693.0Q1035 1709.0 1031.5 1736.0Q1028 1763.0 1028 1786.0Q1028 1808.0 1031.5 1835.0Q1035 1862.0 1039 1879.0Q1044 1895.0 1051.5 1913.5Q1059 1932.0 1070 1949.0Q1081 1965.0 1096.0 1978.0Q1111 1991.0 1127 2000.0Q1144 2009.0 1167.0 2014.5Q1190 2020.0 1215 2020.0ZM1681 2084.0Q1681 2104.0 1680.0 2133.5Q1679 2163.0 1678 2180.0Q1677 2210.0 1675.0 2230.5Q1673 2251.0 1671 2260.0Q1669 2273.0 1666.5 2282.0Q1664 2291.0 1662 2296.0Q1660 2301.0 1656.5 2305.5Q1653 2310.0 1648 2310.0Q1644 2310.0 1641.0 2305.5Q1638 2301.0 1636 2297.0Q1635 2292.0 1633.5 2285.5Q1632 2279.0 1631 2272.0Q1630 2258.0 1629.5 2248.0Q1629 2238.0 1628 2220.0Q1627 2198.0 1627.0 2162.0Q1627 2126.0 1627 2114.0V1476.0Q1627 1466.0 1625.0 1458.0Q1623 1450.0 1619 1444.0Q1615 1439.0 1610.0 1433.5Q1605 1428.0 1598 1424.0Q1591 1419.0 1583.5 1415.0Q1576 1411.0 1568 1407.0Q1561 1404.0 1552.5 1400.5Q1544 1397.0 1538 1395.0Q1532 1393.0 1525.5 1390.0Q1519 1387.0 1519 1382.0Q1519 1376.0 1527.0 1373.0Q1535 1370.0 1545 1370.0Q1551 1370.0 1569.5 1372.5Q1588 1375.0 1605 1380.0Q1617 1383.0 1633.0 1387.5Q1649 1392.0 1663 1397.0Q1673 1401.0 1681.5 1406.0Q1690 1411.0 1690 1419.0Q1690 1423.0 1688.0 1428.5Q1686 1434.0 1684 1441.0Q1683 1447.0 1682.0 1457.0Q1681 1467.0 1681 1472.0Z"/>
  <path d="M2046 1530.0V1839.0Q2046 1861.0 2061.5 1870.5Q2077 1880.0 2103 1880.0H2344Q2373 1880.0 2392.0 1878.5Q2411 1877.0 2424 1873.0Q2435 1870.0 2444.5 1864.5Q2454 1859.0 2459 1853.0Q2479 1854.0 2500.0 1855.0Q2521 1856.0 2546 1858.0Q2581 1861.0 2593.0 1869.5Q2605 1878.0 2605 1895.0Q2605 1904.0 2599.5 1909.5Q2594 1915.0 2580 1915.0H2093Q2059 1915.0 2024.5 1901.5Q1990 1888.0 1990 1838.0V1547.0Q1990 1537.0 1984.0 1530.0Q1978 1523.0 1970 1519.0Q1961 1514.0 1949.0 1511.0Q1937 1508.0 1926 1506.0Q1920 1504.0 1912.0 1501.5Q1904 1499.0 1904 1495.0Q1904 1487.0 1917.0 1482.0Q1930 1477.0 1944 1477.0Q1963 1477.0 1987.5 1479.0Q2012 1481.0 2025 1483.0Q2033 1484.0 2042.0 1487.5Q2051 1491.0 2054 1495.0H2335Q2364 1495.0 2384.0 1493.0Q2404 1491.0 2415 1487.0Q2426 1483.0 2434.5 1478.5Q2443 1474.0 2449 1468.0Q2468 1469.0 2489.0 1469.5Q2510 1470.0 2530 1472.0Q2562 1474.0 2576.0 1483.0Q2590 1492.0 2590 1507.0Q2590 1517.0 2583.5 1523.5Q2577 1530.0 2565 1530.0ZM1859 2150.0Q1871 2151.0 1889.0 2153.0Q1907 2155.0 1923 2156.0Q1949 2157.0 1984.0 2158.5Q2019 2160.0 2057 2160.0H2396Q2429 2160.0 2448.5 2159.5Q2468 2159.0 2479 2158.0Q2490 2157.0 2506.5 2155.0Q2523 2153.0 2534 2149.0Q2544 2146.0 2551.5 2142.0Q2559 2138.0 2564 2134.0Q2578 2135.0 2591.5 2135.5Q2605 2136.0 2618 2138.0Q2634 2139.0 2648.0 2141.5Q2662 2144.0 2673 2146.0Q2687 2149.0 2696.0 2156.0Q2705 2163.0 2705 2177.0Q2705 2188.0 2699.5 2195.5Q2694 2203.0 2682 2203.0Q2677 2203.0 2659.5 2201.5Q2642 2200.0 2629 2199.0Q2610 2197.0 2577.5 2196.0Q2545 2195.0 2520 2195.0H2168Q2132 2195.0 2098.5 2196.5Q2065 2198.0 2051 2200.0Q2038 2201.0 2023.0 2204.0Q2008 2207.0 1998 2210.0Q1990 2212.0 1980.0 2216.5Q1970 2221.0 1962 2225.0Q1960 2225.0 1953.0 2222.5Q1946 2220.0 1941 2218.0Q1934 2215.0 1925.5 2211.0Q1917 2207.0 1906 2202.0Q1897 2197.0 1886.0 2191.5Q1875 2186.0 1867 2181.0Q1860 2176.0 1852.5 2170.0Q1845 2164.0 1845 2159.0Q1845 2154.0 1849.0 2151.5Q1853 2149.0 1859 2150.0Z"/>
  <path d="M3479 1819.0Q3490 1819.0 3500.0 1816.5Q3510 1814.0 3519 1808.0Q3526 1803.0 3531.0 1798.0Q3536 1793.0 3538 1789.0Q3549 1790.0 3563.5 1791.0Q3578 1792.0 3588 1794.0Q3605 1796.0 3617.5 1803.5Q3630 1811.0 3630 1827.0Q3630 1840.0 3623.5 1845.5Q3617 1851.0 3605 1851.0H3466V2084.0Q3466 2104.0 3465.0 2133.5Q3464 2163.0 3463 2180.0Q3462 2210.0 3460.0 2230.5Q3458 2251.0 3456 2260.0Q3454 2273.0 3451.5 2282.0Q3449 2291.0 3447 2296.0Q3445 2301.0 3441.5 2305.5Q3438 2310.0 3433 2310.0Q3429 2310.0 3426.0 2305.5Q3423 2301.0 3421 2297.0Q3420 2292.0 3418.5 2285.5Q3417 2279.0 3416 2272.0Q3415 2258.0 3414.5 2248.0Q3414 2238.0 3413 2220.0Q3412 2198.0 3412.0 2162.0Q3412 2126.0 3412 2114.0V1476.0Q3412 1466.0 3410.0 1458.0Q3408 1450.0 3404 1444.0Q3400 1439.0 3395.0 1433.5Q3390 1428.0 3383 1424.0Q3376 1419.0 3368.5 1415.0Q3361 1411.0 3353 1407.0Q3346 1404.0 3337.5 1400.5Q3329 1397.0 3323 1395.0Q3317 1393.0 3310.5 1390.0Q3304 1387.0 3304 1382.0Q3304 1376.0 3312.0 1373.0Q3320 1370.0 3330 1370.0Q3336 1370.0 3354.5 1372.5Q3373 1375.0 3390 1380.0Q3402 1383.0 3418.0 1387.5Q3434 1392.0 3448 1397.0Q3458 1401.0 3466.5 1406.0Q3475 1411.0 3475 1419.0Q3475 1423.0 3473.0 1428.5Q3471 1434.0 3469 1441.0Q3468 1447.0 3467.0 1457.0Q3466 1467.0 3466 1472.0V1819.0ZM2830 1825.0Q2830 1816.0 2826.0 1809.0Q2822 1802.0 2813 1798.0Q2802 1792.0 2790.5 1788.0Q2779 1784.0 2769 1782.0Q2765 1781.0 2757.5 1778.5Q2750 1776.0 2750 1771.0Q2750 1764.0 2760.5 1759.5Q2771 1755.0 2785 1755.0Q2799 1755.0 2821.0 1756.5Q2843 1758.0 2854 1760.0Q2865 1761.0 2878.0 1765.0Q2891 1769.0 2892 1773.0H3137L3152 1762.0V1542.0H3000Q2957 1542.0 2932.5 1546.0Q2908 1550.0 2898 1553.0Q2889 1556.0 2880.0 1560.0Q2871 1564.0 2866 1567.0Q2863 1567.0 2851.5 1562.0Q2840 1557.0 2832 1553.0Q2822 1548.0 2812.0 1542.5Q2802 1537.0 2791 1531.0Q2785 1527.0 2777.5 1521.0Q2770 1515.0 2770 1510.0Q2770 1506.0 2773.5 1503.5Q2777 1501.0 2783 1502.0Q2793 1503.0 2807.0 1504.5Q2821 1506.0 2833 1507.0Q2850 1508.0 2880.5 1509.0Q2911 1510.0 2939 1510.0H3136L3155 1496.0Q3171 1497.0 3182.0 1497.5Q3193 1498.0 3200 1499.0Q3214 1500.0 3219.5 1503.5Q3225 1507.0 3225 1513.0Q3225 1518.0 3220.0 1530.0Q3215 1542.0 3212 1553.0L3190 1762.0Q3200 1768.0 3209.5 1776.0Q3219 1784.0 3219 1792.0Q3219 1800.0 3213.0 1802.5Q3207 1805.0 3195 1805.0H2884V2080.0Q2913 2078.0 2941.0 2074.5Q2969 2071.0 3002 2067.0Q3029 2063.0 3063.5 2058.5Q3098 2054.0 3125 2050.0Q3151 2045.0 3186.0 2039.5Q3221 2034.0 3249 2029.0Q3272 2024.0 3299.5 2018.0Q3327 2012.0 3345 2008.0Q3357 2004.0 3360.0 2015.0Q3363 2026.0 3351 2031.0Q3335 2038.0 3303.5 2047.0Q3272 2056.0 3251 2062.0Q3225 2069.0 3186.0 2078.0Q3147 2087.0 3122 2093.0Q3092 2100.0 3057.0 2107.5Q3022 2115.0 2997 2120.0Q2967 2126.0 2935.0 2131.5Q2903 2137.0 2880 2140.0Q2871 2140.0 2850.5 2122.5Q2830 2105.0 2830 2095.0Z"/>
  <path d="M4411 1857.0Q4411 1873.0 4410.5 1898.0Q4410 1923.0 4409 1940.0Q4408 1958.0 4407.0 1979.0Q4406 2000.0 4405 2006.0Q4404 2013.0 4402.5 2024.5Q4401 2036.0 4399 2047.0Q4398 2056.0 4395.0 2063.5Q4392 2071.0 4390 2076.0Q4388 2080.0 4385.0 2082.5Q4382 2085.0 4379 2085.0Q4374 2085.0 4371.5 2081.0Q4369 2077.0 4367 2073.0Q4366 2069.0 4364.5 2063.0Q4363 2057.0 4362 2051.0Q4361 2044.0 4360.5 2035.5Q4360 2027.0 4359 2015.0Q4358 1998.0 4357.5 1970.0Q4357 1942.0 4357 1926.0V1475.0Q4357 1465.0 4354.5 1456.5Q4352 1448.0 4348 1443.0Q4344 1438.0 4339.0 1433.0Q4334 1428.0 4328 1424.0Q4321 1419.0 4312.5 1414.5Q4304 1410.0 4298 1407.0Q4291 1404.0 4283.0 1400.5Q4275 1397.0 4269 1395.0Q4264 1393.0 4257.0 1390.0Q4250 1387.0 4250 1382.0Q4250 1376.0 4258.0 1373.0Q4266 1370.0 4276 1370.0Q4282 1370.0 4302.0 1373.0Q4322 1376.0 4338 1380.0Q4351 1383.0 4364.5 1387.0Q4378 1391.0 4392 1396.0Q4402 1400.0 4411.0 1405.0Q4420 1410.0 4420 1418.0Q4420 1422.0 4418.0 1428.0Q4416 1434.0 4414 1441.0Q4413 1447.0 4412.0 1457.0Q4411 1467.0 4411 1472.0ZM3920 2035.0Q3927 2037.0 3934.0 2041.5Q3941 2046.0 3941 2052.0Q3941 2059.0 3938.5 2067.0Q3936 2075.0 3936 2094.0V2213.0Q3936 2231.0 3949.0 2236.5Q3962 2242.0 3987 2242.0H4202Q4237 2242.0 4258.5 2240.0Q4280 2238.0 4292 2234.0Q4304 2230.0 4312.5 2225.0Q4321 2220.0 4326 2215.0Q4346 2216.0 4369.5 2217.5Q4393 2219.0 4415 2221.0Q4449 2225.0 4462.5 2232.0Q4476 2239.0 4476 2255.0Q4476 2265.0 4470.5 2270.0Q4465 2275.0 4455 2275.0H3978Q3940 2275.0 3910.0 2265.0Q3880 2255.0 3880 2212.0V2096.0Q3880 2087.0 3875.5 2080.5Q3871 2074.0 3866 2070.0Q3862 2066.0 3853.5 2061.5Q3845 2057.0 3838 2054.0Q3828 2049.0 3818.0 2045.5Q3808 2042.0 3801 2040.0Q3796 2038.0 3789.0 2036.0Q3782 2034.0 3782 2030.0Q3782 2023.0 3790.0 2019.0Q3798 2015.0 3811 2015.0Q3818 2015.0 3836.0 2017.5Q3854 2020.0 3866 2022.0Q3879 2024.0 3895.0 2028.0Q3911 2032.0 3920 2035.0ZM3901 1461.0Q3909 1457.0 3913.5 1452.5Q3918 1448.0 3919 1444.0Q3919 1438.0 3916.0 1433.5Q3913 1429.0 3908 1425.0Q3904 1420.0 3898.0 1416.5Q3892 1413.0 3893 1410.0Q3895 1405.0 3900.0 1403.5Q3905 1402.0 3910 1403.0Q3919 1404.0 3929.5 1407.5Q3940 1411.0 3947 1414.0Q3955 1417.0 3963.5 1422.0Q3972 1427.0 3972 1434.0Q3970 1441.0 3966.5 1447.0Q3963 1453.0 3960 1459.0Q3984 1460.0 4006.0 1465.0Q4028 1470.0 4040 1475.0Q4061 1483.0 4078.5 1493.0Q4096 1503.0 4109 1517.0Q4126 1533.0 4138.0 1552.0Q4150 1571.0 4157 1588.0Q4166 1610.0 4170.5 1637.0Q4175 1664.0 4175 1689.0Q4175 1714.0 4170.5 1740.5Q4166 1767.0 4157 1790.0Q4150 1806.0 4138.0 1825.0Q4126 1844.0 4109 1861.0Q4096 1874.0 4078.5 1884.5Q4061 1895.0 4040 1903.0Q4025 1909.0 3996.5 1914.5Q3968 1920.0 3938 1920.0Q3908 1920.0 3879.5 1914.5Q3851 1909.0 3836 1903.0Q3815 1895.0 3798.0 1884.5Q3781 1874.0 3767 1861.0Q3750 1844.0 3738.0 1825.0Q3726 1806.0 3719 1790.0Q3710 1767.0 3705.5 1740.5Q3701 1714.0 3701 1689.0Q3701 1664.0 3705.5 1637.0Q3710 1610.0 3719 1588.0Q3726 1571.0 3738.0 1552.0Q3750 1533.0 3767 1517.0Q3781 1503.0 3798.0 1493.0Q3815 1483.0 3836 1475.0Q3847 1470.0 3864.0 1466.0Q3881 1462.0 3901 1461.0ZM3938 1885.0Q3961 1885.0 3983.5 1880.5Q4006 1876.0 4022 1868.0Q4039 1860.0 4051.5 1848.5Q4064 1837.0 4074 1826.0Q4087 1812.0 4095.5 1793.0Q4104 1774.0 4108 1762.0Q4113 1747.0 4115.5 1727.0Q4118 1707.0 4118 1688.0Q4118 1670.0 4115.5 1649.5Q4113 1629.0 4108 1614.0Q4104 1602.0 4095.5 1583.0Q4087 1564.0 4074 1550.0Q4064 1539.0 4051.5 1527.5Q4039 1516.0 4022 1508.0Q4006 1500.0 3983.5 1495.5Q3961 1491.0 3938 1491.0Q3915 1491.0 3892.5 1495.5Q3870 1500.0 3854 1508.0Q3838 1516.0 3825.0 1527.5Q3812 1539.0 3802 1550.0Q3789 1564.0 3780.5 1583.0Q3772 1602.0 3768 1614.0Q3764 1629.0 3761.0 1649.5Q3758 1670.0 3758 1688.0Q3758 1707.0 3761.0 1727.0Q3764 1747.0 3768 1762.0Q3772 1774.0 3780.5 1793.0Q3789 1812.0 3802 1826.0Q3812 1837.0 3825.0 1848.5Q3838 1860.0 3854 1868.0Q3870 1876.0 3892.5 1880.5Q3915 1885.0 3938 1885.0Z"/>
</svg>